  0
SECTION
  2
HEADER
  9
$ACADVER
  1
AC1018
  9
$ACADMAINTVER
 70
     0
  9
$DWGCODEPAGE
  3
ANSI_1252
  9
$EXTMIN
 10
525896.760424927
 20
4167815.64225401
 30
0.0
  9
$EXTMAX
 10
526585.09839541
 20
4168186.19829083
 30
0.0
  9
$LIMMIN
 10
0.0
 20
0.0
  9
$LIMMAX
 10
12.0
 20
9.0
  9
$ORTHOMODE
 70
     0
  9
$REGENMODE
 70
     1
  9
$FILLMODE
 70
     1
  9
$QTEXTMODE
 70
     0
  9
$MIRRTEXT
 70
     1
  9
$LTSCALE
 40
1.0
  9
$ATTMODE
 70
     1
  9
$TEXTSIZE
 40
0.2
  9
$TRACEWID
 40
0.05
  9
$TEXTSTYLE
  7
Standard
  9
$CLAYER
  8
0
  9
$CELTYPE
  6
ByLayer
  9
$CECOLOR
 62
   256
  9
$CELTSCALE
 40
1.0
  9
$DISPSILH
 70
     0
  9
$LUNITS
 70
     2
  9
$LUPREC
 70
     4
  9
$SKETCHINC
 40
0.1
  9
$FILLETRAD
 40
0.5
  9
$AUNITS
 70
     0
  9
$AUPREC
 70
     0
  9
$MENU
  1
.
  9
$ELEVATION
 40
0.0
  9
$PELEVATION
 40
0.0
  9
$THICKNESS
 40
0.0
  9
$LIMCHECK
 70
     0
  9
$CHAMFERA
 40
0.5
  9
$CHAMFERB
 40
0.5
  9
$CHAMFERC
 40
1.0
  9
$CHAMFERD
 40
0.0
  9
$SKPOLY
 70
     0
  9
$ANGBASE
 50
0.0
  9
$ANGDIR
 70
     0
  9
$PDMODE
 70
     0
  9
$PDSIZE
 40
0.0
  9
$PLINEWID
 40
0.0
  9
$SPLFRAME
 70
     0
  9
$SPLINETYPE
 70
     6
  9
$SPLINESEGS
 70
     8
  9
$HANDSEED
  5
000200D6
  9
$SURFTAB1
 70
     6
  9
$SURFTAB2
 70
     6
  9
$SURFTYPE
 70
     6
  9
$SURFU
 70
     6
  9
$SURFV
 70
     6
  9
$UCSBASE
  2

  9
$UCSNAME
  2

  9
$UCSORG
 10
0.0
 20
0.0
 30
0.0
  9
$UCSXDIR
 10
1.0
 20
0.0
 30
0.0
  9
$UCSYDIR
 10
0.0
 20
1.0
 30
0.0
  9
$UCSORTHOREF
  2

  9
$UCSORTHOVIEW
 70
     0
  9
$UCSORGTOP
 10
0.0
 20
0.0
 30
0.0
  9
$UCSORGBOTTOM
 10
0.0
 20
0.0
 30
0.0
  9
$UCSORGLEFT
 10
0.0
 20
0.0
 30
0.0
  9
$UCSORGRIGHT
 10
0.0
 20
0.0
 30
0.0
  9
$UCSORGFRONT
 10
0.0
 20
0.0
 30
0.0
  9
$UCSORGBACK
 10
0.0
 20
0.0
 30
0.0
  9
$PUCSBASE
  2

  9
$PUCSNAME
  2

  9
$PUCSORG
 10
0.0
 20
0.0
 30
0.0
  9
$PUCSXDIR
 10
1.0
 20
0.0
 30
0.0
  9
$PUCSYDIR
 10
0.0
 20
1.0
 30
0.0
  9
$PUCSORTHOREF
  2

  9
$PUCSORTHOVIEW
 70
     0
  9
$PUCSORGTOP
 10
0.0
 20
0.0
 30
0.0
  9
$PUCSORGBOTTOM
 10
0.0
 20
0.0
 30
0.0
  9
$PUCSORGLEFT
 10
0.0
 20
0.0
 30
0.0
  9
$PUCSORGRIGHT
 10
0.0
 20
0.0
 30
0.0
  9
$PUCSORGFRONT
 10
0.0
 20
0.0
 30
0.0
  9
$PUCSORGBACK
 10
0.0
 20
0.0
 30
0.0
  9
$WORLDVIEW
 70
     1
  9
$SHADEDGE
 70
     3
  9
$SHADEDIF
 70
    70
  9
$TILEMODE
 70
     1
  9
$MAXACTVP
 70
    64
  9
$PINSBASE
 10
0.0
 20
0.0
 30
0.0
  9
$PLIMCHECK
 70
     0
  9
$PEXTMIN
 10
1.000000000000000E+20
 20
1.000000000000000E+20
 30
1.000000000000000E+20
  9
$PEXTMAX
 10
-1.000000000000000E+20
 20
-1.000000000000000E+20
 30
-1.000000000000000E+20
  9
$PLIMMIN
 10
0.0
 20
0.0
  9
$PLIMMAX
 10
12.0
 20
9.0
  9
$UNITMODE
 70
     0
  9
$VISRETAIN
 70
     1
  9
$PLINEGEN
 70
     0
  9
$PSLTSCALE
 70
     1
  9
$TREEDEPTH
 70
  3020
  9
$CMLSTYLE
  2
Standard
  9
$CMLJUST
 70
     0
  9
$CMLSCALE
 40
1.0
  9
$PROXYGRAPHICS
 70
     1
  9
$MEASUREMENT
 70
     0
  9
$CELWEIGHT
370
    -1
  9
$ENDCAPS
280
     0
  9
$JOINSTYLE
280
     0
  9
$LWDISPLAY
290
     0
  9
$INSUNITS
 70
     1
  9
$HYPERLINKBASE
  1

  9
$STYLESHEET
  1

  9
$XEDIT
290
     1
  9
$CEPSNTYPE
380
     0
  9
$PSTYLEMODE
290
     1
  9
$EXTNAMES
290
     1
  9
$PSVPSCALE
 40
0.0
  9
$OLESTARTUP
290
     0
  9
$SORTENTS
280
   127
  9
$INDEXCTL
280
     0
  9
$HIDETEXT
280
     1
  9
$XCLIPFRAME
290
     0
  9
$HALOGAP
280
     0
  9
$OBSCOLOR
 70
   257
  9
$OBSLTYPE
280
     0
  9
$INTERSECTIONDISPLAY
280
     0
  9
$INTERSECTIONCOLOR
 70
   257
  9
$DIMASSOC
280
     2
  9
$PROJECTNAME
  1

  0
ENDSEC
  0
SECTION
  2
CLASSES
  0
CLASS
  1
ACDBDICTIONARYWDFLT
  2
AcDbDictionaryWithDefault
  3
ObjectDBX Classes
 90
        0
 91
        4
280
     0
281
     0
  0
ENDSEC
  0
SECTION
  2
TABLES
  0
TABLE
  2
VPORT
  5
8
330
0
100
AcDbSymbolTable
 70
     1
  0
VPORT
  5
29
330
8
100
AcDbSymbolTableRecord
100
AcDbViewportTableRecord
  2
*Active
 70
     0
 10
0.0
 20
0.0
 11
1.0
 21
1.0
 12
80.25
 22
106.4409457059851
 13
0.0
 23
0.0
 14
0.5
 24
0.5
 15
0.5
 25
0.5
 16
0.0
 26
0.0
 36
1.0
 17
0.0
 27
0.0
 37
0.0
 40
113.3818914119703
 41
0.8863849310366128
 42
50.0
 43
0.0
 44
0.0
 50
0.0
 51
0.0
 71
     0
 72
  1000
 73
     1
 74
     3
 75
     0
 76
     0
 77
     0
 78
     0
281
     0
 65
     1
110
0.0
120
0.0
130
0.0
111
1.0
121
0.0
131
0.0
112
0.0
122
1.0
132
0.0
 79
     0
146
0.0
  0
ENDTAB
  0
TABLE
  2
LTYPE
  5
5
330
0
100
AcDbSymbolTable
 70
     1
  0
LTYPE
  5
14
330
5
100
AcDbSymbolTableRecord
100
AcDbLinetypeTableRecord
  2
ByBlock
 70
     0
  3

 72
    65
 73
     0
 40
0.0
  0
LTYPE
  5
15
330
5
100
AcDbSymbolTableRecord
100
AcDbLinetypeTableRecord
  2
ByLayer
 70
     0
  3

 72
    65
 73
     0
 40
0.0
  0
LTYPE
  5
16
330
5
100
AcDbSymbolTableRecord
100
AcDbLinetypeTableRecord
  2
Continuous
 70
     0
  3
Solid line
 72
    65
 73
     0
 40
0.0
  0
ENDTAB
  0
TABLE
  2
LAYER
  5
2
330
0
100
AcDbSymbolTable
 70
     1
  0
LAYER
  5
10
330
2
100
AcDbSymbolTableRecord
100
AcDbLayerTableRecord
  2
0
 70
     0
 62
     7
  6
Continuous
370
    -3
390
F
  0
ENDTAB
  0
TABLE
  2
STYLE
  5
3
330
0
100
AcDbSymbolTable
 70
     1
  0
STYLE
  5
11
330
3
100
AcDbSymbolTableRecord
100
AcDbTextStyleTableRecord
  2
Standard
 70
     0
 40
0.0
 41
1.0
 50
0.0
 71
     0
 42
0.2
  3
txt
  4

  0
ENDTAB
  0
TABLE
  2
VIEW
  5
6
330
0
100
AcDbSymbolTable
 70
     0
  0
ENDTAB
  0
TABLE
  2
UCS
  5
7
330
0
100
AcDbSymbolTable
 70
     0
  0
ENDTAB
  0
TABLE
  2
APPID
  5
9
330
0
100
AcDbSymbolTable
 70
     1
  0
APPID
  5
12
330
9
100
AcDbSymbolTableRecord
100
AcDbRegAppTableRecord
  2
ACAD
 70
     0
  0
ENDTAB
  0
TABLE
  2
DIMSTYLE
  5
A
330
0
100
AcDbSymbolTable
 70
     1
100
AcDbDimStyleTable
  0
DIMSTYLE
105
27
330
A
100
AcDbSymbolTableRecord
100
AcDbDimStyleTableRecord
  2
Standard
 70
     0
340
11
  0
ENDTAB
  0
TABLE
  2
BLOCK_RECORD
  5
1
330
0
100
AcDbSymbolTable
 70
     1
  0
BLOCK_RECORD
  5
1F
330
1
100
AcDbSymbolTableRecord
100
AcDbBlockTableRecord
  2
*Model_Space
340
22
  0
BLOCK_RECORD
  5
1B
330
1
100
AcDbSymbolTableRecord
100
AcDbBlockTableRecord
  2
*Paper_Space
340
1E
  0
ENDTAB
  0
ENDSEC
  0
SECTION
  2
BLOCKS
  0
BLOCK
  5
20
330
1F
100
AcDbEntity
  8
0
100
AcDbBlockBegin
  2
*Model_Space
 70
     0
 10
0.0
 20
0.0
 30
0.0
  3
*Model_Space
  1

  0
ENDBLK
  5
21
330
1F
100
AcDbEntity
  8
0
100
AcDbBlockEnd
  0
BLOCK
  5
1C
330
1B
100
AcDbEntity
 67
     1
  8
0
100
AcDbBlockBegin
  2
*Paper_Space
 70
     0
 10
0.0
 20
0.0
 30
0.0
  3
*Paper_Space
  1

  0
ENDBLK
  5
1D
330
1B
100
AcDbEntity
 67
     1
  8
0
100
AcDbBlockEnd
  0
ENDSEC
  0
SECTION
  2
ENTITIES
  0
LWPOLYLINE
  5
20000
100
AcDbEntity
  8
0
100
AcDbPolyline
 70
0
 90
2
 10
526084.037436052
 20
4168104.53531234
 10
526084.030446354
 20
4168075.39802189
  0
LWPOLYLINE
  5
20001
100
AcDbEntity
  8
0
100
AcDbPolyline
 70
0
 90
2
 10
526084.037436052
 20
4168104.53531234
 10
526045.484935314
 20
4168104.40184246
  0
LWPOLYLINE
  5
20002
100
AcDbEntity
  8
0
100
AcDbPolyline
 70
0
 90
2
 10
526084.037436052
 20
4168104.53531234
 10
526123.080250533
 20
4168104.67051045
  0
LWPOLYLINE
  5
20003
100
AcDbEntity
  8
0
100
AcDbPolyline
 70
0
 90
2
 10
526084.049265734
 20
4168154.56840375
 10
526084.037436052
 20
4168104.53531234
  0
LWPOLYLINE
  5
20004
100
AcDbEntity
  8
0
100
AcDbPolyline
 70
0
 90
2
 10
526084.030446354
 20
4168075.39802189
 10
526045.477819404
 20
4168075.2895159
  0
LWPOLYLINE
  5
20005
100
AcDbEntity
  8
0
100
AcDbPolyline
 70
0
 90
2
 10
526084.030446354
 20
4168075.39802189
 10
526123.221922661
 20
4168075.50828142
  0
LWPOLYLINE
  5
20006
100
AcDbEntity
  8
0
100
AcDbPolyline
 70
0
 90
2
 10
526084.049265734
 20
4168154.56840375
 10
526045.497085356
 20
4168154.43526569
  0
LWPOLYLINE
  5
20007
100
AcDbEntity
  8
0
100
AcDbPolyline
 70
0
 90
2
 10
526084.049265734
 20
4168154.56840375
 10
526122.837031811
 20
4168154.70246556
  0
LWPOLYLINE
  5
20008
100
AcDbEntity
  8
0
100
AcDbPolyline
 70
0
 90
2
 10
526045.484935314
 20
4168104.40184246
 10
526045.477819404
 20
4168075.2895159
  0
LWPOLYLINE
  5
20009
100
AcDbEntity
  8
0
100
AcDbPolyline
 70
0
 90
2
 10
526045.484935314
 20
4168104.40184246
 10
526005.690291892
 20
4168104.26398109
  0
LWPOLYLINE
  5
2000A
100
AcDbEntity
  8
0
100
AcDbPolyline
 70
0
 90
2
 10
526045.497085356
 20
4168154.43526569
 10
526045.484935314
 20
4168104.40184246
  0
LWPOLYLINE
  5
2000B
100
AcDbEntity
  8
0
100
AcDbPolyline
 70
0
 90
2
 10
526045.477819404
 20
4168075.2895159
 10
526005.682954642
 20
4168075.17750574
  0
LWPOLYLINE
  5
2000C
100
AcDbEntity
  8
0
100
AcDbPolyline
 70
0
 90
2
 10
526045.497085356
 20
4168154.43526569
 10
526005.702593756
 20
4168154.29762461
  0
LWPOLYLINE
  5
2000D
100
AcDbEntity
  8
0
100
AcDbPolyline
 70
0
 90
2
 10
526005.690291892
 20
4168104.26398109
 10
526005.682954642
 20
4168075.17750574
  0
LWPOLYLINE
  5
2000E
100
AcDbEntity
  8
0
100
AcDbPolyline
 70
0
 90
2
 10
526005.690291892
 20
4168104.26398109
 10
525967.066084748
 20
4168104.13031844
  0
LWPOLYLINE
  5
2000F
100
AcDbEntity
  8
0
100
AcDbPolyline
 70
0
 90
2
 10
526005.702593756
 20
4168154.29762461
 10
526005.690291892
 20
4168104.26398109
  0
LWPOLYLINE
  5
20010
100
AcDbEntity
  8
0
100
AcDbPolyline
 70
0
 90
2
 10
526005.682954642
 20
4168075.17750574
 10
525967.058709709
 20
4168075.06880725
  0
LWPOLYLINE
  5
20011
100
AcDbEntity
  8
0
100
AcDbPolyline
 70
0
 90
2
 10
526005.702593756
 20
4168154.29762461
 10
525967.078619559
 20
4168154.16418254
  0
LWPOLYLINE
  5
20012
100
AcDbEntity
  8
0
100
AcDbPolyline
 70
0
 90
2
 10
525967.066084748
 20
4168104.13031844
 10
525967.058709709
 20
4168075.06880725
  0
LWPOLYLINE
  5
20013
100
AcDbEntity
  8
0
100
AcDbPolyline
 70
0
 90
2
 10
525967.066084748
 20
4168104.13031844
 10
525927.438673431
 20
4168103.99302574
  0
LWPOLYLINE
  5
20014
100
AcDbEntity
  8
0
100
AcDbPolyline
 70
0
 90
2
 10
525967.078619559
 20
4168154.16418254
 10
525967.066084748
 20
4168104.13031844
  0
LWPOLYLINE
  5
20015
100
AcDbEntity
  8
0
100
AcDbPolyline
 70
0
 90
2
 10
525967.058709709
 20
4168075.06880725
 10
525927.431166331
 20
4168074.95736602
  0
LWPOLYLINE
  5
20016
100
AcDbEntity
  8
0
100
AcDbPolyline
 70
0
 90
2
 10
525967.078619559
 20
4168154.16418254
 10
525927.451535113
 20
4168154.02722163
  0
LWPOLYLINE
  5
20017
100
AcDbEntity
  8
0
100
AcDbPolyline
 70
0
 90
2
 10
525927.438673431
 20
4168103.99302574
 10
525927.431166331
 20
4168074.95736602
  0
LWPOLYLINE
  5
20018
100
AcDbEntity
  8
0
100
AcDbPolyline
 70
0
 90
2
 10
525927.438673431
 20
4168103.99302574
 10
525905.530619951
 20
4168103.91716972
  0
LWPOLYLINE
  5
20019
100
AcDbEntity
  8
0
100
AcDbPolyline
 70
0
 90
2
 10
525927.451535113
 20
4168154.02722163
 10
525927.438673431
 20
4168103.99302574
  0
LWPOLYLINE
  5
2001A
100
AcDbEntity
  8
0
100
AcDbPolyline
 70
0
 90
3
 10
525927.451535113
 20
4168154.02722163
 10
525896.767691562
 20
4168153.92110944
 10
525896.760424927
 20
4168126.04262759
  0
LWPOLYLINE
  5
2001B
100
AcDbEntity
  8
0
100
AcDbPolyline
 70
0
 90
2
 10
525905.536377799
 20
4168126.07266098
 10
525905.530619951
 20
4168103.91716972
  0
LWPOLYLINE
  5
2001C
100
AcDbEntity
  8
0
100
AcDbPolyline
 70
0
 90
2
 10
525905.536377799
 20
4168126.07266098
 10
525896.760424927
 20
4168126.04262759
  0
LWPOLYLINE
  5
2001D
100
AcDbEntity
  8
0
100
AcDbPolyline
 70
0
 90
2
 10
525968.795438203
 20
4167973.70011296
 10
525968.794261293
 20
4167969.18644848
  0
LWPOLYLINE
  5
2001E
100
AcDbEntity
  8
0
100
AcDbPolyline
 70
0
 90
2
 10
525968.801268112
 20
4167996.95996893
 10
525968.795438203
 20
4167973.70011296
  0
LWPOLYLINE
  5
2001F
100
AcDbEntity
  8
0
100
AcDbPolyline
 70
0
 90
3
 10
525945.302454207
 20
4167996.87968159
 10
525945.299164538
 20
4167984.12142063
 10
525968.795438203
 20
4167973.70011296
  0
LWPOLYLINE
  5
20020
100
AcDbEntity
  8
0
100
AcDbPolyline
 70
0
 90
2
 10
526007.391053844
 20
4167969.31880728
 10
525968.794261293
 20
4167969.18644848
  0
LWPOLYLINE
  5
20021
100
AcDbEntity
  8
0
100
AcDbPolyline
 70
0
 90
2
 10
525968.801268112
 20
4167996.95996893
 10
525945.302454207
 20
4167996.87968159
  0
LWPOLYLINE
  5
20022
100
AcDbEntity
  8
0
100
AcDbPolyline
 70
0
 90
2
 10
525968.814554051
 20
4168049.61927969
 10
525968.801268112
 20
4167996.95996893
  0
LWPOLYLINE
  5
20023
100
AcDbEntity
  8
0
100
AcDbPolyline
 70
0
 90
2
 10
526007.397932462
 20
4167997.09188466
 10
525968.801268112
 20
4167996.95996893
  0
LWPOLYLINE
  5
20024
100
AcDbEntity
  8
0
100
AcDbPolyline
 70
0
 90
3
 10
525968.814554051
 20
4168049.61927969
 10
525945.31587729
 20
4168049.4304852
 10
525945.302454207
 20
4167996.87968159
  0
LWPOLYLINE
  5
20025
100
AcDbEntity
  8
0
100
AcDbPolyline
 70
0
 90
2
 10
526007.410941656
 20
4168049.92937775
 10
525968.814554051
 20
4168049.61927969
  0
LWPOLYLINE
  5
20026
100
AcDbEntity
  8
0
100
AcDbPolyline
 70
0
 90
2
 10
526007.397932462
 20
4167997.09188466
 10
526007.391053844
 20
4167969.31880728
  0
LWPOLYLINE
  5
20027
100
AcDbEntity
  8
0
100
AcDbPolyline
 70
0
 90
2
 10
526007.410941656
 20
4168049.92937775
 10
526007.397932462
 20
4167997.09188466
  0
LWPOLYLINE
  5
20028
100
AcDbEntity
  8
0
100
AcDbPolyline
 70
0
 90
2
 10
526046.842491387
 20
4167997.22665043
 10
526007.397932462
 20
4167997.09188466
  0
LWPOLYLINE
  5
20029
100
AcDbEntity
  8
0
100
AcDbPolyline
 70
0
 90
2
 10
526016.409820177
 20
4167969.34983128
 10
526007.391053844
 20
4167969.31880728
  0
LWPOLYLINE
  5
2002A
100
AcDbEntity
  8
0
100
AcDbPolyline
 70
0
 90
2
 10
526046.855380917
 20
4168050.24620956
 10
526007.410941656
 20
4168049.92937775
  0
LWPOLYLINE
  5
2002B
100
AcDbEntity
  8
0
100
AcDbPolyline
 70
0
 90
2
 10
525945.302454207
 20
4167996.87968159
 10
525935.71745615
 20
4167996.84684846
  0
LWPOLYLINE
  5
2002C
100
AcDbEntity
  8
0
100
AcDbPolyline
 70
0
 90
2
 10
526016.409820177
 20
4167969.34983128
 10
526016.404290513
 20
4167947.43898186
  0
LWPOLYLINE
  5
2002D
100
AcDbEntity
  8
0
100
AcDbPolyline
 70
0
 90
2
 10
526123.997796818
 20
4167915.66422417
 10
526085.611734201
 20
4167915.53209889
  0
LWPOLYLINE
  5
2002E
100
AcDbEntity
  8
0
100
AcDbPolyline
 70
0
 90
2
 10
526123.997796818
 20
4167915.66422417
 10
526124.103319719
 20
4167893.92602565
  0
LWPOLYLINE
  5
2002F
100
AcDbEntity
  8
0
100
AcDbPolyline
 70
0
 90
2
 10
526123.841847709
 20
4167947.81132206
 10
526123.997796818
 20
4167915.66422417
  0
LWPOLYLINE
  5
20030
100
AcDbEntity
  8
0
100
AcDbPolyline
 70
0
 90
2
 10
526085.619465851
 20
4167947.67893579
 10
526085.611734201
 20
4167915.53209889
  0
LWPOLYLINE
  5
20031
100
AcDbEntity
  8
0
100
AcDbPolyline
 70
0
 90
2
 10
526046.842491387
 20
4167997.22665043
 10
526046.830379106
 20
4167947.5443869
  0
LWPOLYLINE
  5
20032
100
AcDbEntity
  8
0
100
AcDbPolyline
 70
0
 90
2
 10
526046.842491387
 20
4167997.22665043
 10
526085.631263247
 20
4167997.35920331
  0
LWPOLYLINE
  5
20033
100
AcDbEntity
  8
0
100
AcDbPolyline
 70
0
 90
2
 10
526046.855380917
 20
4168050.24620956
 10
526046.842491387
 20
4167997.22665043
  0
LWPOLYLINE
  5
20034
100
AcDbEntity
  8
0
100
AcDbPolyline
 70
0
 90
2
 10
526046.830379106
 20
4167947.5443869
 10
526016.404290513
 20
4167947.43898186
  0
LWPOLYLINE
  5
20035
100
AcDbEntity
  8
0
100
AcDbPolyline
 70
0
 90
2
 10
526046.830379106
 20
4167947.5443869
 10
526085.619465851
 20
4167947.67893579
  0
LWPOLYLINE
  5
20036
100
AcDbEntity
  8
0
100
AcDbPolyline
 70
0
 90
2
 10
526085.643780784
 20
4168050.55772115
 10
526046.855380917
 20
4168050.24620956
  0
LWPOLYLINE
  5
20037
100
AcDbEntity
  8
0
100
AcDbPolyline
 70
0
 90
2
 10
526085.631263247
 20
4167997.35920331
 10
526085.619465851
 20
4167947.67893579
  0
LWPOLYLINE
  5
20038
100
AcDbEntity
  8
0
100
AcDbPolyline
 70
0
 90
2
 10
526123.841847709
 20
4167947.81132206
 10
526085.619465851
 20
4167947.67893579
  0
LWPOLYLINE
  5
20039
100
AcDbEntity
  8
0
100
AcDbPolyline
 70
0
 90
2
 10
526085.643780784
 20
4168050.55772115
 10
526085.631263247
 20
4167997.35920331
  0
LWPOLYLINE
  5
2003A
100
AcDbEntity
  8
0
100
AcDbPolyline
 70
0
 90
2
 10
526123.60080844
 20
4167997.48890696
 10
526085.631263247
 20
4167997.35920331
  0
LWPOLYLINE
  5
2003B
100
AcDbEntity
  8
0
100
AcDbPolyline
 70
0
 90
2
 10
526085.643780784
 20
4168050.55772115
 10
526123.341574844
 20
4168050.86053376
  0
LWPOLYLINE
  5
2003C
100
AcDbEntity
  8
0
100
AcDbPolyline
 70
0
 90
2
 10
526585.09839541
 20
4168106.26940761
 10
526570.981540286
 20
4168106.22060682
  0
LWPOLYLINE
  5
2003D
100
AcDbEntity
  8
0
100
AcDbPolyline
 70
0
 90
3
 10
526585.09839541
 20
4168106.26940761
 10
526585.089219369
 20
4168054.56876577
 10
526570.972218469
 20
4168054.45550498
  0
LWPOLYLINE
  5
2003E
100
AcDbEntity
  8
0
100
AcDbPolyline
 70
0
 90
2
 10
526570.972218469
 20
4168054.45550498
 10
526530.457383154
 20
4168054.13018842
  0
LWPOLYLINE
  5
2003F
100
AcDbEntity
  8
0
100
AcDbPolyline
 70
0
 90
3
 10
526570.972218469
 20
4168054.45550498
 10
526570.967271674
 20
4168027.32979157
 10
526530.452420524
 20
4168027.18798277
  0
LWPOLYLINE
  5
20040
100
AcDbEntity
  8
0
100
AcDbPolyline
 70
0
 90
2
 10
526570.981540286
 20
4168106.22060682
 10
526570.972218469
 20
4168054.45550498
  0
LWPOLYLINE
  5
20041
100
AcDbEntity
  8
0
100
AcDbPolyline
 70
0
 90
2
 10
526570.981540286
 20
4168106.22060682
 10
526530.466805616
 20
4168106.08045919
  0
LWPOLYLINE
  5
20042
100
AcDbEntity
  8
0
100
AcDbPolyline
 70
0
 90
3
 10
526530.452420524
 20
4168027.18798277
 10
526530.447079718
 20
4167998.87835319
 10
526489.495122808
 20
4167998.73856169
  0
LWPOLYLINE
  5
20043
100
AcDbEntity
  8
0
100
AcDbPolyline
 70
0
 90
2
 10
526530.457383154
 20
4168054.13018842
 10
526530.452420524
 20
4168027.18798277
  0
LWPOLYLINE
  5
20044
100
AcDbEntity
  8
0
100
AcDbPolyline
 70
0
 90
2
 10
526530.457383154
 20
4168054.13018842
 10
526489.505511417
 20
4168053.80134082
  0
LWPOLYLINE
  5
20045
100
AcDbEntity
  8
0
100
AcDbPolyline
 70
0
 90
2
 10
526530.466805616
 20
4168106.08045919
 10
526530.457383154
 20
4168054.13018842
  0
LWPOLYLINE
  5
20046
100
AcDbEntity
  8
0
100
AcDbPolyline
 70
0
 90
2
 10
526530.466805616
 20
4168106.08045919
 10
526489.515208745
 20
4168105.93888903
  0
LWPOLYLINE
  5
20047
100
AcDbEntity
  8
0
100
AcDbPolyline
 70
0
 90
2
 10
526489.485510361
 20
4167949.07836132
 10
526489.475132129
 20
4167895.19407165
  0
LWPOLYLINE
  5
20048
100
AcDbEntity
  8
0
100
AcDbPolyline
 70
0
 90
2
 10
526489.485510361
 20
4167949.07836132
 10
526448.097325902
 20
4167948.93505004
  0
LWPOLYLINE
  5
20049
100
AcDbEntity
  8
0
100
AcDbPolyline
 70
0
 90
2
 10
526489.495122808
 20
4167998.73856169
 10
526489.485510361
 20
4167949.07836132
  0
LWPOLYLINE
  5
2004A
100
AcDbEntity
  8
0
100
AcDbPolyline
 70
0
 90
2
 10
526512.494764292
 20
4167949.15806957
 10
526489.485510361
 20
4167949.07836132
  0
LWPOLYLINE
  5
2004B
100
AcDbEntity
  8
0
100
AcDbPolyline
 70
0
 90
2
 10
526489.475132129
 20
4167895.19407165
 10
526448.112346482
 20
4167895.05051111
  0
LWPOLYLINE
  5
2004C
100
AcDbEntity
  8
0
100
AcDbPolyline
 70
0
 90
3
 10
526512.494764292
 20
4167949.15806957
 10
526512.484712002
 20
4167895.27389057
 10
526489.475132129
 20
4167895.19407165
  0
LWPOLYLINE
  5
2004D
100
AcDbEntity
  8
0
100
AcDbPolyline
 70
0
 90
2
 10
526489.495122808
 20
4167998.73856169
 10
526448.083453868
 20
4167998.59717019
  0
LWPOLYLINE
  5
2004E
100
AcDbEntity
  8
0
100
AcDbPolyline
 70
0
 90
2
 10
526489.505511417
 20
4168053.80134082
 10
526489.495122808
 20
4167998.73856169
  0
LWPOLYLINE
  5
2004F
100
AcDbEntity
  8
0
100
AcDbPolyline
 70
0
 90
2
 10
526489.505511417
 20
4168053.80134082
 10
526448.067916244
 20
4168053.46859108
  0
LWPOLYLINE
  5
20050
100
AcDbEntity
  8
0
100
AcDbPolyline
 70
0
 90
2
 10
526489.515208745
 20
4168105.93888903
 10
526489.505511417
 20
4168053.80134082
  0
LWPOLYLINE
  5
20051
100
AcDbEntity
  8
0
100
AcDbPolyline
 70
0
 90
2
 10
526489.515208745
 20
4168105.93888903
 10
526448.053101935
 20
4168105.79544543
  0
LWPOLYLINE
  5
20052
100
AcDbEntity
  8
0
100
AcDbPolyline
 70
0
 90
2
 10
526489.524507055
 20
4168155.96899829
 10
526489.515208745
 20
4168105.93888903
  0
LWPOLYLINE
  5
20053
100
AcDbEntity
  8
0
100
AcDbPolyline
 70
0
 90
3
 10
526562.884974649
 20
4168186.19829083
 10
526504.820962111
 20
4168129.15901849
 10
526489.515208745
 20
4168105.93888903
  0
LWPOLYLINE
  5
20054
100
AcDbEntity
  8
0
100
AcDbPolyline
 70
0
 90
2
 10
526489.524507055
 20
4168155.96899829
 10
526448.038747444
 20
4168155.8258097
  0
LWPOLYLINE
  5
20055
100
AcDbEntity
  8
0
100
AcDbPolyline
 70
0
 90
2
 10
526561.055999609
 20
4167949.3261754
 10
526512.494764292
 20
4167949.15806957
  0
LWPOLYLINE
  5
20056
100
AcDbEntity
  8
0
100
AcDbPolyline
 70
0
 90
2
 10
526328.141513587
 20
4167867.06525714
 10
526287.857066588
 20
4167866.92548758
  0
LWPOLYLINE
  5
20057
100
AcDbEntity
  8
0
100
AcDbPolyline
 70
0
 90
2
 10
526328.147351363
 20
4167894.63430447
 10
526328.141513587
 20
4167867.06525714
  0
LWPOLYLINE
  5
20058
100
AcDbEntity
  8
0
100
AcDbPolyline
 70
0
 90
3
 10
526368.903467562
 20
4167894.77577496
 10
526368.897677417
 20
4167867.20672659
 10
526328.141513587
 20
4167867.06525714
  0
LWPOLYLINE
  5
20059
100
AcDbEntity
  8
0
100
AcDbPolyline
 70
0
 90
3
 10
526287.857066588
 20
4167866.92548758
 10
526287.851945753
 20
4167843.39037092
 10
526247.682843834
 20
4167843.25127549
  0
LWPOLYLINE
  5
2005A
100
AcDbEntity
  8
0
100
AcDbPolyline
 70
0
 90
2
 10
526287.863127184
 20
4167894.49442349
 10
526287.857066588
 20
4167866.92548758
  0
LWPOLYLINE
  5
2005B
100
AcDbEntity
  8
0
100
AcDbPolyline
 70
0
 90
2
 10
526203.717687624
 20
4167843.09912887
 10
526247.682843834
 20
4167843.25127549
  0
LWPOLYLINE
  5
2005C
100
AcDbEntity
  8
0
100
AcDbPolyline
 70
0
 90
3
 10
526203.717687624
 20
4167843.09912887
 10
526203.711395744
 20
4167815.90386667
 10
526219.957775983
 20
4167815.64225401
  0
LWPOLYLINE
  5
2005D
100
AcDbEntity
  8
0
100
AcDbPolyline
 70
0
 90
2
 10
526203.729302744
 20
4167894.2025126
 10
526203.717687624
 20
4167843.09912887
  0
LWPOLYLINE
  5
2005E
100
AcDbEntity
  8
0
100
AcDbPolyline
 70
0
 90
2
 10
526247.369772014
 20
4167894.35396416
 10
526247.682843834
 20
4167843.25127549
  0
LWPOLYLINE
  5
2005F
100
AcDbEntity
  8
0
100
AcDbPolyline
 70
0
 90
2
 10
526164.093556644
 20
4167894.06484489
 10
526124.103319719
 20
4167893.92602565
  0
LWPOLYLINE
  5
20060
100
AcDbEntity
  8
0
100
AcDbPolyline
 70
0
 90
2
 10
526203.729302744
 20
4167894.2025126
 10
526164.093556644
 20
4167894.06484489
  0
LWPOLYLINE
  5
20061
100
AcDbEntity
  8
0
100
AcDbPolyline
 70
0
 90
2
 10
526163.70057814
 20
4167947.94950439
 10
526164.093556644
 20
4167894.06484489
  0
LWPOLYLINE
  5
20062
100
AcDbEntity
  8
0
100
AcDbPolyline
 70
0
 90
2
 10
526203.729302744
 20
4167894.2025126
 10
526247.369772014
 20
4167894.35396416
  0
LWPOLYLINE
  5
20063
100
AcDbEntity
  8
0
100
AcDbPolyline
 70
0
 90
2
 10
526203.738734509
 20
4167935.88670488
 10
526203.729302744
 20
4167894.2025126
  0
LWPOLYLINE
  5
20064
100
AcDbEntity
  8
0
100
AcDbPolyline
 70
0
 90
2
 10
526287.863127184
 20
4167894.49442349
 10
526247.369772014
 20
4167894.35396416
  0
LWPOLYLINE
  5
20065
100
AcDbEntity
  8
0
100
AcDbPolyline
 70
0
 90
2
 10
526247.114803458
 20
4167935.95732653
 10
526247.369772014
 20
4167894.35396416
  0
LWPOLYLINE
  5
20066
100
AcDbEntity
  8
0
100
AcDbPolyline
 70
0
 90
2
 10
526328.147351363
 20
4167894.63430447
 10
526287.863127184
 20
4167894.49442349
  0
LWPOLYLINE
  5
20067
100
AcDbEntity
  8
0
100
AcDbPolyline
 70
0
 90
2
 10
526287.872097964
 20
4167936.02373584
 10
526287.863127184
 20
4167894.49442349
  0
LWPOLYLINE
  5
20068
100
AcDbEntity
  8
0
100
AcDbPolyline
 70
0
 90
2
 10
526368.903467562
 20
4167894.77577496
 10
526328.147351363
 20
4167894.63430447
  0
LWPOLYLINE
  5
20069
100
AcDbEntity
  8
0
100
AcDbPolyline
 70
0
 90
2
 10
526328.158865902
 20
4167948.51947611
 10
526328.147351363
 20
4167894.63430447
  0
LWPOLYLINE
  5
2006A
100
AcDbEntity
  8
0
100
AcDbPolyline
 70
0
 90
2
 10
526368.903467562
 20
4167894.77577496
 10
526408.870071925
 20
4167894.91437088
  0
LWPOLYLINE
  5
2006B
100
AcDbEntity
  8
0
100
AcDbPolyline
 70
0
 90
2
 10
526368.914629105
 20
4167948.66072591
 10
526368.903467562
 20
4167894.77577496
  0
LWPOLYLINE
  5
2006C
100
AcDbEntity
  8
0
100
AcDbPolyline
 70
0
 90
2
 10
526448.112346482
 20
4167895.05051111
 10
526408.870071925
 20
4167894.91437088
  0
LWPOLYLINE
  5
2006D
100
AcDbEntity
  8
0
100
AcDbPolyline
 70
0
 90
2
 10
526408.881061671
 20
4167948.79921263
 10
526408.870071925
 20
4167894.91437088
  0
LWPOLYLINE
  5
2006E
100
AcDbEntity
  8
0
100
AcDbPolyline
 70
0
 90
2
 10
526448.112346482
 20
4167895.05051111
 10
526448.117396454
 20
4167876.86373959
  0
LWPOLYLINE
  5
2006F
100
AcDbEntity
  8
0
100
AcDbPolyline
 70
0
 90
2
 10
526448.097325902
 20
4167948.93505004
 10
526448.112346482
 20
4167895.05051111
  0
LWPOLYLINE
  5
20070
100
AcDbEntity
  8
0
100
AcDbPolyline
 70
0
 90
2
 10
526268.665834268
 20
4167832.03644772
 10
526448.117396454
 20
4167876.86373959
  0
LWPOLYLINE
  5
20071
100
AcDbEntity
  8
0
100
AcDbPolyline
 70
0
 90
2
 10
526448.097325902
 20
4167948.93505004
 10
526408.881061671
 20
4167948.79921263
  0
LWPOLYLINE
  5
20072
100
AcDbEntity
  8
0
100
AcDbPolyline
 70
0
 90
2
 10
526448.083453868
 20
4167998.59717019
 10
526448.097325902
 20
4167948.93505004
  0
LWPOLYLINE
  5
20073
100
AcDbEntity
  8
0
100
AcDbPolyline
 70
0
 90
2
 10
526448.067916244
 20
4168053.46859108
 10
526448.083453868
 20
4167998.59717019
  0
LWPOLYLINE
  5
20074
100
AcDbEntity
  8
0
100
AcDbPolyline
 70
0
 90
2
 10
526408.891057441
 20
4167998.46329313
 10
526448.083453868
 20
4167998.59717019
  0
LWPOLYLINE
  5
20075
100
AcDbEntity
  8
0
100
AcDbPolyline
 70
0
 90
2
 10
526448.053101935
 20
4168105.79544543
 10
526448.067916244
 20
4168053.46859108
  0
LWPOLYLINE
  5
20076
100
AcDbEntity
  8
0
100
AcDbPolyline
 70
0
 90
2
 10
526408.901935513
 20
4168053.15406327
 10
526448.067916244
 20
4168053.46859108
  0
LWPOLYLINE
  5
20077
100
AcDbEntity
  8
0
100
AcDbPolyline
 70
0
 90
2
 10
526448.038747444
 20
4168155.8258097
 10
526448.053101935
 20
4168105.79544543
  0
LWPOLYLINE
  5
20078
100
AcDbEntity
  8
0
100
AcDbPolyline
 70
0
 90
2
 10
526408.91219972
 20
4168105.65995341
 10
526448.053101935
 20
4168105.79544543
  0
LWPOLYLINE
  5
20079
100
AcDbEntity
  8
0
100
AcDbPolyline
 70
0
 90
2
 10
526408.921983448
 20
4168155.69072562
 10
526448.038747444
 20
4168155.8258097
  0
LWPOLYLINE
  5
2007A
100
AcDbEntity
  8
0
100
AcDbPolyline
 70
0
 90
2
 10
525900.909277717
 20
4168032.2486177
 10
525935.71745615
 20
4167996.84684846
  0
LWPOLYLINE
  5
2007B
100
AcDbEntity
  8
0
100
AcDbPolyline
 70
0
 90
2
 10
526123.60080844
 20
4167997.48890696
 10
526123.841847709
 20
4167947.81132206
  0
LWPOLYLINE
  5
2007C
100
AcDbEntity
  8
0
100
AcDbPolyline
 70
0
 90
2
 10
526163.338203242
 20
4167997.62470932
 10
526123.60080844
 20
4167997.48890696
  0
LWPOLYLINE
  5
2007D
100
AcDbEntity
  8
0
100
AcDbPolyline
 70
0
 90
2
 10
526123.453000968
 20
4168027.92367665
 10
526123.60080844
 20
4167997.48890696
  0
LWPOLYLINE
  5
2007E
100
AcDbEntity
  8
0
100
AcDbPolyline
 70
0
 90
2
 10
526163.338203242
 20
4167997.62470932
 10
526163.70057814
 20
4167947.94950439
  0
LWPOLYLINE
  5
2007F
100
AcDbEntity
  8
0
100
AcDbPolyline
 70
0
 90
2
 10
526204.100692269
 20
4167997.76394999
 10
526163.338203242
 20
4167997.62470932
  0
LWPOLYLINE
  5
20080
100
AcDbEntity
  8
0
100
AcDbPolyline
 70
0
 90
2
 10
526163.116066991
 20
4168028.06057581
 10
526163.338203242
 20
4167997.62470932
  0
LWPOLYLINE
  5
20081
100
AcDbEntity
  8
0
100
AcDbPolyline
 70
0
 90
2
 10
526204.100692269
 20
4167997.76394999
 10
526246.735110741
 20
4167997.90955306
  0
LWPOLYLINE
  5
20082
100
AcDbEntity
  8
0
100
AcDbPolyline
 70
0
 90
2
 10
526204.100692269
 20
4167997.76394999
 10
526204.183348018
 20
4167948.08985567
  0
LWPOLYLINE
  5
20083
100
AcDbEntity
  8
0
100
AcDbPolyline
 70
0
 90
2
 10
526204.050043282
 20
4168028.20191318
 10
526204.100692269
 20
4167997.76394999
  0
LWPOLYLINE
  5
20084
100
AcDbEntity
  8
0
100
AcDbPolyline
 70
0
 90
2
 10
526246.735110741
 20
4167997.90955306
 10
526247.039582464
 20
4167948.23837978
  0
LWPOLYLINE
  5
20085
100
AcDbEntity
  8
0
100
AcDbPolyline
 70
0
 90
2
 10
526287.924591683
 20
4167998.05022889
 10
526246.735110741
 20
4167997.90955306
  0
LWPOLYLINE
  5
20086
100
AcDbEntity
  8
0
100
AcDbPolyline
 70
0
 90
2
 10
526246.404305563
 20
4168051.84911597
 10
526246.735110741
 20
4167997.90955306
  0
LWPOLYLINE
  5
20087
100
AcDbEntity
  8
0
100
AcDbPolyline
 70
0
 90
2
 10
526287.924591683
 20
4167998.05022889
 10
526287.949170366
 20
4167948.38016254
  0
LWPOLYLINE
  5
20088
100
AcDbEntity
  8
0
100
AcDbPolyline
 70
0
 90
2
 10
526328.169333274
 20
4167998.18765891
 10
526287.924591683
 20
4167998.05022889
  0
LWPOLYLINE
  5
20089
100
AcDbEntity
  8
0
100
AcDbPolyline
 70
0
 90
2
 10
526287.897824686
 20
4168052.18225349
 10
526287.924591683
 20
4167998.05022889
  0
LWPOLYLINE
  5
2008A
100
AcDbEntity
  8
0
100
AcDbPolyline
 70
0
 90
2
 10
526328.169333274
 20
4167998.18765891
 10
526328.158865902
 20
4167948.51947611
  0
LWPOLYLINE
  5
2008B
100
AcDbEntity
  8
0
100
AcDbPolyline
 70
0
 90
2
 10
526368.924858119
 20
4167998.32691305
 10
526328.169333274
 20
4167998.18765891
  0
LWPOLYLINE
  5
2008C
100
AcDbEntity
  8
0
100
AcDbPolyline
 70
0
 90
2
 10
526328.18060825
 20
4168052.50575415
 10
526328.169333274
 20
4167998.18765891
  0
LWPOLYLINE
  5
2008D
100
AcDbEntity
  8
0
100
AcDbPolyline
 70
0
 90
2
 10
526368.924858119
 20
4167998.32691305
 10
526368.914629105
 20
4167948.66072591
  0
LWPOLYLINE
  5
2008E
100
AcDbEntity
  8
0
100
AcDbPolyline
 70
0
 90
2
 10
526408.891057441
 20
4167998.46329313
 10
526368.924858119
 20
4167998.32691305
  0
LWPOLYLINE
  5
2008F
100
AcDbEntity
  8
0
100
AcDbPolyline
 70
0
 90
2
 10
526368.935883368
 20
4168052.83306527
 10
526368.924858119
 20
4167998.32691305
  0
LWPOLYLINE
  5
20090
100
AcDbEntity
  8
0
100
AcDbPolyline
 70
0
 90
2
 10
526408.891057441
 20
4167998.46329313
 10
526408.881061671
 20
4167948.79921263
  0
LWPOLYLINE
  5
20091
100
AcDbEntity
  8
0
100
AcDbPolyline
 70
0
 90
2
 10
526408.901935513
 20
4168053.15406327
 10
526408.891057441
 20
4167998.46329313
  0
LWPOLYLINE
  5
20092
100
AcDbEntity
  8
0
100
AcDbPolyline
 70
0
 90
2
 10
526368.914629105
 20
4167948.66072591
 10
526328.158865902
 20
4167948.51947611
  0
LWPOLYLINE
  5
20093
100
AcDbEntity
  8
0
100
AcDbPolyline
 70
0
 90
2
 10
526368.914629105
 20
4167948.66072591
 10
526408.881061671
 20
4167948.79921263
  0
LWPOLYLINE
  5
20094
100
AcDbEntity
  8
0
100
AcDbPolyline
 70
0
 90
2
 10
526368.935883368
 20
4168052.83306527
 10
526328.18060825
 20
4168052.50575415
  0
LWPOLYLINE
  5
20095
100
AcDbEntity
  8
0
100
AcDbPolyline
 70
0
 90
2
 10
526368.946524721
 20
4168105.52157341
 10
526368.935883368
 20
4168052.83306527
  0
LWPOLYLINE
  5
20096
100
AcDbEntity
  8
0
100
AcDbPolyline
 70
0
 90
2
 10
526408.901935513
 20
4168053.15406327
 10
526368.935883368
 20
4168052.83306527
  0
LWPOLYLINE
  5
20097
100
AcDbEntity
  8
0
100
AcDbPolyline
 70
0
 90
2
 10
526368.946524721
 20
4168105.52157341
 10
526328.191533702
 20
4168105.38054119
  0
LWPOLYLINE
  5
20098
100
AcDbEntity
  8
0
100
AcDbPolyline
 70
0
 90
2
 10
526368.956460931
 20
4168155.55267683
 10
526368.946524721
 20
4168105.52157341
  0
LWPOLYLINE
  5
20099
100
AcDbEntity
  8
0
100
AcDbPolyline
 70
0
 90
2
 10
526408.91219972
 20
4168105.65995341
 10
526368.946524721
 20
4168105.52157341
  0
LWPOLYLINE
  5
2009A
100
AcDbEntity
  8
0
100
AcDbPolyline
 70
0
 90
2
 10
526368.956460931
 20
4168155.55267683
 10
526328.201803927
 20
4168155.4118654
  0
LWPOLYLINE
  5
2009B
100
AcDbEntity
  8
0
100
AcDbPolyline
 70
0
 90
2
 10
526408.921983448
 20
4168155.69072562
 10
526368.956460931
 20
4168155.55267683
  0
LWPOLYLINE
  5
2009C
100
AcDbEntity
  8
0
100
AcDbPolyline
 70
0
 90
2
 10
526408.91219972
 20
4168105.65995341
 10
526408.901935513
 20
4168053.15406327
  0
LWPOLYLINE
  5
2009D
100
AcDbEntity
  8
0
100
AcDbPolyline
 70
0
 90
2
 10
526408.921983448
 20
4168155.69072562
 10
526408.91219972
 20
4168105.65995341
  0
LWPOLYLINE
  5
2009E
100
AcDbEntity
  8
0
100
AcDbPolyline
 70
0
 90
2
 10
526328.158865902
 20
4167948.51947611
 10
526299.103275778
 20
4167948.41883579
  0
LWPOLYLINE
  5
2009F
100
AcDbEntity
  8
0
100
AcDbPolyline
 70
0
 90
2
 10
526328.18060825
 20
4168052.50575415
 10
526287.897824686
 20
4168052.18225349
  0
LWPOLYLINE
  5
200A0
100
AcDbEntity
  8
0
100
AcDbPolyline
 70
0
 90
2
 10
526328.191533702
 20
4168105.38054119
 10
526328.18060825
 20
4168052.50575415
  0
LWPOLYLINE
  5
200A1
100
AcDbEntity
  8
0
100
AcDbPolyline
 70
0
 90
2
 10
526328.191533702
 20
4168105.38054119
 10
526287.87128975
 20
4168105.24098053
  0
LWPOLYLINE
  5
200A2
100
AcDbEntity
  8
0
100
AcDbPolyline
 70
0
 90
2
 10
526328.201803927
 20
4168155.4118654
 10
526328.191533702
 20
4168105.38054119
  0
LWPOLYLINE
  5
200A3
100
AcDbEntity
  8
0
100
AcDbPolyline
 70
0
 90
2
 10
526328.201803927
 20
4168155.4118654
 10
526287.846257721
 20
4168155.27252326
  0
LWPOLYLINE
  5
200A4
100
AcDbEntity
  8
0
100
AcDbPolyline
 70
0
 90
2
 10
526163.116066991
 20
4168028.06057581
 10
526123.453000968
 20
4168027.92367665
  0
LWPOLYLINE
  5
200A5
100
AcDbEntity
  8
0
100
AcDbPolyline
 70
0
 90
2
 10
526204.050043282
 20
4168028.20191318
 10
526163.116066991
 20
4168028.06057581
  0
LWPOLYLINE
  5
200A6
100
AcDbEntity
  8
0
100
AcDbPolyline
 70
0
 90
2
 10
526162.947330875
 20
4168051.17876155
 10
526163.116066991
 20
4168028.06057581
  0
LWPOLYLINE
  5
200A7
100
AcDbEntity
  8
0
100
AcDbPolyline
 70
0
 90
2
 10
526123.341574844
 20
4168050.86053376
 10
526123.453000968
 20
4168027.92367665
  0
LWPOLYLINE
  5
200A8
100
AcDbEntity
  8
0
100
AcDbPolyline
 70
0
 90
2
 10
526204.011224624
 20
4168051.50856604
 10
526204.050043282
 20
4168028.20191318
  0
LWPOLYLINE
  5
200A9
100
AcDbEntity
  8
0
100
AcDbPolyline
 70
0
 90
2
 10
526122.837031811
 20
4168154.70246556
 10
526123.080250533
 20
4168104.67051045
  0
LWPOLYLINE
  5
200AA
100
AcDbEntity
  8
0
100
AcDbPolyline
 70
0
 90
2
 10
526162.19060926
 20
4168154.83838799
 10
526122.837031811
 20
4168154.70246556
  0
LWPOLYLINE
  5
200AB
100
AcDbEntity
  8
0
100
AcDbPolyline
 70
0
 90
2
 10
526162.19060926
 20
4168154.83838799
 10
526162.555871586
 20
4168104.80715089
  0
LWPOLYLINE
  5
200AC
100
AcDbEntity
  8
0
100
AcDbPolyline
 70
0
 90
2
 10
526203.838563241
 20
4168154.98232088
 10
526162.19060926
 20
4168154.83838799
  0
LWPOLYLINE
  5
200AD
100
AcDbEntity
  8
0
100
AcDbPolyline
 70
0
 90
2
 10
526203.838563241
 20
4168154.98232088
 10
526203.922095834
 20
4168104.95041282
  0
LWPOLYLINE
  5
200AE
100
AcDbEntity
  8
0
100
AcDbPolyline
 70
0
 90
2
 10
526245.770613998
 20
4168155.12725401
 10
526203.838563241
 20
4168154.98232088
  0
LWPOLYLINE
  5
200AF
100
AcDbEntity
  8
0
100
AcDbPolyline
 70
0
 90
2
 10
526245.770613998
 20
4168155.12725401
 10
526287.846257721
 20
4168155.27252326
  0
LWPOLYLINE
  5
200B0
100
AcDbEntity
  8
0
100
AcDbPolyline
 70
0
 90
2
 10
526245.770613998
 20
4168155.12725401
 10
526246.077638141
 20
4168105.09627528
  0
LWPOLYLINE
  5
200B1
100
AcDbEntity
  8
0
100
AcDbPolyline
 70
0
 90
2
 10
526287.846257721
 20
4168155.27252326
 10
526287.87128975
 20
4168105.24098053
  0
LWPOLYLINE
  5
200B2
100
AcDbEntity
  8
0
100
AcDbPolyline
 70
0
 90
2
 10
526123.080250533
 20
4168104.67051045
 10
526123.221922661
 20
4168075.50828142
  0
LWPOLYLINE
  5
200B3
100
AcDbEntity
  8
0
100
AcDbPolyline
 70
0
 90
2
 10
526162.555871586
 20
4168104.80715089
 10
526123.080250533
 20
4168104.67051045
  0
LWPOLYLINE
  5
200B4
100
AcDbEntity
  8
0
100
AcDbPolyline
 70
0
 90
2
 10
526162.555871586
 20
4168104.80715089
 10
526162.768943017
 20
4168075.61951841
  0
LWPOLYLINE
  5
200B5
100
AcDbEntity
  8
0
100
AcDbPolyline
 70
0
 90
2
 10
526203.922095834
 20
4168104.95041282
 10
526162.555871586
 20
4168104.80715089
  0
LWPOLYLINE
  5
200B6
100
AcDbEntity
  8
0
100
AcDbPolyline
 70
0
 90
2
 10
526203.922095834
 20
4168104.95041282
 10
526203.970813273
 20
4168075.73541028
  0
LWPOLYLINE
  5
200B7
100
AcDbEntity
  8
0
100
AcDbPolyline
 70
0
 90
2
 10
526246.077638141
 20
4168105.09627528
 10
526203.922095834
 20
4168104.95041282
  0
LWPOLYLINE
  5
200B8
100
AcDbEntity
  8
0
100
AcDbPolyline
 70
0
 90
2
 10
526246.077638141
 20
4168105.09627528
 10
526287.87128975
 20
4168105.24098053
  0
LWPOLYLINE
  5
200B9
100
AcDbEntity
  8
0
100
AcDbPolyline
 70
0
 90
2
 10
526246.077638141
 20
4168105.09627528
 10
526246.404305563
 20
4168051.84911597
  0
LWPOLYLINE
  5
200BA
100
AcDbEntity
  8
0
100
AcDbPolyline
 70
0
 90
2
 10
526287.87128975
 20
4168105.24098053
 10
526287.897824686
 20
4168052.18225349
  0
LWPOLYLINE
  5
200BB
100
AcDbEntity
  8
0
100
AcDbPolyline
 70
0
 90
2
 10
526163.70057814
 20
4167947.94950439
 10
526123.841847709
 20
4167947.81132206
  0
LWPOLYLINE
  5
200BC
100
AcDbEntity
  8
0
100
AcDbPolyline
 70
0
 90
2
 10
526123.221922661
 20
4168075.50828142
 10
526123.341574844
 20
4168050.86053376
  0
LWPOLYLINE
  5
200BD
100
AcDbEntity
  8
0
100
AcDbPolyline
 70
0
 90
2
 10
526162.947330875
 20
4168051.17876155
 10
526123.341574844
 20
4168050.86053376
  0
LWPOLYLINE
  5
200BE
100
AcDbEntity
  8
0
100
AcDbPolyline
 70
0
 90
2
 10
526162.768943017
 20
4168075.61951841
 10
526123.221922661
 20
4168075.50828142
  0
LWPOLYLINE
  5
200BF
100
AcDbEntity
  8
0
100
AcDbPolyline
 70
0
 90
2
 10
526195.28716022
 20
4167948.05901532
 10
526195.136995328
 20
4167935.87255207
  0
LWPOLYLINE
  5
200C0
100
AcDbEntity
  8
0
100
AcDbPolyline
 70
0
 90
2
 10
526195.28716022
 20
4167948.05901532
 10
526163.70057814
 20
4167947.94950439
  0
LWPOLYLINE
  5
200C1
100
AcDbEntity
  8
0
100
AcDbPolyline
 70
0
 90
2
 10
526204.183348018
 20
4167948.08985567
 10
526195.28716022
 20
4167948.05901532
  0
LWPOLYLINE
  5
200C2
100
AcDbEntity
  8
0
100
AcDbPolyline
 70
0
 90
2
 10
526203.738734509
 20
4167935.88670488
 10
526195.136995328
 20
4167935.87255207
  0
LWPOLYLINE
  5
200C3
100
AcDbEntity
  8
0
100
AcDbPolyline
 70
0
 90
2
 10
526203.738734509
 20
4167935.88670488
 10
526247.114803458
 20
4167935.95732653
  0
LWPOLYLINE
  5
200C4
100
AcDbEntity
  8
0
100
AcDbPolyline
 70
0
 90
2
 10
526287.872097964
 20
4167936.02373584
 10
526247.114803458
 20
4167935.95732653
  0
LWPOLYLINE
  5
200C5
100
AcDbEntity
  8
0
100
AcDbPolyline
 70
0
 90
2
 10
526247.039582464
 20
4167948.23837978
 10
526247.114803458
 20
4167935.95732653
  0
LWPOLYLINE
  5
200C6
100
AcDbEntity
  8
0
100
AcDbPolyline
 70
0
 90
3
 10
526299.103275778
 20
4167948.41883579
 10
526299.149594559
 20
4167936.04205404
 10
526287.872097964
 20
4167936.02373584
  0
LWPOLYLINE
  5
200C7
100
AcDbEntity
  8
0
100
AcDbPolyline
 70
0
 90
2
 10
526299.103275778
 20
4167948.41883579
 10
526287.949170366
 20
4167948.38016254
  0
LWPOLYLINE
  5
200C8
100
AcDbEntity
  8
0
100
AcDbPolyline
 70
0
 90
2
 10
526204.183348018
 20
4167948.08985567
 10
526247.039582464
 20
4167948.23837978
  0
LWPOLYLINE
  5
200C9
100
AcDbEntity
  8
0
100
AcDbPolyline
 70
0
 90
2
 10
526204.011224624
 20
4168051.50856604
 10
526162.947330875
 20
4168051.17876155
  0
LWPOLYLINE
  5
200CA
100
AcDbEntity
  8
0
100
AcDbPolyline
 70
0
 90
2
 10
526204.011224624
 20
4168051.50856604
 10
526246.404305563
 20
4168051.84911597
  0
LWPOLYLINE
  5
200CB
100
AcDbEntity
  8
0
100
AcDbPolyline
 70
0
 90
2
 10
526203.970813273
 20
4168075.73541028
 10
526204.011224624
 20
4168051.50856604
  0
LWPOLYLINE
  5
200CC
100
AcDbEntity
  8
0
100
AcDbPolyline
 70
0
 90
2
 10
526203.970813273
 20
4168075.73541028
 10
526162.768943017
 20
4168075.61951841
  0
LWPOLYLINE
  5
200CD
100
AcDbEntity
  8
0
100
AcDbPolyline
 70
0
 90
2
 10
526287.949170366
 20
4167948.38016254
 10
526247.039582464
 20
4167948.23837978
  0
LWPOLYLINE
  5
200CE
100
AcDbEntity
  8
0
100
AcDbPolyline
 70
0
 90
3
 10
526561.055999609
 20
4167949.3261754
 10
526565.545103351
 20
4167945.74568148
 10
526562.518680391
 20
4167926.97124738
  0
LWPOLYLINE
  5
200CF
100
AcDbEntity
  8
0
100
AcDbPolyline
 70
0
 90
2
 10
526268.665834268
 20
4167832.03644772
 10
526268.393309597
 20
4167824.99942769
  0
LWPOLYLINE
  5
200D0
100
AcDbEntity
  8
0
100
AcDbPolyline
 70
0
 90
2
 10
526220.126968585
 20
4167824.43135392
 10
526268.393309597
 20
4167824.99942769
  0
LWPOLYLINE
  5
200D1
100
AcDbEntity
  8
0
100
AcDbPolyline
 70
0
 90
2
 10
526220.126968585
 20
4167824.43135392
 10
526219.957775983
 20
4167815.64225401
  0
LWPOLYLINE
  5
200D2
100
AcDbEntity
  8
0
100
AcDbPolyline
 70
0
 90
2
 10
526577.347836858
 20
4167939.67295874
 10
526562.518680391
 20
4167926.97124738
  0
LWPOLYLINE
  5
200D3
100
AcDbEntity
  8
0
100
AcDbPolyline
 70
0
 90
2
 10
526577.347836858
 20
4167939.67295874
 10
526578.25575435
 20
4167909.13789225
  0
LWPOLYLINE
  5
200D4
100
AcDbEntity
  8
0
100
AcDbPolyline
 70
0
 90
2
 10
526162.768943017
 20
4168075.61951841
 10
526162.947330875
 20
4168051.17876155
  0
LWPOLYLINE
  5
200D5
100
AcDbEntity
  8
0
100
AcDbPolyline
 70
0
 90
2
 10
526287.897824686
 20
4168052.18225349
 10
526246.404305563
 20
4168051.84911597
  0
ENDSEC
  0
SECTION
  2
OBJECTS
  0
DICTIONARY
  5
C
330
0
100
AcDbDictionary
281
     1
  3
ACAD_GROUP
350
D
  3
ACAD_LAYOUT
350
1A
  3
ACAD_MLEADERSTYLE
350
43
  3
ACAD_PLOTSETTINGS
350
19
  3
ACAD_PLOTSTYLENAME
350
E
  3
ACAD_TABLESTYLE
350
42
  0
DICTIONARY
  5
D
102
{ACAD_REACTORS
330
C
102
}
330
C
100
AcDbDictionary
281
     1
  0
DICTIONARY
  5
1A
102
{ACAD_REACTORS
330
C
102
}
330
C
100
AcDbDictionary
281
     1
  3
Layout1
350
1E
  3
Model
350
22
  0
DICTIONARY
  5
43
102
{ACAD_REACTORS
330
C
102
}
330
C
100
AcDbDictionary
281
     1
  0
DICTIONARY
  5
19
102
{ACAD_REACTORS
330
C
102
}
330
C
100
AcDbDictionary
281
     1
  0
ACDBDICTIONARYWDFLT
  5
E
102
{ACAD_REACTORS
330
C
102
}
330
C
100
AcDbDictionary
281
     1
  3
Normal
350
F
100
AcDbDictionaryWithDefault
340
F
  0
DICTIONARY
  5
42
102
{ACAD_REACTORS
330
C
102
}
330
C
100
AcDbDictionary
281
     1
  0
LAYOUT
  5
1E
102
{ACAD_REACTORS
330
1A
102
}
330
1A
100
AcDbPlotSettings
  1

  2
none_device
  4

  6

 40
0.0
 41
0.0
 42
0.0
 43
0.0
 44
0.0
 45
0.0
 46
0.0
 47
0.0
 48
0.0
 49
0.0
140
0.0
141
0.0
142
1.0
143
1.0
 70
   688
 72
     0
 73
     0
 74
     5
  7

 75
    16
 76
     0
 77
     2
 78
   300
147
1.0
148
0.0
149
0.0
100
AcDbLayout
  1
Layout1
 70
     1
 71
     1
 10
0.0
 20
0.0
 11
12.0
 21
9.0
 12
0.0
 22
0.0
 32
0.0
 14
1.000000000000000E+20
 24
1.000000000000000E+20
 34
1.000000000000000E+20
 15
-1.000000000000000E+20
 25
-1.000000000000000E+20
 35
-1.000000000000000E+20
146
0.0
 13
0.0
 23
0.0
 33
0.0
 16
1.0
 26
0.0
 36
0.0
 17
0.0
 27
1.0
 37
0.0
 76
     0
330
1B
  0
LAYOUT
  5
22
102
{ACAD_REACTORS
330
1A
102
}
330
1A
100
AcDbPlotSettings
  1

  2
none_device
  4

  6

 40
0.0
 41
0.0
 42
0.0
 43
0.0
 44
0.0
 45
0.0
 46
0.0
 47
0.0
 48
0.0
 49
0.0
140
0.0
141
0.0
142
1.0
143
1.0
 70
  1712
 72
     0
 73
     0
 74
     0
  7

 75
     0
 76
     0
 77
     2
 78
   300
147
1.0
148
0.0
149
0.0
100
AcDbLayout
  1
Model
 70
     1
 71
     0
 10
0.0
 20
0.0
 11
12.0
 21
9.0
 12
0.0
 22
0.0
 32
0.0
 14
30.0
 24
49.75
 34
0.0
 15
130.5
 25
163.1318914119703
 35
0.0
146
0.0
 13
0.0
 23
0.0
 33
0.0
 16
1.0
 26
0.0
 36
0.0
 17
0.0
 27
1.0
 37
0.0
 76
     0
330
1F
331
29
  0
ENDSEC
  0
EOF
