  0
SECTION
  2
HEADER
  9
$ACADVER
  1
AC1018
  9
$ACADMAINTVER
 70
     0
  9
$DWGCODEPAGE
  3
ANSI_1252
  9
$EXTMIN
 10
657958.409832543
 20
3845983.37178643
 30
0.0
  9
$EXTMAX
 10
658792.461080101
 20
3846954.82351961
 30
0.0
  9
$LIMMIN
 10
0.0
 20
0.0
  9
$LIMMAX
 10
12.0
 20
9.0
  9
$ORTHOMODE
 70
     0
  9
$REGENMODE
 70
     1
  9
$FILLMODE
 70
     1
  9
$QTEXTMODE
 70
     0
  9
$MIRRTEXT
 70
     1
  9
$LTSCALE
 40
1.0
  9
$ATTMODE
 70
     1
  9
$TEXTSIZE
 40
0.2
  9
$TRACEWID
 40
0.05
  9
$TEXTSTYLE
  7
Standard
  9
$CLAYER
  8
0
  9
$CELTYPE
  6
ByLayer
  9
$CECOLOR
 62
   256
  9
$CELTSCALE
 40
1.0
  9
$DISPSILH
 70
     0
  9
$LUNITS
 70
     2
  9
$LUPREC
 70
     4
  9
$SKETCHINC
 40
0.1
  9
$FILLETRAD
 40
0.5
  9
$AUNITS
 70
     0
  9
$AUPREC
 70
     0
  9
$MENU
  1
.
  9
$ELEVATION
 40
0.0
  9
$PELEVATION
 40
0.0
  9
$THICKNESS
 40
0.0
  9
$LIMCHECK
 70
     0
  9
$CHAMFERA
 40
0.5
  9
$CHAMFERB
 40
0.5
  9
$CHAMFERC
 40
1.0
  9
$CHAMFERD
 40
0.0
  9
$SKPOLY
 70
     0
  9
$ANGBASE
 50
0.0
  9
$ANGDIR
 70
     0
  9
$PDMODE
 70
     0
  9
$PDSIZE
 40
0.0
  9
$PLINEWID
 40
0.0
  9
$SPLFRAME
 70
     0
  9
$SPLINETYPE
 70
     6
  9
$SPLINESEGS
 70
     8
  9
$HANDSEED
  5
00020114
  9
$SURFTAB1
 70
     6
  9
$SURFTAB2
 70
     6
  9
$SURFTYPE
 70
     6
  9
$SURFU
 70
     6
  9
$SURFV
 70
     6
  9
$UCSBASE
  2

  9
$UCSNAME
  2

  9
$UCSORG
 10
0.0
 20
0.0
 30
0.0
  9
$UCSXDIR
 10
1.0
 20
0.0
 30
0.0
  9
$UCSYDIR
 10
0.0
 20
1.0
 30
0.0
  9
$UCSORTHOREF
  2

  9
$UCSORTHOVIEW
 70
     0
  9
$UCSORGTOP
 10
0.0
 20
0.0
 30
0.0
  9
$UCSORGBOTTOM
 10
0.0
 20
0.0
 30
0.0
  9
$UCSORGLEFT
 10
0.0
 20
0.0
 30
0.0
  9
$UCSORGRIGHT
 10
0.0
 20
0.0
 30
0.0
  9
$UCSORGFRONT
 10
0.0
 20
0.0
 30
0.0
  9
$UCSORGBACK
 10
0.0
 20
0.0
 30
0.0
  9
$PUCSBASE
  2

  9
$PUCSNAME
  2

  9
$PUCSORG
 10
0.0
 20
0.0
 30
0.0
  9
$PUCSXDIR
 10
1.0
 20
0.0
 30
0.0
  9
$PUCSYDIR
 10
0.0
 20
1.0
 30
0.0
  9
$PUCSORTHOREF
  2

  9
$PUCSORTHOVIEW
 70
     0
  9
$PUCSORGTOP
 10
0.0
 20
0.0
 30
0.0
  9
$PUCSORGBOTTOM
 10
0.0
 20
0.0
 30
0.0
  9
$PUCSORGLEFT
 10
0.0
 20
0.0
 30
0.0
  9
$PUCSORGRIGHT
 10
0.0
 20
0.0
 30
0.0
  9
$PUCSORGFRONT
 10
0.0
 20
0.0
 30
0.0
  9
$PUCSORGBACK
 10
0.0
 20
0.0
 30
0.0
  9
$WORLDVIEW
 70
     1
  9
$SHADEDGE
 70
     3
  9
$SHADEDIF
 70
    70
  9
$TILEMODE
 70
     1
  9
$MAXACTVP
 70
    64
  9
$PINSBASE
 10
0.0
 20
0.0
 30
0.0
  9
$PLIMCHECK
 70
     0
  9
$PEXTMIN
 10
1.000000000000000E+20
 20
1.000000000000000E+20
 30
1.000000000000000E+20
  9
$PEXTMAX
 10
-1.000000000000000E+20
 20
-1.000000000000000E+20
 30
-1.000000000000000E+20
  9
$PLIMMIN
 10
0.0
 20
0.0
  9
$PLIMMAX
 10
12.0
 20
9.0
  9
$UNITMODE
 70
     0
  9
$VISRETAIN
 70
     1
  9
$PLINEGEN
 70
     0
  9
$PSLTSCALE
 70
     1
  9
$TREEDEPTH
 70
  3020
  9
$CMLSTYLE
  2
Standard
  9
$CMLJUST
 70
     0
  9
$CMLSCALE
 40
1.0
  9
$PROXYGRAPHICS
 70
     1
  9
$MEASUREMENT
 70
     0
  9
$CELWEIGHT
370
    -1
  9
$ENDCAPS
280
     0
  9
$JOINSTYLE
280
     0
  9
$LWDISPLAY
290
     0
  9
$INSUNITS
 70
     1
  9
$HYPERLINKBASE
  1

  9
$STYLESHEET
  1

  9
$XEDIT
290
     1
  9
$CEPSNTYPE
380
     0
  9
$PSTYLEMODE
290
     1
  9
$EXTNAMES
290
     1
  9
$PSVPSCALE
 40
0.0
  9
$OLESTARTUP
290
     0
  9
$SORTENTS
280
   127
  9
$INDEXCTL
280
     0
  9
$HIDETEXT
280
     1
  9
$XCLIPFRAME
290
     0
  9
$HALOGAP
280
     0
  9
$OBSCOLOR
 70
   257
  9
$OBSLTYPE
280
     0
  9
$INTERSECTIONDISPLAY
280
     0
  9
$INTERSECTIONCOLOR
 70
   257
  9
$DIMASSOC
280
     2
  9
$PROJECTNAME
  1

  0
ENDSEC
  0
SECTION
  2
CLASSES
  0
CLASS
  1
ACDBDICTIONARYWDFLT
  2
AcDbDictionaryWithDefault
  3
ObjectDBX Classes
 90
        0
 91
        4
280
     0
281
     0
  0
ENDSEC
  0
SECTION
  2
TABLES
  0
TABLE
  2
VPORT
  5
8
330
0
100
AcDbSymbolTable
 70
     1
  0
VPORT
  5
29
330
8
100
AcDbSymbolTableRecord
100
AcDbViewportTableRecord
  2
*Active
 70
     0
 10
0.0
 20
0.0
 11
1.0
 21
1.0
 12
80.25
 22
106.4409457059851
 13
0.0
 23
0.0
 14
0.5
 24
0.5
 15
0.5
 25
0.5
 16
0.0
 26
0.0
 36
1.0
 17
0.0
 27
0.0
 37
0.0
 40
113.3818914119703
 41
0.8863849310366128
 42
50.0
 43
0.0
 44
0.0
 50
0.0
 51
0.0
 71
     0
 72
  1000
 73
     1
 74
     3
 75
     0
 76
     0
 77
     0
 78
     0
281
     0
 65
     1
110
0.0
120
0.0
130
0.0
111
1.0
121
0.0
131
0.0
112
0.0
122
1.0
132
0.0
 79
     0
146
0.0
  0
ENDTAB
  0
TABLE
  2
LTYPE
  5
5
330
0
100
AcDbSymbolTable
 70
     1
  0
LTYPE
  5
14
330
5
100
AcDbSymbolTableRecord
100
AcDbLinetypeTableRecord
  2
ByBlock
 70
     0
  3

 72
    65
 73
     0
 40
0.0
  0
LTYPE
  5
15
330
5
100
AcDbSymbolTableRecord
100
AcDbLinetypeTableRecord
  2
ByLayer
 70
     0
  3

 72
    65
 73
     0
 40
0.0
  0
LTYPE
  5
16
330
5
100
AcDbSymbolTableRecord
100
AcDbLinetypeTableRecord
  2
Continuous
 70
     0
  3
Solid line
 72
    65
 73
     0
 40
0.0
  0
ENDTAB
  0
TABLE
  2
LAYER
  5
2
330
0
100
AcDbSymbolTable
 70
     1
  0
LAYER
  5
10
330
2
100
AcDbSymbolTableRecord
100
AcDbLayerTableRecord
  2
0
 70
     0
 62
     7
  6
Continuous
370
    -3
390
F
  0
ENDTAB
  0
TABLE
  2
STYLE
  5
3
330
0
100
AcDbSymbolTable
 70
     1
  0
STYLE
  5
11
330
3
100
AcDbSymbolTableRecord
100
AcDbTextStyleTableRecord
  2
Standard
 70
     0
 40
0.0
 41
1.0
 50
0.0
 71
     0
 42
0.2
  3
txt
  4

  0
ENDTAB
  0
TABLE
  2
VIEW
  5
6
330
0
100
AcDbSymbolTable
 70
     0
  0
ENDTAB
  0
TABLE
  2
UCS
  5
7
330
0
100
AcDbSymbolTable
 70
     0
  0
ENDTAB
  0
TABLE
  2
APPID
  5
9
330
0
100
AcDbSymbolTable
 70
     1
  0
APPID
  5
12
330
9
100
AcDbSymbolTableRecord
100
AcDbRegAppTableRecord
  2
ACAD
 70
     0
  0
ENDTAB
  0
TABLE
  2
DIMSTYLE
  5
A
330
0
100
AcDbSymbolTable
 70
     1
100
AcDbDimStyleTable
  0
DIMSTYLE
105
27
330
A
100
AcDbSymbolTableRecord
100
AcDbDimStyleTableRecord
  2
Standard
 70
     0
340
11
  0
ENDTAB
  0
TABLE
  2
BLOCK_RECORD
  5
1
330
0
100
AcDbSymbolTable
 70
     1
  0
BLOCK_RECORD
  5
1F
330
1
100
AcDbSymbolTableRecord
100
AcDbBlockTableRecord
  2
*Model_Space
340
22
  0
BLOCK_RECORD
  5
1B
330
1
100
AcDbSymbolTableRecord
100
AcDbBlockTableRecord
  2
*Paper_Space
340
1E
  0
ENDTAB
  0
ENDSEC
  0
SECTION
  2
BLOCKS
  0
BLOCK
  5
20
330
1F
100
AcDbEntity
  8
0
100
AcDbBlockBegin
  2
*Model_Space
 70
     0
 10
0.0
 20
0.0
 30
0.0
  3
*Model_Space
  1

  0
ENDBLK
  5
21
330
1F
100
AcDbEntity
  8
0
100
AcDbBlockEnd
  0
BLOCK
  5
1C
330
1B
100
AcDbEntity
 67
     1
  8
0
100
AcDbBlockBegin
  2
*Paper_Space
 70
     0
 10
0.0
 20
0.0
 30
0.0
  3
*Paper_Space
  1

  0
ENDBLK
  5
1D
330
1B
100
AcDbEntity
 67
     1
  8
0
100
AcDbBlockEnd
  0
ENDSEC
  0
SECTION
  2
ENTITIES
  0
LWPOLYLINE
  5
20000
100
AcDbEntity
  8
0
100
AcDbPolyline
 70
0
 90
2
 10
658257.287289668
 20
3846085.64103275
 10
658189.431665389
 20
3846053.24281357
  0
LWPOLYLINE
  5
20001
100
AcDbEntity
  8
0
100
AcDbPolyline
 70
0
 90
2
 10
658257.287289668
 20
3846085.64103275
 10
658292.335815206
 20
3846102.37544859
  0
LWPOLYLINE
  5
20002
100
AcDbEntity
  8
0
100
AcDbPolyline
 70
0
 90
2
 10
658257.287289668
 20
3846085.64103275
 10
658289.887311754
 20
3846007.75387092
  0
LWPOLYLINE
  5
20003
100
AcDbEntity
  8
0
100
AcDbPolyline
 70
0
 90
2
 10
658227.16699726
 20
3846150.69110696
 10
658257.287289668
 20
3846085.64103275
  0
LWPOLYLINE
  5
20004
100
AcDbEntity
  8
0
100
AcDbPolyline
 70
0
 90
2
 10
658189.431665389
 20
3846053.24281357
 10
658217.522361497
 20
3845983.37178643
  0
LWPOLYLINE
  5
20005
100
AcDbEntity
  8
0
100
AcDbPolyline
 70
0
 90
2
 10
658172.377841925
 20
3846123.0677997
 10
658189.431665389
 20
3846053.24281357
  0
LWPOLYLINE
  5
20006
100
AcDbEntity
  8
0
100
AcDbPolyline
 70
0
 90
2
 10
658292.335815206
 20
3846102.37544859
 10
658327.349057253
 20
3846026.26506215
  0
LWPOLYLINE
  5
20007
100
AcDbEntity
  8
0
100
AcDbPolyline
 70
0
 90
2
 10
658332.536242506
 20
3846121.56994958
 10
658292.335815206
 20
3846102.37544859
  0
LWPOLYLINE
  5
20008
100
AcDbEntity
  8
0
100
AcDbPolyline
 70
0
 90
2
 10
658262.024577036
 20
3846168.2657398
 10
658292.335815206
 20
3846102.37544859
  0
LWPOLYLINE
  5
20009
100
AcDbEntity
  8
0
100
AcDbPolyline
 70
0
 90
2
 10
658332.536242506
 20
3846121.56994958
 10
658374.562169612
 20
3846141.63644922
  0
LWPOLYLINE
  5
2000A
100
AcDbEntity
  8
0
100
AcDbPolyline
 70
0
 90
2
 10
658332.536242506
 20
3846121.56994958
 10
658368.001420291
 20
3846046.35335333
  0
LWPOLYLINE
  5
2000B
100
AcDbEntity
  8
0
100
AcDbPolyline
 70
0
 90
2
 10
658301.205055503
 20
3846188.02002595
 10
658332.536242506
 20
3846121.56994958
  0
LWPOLYLINE
  5
2000C
100
AcDbEntity
  8
0
100
AcDbPolyline
 70
0
 90
2
 10
658374.562169612
 20
3846141.63644922
 10
658410.996805159
 20
3846067.59958804
  0
LWPOLYLINE
  5
2000D
100
AcDbEntity
  8
0
100
AcDbPolyline
 70
0
 90
2
 10
658412.875301962
 20
3846159.93037372
 10
658374.562169612
 20
3846141.63644922
  0
LWPOLYLINE
  5
2000E
100
AcDbEntity
  8
0
100
AcDbPolyline
 70
0
 90
2
 10
658341.691159329
 20
3846208.43299253
 10
658374.562169612
 20
3846141.63644922
  0
LWPOLYLINE
  5
2000F
100
AcDbEntity
  8
0
100
AcDbPolyline
 70
0
 90
2
 10
658412.875301962
 20
3846159.93037372
 10
658448.564229337
 20
3846086.16382003
  0
LWPOLYLINE
  5
20010
100
AcDbEntity
  8
0
100
AcDbPolyline
 70
0
 90
2
 10
658451.502826209
 20
3846178.3746609
 10
658412.875301962
 20
3846159.93037372
  0
LWPOLYLINE
  5
20011
100
AcDbEntity
  8
0
100
AcDbPolyline
 70
0
 90
2
 10
658380.052048839
 20
3846227.77457811
 10
658412.875301962
 20
3846159.93037372
  0
LWPOLYLINE
  5
20012
100
AcDbEntity
  8
0
100
AcDbPolyline
 70
0
 90
2
 10
658451.502826209
 20
3846178.3746609
 10
658490.036103257
 20
3846196.77422757
  0
LWPOLYLINE
  5
20013
100
AcDbEntity
  8
0
100
AcDbPolyline
 70
0
 90
2
 10
658451.502826209
 20
3846178.3746609
 10
658487.151144573
 20
3846106.36375974
  0
LWPOLYLINE
  5
20014
100
AcDbEntity
  8
0
100
AcDbPolyline
 70
0
 90
2
 10
658417.661162575
 20
3846246.73738791
 10
658451.502826209
 20
3846178.3746609
  0
LWPOLYLINE
  5
20015
100
AcDbEntity
  8
0
100
AcDbPolyline
 70
0
 90
2
 10
658490.036103257
 20
3846196.77422757
 10
658524.533548887
 20
3846125.93337601
  0
LWPOLYLINE
  5
20016
100
AcDbEntity
  8
0
100
AcDbPolyline
 70
0
 90
2
 10
658529.219649393
 20
3846215.48449233
 10
658490.036103257
 20
3846196.77422757
  0
LWPOLYLINE
  5
20017
100
AcDbEntity
  8
0
100
AcDbPolyline
 70
0
 90
2
 10
658456.234725803
 20
3846266.18681322
 10
658490.036103257
 20
3846196.77422757
  0
LWPOLYLINE
  5
20018
100
AcDbEntity
  8
0
100
AcDbPolyline
 70
0
 90
2
 10
658529.219649393
 20
3846215.48449233
 10
658563.593529387
 20
3846146.38144205
  0
LWPOLYLINE
  5
20019
100
AcDbEntity
  8
0
100
AcDbPolyline
 70
0
 90
2
 10
658566.796127694
 20
3846233.42757923
 10
658529.219649393
 20
3846215.48449233
  0
LWPOLYLINE
  5
2001A
100
AcDbEntity
  8
0
100
AcDbPolyline
 70
0
 90
2
 10
658494.421569044
 20
3846285.44136632
 10
658529.219649393
 20
3846215.48449233
  0
LWPOLYLINE
  5
2001B
100
AcDbEntity
  8
0
100
AcDbPolyline
 70
0
 90
2
 10
658566.796127694
 20
3846233.42757923
 10
658603.845486983
 20
3846251.1192196
  0
LWPOLYLINE
  5
2001C
100
AcDbEntity
  8
0
100
AcDbPolyline
 70
0
 90
2
 10
658566.796127694
 20
3846233.42757923
 10
658600.373088394
 20
3846165.63590236
  0
LWPOLYLINE
  5
2001D
100
AcDbEntity
  8
0
100
AcDbPolyline
 70
0
 90
2
 10
658531.719651438
 20
3846304.2480952
 10
658566.796127694
 20
3846233.42757923
  0
LWPOLYLINE
  5
2001E
100
AcDbEntity
  8
0
100
AcDbPolyline
 70
0
 90
2
 10
658603.845486983
 20
3846251.1192196
 10
658635.322442859
 20
3846190.94015785
  0
LWPOLYLINE
  5
2001F
100
AcDbEntity
  8
0
100
AcDbPolyline
 70
0
 90
2
 10
658569.347590841
 20
3846323.22131423
 10
658603.845486983
 20
3846251.1192196
  0
LWPOLYLINE
  5
20020
100
AcDbEntity
  8
0
100
AcDbPolyline
 70
0
 90
2
 10
658144.971136661
 20
3846196.37736716
 10
658172.377841925
 20
3846123.0677997
  0
LWPOLYLINE
  5
20021
100
AcDbEntity
  8
0
100
AcDbPolyline
 70
0
 90
2
 10
658227.16699726
 20
3846150.69110696
 10
658172.377841925
 20
3846123.0677997
  0
LWPOLYLINE
  5
20022
100
AcDbEntity
  8
0
100
AcDbPolyline
 70
0
 90
2
 10
658144.971136661
 20
3846196.37736716
 10
658194.59058612
 20
3846221.04677354
  0
LWPOLYLINE
  5
20023
100
AcDbEntity
  8
0
100
AcDbPolyline
 70
0
 90
2
 10
658115.72094368
 20
3846269.06610232
 10
658144.971136661
 20
3846196.37736716
  0
LWPOLYLINE
  5
20024
100
AcDbEntity
  8
0
100
AcDbPolyline
 70
0
 90
2
 10
658194.59058612
 20
3846221.04677354
 10
658227.16699726
 20
3846150.69110696
  0
LWPOLYLINE
  5
20025
100
AcDbEntity
  8
0
100
AcDbPolyline
 70
0
 90
2
 10
658229.711701934
 20
3846238.50822995
 10
658194.59058612
 20
3846221.04677354
  0
LWPOLYLINE
  5
20026
100
AcDbEntity
  8
0
100
AcDbPolyline
 70
0
 90
2
 10
658161.385151076
 20
3846291.90383113
 10
658194.59058612
 20
3846221.04677354
  0
LWPOLYLINE
  5
20027
100
AcDbEntity
  8
0
100
AcDbPolyline
 70
0
 90
2
 10
658229.711701934
 20
3846238.50822995
 10
658268.344108903
 20
3846257.71567061
  0
LWPOLYLINE
  5
20028
100
AcDbEntity
  8
0
100
AcDbPolyline
 70
0
 90
2
 10
658229.711701934
 20
3846238.50822995
 10
658262.024577036
 20
3846168.2657398
  0
LWPOLYLINE
  5
20029
100
AcDbEntity
  8
0
100
AcDbPolyline
 70
0
 90
2
 10
658196.963780607
 20
3846309.69765847
 10
658229.711701934
 20
3846238.50822995
  0
LWPOLYLINE
  5
2002A
100
AcDbEntity
  8
0
100
AcDbPolyline
 70
0
 90
2
 10
658268.344108903
 20
3846257.71567061
 10
658301.205055503
 20
3846188.02002595
  0
LWPOLYLINE
  5
2002B
100
AcDbEntity
  8
0
100
AcDbPolyline
 70
0
 90
2
 10
658307.788452642
 20
3846277.32699485
 10
658268.344108903
 20
3846257.71567061
  0
LWPOLYLINE
  5
2002C
100
AcDbEntity
  8
0
100
AcDbPolyline
 70
0
 90
2
 10
658234.891715008
 20
3846328.66675819
 10
658268.344108903
 20
3846257.71567061
  0
LWPOLYLINE
  5
2002D
100
AcDbEntity
  8
0
100
AcDbPolyline
 70
0
 90
2
 10
658307.788452642
 20
3846277.32699485
 10
658341.691159329
 20
3846208.43299253
  0
LWPOLYLINE
  5
2002E
100
AcDbEntity
  8
0
100
AcDbPolyline
 70
0
 90
2
 10
658346.715364284
 20
3846296.68130209
 10
658307.788452642
 20
3846277.32699485
  0
LWPOLYLINE
  5
2002F
100
AcDbEntity
  8
0
100
AcDbPolyline
 70
0
 90
2
 10
658273.02060227
 20
3846347.73666578
 10
658307.788452642
 20
3846277.32699485
  0
LWPOLYLINE
  5
20030
100
AcDbEntity
  8
0
100
AcDbPolyline
 70
0
 90
2
 10
658346.715364284
 20
3846296.68130209
 10
658383.808116361
 20
3846315.1239876
  0
LWPOLYLINE
  5
20031
100
AcDbEntity
  8
0
100
AcDbPolyline
 70
0
 90
2
 10
658346.715364284
 20
3846296.68130209
 10
658380.052048839
 20
3846227.77457811
  0
LWPOLYLINE
  5
20032
100
AcDbEntity
  8
0
100
AcDbPolyline
 70
0
 90
2
 10
658312.4699948
 20
3846367.46727266
 10
658346.715364284
 20
3846296.68130209
  0
LWPOLYLINE
  5
20033
100
AcDbEntity
  8
0
100
AcDbPolyline
 70
0
 90
2
 10
658383.808116361
 20
3846315.1239876
 10
658417.661162575
 20
3846246.73738791
  0
LWPOLYLINE
  5
20034
100
AcDbEntity
  8
0
100
AcDbPolyline
 70
0
 90
2
 10
658422.789288629
 20
3846334.50575101
 10
658383.808116361
 20
3846315.1239876
  0
LWPOLYLINE
  5
20035
100
AcDbEntity
  8
0
100
AcDbPolyline
 70
0
 90
2
 10
658349.066315504
 20
3846385.20013299
 10
658383.808116361
 20
3846315.1239876
  0
LWPOLYLINE
  5
20036
100
AcDbEntity
  8
0
100
AcDbPolyline
 70
0
 90
2
 10
658422.789288629
 20
3846334.50575101
 10
658456.234725803
 20
3846266.18681322
  0
LWPOLYLINE
  5
20037
100
AcDbEntity
  8
0
100
AcDbPolyline
 70
0
 90
2
 10
658460.651969065
 20
3846353.3316826
 10
658422.789288629
 20
3846334.50575101
  0
LWPOLYLINE
  5
20038
100
AcDbEntity
  8
0
100
AcDbPolyline
 70
0
 90
2
 10
658385.364188137
 20
3846403.92582331
 10
658422.789288629
 20
3846334.50575101
  0
LWPOLYLINE
  5
20039
100
AcDbEntity
  8
0
100
AcDbPolyline
 70
0
 90
2
 10
658460.651969065
 20
3846353.3316826
 10
658498.170204393
 20
3846371.98653966
  0
LWPOLYLINE
  5
2003A
100
AcDbEntity
  8
0
100
AcDbPolyline
 70
0
 90
2
 10
658460.651969065
 20
3846353.3316826
 10
658494.421569044
 20
3846285.44136632
  0
LWPOLYLINE
  5
2003B
100
AcDbEntity
  8
0
100
AcDbPolyline
 70
0
 90
2
 10
658425.500764245
 20
3846424.00093485
 10
658460.651969065
 20
3846353.3316826
  0
LWPOLYLINE
  5
2003C
100
AcDbEntity
  8
0
100
AcDbPolyline
 70
0
 90
2
 10
658498.170204393
 20
3846371.98653966
 10
658515.235802791
 20
3846337.52988434
  0
LWPOLYLINE
  5
2003D
100
AcDbEntity
  8
0
100
AcDbPolyline
 70
0
 90
2
 10
658464.244905706
 20
3846443.37960045
 10
658498.170204393
 20
3846371.98653966
  0
LWPOLYLINE
  5
2003E
100
AcDbEntity
  8
0
100
AcDbPolyline
 70
0
 90
2
 10
658521.313082846
 20
3846382.82211459
 10
658498.170204393
 20
3846371.98653966
  0
LWPOLYLINE
  5
2003F
100
AcDbEntity
  8
0
100
AcDbPolyline
 70
0
 90
2
 10
658515.235802791
 20
3846337.52988434
 10
658531.719651438
 20
3846304.2480952
  0
LWPOLYLINE
  5
20040
100
AcDbEntity
  8
0
100
AcDbPolyline
 70
0
 90
3
 10
658521.313082846
 20
3846382.82211459
 10
658522.711273055
 20
3846344.02712816
 10
658515.235802791
 20
3846337.52988434
  0
LWPOLYLINE
  5
20041
100
AcDbEntity
  8
0
100
AcDbPolyline
 70
0
 90
2
 10
658531.719651438
 20
3846304.2480952
 10
658494.421569044
 20
3846285.44136632
  0
LWPOLYLINE
  5
20042
100
AcDbEntity
  8
0
100
AcDbPolyline
 70
0
 90
2
 10
658569.347590841
 20
3846323.22131423
 10
658531.719651438
 20
3846304.2480952
  0
LWPOLYLINE
  5
20043
100
AcDbEntity
  8
0
100
AcDbPolyline
 70
0
 90
2
 10
658600.373088394
 20
3846165.63590236
 10
658623.671322985
 20
3846118.59749592
  0
LWPOLYLINE
  5
20044
100
AcDbEntity
  8
0
100
AcDbPolyline
 70
0
 90
2
 10
658563.593529387
 20
3846146.38144205
 10
658600.373088394
 20
3846165.63590236
  0
LWPOLYLINE
  5
20045
100
AcDbEntity
  8
0
100
AcDbPolyline
 70
0
 90
2
 10
658487.151144573
 20
3846106.36375974
 10
658517.28030925
 20
3846045.50266171
  0
LWPOLYLINE
  5
20046
100
AcDbEntity
  8
0
100
AcDbPolyline
 70
0
 90
2
 10
658448.564229337
 20
3846086.16382003
 10
658487.151144573
 20
3846106.36375974
  0
LWPOLYLINE
  5
20047
100
AcDbEntity
  8
0
100
AcDbPolyline
 70
0
 90
2
 10
658524.533548887
 20
3846125.93337601
 10
658487.151144573
 20
3846106.36375974
  0
LWPOLYLINE
  5
20048
100
AcDbEntity
  8
0
100
AcDbPolyline
 70
0
 90
2
 10
658417.661162575
 20
3846246.73738791
 10
658380.052048839
 20
3846227.77457811
  0
LWPOLYLINE
  5
20049
100
AcDbEntity
  8
0
100
AcDbPolyline
 70
0
 90
2
 10
658456.234725803
 20
3846266.18681322
 10
658417.661162575
 20
3846246.73738791
  0
LWPOLYLINE
  5
2004A
100
AcDbEntity
  8
0
100
AcDbPolyline
 70
0
 90
2
 10
658349.066315504
 20
3846385.20013299
 10
658312.4699948
 20
3846367.46727266
  0
LWPOLYLINE
  5
2004B
100
AcDbEntity
  8
0
100
AcDbPolyline
 70
0
 90
2
 10
658349.066315504
 20
3846385.20013299
 10
658385.364188137
 20
3846403.92582331
  0
LWPOLYLINE
  5
2004C
100
AcDbEntity
  8
0
100
AcDbPolyline
 70
0
 90
2
 10
658298.586659466
 20
3846491.3482425
 10
658349.066315504
 20
3846385.20013299
  0
LWPOLYLINE
  5
2004D
100
AcDbEntity
  8
0
100
AcDbPolyline
 70
0
 90
2
 10
658161.385151076
 20
3846291.90383113
 10
658115.72094368
 20
3846269.06610232
  0
LWPOLYLINE
  5
2004E
100
AcDbEntity
  8
0
100
AcDbPolyline
 70
0
 90
2
 10
658161.385151076
 20
3846291.90383113
 10
658196.963780607
 20
3846309.69765847
  0
LWPOLYLINE
  5
2004F
100
AcDbEntity
  8
0
100
AcDbPolyline
 70
0
 90
2
 10
658126.737402043
 20
3846362.06643879
 10
658161.385151076
 20
3846291.90383113
  0
LWPOLYLINE
  5
20050
100
AcDbEntity
  8
0
100
AcDbPolyline
 70
0
 90
3
 10
658126.737402043
 20
3846362.06643879
 10
658084.627132255
 20
3846340.23272449
 10
658115.72094368
 20
3846269.06610232
  0
LWPOLYLINE
  5
20051
100
AcDbEntity
  8
0
100
AcDbPolyline
 70
0
 90
2
 10
658234.891715008
 20
3846328.66675819
 10
658196.963780607
 20
3846309.69765847
  0
LWPOLYLINE
  5
20052
100
AcDbEntity
  8
0
100
AcDbPolyline
 70
0
 90
2
 10
658162.683885081
 20
3846380.70452698
 10
658196.963780607
 20
3846309.69765847
  0
LWPOLYLINE
  5
20053
100
AcDbEntity
  8
0
100
AcDbPolyline
 70
0
 90
2
 10
658234.891715008
 20
3846328.66675819
 10
658273.02060227
 20
3846347.73666578
  0
LWPOLYLINE
  5
20054
100
AcDbEntity
  8
0
100
AcDbPolyline
 70
0
 90
2
 10
658199.930688142
 20
3846400.01702247
 10
658234.891715008
 20
3846328.66675819
  0
LWPOLYLINE
  5
20055
100
AcDbEntity
  8
0
100
AcDbPolyline
 70
0
 90
2
 10
658312.4699948
 20
3846367.46727266
 10
658273.02060227
 20
3846347.73666578
  0
LWPOLYLINE
  5
20056
100
AcDbEntity
  8
0
100
AcDbPolyline
 70
0
 90
2
 10
658237.70204192
 20
3846419.60174471
 10
658273.02060227
 20
3846347.73666578
  0
LWPOLYLINE
  5
20057
100
AcDbEntity
  8
0
100
AcDbPolyline
 70
0
 90
2
 10
658275.525611678
 20
3846439.21371174
 10
658312.4699948
 20
3846367.46727266
  0
LWPOLYLINE
  5
20058
100
AcDbEntity
  8
0
100
AcDbPolyline
 70
0
 90
2
 10
658425.500764245
 20
3846424.00093485
 10
658385.364188137
 20
3846403.92582331
  0
LWPOLYLINE
  5
20059
100
AcDbEntity
  8
0
100
AcDbPolyline
 70
0
 90
2
 10
658357.809115756
 20
3846454.59461165
 10
658385.364188137
 20
3846403.92582331
  0
LWPOLYLINE
  5
2005A
100
AcDbEntity
  8
0
100
AcDbPolyline
 70
0
 90
2
 10
658464.244905706
 20
3846443.37960045
 10
658425.500764245
 20
3846424.00093485
  0
LWPOLYLINE
  5
2005B
100
AcDbEntity
  8
0
100
AcDbPolyline
 70
0
 90
2
 10
658399.452947325
 20
3846476.75609994
 10
658425.500764245
 20
3846424.00093485
  0
LWPOLYLINE
  5
2005C
100
AcDbEntity
  8
0
100
AcDbPolyline
 70
0
 90
2
 10
658464.244905706
 20
3846443.37960045
 10
658539.893677069
 20
3846477.02047541
  0
LWPOLYLINE
  5
2005D
100
AcDbEntity
  8
0
100
AcDbPolyline
 70
0
 90
2
 10
658437.557228573
 20
3846495.15922337
 10
658464.244905706
 20
3846443.37960045
  0
LWPOLYLINE
  5
2005E
100
AcDbEntity
  8
0
100
AcDbPolyline
 70
0
 90
2
 10
658341.691159329
 20
3846208.43299253
 10
658380.052048839
 20
3846227.77457811
  0
LWPOLYLINE
  5
2005F
100
AcDbEntity
  8
0
100
AcDbPolyline
 70
0
 90
2
 10
658448.564229337
 20
3846086.16382003
 10
658477.303351925
 20
3846026.76318245
  0
LWPOLYLINE
  5
20060
100
AcDbEntity
  8
0
100
AcDbPolyline
 70
0
 90
2
 10
658448.564229337
 20
3846086.16382003
 10
658410.996805159
 20
3846067.59958804
  0
LWPOLYLINE
  5
20061
100
AcDbEntity
  8
0
100
AcDbPolyline
 70
0
 90
2
 10
658341.691159329
 20
3846208.43299253
 10
658301.205055503
 20
3846188.02002595
  0
LWPOLYLINE
  5
20062
100
AcDbEntity
  8
0
100
AcDbPolyline
 70
0
 90
2
 10
658410.996805159
 20
3846067.59958804
 10
658368.001420291
 20
3846046.35335333
  0
LWPOLYLINE
  5
20063
100
AcDbEntity
  8
0
100
AcDbPolyline
 70
0
 90
2
 10
658301.205055503
 20
3846188.02002595
 10
658262.024577036
 20
3846168.2657398
  0
LWPOLYLINE
  5
20064
100
AcDbEntity
  8
0
100
AcDbPolyline
 70
0
 90
2
 10
658327.349057253
 20
3846026.26506215
 10
658368.001420291
 20
3846046.35335333
  0
LWPOLYLINE
  5
20065
100
AcDbEntity
  8
0
100
AcDbPolyline
 70
0
 90
2
 10
658227.16699726
 20
3846150.69110696
 10
658262.024577036
 20
3846168.2657398
  0
LWPOLYLINE
  5
20066
100
AcDbEntity
  8
0
100
AcDbPolyline
 70
0
 90
2
 10
658327.349057253
 20
3846026.26506215
 10
658289.887311754
 20
3846007.75387092
  0
LWPOLYLINE
  5
20067
100
AcDbEntity
  8
0
100
AcDbPolyline
 70
0
 90
2
 10
658524.533548887
 20
3846125.93337601
 10
658555.60979615
 20
3846062.11900551
  0
LWPOLYLINE
  5
20068
100
AcDbEntity
  8
0
100
AcDbPolyline
 70
0
 90
2
 10
658563.593529387
 20
3846146.38144205
 10
658524.533548887
 20
3846125.93337601
  0
LWPOLYLINE
  5
20069
100
AcDbEntity
  8
0
100
AcDbPolyline
 70
0
 90
2
 10
658563.593529387
 20
3846146.38144205
 10
658588.173403233
 20
3846096.96835564
  0
LWPOLYLINE
  5
2006A
100
AcDbEntity
  8
0
100
AcDbPolyline
 70
0
 90
2
 10
658456.234725803
 20
3846266.18681322
 10
658494.421569044
 20
3846285.44136632
  0
LWPOLYLINE
  5
2006B
100
AcDbEntity
  8
0
100
AcDbPolyline
 70
0
 90
2
 10
658604.900407635
 20
3846341.14856471
 10
658569.347590841
 20
3846323.22131423
  0
LWPOLYLINE
  5
2006C
100
AcDbEntity
  8
0
100
AcDbPolyline
 70
0
 90
2
 10
658604.900407635
 20
3846341.14856471
 10
658642.472677512
 20
3846360.09418071
  0
LWPOLYLINE
  5
2006D
100
AcDbEntity
  8
0
100
AcDbPolyline
 70
0
 90
2
 10
658604.900407635
 20
3846341.14856471
 10
658658.345745044
 20
3846236.60482796
  0
LWPOLYLINE
  5
2006E
100
AcDbEntity
  8
0
100
AcDbPolyline
 70
0
 90
2
 10
658642.472677512
 20
3846360.09418071
 10
658695.241310487
 20
3846255.52621003
  0
LWPOLYLINE
  5
2006F
100
AcDbEntity
  8
0
100
AcDbPolyline
 70
0
 90
2
 10
658681.419536225
 20
3846379.73320814
 10
658642.472677512
 20
3846360.09418071
  0
LWPOLYLINE
  5
20070
100
AcDbEntity
  8
0
100
AcDbPolyline
 70
0
 90
2
 10
658681.419536225
 20
3846379.73320814
 10
658702.510360209
 20
3846328.98893381
  0
LWPOLYLINE
  5
20071
100
AcDbEntity
  8
0
100
AcDbPolyline
 70
0
 90
2
 10
658662.256551801
 20
3846408.55503014
 10
658681.419536225
 20
3846379.73320814
  0
LWPOLYLINE
  5
20072
100
AcDbEntity
  8
0
100
AcDbPolyline
 70
0
 90
3
 10
658635.322442859
 20
3846190.94015785
 10
658628.128607854
 20
3846187.17753255
 10
658644.954254932
 20
3846133.31632983
  0
LWPOLYLINE
  5
20073
100
AcDbEntity
  8
0
100
AcDbPolyline
 70
0
 90
3
 10
658658.345745044
 20
3846236.60482796
 10
658671.908131544
 20
3846210.07586645
 10
658635.322442859
 20
3846190.94015785
  0
LWPOLYLINE
  5
20074
100
AcDbEntity
  8
0
100
AcDbPolyline
 70
0
 90
2
 10
658688.810905602
 20
3846250.19810193
 10
658658.345745044
 20
3846236.60482796
  0
LWPOLYLINE
  5
20075
100
AcDbEntity
  8
0
100
AcDbPolyline
 70
0
 90
2
 10
658462.546572669
 20
3846625.04714388
 10
658427.565694082
 20
3846607.11426653
  0
LWPOLYLINE
  5
20076
100
AcDbEntity
  8
0
100
AcDbPolyline
 70
0
 90
2
 10
658462.546572669
 20
3846625.04714388
 10
658496.303915492
 20
3846565.7113056
  0
LWPOLYLINE
  5
20077
100
AcDbEntity
  8
0
100
AcDbPolyline
 70
0
 90
2
 10
658430.189511694
 20
3846696.96488894
 10
658462.546572669
 20
3846625.04714388
  0
LWPOLYLINE
  5
20078
100
AcDbEntity
  8
0
100
AcDbPolyline
 70
0
 90
2
 10
658427.565694082
 20
3846607.11426653
 10
658391.312727394
 20
3846588.52936133
  0
LWPOLYLINE
  5
20079
100
AcDbEntity
  8
0
100
AcDbPolyline
 70
0
 90
2
 10
658427.565694082
 20
3846607.11426653
 10
658472.807620076
 20
3846511.86662781
  0
LWPOLYLINE
  5
2007A
100
AcDbEntity
  8
0
100
AcDbPolyline
 70
0
 90
2
 10
658394.785119308
 20
3846678.90179311
 10
658427.565694082
 20
3846607.11426653
  0
LWPOLYLINE
  5
2007B
100
AcDbEntity
  8
0
100
AcDbPolyline
 70
0
 90
2
 10
658391.312727394
 20
3846588.52936133
 10
658437.557228573
 20
3846495.15922337
  0
LWPOLYLINE
  5
2007C
100
AcDbEntity
  8
0
100
AcDbPolyline
 70
0
 90
2
 10
658353.196560731
 20
3846568.98949116
 10
658391.312727394
 20
3846588.52936133
  0
LWPOLYLINE
  5
2007D
100
AcDbEntity
  8
0
100
AcDbPolyline
 70
0
 90
2
 10
658356.38011815
 20
3846659.06158442
 10
658391.312727394
 20
3846588.52936133
  0
LWPOLYLINE
  5
2007E
100
AcDbEntity
  8
0
100
AcDbPolyline
 70
0
 90
2
 10
658353.196560731
 20
3846568.98949116
 10
658314.445475782
 20
3846549.12456076
  0
LWPOLYLINE
  5
2007F
100
AcDbEntity
  8
0
100
AcDbPolyline
 70
0
 90
2
 10
658353.196560731
 20
3846568.98949116
 10
658372.882497073
 20
3846529.51364511
  0
LWPOLYLINE
  5
20080
100
AcDbEntity
  8
0
100
AcDbPolyline
 70
0
 90
2
 10
658316.972762289
 20
3846638.82520298
 10
658353.196560731
 20
3846568.98949116
  0
LWPOLYLINE
  5
20081
100
AcDbEntity
  8
0
100
AcDbPolyline
 70
0
 90
2
 10
658279.623252016
 20
3846531.27388853
 10
658314.445475782
 20
3846549.12456076
  0
LWPOLYLINE
  5
20082
100
AcDbEntity
  8
0
100
AcDbPolyline
 70
0
 90
2
 10
658279.623252016
 20
3846531.27388853
 10
658240.444782767
 20
3846511.19025566
  0
LWPOLYLINE
  5
20083
100
AcDbEntity
  8
0
100
AcDbPolyline
 70
0
 90
2
 10
658279.623252016
 20
3846531.27388853
 10
658298.586659466
 20
3846491.3482425
  0
LWPOLYLINE
  5
20084
100
AcDbEntity
  8
0
100
AcDbPolyline
 70
0
 90
2
 10
658244.110732435
 20
3846601.40977372
 10
658279.623252016
 20
3846531.27388853
  0
LWPOLYLINE
  5
20085
100
AcDbEntity
  8
0
100
AcDbPolyline
 70
0
 90
2
 10
658279.927495978
 20
3846619.80197285
 10
658314.445475782
 20
3846549.12456076
  0
LWPOLYLINE
  5
20086
100
AcDbEntity
  8
0
100
AcDbPolyline
 70
0
 90
2
 10
658240.444782767
 20
3846511.19025566
 10
658202.396347029
 20
3846491.68615928
  0
LWPOLYLINE
  5
20087
100
AcDbEntity
  8
0
100
AcDbPolyline
 70
0
 90
2
 10
658205.790862075
 20
3846581.73256046
 10
658240.444782767
 20
3846511.19025566
  0
LWPOLYLINE
  5
20088
100
AcDbEntity
  8
0
100
AcDbPolyline
 70
0
 90
2
 10
658202.396347029
 20
3846491.68615928
 10
658237.70204192
 20
3846419.60174471
  0
LWPOLYLINE
  5
20089
100
AcDbEntity
  8
0
100
AcDbPolyline
 70
0
 90
2
 10
658164.526123654
 20
3846472.27360342
 10
658202.396347029
 20
3846491.68615928
  0
LWPOLYLINE
  5
2008A
100
AcDbEntity
  8
0
100
AcDbPolyline
 70
0
 90
2
 10
658167.838816405
 20
3846562.24434063
 10
658202.396347029
 20
3846491.68615928
  0
LWPOLYLINE
  5
2008B
100
AcDbEntity
  8
0
100
AcDbPolyline
 70
0
 90
2
 10
658164.526123654
 20
3846472.27360342
 10
658127.61266948
 20
3846453.35171511
  0
LWPOLYLINE
  5
2008C
100
AcDbEntity
  8
0
100
AcDbPolyline
 70
0
 90
2
 10
658164.526123654
 20
3846472.27360342
 10
658199.930688142
 20
3846400.01702247
  0
LWPOLYLINE
  5
2008D
100
AcDbEntity
  8
0
100
AcDbPolyline
 70
0
 90
2
 10
658129.970212858
 20
3846542.79932403
 10
658164.526123654
 20
3846472.27360342
  0
LWPOLYLINE
  5
2008E
100
AcDbEntity
  8
0
100
AcDbPolyline
 70
0
 90
2
 10
658127.61266948
 20
3846453.35171511
 10
658091.273749903
 20
3846434.72464576
  0
LWPOLYLINE
  5
2008F
100
AcDbEntity
  8
0
100
AcDbPolyline
 70
0
 90
2
 10
658127.61266948
 20
3846453.35171511
 10
658162.683885081
 20
3846380.70452698
  0
LWPOLYLINE
  5
20090
100
AcDbEntity
  8
0
100
AcDbPolyline
 70
0
 90
2
 10
658093.47753757
 20
3846524.0609689
 10
658127.61266948
 20
3846453.35171511
  0
LWPOLYLINE
  5
20091
100
AcDbEntity
  8
0
100
AcDbPolyline
 70
0
 90
2
 10
658091.273749903
 20
3846434.72464576
 10
658053.459262203
 20
3846415.3413774
  0
LWPOLYLINE
  5
20092
100
AcDbEntity
  8
0
100
AcDbPolyline
 70
0
 90
2
 10
658091.273749903
 20
3846434.72464576
 10
658126.737402043
 20
3846362.06643879
  0
LWPOLYLINE
  5
20093
100
AcDbEntity
  8
0
100
AcDbPolyline
 70
0
 90
2
 10
658056.849832446
 20
3846505.25354846
 10
658091.273749903
 20
3846434.72464576
  0
LWPOLYLINE
  5
20094
100
AcDbEntity
  8
0
100
AcDbPolyline
 70
0
 90
3
 10
658056.849832446
 20
3846505.25354846
 10
658023.722393023
 20
3846488.2436551
 10
658053.459262203
 20
3846415.3413774
  0
LWPOLYLINE
  5
20095
100
AcDbEntity
  8
0
100
AcDbPolyline
 70
0
 90
2
 10
658162.683885081
 20
3846380.70452698
 10
658126.737402043
 20
3846362.06643879
  0
LWPOLYLINE
  5
20096
100
AcDbEntity
  8
0
100
AcDbPolyline
 70
0
 90
2
 10
658162.683885081
 20
3846380.70452698
 10
658199.930688142
 20
3846400.01702247
  0
LWPOLYLINE
  5
20097
100
AcDbEntity
  8
0
100
AcDbPolyline
 70
0
 90
2
 10
658237.70204192
 20
3846419.60174471
 10
658199.930688142
 20
3846400.01702247
  0
LWPOLYLINE
  5
20098
100
AcDbEntity
  8
0
100
AcDbPolyline
 70
0
 90
2
 10
658275.525611678
 20
3846439.21371174
 10
658237.70204192
 20
3846419.60174471
  0
LWPOLYLINE
  5
20099
100
AcDbEntity
  8
0
100
AcDbPolyline
 70
0
 90
2
 10
658093.47753757
 20
3846524.0609689
 10
658056.849832446
 20
3846505.25354846
  0
LWPOLYLINE
  5
2009A
100
AcDbEntity
  8
0
100
AcDbPolyline
 70
0
 90
2
 10
658060.398084109
 20
3846592.58460387
 10
658093.47753757
 20
3846524.0609689
  0
LWPOLYLINE
  5
2009B
100
AcDbEntity
  8
0
100
AcDbPolyline
 70
0
 90
2
 10
658129.970212858
 20
3846542.79932403
 10
658093.47753757
 20
3846524.0609689
  0
LWPOLYLINE
  5
2009C
100
AcDbEntity
  8
0
100
AcDbPolyline
 70
0
 90
2
 10
658060.398084109
 20
3846592.58460387
 10
658023.384732141
 20
3846573.81926954
  0
LWPOLYLINE
  5
2009D
100
AcDbEntity
  8
0
100
AcDbPolyline
 70
0
 90
2
 10
658027.71456067
 20
3846660.28895517
 10
658060.398084109
 20
3846592.58460387
  0
LWPOLYLINE
  5
2009E
100
AcDbEntity
  8
0
100
AcDbPolyline
 70
0
 90
2
 10
658096.587283491
 20
3846610.93232254
 10
658060.398084109
 20
3846592.58460387
  0
LWPOLYLINE
  5
2009F
100
AcDbEntity
  8
0
100
AcDbPolyline
 70
0
 90
2
 10
658027.71456067
 20
3846660.28895517
 10
657992.332974437
 20
3846640.00234959
  0
LWPOLYLINE
  5
200A0
100
AcDbEntity
  8
0
100
AcDbPolyline
 70
0
 90
2
 10
658063.12093326
 20
3846679.23639386
 10
658027.71456067
 20
3846660.28895517
  0
LWPOLYLINE
  5
200A1
100
AcDbEntity
  8
0
100
AcDbPolyline
 70
0
 90
2
 10
657993.61314121
 20
3846730.78309602
 10
658027.71456067
 20
3846660.28895517
  0
LWPOLYLINE
  5
200A2
100
AcDbEntity
  8
0
100
AcDbPolyline
 70
0
 90
2
 10
658023.384732141
 20
3846573.81926954
 10
658056.849832446
 20
3846505.25354846
  0
LWPOLYLINE
  5
200A3
100
AcDbEntity
  8
0
100
AcDbPolyline
 70
0
 90
2
 10
657992.332974437
 20
3846640.00234959
 10
658023.384732141
 20
3846573.81926954
  0
LWPOLYLINE
  5
200A4
100
AcDbEntity
  8
0
100
AcDbPolyline
 70
0
 90
2
 10
658096.587283491
 20
3846610.93232254
 10
658129.970212858
 20
3846542.79932403
  0
LWPOLYLINE
  5
200A5
100
AcDbEntity
  8
0
100
AcDbPolyline
 70
0
 90
2
 10
658134.56324376
 20
3846630.18613223
 10
658096.587283491
 20
3846610.93232254
  0
LWPOLYLINE
  5
200A6
100
AcDbEntity
  8
0
100
AcDbPolyline
 70
0
 90
2
 10
658063.12093326
 20
3846679.23639386
 10
658096.587283491
 20
3846610.93232254
  0
LWPOLYLINE
  5
200A7
100
AcDbEntity
  8
0
100
AcDbPolyline
 70
0
 90
2
 10
658134.56324376
 20
3846630.18613223
 10
658167.838816405
 20
3846562.24434063
  0
LWPOLYLINE
  5
200A8
100
AcDbEntity
  8
0
100
AcDbPolyline
 70
0
 90
2
 10
658172.531879788
 20
3846649.43643138
 10
658134.56324376
 20
3846630.18613223
  0
LWPOLYLINE
  5
200A9
100
AcDbEntity
  8
0
100
AcDbPolyline
 70
0
 90
2
 10
658100.693014203
 20
3846699.34304966
 10
658134.56324376
 20
3846630.18613223
  0
LWPOLYLINE
  5
200AA
100
AcDbEntity
  8
0
100
AcDbPolyline
 70
0
 90
2
 10
658172.531879788
 20
3846649.43643138
 10
658210.139063557
 20
3846668.50372603
  0
LWPOLYLINE
  5
200AB
100
AcDbEntity
  8
0
100
AcDbPolyline
 70
0
 90
2
 10
658172.531879788
 20
3846649.43643138
 10
658205.790862075
 20
3846581.73256046
  0
LWPOLYLINE
  5
200AC
100
AcDbEntity
  8
0
100
AcDbPolyline
 70
0
 90
2
 10
658139.902016097
 20
3846715.86029646
 10
658172.531879788
 20
3846649.43643138
  0
LWPOLYLINE
  5
200AD
100
AcDbEntity
  8
0
100
AcDbPolyline
 70
0
 90
2
 10
658210.139063557
 20
3846668.50372603
 10
658244.110732435
 20
3846601.40977372
  0
LWPOLYLINE
  5
200AE
100
AcDbEntity
  8
0
100
AcDbPolyline
 70
0
 90
2
 10
658247.10929655
 20
3846687.00828675
 10
658210.139063557
 20
3846668.50372603
  0
LWPOLYLINE
  5
200AF
100
AcDbEntity
  8
0
100
AcDbPolyline
 70
0
 90
2
 10
658176.316393885
 20
3846735.30457488
 10
658210.139063557
 20
3846668.50372603
  0
LWPOLYLINE
  5
200B0
100
AcDbEntity
  8
0
100
AcDbPolyline
 70
0
 90
2
 10
658247.10929655
 20
3846687.00828675
 10
658279.927495978
 20
3846619.80197285
  0
LWPOLYLINE
  5
200B1
100
AcDbEntity
  8
0
100
AcDbPolyline
 70
0
 90
2
 10
658282.619327744
 20
3846705.06995672
 10
658247.10929655
 20
3846687.00828675
  0
LWPOLYLINE
  5
200B2
100
AcDbEntity
  8
0
100
AcDbPolyline
 70
0
 90
2
 10
658213.910665499
 20
3846755.12231988
 10
658247.10929655
 20
3846687.00828675
  0
LWPOLYLINE
  5
200B3
100
AcDbEntity
  8
0
100
AcDbPolyline
 70
0
 90
2
 10
658282.619327744
 20
3846705.06995672
 10
658323.290233859
 20
3846725.87412279
  0
LWPOLYLINE
  5
200B4
100
AcDbEntity
  8
0
100
AcDbPolyline
 70
0
 90
2
 10
658282.619327744
 20
3846705.06995672
 10
658316.972762289
 20
3846638.82520298
  0
LWPOLYLINE
  5
200B5
100
AcDbEntity
  8
0
100
AcDbPolyline
 70
0
 90
2
 10
658248.935484914
 20
3846773.58579073
 10
658282.619327744
 20
3846705.06995672
  0
LWPOLYLINE
  5
200B6
100
AcDbEntity
  8
0
100
AcDbPolyline
 70
0
 90
2
 10
658323.290233859
 20
3846725.87412279
 10
658356.38011815
 20
3846659.06158442
  0
LWPOLYLINE
  5
200B7
100
AcDbEntity
  8
0
100
AcDbPolyline
 70
0
 90
2
 10
658361.376389029
 20
3846745.18529084
 10
658323.290233859
 20
3846725.87412279
  0
LWPOLYLINE
  5
200B8
100
AcDbEntity
  8
0
100
AcDbPolyline
 70
0
 90
2
 10
658289.15917684
 20
3846794.79006085
 10
658323.290233859
 20
3846725.87412279
  0
LWPOLYLINE
  5
200B9
100
AcDbEntity
  8
0
100
AcDbPolyline
 70
0
 90
2
 10
658361.376389029
 20
3846745.18529084
 10
658394.785119308
 20
3846678.90179311
  0
LWPOLYLINE
  5
200BA
100
AcDbEntity
  8
0
100
AcDbPolyline
 70
0
 90
2
 10
658396.511419445
 20
3846763.00033477
 10
658361.376389029
 20
3846745.18529084
  0
LWPOLYLINE
  5
200BB
100
AcDbEntity
  8
0
100
AcDbPolyline
 70
0
 90
2
 10
658326.458599841
 20
3846814.45311354
 10
658361.376389029
 20
3846745.18529084
  0
LWPOLYLINE
  5
200BC
100
AcDbEntity
  8
0
100
AcDbPolyline
 70
0
 90
2
 10
658396.511419445
 20
3846763.00033477
 10
658430.189511694
 20
3846696.96488894
  0
LWPOLYLINE
  5
200BD
100
AcDbEntity
  8
0
100
AcDbPolyline
 70
0
 90
2
 10
658360.896770078
 20
3846832.60794755
 10
658396.511419445
 20
3846763.00033477
  0
LWPOLYLINE
  5
200BE
100
AcDbEntity
  8
0
100
AcDbPolyline
 70
0
 90
2
 10
658167.838816405
 20
3846562.24434063
 10
658129.970212858
 20
3846542.79932403
  0
LWPOLYLINE
  5
200BF
100
AcDbEntity
  8
0
100
AcDbPolyline
 70
0
 90
2
 10
658167.838816405
 20
3846562.24434063
 10
658205.790862075
 20
3846581.73256046
  0
LWPOLYLINE
  5
200C0
100
AcDbEntity
  8
0
100
AcDbPolyline
 70
0
 90
2
 10
658244.110732435
 20
3846601.40977372
 10
658205.790862075
 20
3846581.73256046
  0
LWPOLYLINE
  5
200C1
100
AcDbEntity
  8
0
100
AcDbPolyline
 70
0
 90
2
 10
658279.927495978
 20
3846619.80197285
 10
658244.110732435
 20
3846601.40977372
  0
LWPOLYLINE
  5
200C2
100
AcDbEntity
  8
0
100
AcDbPolyline
 70
0
 90
2
 10
658279.927495978
 20
3846619.80197285
 10
658316.972762289
 20
3846638.82520298
  0
LWPOLYLINE
  5
200C3
100
AcDbEntity
  8
0
100
AcDbPolyline
 70
0
 90
2
 10
658356.38011815
 20
3846659.06158442
 10
658316.972762289
 20
3846638.82520298
  0
LWPOLYLINE
  5
200C4
100
AcDbEntity
  8
0
100
AcDbPolyline
 70
0
 90
2
 10
658394.785119308
 20
3846678.90179311
 10
658356.38011815
 20
3846659.06158442
  0
LWPOLYLINE
  5
200C5
100
AcDbEntity
  8
0
100
AcDbPolyline
 70
0
 90
2
 10
658394.785119308
 20
3846678.90179311
 10
658430.189511694
 20
3846696.96488894
  0
LWPOLYLINE
  5
200C6
100
AcDbEntity
  8
0
100
AcDbPolyline
 70
0
 90
2
 10
658451.864087348
 20
3846707.37676008
 10
658430.189511694
 20
3846696.96488894
  0
LWPOLYLINE
  5
200C7
100
AcDbEntity
  8
0
100
AcDbPolyline
 70
0
 90
2
 10
658028.813591617
 20
3846749.25836963
 10
658063.12093326
 20
3846679.23639386
  0
LWPOLYLINE
  5
200C8
100
AcDbEntity
  8
0
100
AcDbPolyline
 70
0
 90
2
 10
658100.693014203
 20
3846699.34304966
 10
658063.12093326
 20
3846679.23639386
  0
LWPOLYLINE
  5
200C9
100
AcDbEntity
  8
0
100
AcDbPolyline
 70
0
 90
2
 10
658028.813591617
 20
3846749.25836963
 10
657993.61314121
 20
3846730.78309602
  0
LWPOLYLINE
  5
200CA
100
AcDbEntity
  8
0
100
AcDbPolyline
 70
0
 90
2
 10
658012.285902325
 20
3846782.9919472
 10
658028.813591617
 20
3846749.25836963
  0
LWPOLYLINE
  5
200CB
100
AcDbEntity
  8
0
100
AcDbPolyline
 70
0
 90
2
 10
658066.547387969
 20
3846769.06358544
 10
658028.813591617
 20
3846749.25836963
  0
LWPOLYLINE
  5
200CC
100
AcDbEntity
  8
0
100
AcDbPolyline
 70
0
 90
2
 10
658066.547387969
 20
3846769.06358544
 10
658100.693014203
 20
3846699.34304966
  0
LWPOLYLINE
  5
200CD
100
AcDbEntity
  8
0
100
AcDbPolyline
 70
0
 90
3
 10
657993.61314121
 20
3846730.78309602
 10
657958.409832543
 20
3846712.3064736
 10
657992.332974437
 20
3846640.00234959
  0
LWPOLYLINE
  5
200CE
100
AcDbEntity
  8
0
100
AcDbPolyline
 70
0
 90
2
 10
657982.53036982
 20
3846752.92538272
 10
657993.61314121
 20
3846730.78309602
  0
LWPOLYLINE
  5
200CF
100
AcDbEntity
  8
0
100
AcDbPolyline
 70
0
 90
2
 10
658139.902016097
 20
3846715.86029646
 10
658100.693014203
 20
3846699.34304966
  0
LWPOLYLINE
  5
200D0
100
AcDbEntity
  8
0
100
AcDbPolyline
 70
0
 90
2
 10
658176.316393885
 20
3846735.30457488
 10
658139.902016097
 20
3846715.86029646
  0
LWPOLYLINE
  5
200D1
100
AcDbEntity
  8
0
100
AcDbPolyline
 70
0
 90
2
 10
658176.316393885
 20
3846735.30457488
 10
658213.910665499
 20
3846755.12231988
  0
LWPOLYLINE
  5
200D2
100
AcDbEntity
  8
0
100
AcDbPolyline
 70
0
 90
2
 10
658142.262641239
 20
3846804.05824417
 10
658176.316393885
 20
3846735.30457488
  0
LWPOLYLINE
  5
200D3
100
AcDbEntity
  8
0
100
AcDbPolyline
 70
0
 90
2
 10
658298.586659466
 20
3846491.3482425
 10
658324.470479406
 20
3846436.85319951
  0
LWPOLYLINE
  5
200D4
100
AcDbEntity
  8
0
100
AcDbPolyline
 70
0
 90
2
 10
658372.882497073
 20
3846529.51364511
 10
658298.586659466
 20
3846491.3482425
  0
LWPOLYLINE
  5
200D5
100
AcDbEntity
  8
0
100
AcDbPolyline
 70
0
 90
2
 10
658357.809115756
 20
3846454.59461165
 10
658324.470479406
 20
3846436.85319951
  0
LWPOLYLINE
  5
200D6
100
AcDbEntity
  8
0
100
AcDbPolyline
 70
0
 90
2
 10
658357.809115756
 20
3846454.59461165
 10
658399.452947325
 20
3846476.75609994
  0
LWPOLYLINE
  5
200D7
100
AcDbEntity
  8
0
100
AcDbPolyline
 70
0
 90
2
 10
658437.557228573
 20
3846495.15922337
 10
658399.452947325
 20
3846476.75609994
  0
LWPOLYLINE
  5
200D8
100
AcDbEntity
  8
0
100
AcDbPolyline
 70
0
 90
2
 10
658372.882497073
 20
3846529.51364511
 10
658399.452947325
 20
3846476.75609994
  0
LWPOLYLINE
  5
200D9
100
AcDbEntity
  8
0
100
AcDbPolyline
 70
0
 90
2
 10
658472.807620076
 20
3846511.86662781
 10
658437.557228573
 20
3846495.15922337
  0
LWPOLYLINE
  5
200DA
100
AcDbEntity
  8
0
100
AcDbPolyline
 70
0
 90
2
 10
658289.15917684
 20
3846794.79006085
 10
658248.935484914
 20
3846773.58579073
  0
LWPOLYLINE
  5
200DB
100
AcDbEntity
  8
0
100
AcDbPolyline
 70
0
 90
2
 10
658289.15917684
 20
3846794.79006085
 10
658326.458599841
 20
3846814.45311354
  0
LWPOLYLINE
  5
200DC
100
AcDbEntity
  8
0
100
AcDbPolyline
 70
0
 90
2
 10
658252.272800423
 20
3846869.27049283
 10
658289.15917684
 20
3846794.79006085
  0
LWPOLYLINE
  5
200DD
100
AcDbEntity
  8
0
100
AcDbPolyline
 70
0
 90
2
 10
658252.272800423
 20
3846869.27049283
 10
658211.897954694
 20
3846848.93178102
  0
LWPOLYLINE
  5
200DE
100
AcDbEntity
  8
0
100
AcDbPolyline
 70
0
 90
2
 10
658209.903550978
 20
3846954.82351961
 10
658252.272800423
 20
3846869.27049283
  0
LWPOLYLINE
  5
200DF
100
AcDbEntity
  8
0
100
AcDbPolyline
 70
0
 90
2
 10
658277.129172263
 20
3846881.79192019
 10
658252.272800423
 20
3846869.27049283
  0
LWPOLYLINE
  5
200E0
100
AcDbEntity
  8
0
100
AcDbPolyline
 70
0
 90
2
 10
658187.563522152
 20
3846898.43636257
 10
658211.897954694
 20
3846848.93178102
  0
LWPOLYLINE
  5
200E1
100
AcDbEntity
  8
0
100
AcDbPolyline
 70
0
 90
2
 10
658211.897954694
 20
3846848.93178102
 10
658248.935484914
 20
3846773.58579073
  0
LWPOLYLINE
  5
200E2
100
AcDbEntity
  8
0
100
AcDbPolyline
 70
0
 90
2
 10
658248.935484914
 20
3846773.58579073
 10
658213.910665499
 20
3846755.12231988
  0
LWPOLYLINE
  5
200E3
100
AcDbEntity
  8
0
100
AcDbPolyline
 70
0
 90
2
 10
658172.799221705
 20
3846839.4819967
 10
658213.910665499
 20
3846755.12231988
  0
LWPOLYLINE
  5
200E4
100
AcDbEntity
  8
0
100
AcDbPolyline
 70
0
 90
2
 10
658360.896770078
 20
3846832.60794755
 10
658326.458599841
 20
3846814.45311354
  0
LWPOLYLINE
  5
200E5
100
AcDbEntity
  8
0
100
AcDbPolyline
 70
0
 90
2
 10
658388.919518787
 20
3846847.38096742
 10
658360.896770078
 20
3846832.60794755
  0
LWPOLYLINE
  5
200E6
100
AcDbEntity
  8
0
100
AcDbPolyline
 70
0
 90
2
 10
658348.787651551
 20
3846856.27504165
 10
658360.896770078
 20
3846832.60794755
  0
LWPOLYLINE
  5
200E7
100
AcDbEntity
  8
0
100
AcDbPolyline
 70
0
 90
3
 10
658472.807620076
 20
3846511.86662781
 10
658485.749905925
 20
3846488.21757375
 10
658518.498564755
 20
3846508.15740657
  0
LWPOLYLINE
  5
200E8
100
AcDbEntity
  8
0
100
AcDbPolyline
 70
0
 90
2
 10
658518.498564755
 20
3846508.15740657
 10
658539.893677069
 20
3846477.02047541
  0
LWPOLYLINE
  5
200E9
100
AcDbEntity
  8
0
100
AcDbPolyline
 70
0
 90
3
 10
658496.303915492
 20
3846565.7113056
 10
658513.269958835
 20
3846524.95096633
 10
658518.498564755
 20
3846508.15740657
  0
LWPOLYLINE
  5
200EA
100
AcDbEntity
  8
0
100
AcDbPolyline
 70
0
 90
4
 10
658539.893677069
 20
3846477.02047541
 10
658531.324541841
 20
3846423.79915313
 10
658522.935710031
 20
3846420.3943206
 10
658521.313082846
 20
3846382.82211459
  0
LWPOLYLINE
  5
200EB
100
AcDbEntity
  8
0
100
AcDbPolyline
 70
0
 90
4
 10
658567.292757222
 20
3846516.47492521
 10
658571.591013225
 20
3846504.84936128
 10
658568.474571874
 20
3846493.88855253
 10
658539.893677069
 20
3846477.02047541
  0
LWPOLYLINE
  5
200EC
100
AcDbEntity
  8
0
100
AcDbPolyline
 70
0
 90
2
 10
658736.627894421
 20
3846333.30836387
 10
658702.510360209
 20
3846328.98893381
  0
LWPOLYLINE
  5
200ED
100
AcDbEntity
  8
0
100
AcDbPolyline
 70
0
 90
4
 10
658736.627894421
 20
3846333.30836387
 10
658736.340375682
 20
3846312.1482142
 10
658725.568055008
 20
3846286.75763995
 10
658695.241310487
 20
3846255.52621003
  0
LWPOLYLINE
  5
200EE
100
AcDbEntity
  8
0
100
AcDbPolyline
 70
0
 90
2
 10
658496.303915492
 20
3846565.7113056
 10
658528.496807661
 20
3846582.91409576
  0
LWPOLYLINE
  5
200EF
100
AcDbEntity
  8
0
100
AcDbPolyline
 70
0
 90
2
 10
658528.496807661
 20
3846582.91409576
 10
658567.292757222
 20
3846516.47492521
  0
LWPOLYLINE
  5
200F0
100
AcDbEntity
  8
0
100
AcDbPolyline
 70
0
 90
2
 10
658539.178641828
 20
3846591.08827293
 10
658528.496807661
 20
3846582.91409576
  0
LWPOLYLINE
  5
200F1
100
AcDbEntity
  8
0
100
AcDbPolyline
 70
0
 90
2
 10
658539.178641828
 20
3846591.08827293
 10
658550.963521421
 20
3846575.10655913
  0
LWPOLYLINE
  5
200F2
100
AcDbEntity
  8
0
100
AcDbPolyline
 70
0
 90
2
 10
658569.897597231
 20
3846585.49431494
 10
658550.963521421
 20
3846575.10655913
  0
LWPOLYLINE
  5
200F3
100
AcDbEntity
  8
0
100
AcDbPolyline
 70
0
 90
2
 10
658569.897597231
 20
3846585.49431494
 10
658581.373794145
 20
3846561.80358083
  0
LWPOLYLINE
  5
200F4
100
AcDbEntity
  8
0
100
AcDbPolyline
 70
0
 90
2
 10
658595.591121104
 20
3846599.59052881
 10
658569.897597231
 20
3846585.49431494
  0
LWPOLYLINE
  5
200F5
100
AcDbEntity
  8
0
100
AcDbPolyline
 70
0
 90
2
 10
658532.49599002
 20
3846621.79069086
 10
658569.897597231
 20
3846585.49431494
  0
LWPOLYLINE
  5
200F6
100
AcDbEntity
  8
0
100
AcDbPolyline
 70
0
 90
2
 10
658595.591121104
 20
3846599.59052881
 10
658612.663856171
 20
3846586.6319399
  0
LWPOLYLINE
  5
200F7
100
AcDbEntity
  8
0
100
AcDbPolyline
 70
0
 90
2
 10
658550.420642995
 20
3846636.13896715
 10
658595.591121104
 20
3846599.59052881
  0
LWPOLYLINE
  5
200F8
100
AcDbEntity
  8
0
100
AcDbPolyline
 70
0
 90
2
 10
658468.082164409
 20
3846715.16740668
 10
658451.864087348
 20
3846707.37676008
  0
LWPOLYLINE
  5
200F9
100
AcDbEntity
  8
0
100
AcDbPolyline
 70
0
 90
2
 10
658468.082164409
 20
3846715.16740668
 10
658550.420642995
 20
3846636.13896715
  0
LWPOLYLINE
  5
200FA
100
AcDbEntity
  8
0
100
AcDbPolyline
 70
0
 90
2
 10
658451.864087348
 20
3846707.37676008
 10
658532.49599002
 20
3846621.79069086
  0
LWPOLYLINE
  5
200FB
100
AcDbEntity
  8
0
100
AcDbPolyline
 70
0
 90
2
 10
658550.420642995
 20
3846636.13896715
 10
658532.49599002
 20
3846621.79069086
  0
LWPOLYLINE
  5
200FC
100
AcDbEntity
  8
0
100
AcDbPolyline
 70
0
 90
2
 10
658566.915928005
 20
3846652.7174357
 10
658550.420642995
 20
3846636.13896715
  0
LWPOLYLINE
  5
200FD
100
AcDbEntity
  8
0
100
AcDbPolyline
 70
0
 90
2
 10
658581.373794145
 20
3846561.80358083
 10
658594.051925181
 20
3846543.13730947
  0
LWPOLYLINE
  5
200FE
100
AcDbEntity
  8
0
100
AcDbPolyline
 70
0
 90
2
 10
658612.663856171
 20
3846586.6319399
 10
658581.373794145
 20
3846561.80358083
  0
LWPOLYLINE
  5
200FF
100
AcDbEntity
  8
0
100
AcDbPolyline
 70
0
 90
2
 10
658612.663856171
 20
3846586.6319399
 10
658618.342113042
 20
3846581.59188586
  0
LWPOLYLINE
  5
20100
100
AcDbEntity
  8
0
100
AcDbPolyline
 70
0
 90
2
 10
658618.342113042
 20
3846581.59188586
 10
658634.795511845
 20
3846566.98802799
  0
LWPOLYLINE
  5
20101
100
AcDbEntity
  8
0
100
AcDbPolyline
 70
0
 90
3
 10
658566.915928005
 20
3846652.7174357
 10
658634.582900837
 20
3846598.68607444
 10
658618.342113042
 20
3846581.59188586
  0
LWPOLYLINE
  5
20102
100
AcDbEntity
  8
0
100
AcDbPolyline
 70
0
 90
2
 10
658634.795511845
 20
3846566.98802799
 10
658667.767107836
 20
3846538.13652697
  0
LWPOLYLINE
  5
20103
100
AcDbEntity
  8
0
100
AcDbPolyline
 70
0
 90
2
 10
658594.051925181
 20
3846543.13730947
 10
658634.795511845
 20
3846566.98802799
  0
LWPOLYLINE
  5
20104
100
AcDbEntity
  8
0
100
AcDbPolyline
 70
0
 90
2
 10
658594.051925181
 20
3846543.13730947
 10
658597.310930204
 20
3846531.27428282
  0
LWPOLYLINE
  5
20105
100
AcDbEntity
  8
0
100
AcDbPolyline
 70
0
 90
2
 10
658597.310930204
 20
3846531.27428282
 10
658567.292757222
 20
3846516.47492521
  0
LWPOLYLINE
  5
20106
100
AcDbEntity
  8
0
100
AcDbPolyline
 70
0
 90
2
 10
658597.310930204
 20
3846531.27428282
 10
658615.203083051
 20
3846498.75157796
  0
LWPOLYLINE
  5
20107
100
AcDbEntity
  8
0
100
AcDbPolyline
 70
0
 90
2
 10
658608.566965474
 20
3846489.30733224
 10
658662.256551801
 20
3846408.55503014
  0
LWPOLYLINE
  5
20108
100
AcDbEntity
  8
0
100
AcDbPolyline
 70
0
 90
3
 10
658725.006989993
 20
3846452.74539709
 10
658685.436171336
 20
3846426.67349017
 10
658662.256551801
 20
3846408.55503014
  0
LWPOLYLINE
  5
20109
100
AcDbEntity
  8
0
100
AcDbPolyline
 70
0
 90
2
 10
658608.566965474
 20
3846489.30733224
 10
658615.203083051
 20
3846498.75157796
  0
LWPOLYLINE
  5
2010A
100
AcDbEntity
  8
0
100
AcDbPolyline
 70
0
 90
2
 10
658694.666169229
 20
3846551.8883672
 10
658667.767107836
 20
3846538.13652697
  0
LWPOLYLINE
  5
2010B
100
AcDbEntity
  8
0
100
AcDbPolyline
 70
0
 90
2
 10
658694.666169229
 20
3846551.8883672
 10
658729.808883073
 20
3846489.71255068
  0
LWPOLYLINE
  5
2010C
100
AcDbEntity
  8
0
100
AcDbPolyline
 70
0
 90
2
 10
658729.967537071
 20
3846569.93586236
 10
658694.666169229
 20
3846551.8883672
  0
LWPOLYLINE
  5
2010D
100
AcDbEntity
  8
0
100
AcDbPolyline
 70
0
 90
2
 10
658729.808883073
 20
3846489.71255068
 10
658738.006073663
 20
3846463.60454873
  0
LWPOLYLINE
  5
2010E
100
AcDbEntity
  8
0
100
AcDbPolyline
 70
0
 90
2
 10
658737.902779481
 20
3846493.61827696
 10
658729.808883073
 20
3846489.71255068
  0
LWPOLYLINE
  5
2010F
100
AcDbEntity
  8
0
100
AcDbPolyline
 70
0
 90
2
 10
658744.561188496
 20
3846497.1150437
 10
658737.902779481
 20
3846493.61827696
  0
LWPOLYLINE
  5
20110
100
AcDbEntity
  8
0
100
AcDbPolyline
 70
0
 90
5
 10
658744.561188496
 20
3846497.1150437
 10
658769.544197746
 20
3846490.82953353
 10
658783.16433308
 20
3846480.72211592
 10
658776.615903007
 20
3846470.46116392
 10
658762.394152609
 20
3846463.3979428
  0
LWPOLYLINE
  5
20111
100
AcDbEntity
  8
0
100
AcDbPolyline
 70
0
 90
2
 10
658737.902779481
 20
3846493.61827696
 10
658762.394152609
 20
3846463.3979428
  0
LWPOLYLINE
  5
20112
100
AcDbEntity
  8
0
100
AcDbPolyline
 70
0
 90
2
 10
658762.394152609
 20
3846463.3979428
 10
658782.406064567
 20
3846445.00581567
  0
LWPOLYLINE
  5
20113
100
AcDbEntity
  8
0
100
AcDbPolyline
 70
0
 90
2
 10
658792.461080101
 20
3846458.6260692
 10
658782.406064567
 20
3846445.00581567
  0
ENDSEC
  0
SECTION
  2
OBJECTS
  0
DICTIONARY
  5
C
330
0
100
AcDbDictionary
281
     1
  3
ACAD_GROUP
350
D
  3
ACAD_LAYOUT
350
1A
  3
ACAD_MLEADERSTYLE
350
43
  3
ACAD_PLOTSETTINGS
350
19
  3
ACAD_PLOTSTYLENAME
350
E
  3
ACAD_TABLESTYLE
350
42
  0
DICTIONARY
  5
D
102
{ACAD_REACTORS
330
C
102
}
330
C
100
AcDbDictionary
281
     1
  0
DICTIONARY
  5
1A
102
{ACAD_REACTORS
330
C
102
}
330
C
100
AcDbDictionary
281
     1
  3
Layout1
350
1E
  3
Model
350
22
  0
DICTIONARY
  5
43
102
{ACAD_REACTORS
330
C
102
}
330
C
100
AcDbDictionary
281
     1
  0
DICTIONARY
  5
19
102
{ACAD_REACTORS
330
C
102
}
330
C
100
AcDbDictionary
281
     1
  0
ACDBDICTIONARYWDFLT
  5
E
102
{ACAD_REACTORS
330
C
102
}
330
C
100
AcDbDictionary
281
     1
  3
Normal
350
F
100
AcDbDictionaryWithDefault
340
F
  0
DICTIONARY
  5
42
102
{ACAD_REACTORS
330
C
102
}
330
C
100
AcDbDictionary
281
     1
  0
LAYOUT
  5
1E
102
{ACAD_REACTORS
330
1A
102
}
330
1A
100
AcDbPlotSettings
  1

  2
none_device
  4

  6

 40
0.0
 41
0.0
 42
0.0
 43
0.0
 44
0.0
 45
0.0
 46
0.0
 47
0.0
 48
0.0
 49
0.0
140
0.0
141
0.0
142
1.0
143
1.0
 70
   688
 72
     0
 73
     0
 74
     5
  7

 75
    16
 76
     0
 77
     2
 78
   300
147
1.0
148
0.0
149
0.0
100
AcDbLayout
  1
Layout1
 70
     1
 71
     1
 10
0.0
 20
0.0
 11
12.0
 21
9.0
 12
0.0
 22
0.0
 32
0.0
 14
1.000000000000000E+20
 24
1.000000000000000E+20
 34
1.000000000000000E+20
 15
-1.000000000000000E+20
 25
-1.000000000000000E+20
 35
-1.000000000000000E+20
146
0.0
 13
0.0
 23
0.0
 33
0.0
 16
1.0
 26
0.0
 36
0.0
 17
0.0
 27
1.0
 37
0.0
 76
     0
330
1B
  0
LAYOUT
  5
22
102
{ACAD_REACTORS
330
1A
102
}
330
1A
100
AcDbPlotSettings
  1

  2
none_device
  4

  6

 40
0.0
 41
0.0
 42
0.0
 43
0.0
 44
0.0
 45
0.0
 46
0.0
 47
0.0
 48
0.0
 49
0.0
140
0.0
141
0.0
142
1.0
143
1.0
 70
  1712
 72
     0
 73
     0
 74
     0
  7

 75
     0
 76
     0
 77
     2
 78
   300
147
1.0
148
0.0
149
0.0
100
AcDbLayout
  1
Model
 70
     1
 71
     0
 10
0.0
 20
0.0
 11
12.0
 21
9.0
 12
0.0
 22
0.0
 32
0.0
 14
30.0
 24
49.75
 34
0.0
 15
130.5
 25
163.1318914119703
 35
0.0
146
0.0
 13
0.0
 23
0.0
 33
0.0
 16
1.0
 26
0.0
 36
0.0
 17
0.0
 27
1.0
 37
0.0
 76
     0
330
1F
331
29
  0
ENDSEC
  0
EOF
