  0
SECTION
  2
HEADER
  9
$ACADVER
  1
AC1018
  9
$ACADMAINTVER
 70
     0
  9
$DWGCODEPAGE
  3
ANSI_1252
  9
$EXTMIN
 10
699969.453928142
 20
4462575.96606982
 30
0.0
  9
$EXTMAX
 10
700428.686969584
 20
4463673.62129352
 30
0.0
  9
$LIMMIN
 10
0.0
 20
0.0
  9
$LIMMAX
 10
12.0
 20
9.0
  9
$ORTHOMODE
 70
     0
  9
$REGENMODE
 70
     1
  9
$FILLMODE
 70
     1
  9
$QTEXTMODE
 70
     0
  9
$MIRRTEXT
 70
     1
  9
$LTSCALE
 40
1.0
  9
$ATTMODE
 70
     1
  9
$TEXTSIZE
 40
0.2
  9
$TRACEWID
 40
0.05
  9
$TEXTSTYLE
  7
Standard
  9
$CLAYER
  8
0
  9
$CELTYPE
  6
ByLayer
  9
$CECOLOR
 62
   256
  9
$CELTSCALE
 40
1.0
  9
$DISPSILH
 70
     0
  9
$LUNITS
 70
     2
  9
$LUPREC
 70
     4
  9
$SKETCHINC
 40
0.1
  9
$FILLETRAD
 40
0.5
  9
$AUNITS
 70
     0
  9
$AUPREC
 70
     0
  9
$MENU
  1
.
  9
$ELEVATION
 40
0.0
  9
$PELEVATION
 40
0.0
  9
$THICKNESS
 40
0.0
  9
$LIMCHECK
 70
     0
  9
$CHAMFERA
 40
0.5
  9
$CHAMFERB
 40
0.5
  9
$CHAMFERC
 40
1.0
  9
$CHAMFERD
 40
0.0
  9
$SKPOLY
 70
     0
  9
$ANGBASE
 50
0.0
  9
$ANGDIR
 70
     0
  9
$PDMODE
 70
     0
  9
$PDSIZE
 40
0.0
  9
$PLINEWID
 40
0.0
  9
$SPLFRAME
 70
     0
  9
$SPLINETYPE
 70
     6
  9
$SPLINESEGS
 70
     8
  9
$HANDSEED
  5
000200D2
  9
$SURFTAB1
 70
     6
  9
$SURFTAB2
 70
     6
  9
$SURFTYPE
 70
     6
  9
$SURFU
 70
     6
  9
$SURFV
 70
     6
  9
$UCSBASE
  2

  9
$UCSNAME
  2

  9
$UCSORG
 10
0.0
 20
0.0
 30
0.0
  9
$UCSXDIR
 10
1.0
 20
0.0
 30
0.0
  9
$UCSYDIR
 10
0.0
 20
1.0
 30
0.0
  9
$UCSORTHOREF
  2

  9
$UCSORTHOVIEW
 70
     0
  9
$UCSORGTOP
 10
0.0
 20
0.0
 30
0.0
  9
$UCSORGBOTTOM
 10
0.0
 20
0.0
 30
0.0
  9
$UCSORGLEFT
 10
0.0
 20
0.0
 30
0.0
  9
$UCSORGRIGHT
 10
0.0
 20
0.0
 30
0.0
  9
$UCSORGFRONT
 10
0.0
 20
0.0
 30
0.0
  9
$UCSORGBACK
 10
0.0
 20
0.0
 30
0.0
  9
$PUCSBASE
  2

  9
$PUCSNAME
  2

  9
$PUCSORG
 10
0.0
 20
0.0
 30
0.0
  9
$PUCSXDIR
 10
1.0
 20
0.0
 30
0.0
  9
$PUCSYDIR
 10
0.0
 20
1.0
 30
0.0
  9
$PUCSORTHOREF
  2

  9
$PUCSORTHOVIEW
 70
     0
  9
$PUCSORGTOP
 10
0.0
 20
0.0
 30
0.0
  9
$PUCSORGBOTTOM
 10
0.0
 20
0.0
 30
0.0
  9
$PUCSORGLEFT
 10
0.0
 20
0.0
 30
0.0
  9
$PUCSORGRIGHT
 10
0.0
 20
0.0
 30
0.0
  9
$PUCSORGFRONT
 10
0.0
 20
0.0
 30
0.0
  9
$PUCSORGBACK
 10
0.0
 20
0.0
 30
0.0
  9
$WORLDVIEW
 70
     1
  9
$SHADEDGE
 70
     3
  9
$SHADEDIF
 70
    70
  9
$TILEMODE
 70
     1
  9
$MAXACTVP
 70
    64
  9
$PINSBASE
 10
0.0
 20
0.0
 30
0.0
  9
$PLIMCHECK
 70
     0
  9
$PEXTMIN
 10
1.000000000000000E+20
 20
1.000000000000000E+20
 30
1.000000000000000E+20
  9
$PEXTMAX
 10
-1.000000000000000E+20
 20
-1.000000000000000E+20
 30
-1.000000000000000E+20
  9
$PLIMMIN
 10
0.0
 20
0.0
  9
$PLIMMAX
 10
12.0
 20
9.0
  9
$UNITMODE
 70
     0
  9
$VISRETAIN
 70
     1
  9
$PLINEGEN
 70
     0
  9
$PSLTSCALE
 70
     1
  9
$TREEDEPTH
 70
  3020
  9
$CMLSTYLE
  2
Standard
  9
$CMLJUST
 70
     0
  9
$CMLSCALE
 40
1.0
  9
$PROXYGRAPHICS
 70
     1
  9
$MEASUREMENT
 70
     0
  9
$CELWEIGHT
370
    -1
  9
$ENDCAPS
280
     0
  9
$JOINSTYLE
280
     0
  9
$LWDISPLAY
290
     0
  9
$INSUNITS
 70
     1
  9
$HYPERLINKBASE
  1

  9
$STYLESHEET
  1

  9
$XEDIT
290
     1
  9
$CEPSNTYPE
380
     0
  9
$PSTYLEMODE
290
     1
  9
$EXTNAMES
290
     1
  9
$PSVPSCALE
 40
0.0
  9
$OLESTARTUP
290
     0
  9
$SORTENTS
280
   127
  9
$INDEXCTL
280
     0
  9
$HIDETEXT
280
     1
  9
$XCLIPFRAME
290
     0
  9
$HALOGAP
280
     0
  9
$OBSCOLOR
 70
   257
  9
$OBSLTYPE
280
     0
  9
$INTERSECTIONDISPLAY
280
     0
  9
$INTERSECTIONCOLOR
 70
   257
  9
$DIMASSOC
280
     2
  9
$PROJECTNAME
  1

  0
ENDSEC
  0
SECTION
  2
CLASSES
  0
CLASS
  1
ACDBDICTIONARYWDFLT
  2
AcDbDictionaryWithDefault
  3
ObjectDBX Classes
 90
        0
 91
        4
280
     0
281
     0
  0
ENDSEC
  0
SECTION
  2
TABLES
  0
TABLE
  2
VPORT
  5
8
330
0
100
AcDbSymbolTable
 70
     1
  0
VPORT
  5
29
330
8
100
AcDbSymbolTableRecord
100
AcDbViewportTableRecord
  2
*Active
 70
     0
 10
0.0
 20
0.0
 11
1.0
 21
1.0
 12
80.25
 22
106.4409457059851
 13
0.0
 23
0.0
 14
0.5
 24
0.5
 15
0.5
 25
0.5
 16
0.0
 26
0.0
 36
1.0
 17
0.0
 27
0.0
 37
0.0
 40
113.3818914119703
 41
0.8863849310366128
 42
50.0
 43
0.0
 44
0.0
 50
0.0
 51
0.0
 71
     0
 72
  1000
 73
     1
 74
     3
 75
     0
 76
     0
 77
     0
 78
     0
281
     0
 65
     1
110
0.0
120
0.0
130
0.0
111
1.0
121
0.0
131
0.0
112
0.0
122
1.0
132
0.0
 79
     0
146
0.0
  0
ENDTAB
  0
TABLE
  2
LTYPE
  5
5
330
0
100
AcDbSymbolTable
 70
     1
  0
LTYPE
  5
14
330
5
100
AcDbSymbolTableRecord
100
AcDbLinetypeTableRecord
  2
ByBlock
 70
     0
  3

 72
    65
 73
     0
 40
0.0
  0
LTYPE
  5
15
330
5
100
AcDbSymbolTableRecord
100
AcDbLinetypeTableRecord
  2
ByLayer
 70
     0
  3

 72
    65
 73
     0
 40
0.0
  0
LTYPE
  5
16
330
5
100
AcDbSymbolTableRecord
100
AcDbLinetypeTableRecord
  2
Continuous
 70
     0
  3
Solid line
 72
    65
 73
     0
 40
0.0
  0
ENDTAB
  0
TABLE
  2
LAYER
  5
2
330
0
100
AcDbSymbolTable
 70
     1
  0
LAYER
  5
10
330
2
100
AcDbSymbolTableRecord
100
AcDbLayerTableRecord
  2
0
 70
     0
 62
     7
  6
Continuous
370
    -3
390
F
  0
ENDTAB
  0
TABLE
  2
STYLE
  5
3
330
0
100
AcDbSymbolTable
 70
     1
  0
STYLE
  5
11
330
3
100
AcDbSymbolTableRecord
100
AcDbTextStyleTableRecord
  2
Standard
 70
     0
 40
0.0
 41
1.0
 50
0.0
 71
     0
 42
0.2
  3
txt
  4

  0
ENDTAB
  0
TABLE
  2
VIEW
  5
6
330
0
100
AcDbSymbolTable
 70
     0
  0
ENDTAB
  0
TABLE
  2
UCS
  5
7
330
0
100
AcDbSymbolTable
 70
     0
  0
ENDTAB
  0
TABLE
  2
APPID
  5
9
330
0
100
AcDbSymbolTable
 70
     1
  0
APPID
  5
12
330
9
100
AcDbSymbolTableRecord
100
AcDbRegAppTableRecord
  2
ACAD
 70
     0
  0
ENDTAB
  0
TABLE
  2
DIMSTYLE
  5
A
330
0
100
AcDbSymbolTable
 70
     1
100
AcDbDimStyleTable
  0
DIMSTYLE
105
27
330
A
100
AcDbSymbolTableRecord
100
AcDbDimStyleTableRecord
  2
Standard
 70
     0
340
11
  0
ENDTAB
  0
TABLE
  2
BLOCK_RECORD
  5
1
330
0
100
AcDbSymbolTable
 70
     1
  0
BLOCK_RECORD
  5
1F
330
1
100
AcDbSymbolTableRecord
100
AcDbBlockTableRecord
  2
*Model_Space
340
22
  0
BLOCK_RECORD
  5
1B
330
1
100
AcDbSymbolTableRecord
100
AcDbBlockTableRecord
  2
*Paper_Space
340
1E
  0
ENDTAB
  0
ENDSEC
  0
SECTION
  2
BLOCKS
  0
BLOCK
  5
20
330
1F
100
AcDbEntity
  8
0
100
AcDbBlockBegin
  2
*Model_Space
 70
     0
 10
0.0
 20
0.0
 30
0.0
  3
*Model_Space
  1

  0
ENDBLK
  5
21
330
1F
100
AcDbEntity
  8
0
100
AcDbBlockEnd
  0
BLOCK
  5
1C
330
1B
100
AcDbEntity
 67
     1
  8
0
100
AcDbBlockBegin
  2
*Paper_Space
 70
     0
 10
0.0
 20
0.0
 30
0.0
  3
*Paper_Space
  1

  0
ENDBLK
  5
1D
330
1B
100
AcDbEntity
 67
     1
  8
0
100
AcDbBlockEnd
  0
ENDSEC
  0
SECTION
  2
ENTITIES
  0
LWPOLYLINE
  5
20000
100
AcDbEntity
  8
0
100
AcDbPolyline
 70
0
 90
2
 10
700146.635448998
 20
4463644.67584577
 10
700190.820803027
 20
4463638.99644368
  0
LWPOLYLINE
  5
20001
100
AcDbEntity
  8
0
100
AcDbPolyline
 70
0
 90
2
 10
700146.635448998
 20
4463644.67584577
 10
700143.324952636
 20
4463603.69678305
  0
LWPOLYLINE
  5
20002
100
AcDbEntity
  8
0
100
AcDbPolyline
 70
0
 90
2
 10
700146.635448998
 20
4463644.67584577
 10
700123.772541733
 20
4463621.76310604
  0
LWPOLYLINE
  5
20003
100
AcDbEntity
  8
0
100
AcDbPolyline
 70
0
 90
2
 10
700168.696401357
 20
4463673.62129352
 10
700146.635448998
 20
4463644.67584577
  0
LWPOLYLINE
  5
20004
100
AcDbEntity
  8
0
100
AcDbPolyline
 70
0
 90
2
 10
700190.820803027
 20
4463638.99644368
 10
700186.541212598
 20
4463597.56664591
  0
LWPOLYLINE
  5
20005
100
AcDbEntity
  8
0
100
AcDbPolyline
 70
0
 90
3
 10
700190.820803027
 20
4463638.99644368
 10
700288.650357143
 20
4463624.98738377
 10
700284.207987101
 20
4463583.71357939
  0
LWPOLYLINE
  5
20006
100
AcDbEntity
  8
0
100
AcDbPolyline
 70
0
 90
2
 10
700143.324952636
 20
4463603.69678305
 10
700186.541212598
 20
4463597.56664591
  0
LWPOLYLINE
  5
20007
100
AcDbEntity
  8
0
100
AcDbPolyline
 70
0
 90
2
 10
700122.595477334
 20
4463606.72943264
 10
700143.324952636
 20
4463603.69678305
  0
LWPOLYLINE
  5
20008
100
AcDbEntity
  8
0
100
AcDbPolyline
 70
0
 90
2
 10
700122.595477334
 20
4463606.72943264
 10
700123.772541733
 20
4463621.76310604
  0
LWPOLYLINE
  5
20009
100
AcDbEntity
  8
0
100
AcDbPolyline
 70
0
 90
2
 10
700186.541212598
 20
4463597.56664591
 10
700182.370055434
 20
4463557.18687582
  0
LWPOLYLINE
  5
2000A
100
AcDbEntity
  8
0
100
AcDbPolyline
 70
0
 90
2
 10
700186.541212598
 20
4463597.56664591
 10
700284.207987101
 20
4463583.71357939
  0
LWPOLYLINE
  5
2000B
100
AcDbEntity
  8
0
100
AcDbPolyline
 70
0
 90
2
 10
700284.207987101
 20
4463583.71357939
 10
700279.751641622
 20
4463542.31032509
  0
LWPOLYLINE
  5
2000C
100
AcDbEntity
  8
0
100
AcDbPolyline
 70
0
 90
2
 10
700279.751641622
 20
4463542.31032509
 10
700275.357965011
 20
4463501.49008201
  0
LWPOLYLINE
  5
2000D
100
AcDbEntity
  8
0
100
AcDbPolyline
 70
0
 90
2
 10
700182.370055434
 20
4463557.18687582
 10
700279.751641622
 20
4463542.31032509
  0
LWPOLYLINE
  5
2000E
100
AcDbEntity
  8
0
100
AcDbPolyline
 70
0
 90
2
 10
700275.357965011
 20
4463501.49008201
 10
700273.366791092
 20
4463460.07346809
  0
LWPOLYLINE
  5
2000F
100
AcDbEntity
  8
0
100
AcDbPolyline
 70
0
 90
2
 10
700178.033786993
 20
4463515.20957962
 10
700275.357965011
 20
4463501.49008201
  0
LWPOLYLINE
  5
20010
100
AcDbEntity
  8
0
100
AcDbPolyline
 70
0
 90
2
 10
700273.366791092
 20
4463460.07346809
 10
700266.595377442
 20
4463420.08123685
  0
LWPOLYLINE
  5
20011
100
AcDbEntity
  8
0
100
AcDbPolyline
 70
0
 90
2
 10
700273.366791092
 20
4463460.07346809
 10
700305.643899577
 20
4463458.17597388
  0
LWPOLYLINE
  5
20012
100
AcDbEntity
  8
0
100
AcDbPolyline
 70
0
 90
2
 10
700273.366791092
 20
4463460.07346809
 10
700295.325103461
 20
4463467.48794363
  0
LWPOLYLINE
  5
20013
100
AcDbEntity
  8
0
100
AcDbPolyline
 70
0
 90
2
 10
700173.791270682
 20
4463474.14039172
 10
700273.366791092
 20
4463460.07346809
  0
LWPOLYLINE
  5
20014
100
AcDbEntity
  8
0
100
AcDbPolyline
 70
0
 90
2
 10
700266.595377442
 20
4463420.08123685
 10
700262.19719255
 20
4463379.22146243
  0
LWPOLYLINE
  5
20015
100
AcDbEntity
  8
0
100
AcDbPolyline
 70
0
 90
2
 10
700266.595377442
 20
4463420.08123685
 10
700305.366362041
 20
4463414.67413926
  0
LWPOLYLINE
  5
20016
100
AcDbEntity
  8
0
100
AcDbPolyline
 70
0
 90
2
 10
700169.604219332
 20
4463433.60891889
 10
700266.595377442
 20
4463420.08123685
  0
LWPOLYLINE
  5
20017
100
AcDbEntity
  8
0
100
AcDbPolyline
 70
0
 90
2
 10
700305.643899577
 20
4463458.17597388
 10
700305.366362041
 20
4463414.67413926
  0
LWPOLYLINE
  5
20018
100
AcDbEntity
  8
0
100
AcDbPolyline
 70
0
 90
3
 10
700305.643899577
 20
4463458.17597388
 10
700315.979407977
 20
4463454.24766719
 10
700334.600361122
 20
4463431.97711592
  0
LWPOLYLINE
  5
20019
100
AcDbEntity
  8
0
100
AcDbPolyline
 70
0
 90
2
 10
700307.118271002
 20
4463471.98917287
 10
700305.643899577
 20
4463458.17597388
  0
LWPOLYLINE
  5
2001A
100
AcDbEntity
  8
0
100
AcDbPolyline
 70
0
 90
2
 10
700295.325103461
 20
4463467.48794363
 10
700305.643899577
 20
4463458.17597388
  0
LWPOLYLINE
  5
2001B
100
AcDbEntity
  8
0
100
AcDbPolyline
 70
0
 90
2
 10
700262.19719255
 20
4463379.22146243
 10
700257.693726419
 20
4463337.3833021
  0
LWPOLYLINE
  5
2001C
100
AcDbEntity
  8
0
100
AcDbPolyline
 70
0
 90
2
 10
700262.19719255
 20
4463379.22146243
 10
700302.373753829
 20
4463373.56201894
  0
LWPOLYLINE
  5
2001D
100
AcDbEntity
  8
0
100
AcDbPolyline
 70
0
 90
2
 10
700165.39451548
 20
4463392.85855984
 10
700262.19719255
 20
4463379.22146243
  0
LWPOLYLINE
  5
2001E
100
AcDbEntity
  8
0
100
AcDbPolyline
 70
0
 90
2
 10
700305.366362041
 20
4463414.67413926
 10
700333.320670079
 20
4463410.77571056
  0
LWPOLYLINE
  5
2001F
100
AcDbEntity
  8
0
100
AcDbPolyline
 70
0
 90
2
 10
700305.366362041
 20
4463414.67413926
 10
700302.373753829
 20
4463373.56201894
  0
LWPOLYLINE
  5
20020
100
AcDbEntity
  8
0
100
AcDbPolyline
 70
0
 90
2
 10
700257.693726419
 20
4463337.3833021
 10
700253.300451212
 20
4463296.57044458
  0
LWPOLYLINE
  5
20021
100
AcDbEntity
  8
0
100
AcDbPolyline
 70
0
 90
2
 10
700257.693726419
 20
4463337.3833021
 10
700299.332976896
 20
4463331.15131274
  0
LWPOLYLINE
  5
20022
100
AcDbEntity
  8
0
100
AcDbPolyline
 70
0
 90
2
 10
700161.156345018
 20
4463351.83283743
 10
700257.693726419
 20
4463337.3833021
  0
LWPOLYLINE
  5
20023
100
AcDbEntity
  8
0
100
AcDbPolyline
 70
0
 90
2
 10
700302.373753829
 20
4463373.56201894
 10
700348.199129267
 20
4463367.10712983
  0
LWPOLYLINE
  5
20024
100
AcDbEntity
  8
0
100
AcDbPolyline
 70
0
 90
2
 10
700302.373753829
 20
4463373.56201894
 10
700299.332976896
 20
4463331.15131274
  0
LWPOLYLINE
  5
20025
100
AcDbEntity
  8
0
100
AcDbPolyline
 70
0
 90
2
 10
700253.300451212
 20
4463296.57044458
 10
700248.802166674
 20
4463254.78165276
  0
LWPOLYLINE
  5
20026
100
AcDbEntity
  8
0
100
AcDbPolyline
 70
0
 90
2
 10
700253.300451212
 20
4463296.57044458
 10
700295.076830899
 20
4463290.26952529
  0
LWPOLYLINE
  5
20027
100
AcDbEntity
  8
0
100
AcDbPolyline
 70
0
 90
2
 10
700156.948672086
 20
4463311.10354485
 10
700253.300451212
 20
4463296.57044458
  0
LWPOLYLINE
  5
20028
100
AcDbEntity
  8
0
100
AcDbPolyline
 70
0
 90
2
 10
700299.332976896
 20
4463331.15131274
 10
700374.468393448
 20
4463319.90658164
  0
LWPOLYLINE
  5
20029
100
AcDbEntity
  8
0
100
AcDbPolyline
 70
0
 90
2
 10
700295.076830899
 20
4463290.26952529
 10
700299.332976896
 20
4463331.15131274
  0
LWPOLYLINE
  5
2002A
100
AcDbEntity
  8
0
100
AcDbPolyline
 70
0
 90
2
 10
700248.802166674
 20
4463254.78165276
 10
700244.480721616
 20
4463214.63681956
  0
LWPOLYLINE
  5
2002B
100
AcDbEntity
  8
0
100
AcDbPolyline
 70
0
 90
2
 10
700248.802166674
 20
4463254.78165276
 10
700290.729908255
 20
4463248.51649477
  0
LWPOLYLINE
  5
2002C
100
AcDbEntity
  8
0
100
AcDbPolyline
 70
0
 90
2
 10
700152.614963836
 20
4463269.15547332
 10
700248.802166674
 20
4463254.78165276
  0
LWPOLYLINE
  5
2002D
100
AcDbEntity
  8
0
100
AcDbPolyline
 70
0
 90
2
 10
700295.076830899
 20
4463290.26952529
 10
700376.363702346
 20
4463278.01018165
  0
LWPOLYLINE
  5
2002E
100
AcDbEntity
  8
0
100
AcDbPolyline
 70
0
 90
2
 10
700295.076830899
 20
4463290.26952529
 10
700290.729908255
 20
4463248.51649477
  0
LWPOLYLINE
  5
2002F
100
AcDbEntity
  8
0
100
AcDbPolyline
 70
0
 90
2
 10
700244.480721616
 20
4463214.63681956
 10
700240.364025832
 20
4463176.39485973
  0
LWPOLYLINE
  5
20030
100
AcDbEntity
  8
0
100
AcDbPolyline
 70
0
 90
2
 10
700244.480721616
 20
4463214.63681956
 10
700286.560809732
 20
4463208.472438
  0
LWPOLYLINE
  5
20031
100
AcDbEntity
  8
0
100
AcDbPolyline
 70
0
 90
2
 10
700148.470959302
 20
4463229.04332887
 10
700244.480721616
 20
4463214.63681956
  0
LWPOLYLINE
  5
20032
100
AcDbEntity
  8
0
100
AcDbPolyline
 70
0
 90
2
 10
700290.729908255
 20
4463248.51649477
 10
700371.949438844
 20
4463236.38092703
  0
LWPOLYLINE
  5
20033
100
AcDbEntity
  8
0
100
AcDbPolyline
 70
0
 90
2
 10
700290.729908255
 20
4463248.51649477
 10
700286.560809732
 20
4463208.472438
  0
LWPOLYLINE
  5
20034
100
AcDbEntity
  8
0
100
AcDbPolyline
 70
0
 90
2
 10
700240.364025832
 20
4463176.39485973
 10
700282.536505441
 20
4463169.81897959
  0
LWPOLYLINE
  5
20035
100
AcDbEntity
  8
0
100
AcDbPolyline
 70
0
 90
2
 10
700235.92274648
 20
4463135.13828729
 10
700240.364025832
 20
4463176.39485973
  0
LWPOLYLINE
  5
20036
100
AcDbEntity
  8
0
100
AcDbPolyline
 70
0
 90
2
 10
700144.574880401
 20
4463191.33210689
 10
700240.364025832
 20
4463176.39485973
  0
LWPOLYLINE
  5
20037
100
AcDbEntity
  8
0
100
AcDbPolyline
 70
0
 90
2
 10
700286.560809732
 20
4463208.472438
 10
700367.729298448
 20
4463196.58261584
  0
LWPOLYLINE
  5
20038
100
AcDbEntity
  8
0
100
AcDbPolyline
 70
0
 90
2
 10
700286.560809732
 20
4463208.472438
 10
700282.536505441
 20
4463169.81897959
  0
LWPOLYLINE
  5
20039
100
AcDbEntity
  8
0
100
AcDbPolyline
 70
0
 90
2
 10
700282.536505441
 20
4463169.81897959
 10
700363.527443734
 20
4463156.95776681
  0
LWPOLYLINE
  5
2003A
100
AcDbEntity
  8
0
100
AcDbPolyline
 70
0
 90
2
 10
700282.536505441
 20
4463169.81897959
 10
700278.22088388
 20
4463128.36863868
  0
LWPOLYLINE
  5
2003B
100
AcDbEntity
  8
0
100
AcDbPolyline
 70
0
 90
2
 10
700235.92274648
 20
4463135.13828729
 10
700231.400914604
 20
4463093.13405559
  0
LWPOLYLINE
  5
2003C
100
AcDbEntity
  8
0
100
AcDbPolyline
 70
0
 90
2
 10
700235.92274648
 20
4463135.13828729
 10
700278.22088388
 20
4463128.36863868
  0
LWPOLYLINE
  5
2003D
100
AcDbEntity
  8
0
100
AcDbPolyline
 70
0
 90
2
 10
700140.349711699
 20
4463150.43541318
 10
700235.92274648
 20
4463135.13828729
  0
LWPOLYLINE
  5
2003E
100
AcDbEntity
  8
0
100
AcDbPolyline
 70
0
 90
2
 10
700231.400914604
 20
4463093.13405559
 10
700226.773911991
 20
4463050.1531092
  0
LWPOLYLINE
  5
2003F
100
AcDbEntity
  8
0
100
AcDbPolyline
 70
0
 90
2
 10
700231.400914604
 20
4463093.13405559
 10
700273.807305265
 20
4463085.97776656
  0
LWPOLYLINE
  5
20040
100
AcDbEntity
  8
0
100
AcDbPolyline
 70
0
 90
2
 10
700136.091382984
 20
4463109.21901792
 10
700231.400914604
 20
4463093.13405559
  0
LWPOLYLINE
  5
20041
100
AcDbEntity
  8
0
100
AcDbPolyline
 70
0
 90
2
 10
700278.22088388
 20
4463128.36863868
 10
700359.11564033
 20
4463115.35315411
  0
LWPOLYLINE
  5
20042
100
AcDbEntity
  8
0
100
AcDbPolyline
 70
0
 90
2
 10
700278.22088388
 20
4463128.36863868
 10
700273.807305265
 20
4463085.97776656
  0
LWPOLYLINE
  5
20043
100
AcDbEntity
  8
0
100
AcDbPolyline
 70
0
 90
2
 10
700226.773911991
 20
4463050.1531092
 10
700222.633642955
 20
4463011.6941513
  0
LWPOLYLINE
  5
20044
100
AcDbEntity
  8
0
100
AcDbPolyline
 70
0
 90
2
 10
700226.773911991
 20
4463050.1531092
 10
700269.311401164
 20
4463042.79719564
  0
LWPOLYLINE
  5
20045
100
AcDbEntity
  8
0
100
AcDbPolyline
 70
0
 90
2
 10
700131.606620732
 20
4463065.81180503
 10
700226.773911991
 20
4463050.1531092
  0
LWPOLYLINE
  5
20046
100
AcDbEntity
  8
0
100
AcDbPolyline
 70
0
 90
2
 10
700273.807305265
 20
4463085.97776656
 10
700354.555600013
 20
4463072.35164521
  0
LWPOLYLINE
  5
20047
100
AcDbEntity
  8
0
100
AcDbPolyline
 70
0
 90
2
 10
700273.807305265
 20
4463085.97776656
 10
700269.311401164
 20
4463042.79719564
  0
LWPOLYLINE
  5
20048
100
AcDbEntity
  8
0
100
AcDbPolyline
 70
0
 90
2
 10
700222.633642955
 20
4463011.6941513
 10
700218.63013852
 20
4462974.50637556
  0
LWPOLYLINE
  5
20049
100
AcDbEntity
  8
0
100
AcDbPolyline
 70
0
 90
2
 10
700222.633642955
 20
4463011.6941513
 10
700265.361211856
 20
4463004.8590501
  0
LWPOLYLINE
  5
2004A
100
AcDbEntity
  8
0
100
AcDbPolyline
 70
0
 90
2
 10
700127.529202538
 20
4463026.34734797
 10
700222.633642955
 20
4463011.6941513
  0
LWPOLYLINE
  5
2004B
100
AcDbEntity
  8
0
100
AcDbPolyline
 70
0
 90
2
 10
700269.311401164
 20
4463042.79719564
 10
700349.942927605
 20
4463028.85439372
  0
LWPOLYLINE
  5
2004C
100
AcDbEntity
  8
0
100
AcDbPolyline
 70
0
 90
2
 10
700269.311401164
 20
4463042.79719564
 10
700265.361211856
 20
4463004.8590501
  0
LWPOLYLINE
  5
2004D
100
AcDbEntity
  8
0
100
AcDbPolyline
 70
0
 90
2
 10
700218.63013852
 20
4462974.50637556
 10
700214.130478101
 20
4462932.71050648
  0
LWPOLYLINE
  5
2004E
100
AcDbEntity
  8
0
100
AcDbPolyline
 70
0
 90
2
 10
700218.63013852
 20
4462974.50637556
 10
700261.410096859
 20
4462966.91199988
  0
LWPOLYLINE
  5
2004F
100
AcDbEntity
  8
0
100
AcDbPolyline
 70
0
 90
2
 10
700123.80871749
 20
4462990.33884131
 10
700218.63013852
 20
4462974.50637556
  0
LWPOLYLINE
  5
20050
100
AcDbEntity
  8
0
100
AcDbPolyline
 70
0
 90
2
 10
700265.361211856
 20
4463004.8590501
 10
700261.410096859
 20
4462966.91199988
  0
LWPOLYLINE
  5
20051
100
AcDbEntity
  8
0
100
AcDbPolyline
 70
0
 90
2
 10
700265.361211856
 20
4463004.8590501
 10
700346.029866905
 20
4462991.95508445
  0
LWPOLYLINE
  5
20052
100
AcDbEntity
  8
0
100
AcDbPolyline
 70
0
 90
2
 10
700214.130478101
 20
4462932.71050648
 10
700209.690702429
 20
4462891.47168894
  0
LWPOLYLINE
  5
20053
100
AcDbEntity
  8
0
100
AcDbPolyline
 70
0
 90
2
 10
700214.130478101
 20
4462932.71050648
 10
700257.142051725
 20
4462925.92143501
  0
LWPOLYLINE
  5
20054
100
AcDbEntity
  8
0
100
AcDbPolyline
 70
0
 90
2
 10
700157.993370909
 20
4462941.57183421
 10
700214.130478101
 20
4462932.71050648
  0
LWPOLYLINE
  5
20055
100
AcDbEntity
  8
0
100
AcDbPolyline
 70
0
 90
2
 10
700261.410096859
 20
4462966.91199988
 10
700257.142051725
 20
4462925.92143501
  0
LWPOLYLINE
  5
20056
100
AcDbEntity
  8
0
100
AcDbPolyline
 70
0
 90
2
 10
700261.410096859
 20
4462966.91199988
 10
700341.84232297
 20
4462952.46752035
  0
LWPOLYLINE
  5
20057
100
AcDbEntity
  8
0
100
AcDbPolyline
 70
0
 90
2
 10
700209.690702429
 20
4462891.47168894
 10
700252.861868977
 20
4462884.81546636
  0
LWPOLYLINE
  5
20058
100
AcDbEntity
  8
0
100
AcDbPolyline
 70
0
 90
3
 10
700209.690702429
 20
4462891.47168894
 10
700205.412252433
 20
4462851.73188609
 10
700248.923686161
 20
4462845.18299293
  0
LWPOLYLINE
  5
20059
100
AcDbEntity
  8
0
100
AcDbPolyline
 70
0
 90
5
 10
700157.993370909
 20
4462941.57183421
 10
700156.877780456
 20
4462921.44089673
 10
700173.303396216
 20
4462919.15492574
 10
700170.7360425
 20
4462897.47799492
 10
700209.690702429
 20
4462891.47168894
  0
LWPOLYLINE
  5
2005A
100
AcDbEntity
  8
0
100
AcDbPolyline
 70
0
 90
2
 10
700257.142051725
 20
4462925.92143501
 10
700337.679046836
 20
4462913.21001105
  0
LWPOLYLINE
  5
2005B
100
AcDbEntity
  8
0
100
AcDbPolyline
 70
0
 90
2
 10
700257.142051725
 20
4462925.92143501
 10
700252.861868977
 20
4462884.81546636
  0
LWPOLYLINE
  5
2005C
100
AcDbEntity
  8
0
100
AcDbPolyline
 70
0
 90
2
 10
700252.861868977
 20
4462884.81546636
 10
700333.351686097
 20
4462872.40621244
  0
LWPOLYLINE
  5
2005D
100
AcDbEntity
  8
0
100
AcDbPolyline
 70
0
 90
2
 10
700248.923686161
 20
4462845.18299293
 10
700252.861868977
 20
4462884.81546636
  0
LWPOLYLINE
  5
2005E
100
AcDbEntity
  8
0
100
AcDbPolyline
 70
0
 90
2
 10
700248.923686161
 20
4462845.18299293
 10
700270.048479582
 20
4462842.00355173
  0
LWPOLYLINE
  5
2005F
100
AcDbEntity
  8
0
100
AcDbPolyline
 70
0
 90
3
 10
700248.923686161
 20
4462845.18299293
 10
700245.789570956
 20
4462806.58061571
 10
700256.132726695
 20
4462804.9120609
  0
LWPOLYLINE
  5
20060
100
AcDbEntity
  8
0
100
AcDbPolyline
 70
0
 90
2
 10
700270.048479582
 20
4462842.00355173
 10
700329.183612271
 20
4462833.10371099
  0
LWPOLYLINE
  5
20061
100
AcDbEntity
  8
0
100
AcDbPolyline
 70
0
 90
2
 10
700270.048479582
 20
4462842.00355173
 10
700266.659659947
 20
4462803.21374981
  0
LWPOLYLINE
  5
20062
100
AcDbEntity
  8
0
100
AcDbPolyline
 70
0
 90
2
 10
700329.183612271
 20
4462833.10371099
 10
700421.879310484
 20
4462819.1540403
  0
LWPOLYLINE
  5
20063
100
AcDbEntity
  8
0
100
AcDbPolyline
 70
0
 90
2
 10
700329.183612271
 20
4462833.10371099
 10
700324.946425364
 20
4462793.15150095
  0
LWPOLYLINE
  5
20064
100
AcDbEntity
  8
0
100
AcDbPolyline
 70
0
 90
2
 10
700333.351686097
 20
4462872.40621244
 10
700329.183612271
 20
4462833.10371099
  0
LWPOLYLINE
  5
20065
100
AcDbEntity
  8
0
100
AcDbPolyline
 70
0
 90
2
 10
700266.659659947
 20
4462803.21374981
 10
700324.946425364
 20
4462793.15150095
  0
LWPOLYLINE
  5
20066
100
AcDbEntity
  8
0
100
AcDbPolyline
 70
0
 90
2
 10
700256.132726695
 20
4462804.9120609
 10
700266.659659947
 20
4462803.21374981
  0
LWPOLYLINE
  5
20067
100
AcDbEntity
  8
0
100
AcDbPolyline
 70
0
 90
2
 10
700421.879310484
 20
4462819.1540403
 10
700417.69568889
 20
4462777.14078726
  0
LWPOLYLINE
  5
20068
100
AcDbEntity
  8
0
100
AcDbPolyline
 70
0
 90
2
 10
700425.21850142
 20
4462858.24391903
 10
700421.879310484
 20
4462819.1540403
  0
LWPOLYLINE
  5
20069
100
AcDbEntity
  8
0
100
AcDbPolyline
 70
0
 90
2
 10
700324.946425364
 20
4462793.15150095
 10
700320.665259089
 20
4462752.78454046
  0
LWPOLYLINE
  5
2006A
100
AcDbEntity
  8
0
100
AcDbPolyline
 70
0
 90
2
 10
700324.946425364
 20
4462793.15150095
 10
700417.69568889
 20
4462777.14078726
  0
LWPOLYLINE
  5
2006B
100
AcDbEntity
  8
0
100
AcDbPolyline
 70
0
 90
2
 10
700417.69568889
 20
4462777.14078726
 10
700413.846393357
 20
4462738.48569945
  0
LWPOLYLINE
  5
2006C
100
AcDbEntity
  8
0
100
AcDbPolyline
 70
0
 90
3
 10
700412.839522843
 20
4462901.34785292
 10
700428.686969584
 20
4462898.84685054
 10
700425.21850142
 20
4462858.24391903
  0
LWPOLYLINE
  5
2006D
100
AcDbEntity
  8
0
100
AcDbPolyline
 70
0
 90
2
 10
700333.351686097
 20
4462872.40621244
 10
700425.21850142
 20
4462858.24391903
  0
LWPOLYLINE
  5
2006E
100
AcDbEntity
  8
0
100
AcDbPolyline
 70
0
 90
2
 10
700337.679046836
 20
4462913.21001105
 10
700412.839522843
 20
4462901.34785292
  0
LWPOLYLINE
  5
2006F
100
AcDbEntity
  8
0
100
AcDbPolyline
 70
0
 90
2
 10
700414.507210154
 20
4462941.33271212
 10
700412.839522843
 20
4462901.34785292
  0
LWPOLYLINE
  5
20070
100
AcDbEntity
  8
0
100
AcDbPolyline
 70
0
 90
2
 10
700337.679046836
 20
4462913.21001105
 10
700333.351686097
 20
4462872.40621244
  0
LWPOLYLINE
  5
20071
100
AcDbEntity
  8
0
100
AcDbPolyline
 70
0
 90
2
 10
700341.84232297
 20
4462952.46752035
 10
700337.679046836
 20
4462913.21001105
  0
LWPOLYLINE
  5
20072
100
AcDbEntity
  8
0
100
AcDbPolyline
 70
0
 90
2
 10
700139.666018843
 20
4462944.46480495
 10
700157.993370909
 20
4462941.57183421
  0
LWPOLYLINE
  5
20073
100
AcDbEntity
  8
0
100
AcDbPolyline
 70
0
 90
2
 10
700139.666018843
 20
4462944.46480495
 10
700141.700787325
 20
4462966.65545866
  0
LWPOLYLINE
  5
20074
100
AcDbEntity
  8
0
100
AcDbPolyline
 70
0
 90
3
 10
700123.80871749
 20
4462990.33884131
 10
700121.630115648
 20
4462969.25315773
 10
700141.700787325
 20
4462966.65545866
  0
LWPOLYLINE
  5
20075
100
AcDbEntity
  8
0
100
AcDbPolyline
 70
0
 90
2
 10
700127.529202538
 20
4463026.34734797
 10
700123.80871749
 20
4462990.33884131
  0
LWPOLYLINE
  5
20076
100
AcDbEntity
  8
0
100
AcDbPolyline
 70
0
 90
3
 10
700104.348353443
 20
4463029.91906715
 10
700100.993681186
 20
4462994.14848309
 10
700123.80871749
 20
4462990.33884131
  0
LWPOLYLINE
  5
20077
100
AcDbEntity
  8
0
100
AcDbPolyline
 70
0
 90
2
 10
700131.606620732
 20
4463065.81180503
 10
700127.529202538
 20
4463026.34734797
  0
LWPOLYLINE
  5
20078
100
AcDbEntity
  8
0
100
AcDbPolyline
 70
0
 90
2
 10
700104.348353443
 20
4463029.91906715
 10
700127.529202538
 20
4463026.34734797
  0
LWPOLYLINE
  5
20079
100
AcDbEntity
  8
0
100
AcDbPolyline
 70
0
 90
2
 10
700131.606620732
 20
4463065.81180503
 10
700136.091382984
 20
4463109.21901792
  0
LWPOLYLINE
  5
2007A
100
AcDbEntity
  8
0
100
AcDbPolyline
 70
0
 90
2
 10
700055.147563298
 20
4463079.00541175
 10
700131.606620732
 20
4463065.81180503
  0
LWPOLYLINE
  5
2007B
100
AcDbEntity
  8
0
100
AcDbPolyline
 70
0
 90
2
 10
700140.349711699
 20
4463150.43541318
 10
700136.091382984
 20
4463109.21901792
  0
LWPOLYLINE
  5
2007C
100
AcDbEntity
  8
0
100
AcDbPolyline
 70
0
 90
2
 10
700041.260404653
 20
4463125.22456381
 10
700136.091382984
 20
4463109.21901792
  0
LWPOLYLINE
  5
2007D
100
AcDbEntity
  8
0
100
AcDbPolyline
 70
0
 90
2
 10
700144.574880401
 20
4463191.33210689
 10
700140.349711699
 20
4463150.43541318
  0
LWPOLYLINE
  5
2007E
100
AcDbEntity
  8
0
100
AcDbPolyline
 70
0
 90
2
 10
700045.383245304
 20
4463165.63653753
 10
700140.349711699
 20
4463150.43541318
  0
LWPOLYLINE
  5
2007F
100
AcDbEntity
  8
0
100
AcDbPolyline
 70
0
 90
2
 10
700148.470959302
 20
4463229.04332887
 10
700144.574880401
 20
4463191.33210689
  0
LWPOLYLINE
  5
20080
100
AcDbEntity
  8
0
100
AcDbPolyline
 70
0
 90
2
 10
700049.411772321
 20
4463205.12374436
 10
700144.574880401
 20
4463191.33210689
  0
LWPOLYLINE
  5
20081
100
AcDbEntity
  8
0
100
AcDbPolyline
 70
0
 90
2
 10
700152.614963836
 20
4463269.15547332
 10
700148.470959302
 20
4463229.04332887
  0
LWPOLYLINE
  5
20082
100
AcDbEntity
  8
0
100
AcDbPolyline
 70
0
 90
2
 10
700053.318895091
 20
4463243.42229179
 10
700148.470959302
 20
4463229.04332887
  0
LWPOLYLINE
  5
20083
100
AcDbEntity
  8
0
100
AcDbPolyline
 70
0
 90
2
 10
700156.948672086
 20
4463311.10354485
 10
700152.614963836
 20
4463269.15547332
  0
LWPOLYLINE
  5
20084
100
AcDbEntity
  8
0
100
AcDbPolyline
 70
0
 90
2
 10
700057.395884586
 20
4463283.38582215
 10
700152.614963836
 20
4463269.15547332
  0
LWPOLYLINE
  5
20085
100
AcDbEntity
  8
0
100
AcDbPolyline
 70
0
 90
2
 10
700161.156345018
 20
4463351.83283743
 10
700156.948672086
 20
4463311.10354485
  0
LWPOLYLINE
  5
20086
100
AcDbEntity
  8
0
100
AcDbPolyline
 70
0
 90
2
 10
700061.68939778
 20
4463325.47315597
 10
700156.948672086
 20
4463311.10354485
  0
LWPOLYLINE
  5
20087
100
AcDbEntity
  8
0
100
AcDbPolyline
 70
0
 90
2
 10
700165.39451548
 20
4463392.85855984
 10
700161.156345018
 20
4463351.83283743
  0
LWPOLYLINE
  5
20088
100
AcDbEntity
  8
0
100
AcDbPolyline
 70
0
 90
2
 10
700065.834068756
 20
4463366.10159719
 10
700161.156345018
 20
4463351.83283743
  0
LWPOLYLINE
  5
20089
100
AcDbEntity
  8
0
100
AcDbPolyline
 70
0
 90
2
 10
700169.604219332
 20
4463433.60891889
 10
700165.39451548
 20
4463392.85855984
  0
LWPOLYLINE
  5
2008A
100
AcDbEntity
  8
0
100
AcDbPolyline
 70
0
 90
2
 10
700069.935554924
 20
4463406.30753437
 10
700165.39451548
 20
4463392.85855984
  0
LWPOLYLINE
  5
2008B
100
AcDbEntity
  8
0
100
AcDbPolyline
 70
0
 90
2
 10
700173.791270682
 20
4463474.14039172
 10
700169.604219332
 20
4463433.60891889
  0
LWPOLYLINE
  5
2008C
100
AcDbEntity
  8
0
100
AcDbPolyline
 70
0
 90
2
 10
700074.079746643
 20
4463446.93320163
 10
700169.604219332
 20
4463433.60891889
  0
LWPOLYLINE
  5
2008D
100
AcDbEntity
  8
0
100
AcDbPolyline
 70
0
 90
2
 10
700178.033786993
 20
4463515.20957962
 10
700173.791270682
 20
4463474.14039172
  0
LWPOLYLINE
  5
2008E
100
AcDbEntity
  8
0
100
AcDbPolyline
 70
0
 90
2
 10
700078.108911323
 20
4463486.43136644
 10
700173.791270682
 20
4463474.14039172
  0
LWPOLYLINE
  5
2008F
100
AcDbEntity
  8
0
100
AcDbPolyline
 70
0
 90
2
 10
700182.370055434
 20
4463557.18687582
 10
700178.033786993
 20
4463515.20957962
  0
LWPOLYLINE
  5
20090
100
AcDbEntity
  8
0
100
AcDbPolyline
 70
0
 90
2
 10
700107.520798715
 20
4463525.1503226
 10
700178.033786993
 20
4463515.20957962
  0
LWPOLYLINE
  5
20091
100
AcDbEntity
  8
0
100
AcDbPolyline
 70
0
 90
2
 10
700115.333270965
 20
4463567.4286269
 10
700182.370055434
 20
4463557.18687582
  0
LWPOLYLINE
  5
20092
100
AcDbEntity
  8
0
100
AcDbPolyline
 70
0
 90
2
 10
700122.595477334
 20
4463606.72943264
 10
700115.333270965
 20
4463567.4286269
  0
LWPOLYLINE
  5
20093
100
AcDbEntity
  8
0
100
AcDbPolyline
 70
0
 90
2
 10
700115.333270965
 20
4463567.4286269
 10
700107.520798715
 20
4463525.1503226
  0
LWPOLYLINE
  5
20094
100
AcDbEntity
  8
0
100
AcDbPolyline
 70
0
 90
2
 10
700080.955752805
 20
4463527.80196097
 10
700107.520798715
 20
4463525.1503226
  0
LWPOLYLINE
  5
20095
100
AcDbEntity
  8
0
100
AcDbPolyline
 70
0
 90
2
 10
700413.846393357
 20
4462738.48569945
 10
700409.78272577
 20
4462697.67820645
  0
LWPOLYLINE
  5
20096
100
AcDbEntity
  8
0
100
AcDbPolyline
 70
0
 90
2
 10
700320.665259089
 20
4462752.78454046
 10
700413.846393357
 20
4462738.48569945
  0
LWPOLYLINE
  5
20097
100
AcDbEntity
  8
0
100
AcDbPolyline
 70
0
 90
2
 10
700409.78272577
 20
4462697.67820645
 10
700405.748597519
 20
4462657.16789617
  0
LWPOLYLINE
  5
20098
100
AcDbEntity
  8
0
100
AcDbPolyline
 70
0
 90
2
 10
700316.357852217
 20
4462712.17049228
 10
700409.78272577
 20
4462697.67820645
  0
LWPOLYLINE
  5
20099
100
AcDbEntity
  8
0
100
AcDbPolyline
 70
0
 90
2
 10
700405.748597519
 20
4462657.16789617
 10
700401.803685305
 20
4462617.5539106
  0
LWPOLYLINE
  5
2009A
100
AcDbEntity
  8
0
100
AcDbPolyline
 70
0
 90
2
 10
700312.058123377
 20
4462671.62986508
 10
700405.748597519
 20
4462657.16789617
  0
LWPOLYLINE
  5
2009B
100
AcDbEntity
  8
0
100
AcDbPolyline
 70
0
 90
2
 10
700401.803685305
 20
4462617.5539106
 10
700397.662093073
 20
4462575.96606982
  0
LWPOLYLINE
  5
2009C
100
AcDbEntity
  8
0
100
AcDbPolyline
 70
0
 90
2
 10
700307.681619945
 20
4462630.36589598
 10
700401.803685305
 20
4462617.5539106
  0
LWPOLYLINE
  5
2009D
100
AcDbEntity
  8
0
100
AcDbPolyline
 70
0
 90
3
 10
700307.681619945
 20
4462630.36589598
 10
700303.385760563
 20
4462589.86349238
 10
700397.662093073
 20
4462575.96606982
  0
LWPOLYLINE
  5
2009E
100
AcDbEntity
  8
0
100
AcDbPolyline
 70
0
 90
2
 10
700312.058123377
 20
4462671.62986508
 10
700307.681619945
 20
4462630.36589598
  0
LWPOLYLINE
  5
2009F
100
AcDbEntity
  8
0
100
AcDbPolyline
 70
0
 90
2
 10
700312.058123377
 20
4462671.62986508
 10
700316.357852217
 20
4462712.17049228
  0
LWPOLYLINE
  5
200A0
100
AcDbEntity
  8
0
100
AcDbPolyline
 70
0
 90
2
 10
700317.251005423
 20
4462720.5923319
 10
700316.357852217
 20
4462712.17049228
  0
LWPOLYLINE
  5
200A1
100
AcDbEntity
  8
0
100
AcDbPolyline
 70
0
 90
2
 10
700320.665259089
 20
4462752.78454046
 10
700317.251005423
 20
4462720.5923319
  0
LWPOLYLINE
  5
200A2
100
AcDbEntity
  8
0
100
AcDbPolyline
 70
0
 90
3
 10
700256.132726695
 20
4462804.9120609
 10
700305.036148485
 20
4462737.44388057
 10
700317.251005423
 20
4462720.5923319
  0
LWPOLYLINE
  5
200A3
100
AcDbEntity
  8
0
100
AcDbPolyline
 70
0
 90
2
 10
700341.84232297
 20
4462952.46752035
 10
700414.507210154
 20
4462941.33271212
  0
LWPOLYLINE
  5
200A4
100
AcDbEntity
  8
0
100
AcDbPolyline
 70
0
 90
2
 10
700346.029866905
 20
4462991.95508445
 10
700341.84232297
 20
4462952.46752035
  0
LWPOLYLINE
  5
200A5
100
AcDbEntity
  8
0
100
AcDbPolyline
 70
0
 90
2
 10
700406.11513675
 20
4462981.35119936
 10
700414.507210154
 20
4462941.33271212
  0
LWPOLYLINE
  5
200A6
100
AcDbEntity
  8
0
100
AcDbPolyline
 70
0
 90
2
 10
700346.029866905
 20
4462991.95508445
 10
700385.090052264
 20
4462985.70733849
  0
LWPOLYLINE
  5
200A7
100
AcDbEntity
  8
0
100
AcDbPolyline
 70
0
 90
2
 10
700349.942927605
 20
4463028.85439372
 10
700346.029866905
 20
4462991.95508445
  0
LWPOLYLINE
  5
200A8
100
AcDbEntity
  8
0
100
AcDbPolyline
 70
0
 90
2
 10
700385.090052264
 20
4462985.70733849
 10
700406.11513675
 20
4462981.35119936
  0
LWPOLYLINE
  5
200A9
100
AcDbEntity
  8
0
100
AcDbPolyline
 70
0
 90
2
 10
700389.150904663
 20
4463023.3141483
 10
700385.090052264
 20
4462985.70733849
  0
LWPOLYLINE
  5
200AA
100
AcDbEntity
  8
0
100
AcDbPolyline
 70
0
 90
2
 10
700349.942927605
 20
4463028.85439372
 10
700389.150904663
 20
4463023.3141483
  0
LWPOLYLINE
  5
200AB
100
AcDbEntity
  8
0
100
AcDbPolyline
 70
0
 90
2
 10
700354.555600013
 20
4463072.35164521
 10
700349.942927605
 20
4463028.85439372
  0
LWPOLYLINE
  5
200AC
100
AcDbEntity
  8
0
100
AcDbPolyline
 70
0
 90
2
 10
700391.121283853
 20
4463048.00917689
 10
700389.150904663
 20
4463023.3141483
  0
LWPOLYLINE
  5
200AD
100
AcDbEntity
  8
0
100
AcDbPolyline
 70
0
 90
2
 10
700354.555600013
 20
4463072.35164521
 10
700375.590569908
 20
4463069.04572368
  0
LWPOLYLINE
  5
200AE
100
AcDbEntity
  8
0
100
AcDbPolyline
 70
0
 90
2
 10
700359.11564033
 20
4463115.35315411
 10
700354.555600013
 20
4463072.35164521
  0
LWPOLYLINE
  5
200AF
100
AcDbEntity
  8
0
100
AcDbPolyline
 70
0
 90
3
 10
700375.590569908
 20
4463069.04572368
 10
700392.081369386
 20
4463066.45392721
 10
700391.121283853
 20
4463048.00917689
  0
LWPOLYLINE
  5
200B0
100
AcDbEntity
  8
0
100
AcDbPolyline
 70
0
 90
2
 10
700380.176482354
 20
4463112.14147928
 10
700375.590569908
 20
4463069.04572368
  0
LWPOLYLINE
  5
200B1
100
AcDbEntity
  8
0
100
AcDbPolyline
 70
0
 90
2
 10
700359.11564033
 20
4463115.35315411
 10
700380.176482354
 20
4463112.14147928
  0
LWPOLYLINE
  5
200B2
100
AcDbEntity
  8
0
100
AcDbPolyline
 70
0
 90
2
 10
700363.527443734
 20
4463156.95776681
 10
700359.11564033
 20
4463115.35315411
  0
LWPOLYLINE
  5
200B3
100
AcDbEntity
  8
0
100
AcDbPolyline
 70
0
 90
3
 10
700363.527443734
 20
4463156.95776681
 10
700384.549770826
 20
4463153.2396257
 10
700380.176482354
 20
4463112.14147928
  0
LWPOLYLINE
  5
200B4
100
AcDbEntity
  8
0
100
AcDbPolyline
 70
0
 90
2
 10
700367.729298448
 20
4463196.58261584
 10
700363.527443734
 20
4463156.95776681
  0
LWPOLYLINE
  5
200B5
100
AcDbEntity
  8
0
100
AcDbPolyline
 70
0
 90
2
 10
700367.729298448
 20
4463196.58261584
 10
700371.949438844
 20
4463236.38092703
  0
LWPOLYLINE
  5
200B6
100
AcDbEntity
  8
0
100
AcDbPolyline
 70
0
 90
2
 10
700376.363702346
 20
4463278.01018165
 10
700371.949438844
 20
4463236.38092703
  0
LWPOLYLINE
  5
200B7
100
AcDbEntity
  8
0
100
AcDbPolyline
 70
0
 90
3
 10
700374.468393448
 20
4463319.90658164
 10
700378.52283136
 20
4463298.37284132
 10
700376.363702346
 20
4463278.01018165
  0
LWPOLYLINE
  5
200B8
100
AcDbEntity
  8
0
100
AcDbPolyline
 70
0
 90
5
 10
700054.319415408
 20
4463072.52708041
 10
700052.360828623
 20
4463057.56587719
 10
700071.40439019
 20
4463054.47957136
 10
700069.292527863
 20
4463035.32064713
 10
700104.348353443
 20
4463029.91906715
  0
LWPOLYLINE
  5
200B9
100
AcDbEntity
  8
0
100
AcDbPolyline
 70
0
 90
2
 10
700080.955752805
 20
4463527.80196097
 10
700078.108911323
 20
4463486.43136644
  0
LWPOLYLINE
  5
200BA
100
AcDbEntity
  8
0
100
AcDbPolyline
 70
0
 90
4
 10
700039.364398921
 20
4463590.26383393
 10
700061.438775986
 20
4463580.29959646
 10
700083.391347458
 20
4463554.6630571
 10
700080.955752805
 20
4463527.80196097
  0
LWPOLYLINE
  5
200BB
100
AcDbEntity
  8
0
100
AcDbPolyline
 70
0
 90
2
 10
700078.108911323
 20
4463486.43136644
 10
700074.079746643
 20
4463446.93320163
  0
LWPOLYLINE
  5
200BC
100
AcDbEntity
  8
0
100
AcDbPolyline
 70
0
 90
2
 10
700074.079746643
 20
4463446.93320163
 10
700069.935554924
 20
4463406.30753437
  0
LWPOLYLINE
  5
200BD
100
AcDbEntity
  8
0
100
AcDbPolyline
 70
0
 90
2
 10
700069.935554924
 20
4463406.30753437
 10
700065.834068756
 20
4463366.10159719
  0
LWPOLYLINE
  5
200BE
100
AcDbEntity
  8
0
100
AcDbPolyline
 70
0
 90
2
 10
700065.834068756
 20
4463366.10159719
 10
700061.68939778
 20
4463325.47315597
  0
LWPOLYLINE
  5
200BF
100
AcDbEntity
  8
0
100
AcDbPolyline
 70
0
 90
2
 10
700061.68939778
 20
4463325.47315597
 10
700057.395884586
 20
4463283.38582215
  0
LWPOLYLINE
  5
200C0
100
AcDbEntity
  8
0
100
AcDbPolyline
 70
0
 90
2
 10
700057.395884586
 20
4463283.38582215
 10
700053.318895091
 20
4463243.42229179
  0
LWPOLYLINE
  5
200C1
100
AcDbEntity
  8
0
100
AcDbPolyline
 70
0
 90
2
 10
700053.318895091
 20
4463243.42229179
 10
700049.411772321
 20
4463205.12374436
  0
LWPOLYLINE
  5
200C2
100
AcDbEntity
  8
0
100
AcDbPolyline
 70
0
 90
2
 10
700049.411772321
 20
4463205.12374436
 10
700045.383245304
 20
4463165.63653753
  0
LWPOLYLINE
  5
200C3
100
AcDbEntity
  8
0
100
AcDbPolyline
 70
0
 90
2
 10
700045.383245304
 20
4463165.63653753
 10
700041.260404653
 20
4463125.22456381
  0
LWPOLYLINE
  5
200C4
100
AcDbEntity
  8
0
100
AcDbPolyline
 70
0
 90
2
 10
700041.260404653
 20
4463125.22456381
 10
700036.863643903
 20
4463082.12883094
  0
LWPOLYLINE
  5
200C5
100
AcDbEntity
  8
0
100
AcDbPolyline
 70
0
 90
2
 10
700036.863643903
 20
4463082.12883094
 10
700036.187936881
 20
4463075.505694
  0
LWPOLYLINE
  5
200C6
100
AcDbEntity
  8
0
100
AcDbPolyline
 70
0
 90
2
 10
700036.863643903
 20
4463082.12883094
 10
700055.147563298
 20
4463079.00541175
  0
LWPOLYLINE
  5
200C7
100
AcDbEntity
  8
0
100
AcDbPolyline
 70
0
 90
2
 10
700036.187936881
 20
4463075.505694
 10
700054.319415408
 20
4463072.52708041
  0
LWPOLYLINE
  5
200C8
100
AcDbEntity
  8
0
100
AcDbPolyline
 70
0
 90
3
 10
699969.453928142
 20
4463096.65060988
 10
699996.549905648
 20
4463080.38588188
 10
700036.187936881
 20
4463075.505694
  0
LWPOLYLINE
  5
200C9
100
AcDbEntity
  8
0
100
AcDbPolyline
 70
0
 90
2
 10
700055.147563298
 20
4463079.00541175
 10
700054.319415408
 20
4463072.52708041
  0
LWPOLYLINE
  5
200CA
100
AcDbEntity
  8
0
100
AcDbPolyline
 70
0
 90
4
 10
700333.320670079
 20
4463410.77571056
 10
700333.339942326
 20
4463389.57067189
 10
700349.764632338
 20
4463387.28500884
 10
700348.199129267
 20
4463367.10712983
  0
LWPOLYLINE
  5
200CB
100
AcDbEntity
  8
0
100
AcDbPolyline
 70
0
 90
2
 10
700334.600361122
 20
4463431.97711592
 10
700333.320670079
 20
4463410.77571056
  0
LWPOLYLINE
  5
200CC
100
AcDbEntity
  8
0
100
AcDbPolyline
 70
0
 90
2
 10
700348.199129267
 20
4463367.10712983
 10
700369.892507716
 20
4463362.96426656
  0
LWPOLYLINE
  5
200CD
100
AcDbEntity
  8
0
100
AcDbPolyline
 70
0
 90
3
 10
700369.892507716
 20
4463362.96426656
 10
700369.005242144
 20
4463345.75743834
 10
700374.468393448
 20
4463319.90658164
  0
LWPOLYLINE
  5
200CE
100
AcDbEntity
  8
0
100
AcDbPolyline
 70
0
 90
4
 10
700334.600361122
 20
4463431.97711592
 10
700345.827319289
 20
4463409.32456096
 10
700368.640775757
 20
4463370.31732281
 10
700369.892507716
 20
4463362.96426656
  0
LWPOLYLINE
  5
200CF
100
AcDbEntity
  8
0
100
AcDbPolyline
 70
0
 90
2
 10
700391.121283853
 20
4463048.00917689
 10
700406.11513675
 20
4462981.35119936
  0
LWPOLYLINE
  5
200D0
100
AcDbEntity
  8
0
100
AcDbPolyline
 70
0
 90
2
 10
700307.118271002
 20
4463471.98917287
 10
700295.325103461
 20
4463467.48794363
  0
LWPOLYLINE
  5
200D1
100
AcDbEntity
  8
0
100
AcDbPolyline
 70
0
 90
4
 10
700336.010050055
 20
4463529.84763368
 10
700313.10838024
 20
4463511.00384319
 10
700309.399997196
 20
4463493.36688378
 10
700307.118271002
 20
4463471.98917287
  0
ENDSEC
  0
SECTION
  2
OBJECTS
  0
DICTIONARY
  5
C
330
0
100
AcDbDictionary
281
     1
  3
ACAD_GROUP
350
D
  3
ACAD_LAYOUT
350
1A
  3
ACAD_MLEADERSTYLE
350
43
  3
ACAD_PLOTSETTINGS
350
19
  3
ACAD_PLOTSTYLENAME
350
E
  3
ACAD_TABLESTYLE
350
42
  0
DICTIONARY
  5
D
102
{ACAD_REACTORS
330
C
102
}
330
C
100
AcDbDictionary
281
     1
  0
DICTIONARY
  5
1A
102
{ACAD_REACTORS
330
C
102
}
330
C
100
AcDbDictionary
281
     1
  3
Layout1
350
1E
  3
Model
350
22
  0
DICTIONARY
  5
43
102
{ACAD_REACTORS
330
C
102
}
330
C
100
AcDbDictionary
281
     1
  0
DICTIONARY
  5
19
102
{ACAD_REACTORS
330
C
102
}
330
C
100
AcDbDictionary
281
     1
  0
ACDBDICTIONARYWDFLT
  5
E
102
{ACAD_REACTORS
330
C
102
}
330
C
100
AcDbDictionary
281
     1
  3
Normal
350
F
100
AcDbDictionaryWithDefault
340
F
  0
DICTIONARY
  5
42
102
{ACAD_REACTORS
330
C
102
}
330
C
100
AcDbDictionary
281
     1
  0
LAYOUT
  5
1E
102
{ACAD_REACTORS
330
1A
102
}
330
1A
100
AcDbPlotSettings
  1

  2
none_device
  4

  6

 40
0.0
 41
0.0
 42
0.0
 43
0.0
 44
0.0
 45
0.0
 46
0.0
 47
0.0
 48
0.0
 49
0.0
140
0.0
141
0.0
142
1.0
143
1.0
 70
   688
 72
     0
 73
     0
 74
     5
  7

 75
    16
 76
     0
 77
     2
 78
   300
147
1.0
148
0.0
149
0.0
100
AcDbLayout
  1
Layout1
 70
     1
 71
     1
 10
0.0
 20
0.0
 11
12.0
 21
9.0
 12
0.0
 22
0.0
 32
0.0
 14
1.000000000000000E+20
 24
1.000000000000000E+20
 34
1.000000000000000E+20
 15
-1.000000000000000E+20
 25
-1.000000000000000E+20
 35
-1.000000000000000E+20
146
0.0
 13
0.0
 23
0.0
 33
0.0
 16
1.0
 26
0.0
 36
0.0
 17
0.0
 27
1.0
 37
0.0
 76
     0
330
1B
  0
LAYOUT
  5
22
102
{ACAD_REACTORS
330
1A
102
}
330
1A
100
AcDbPlotSettings
  1

  2
none_device
  4

  6

 40
0.0
 41
0.0
 42
0.0
 43
0.0
 44
0.0
 45
0.0
 46
0.0
 47
0.0
 48
0.0
 49
0.0
140
0.0
141
0.0
142
1.0
143
1.0
 70
  1712
 72
     0
 73
     0
 74
     0
  7

 75
     0
 76
     0
 77
     2
 78
   300
147
1.0
148
0.0
149
0.0
100
AcDbLayout
  1
Model
 70
     1
 71
     0
 10
0.0
 20
0.0
 11
12.0
 21
9.0
 12
0.0
 22
0.0
 32
0.0
 14
30.0
 24
49.75
 34
0.0
 15
130.5
 25
163.1318914119703
 35
0.0
146
0.0
 13
0.0
 23
0.0
 33
0.0
 16
1.0
 26
0.0
 36
0.0
 17
0.0
 27
1.0
 37
0.0
 76
     0
330
1F
331
29
  0
ENDSEC
  0
EOF
