  0
SECTION
  2
HEADER
  9
$ACADVER
  1
AC1018
  9
$ACADMAINTVER
 70
     0
  9
$DWGCODEPAGE
  3
ANSI_1252
  9
$EXTMIN
 10
731857.738696223
 20
4201615.84377521
 30
0.0
  9
$EXTMAX
 10
733542.819494193
 20
4203295.99340585
 30
0.0
  9
$LIMMIN
 10
0.0
 20
0.0
  9
$LIMMAX
 10
12.0
 20
9.0
  9
$ORTHOMODE
 70
     0
  9
$REGENMODE
 70
     1
  9
$FILLMODE
 70
     1
  9
$QTEXTMODE
 70
     0
  9
$MIRRTEXT
 70
     1
  9
$LTSCALE
 40
1.0
  9
$ATTMODE
 70
     1
  9
$TEXTSIZE
 40
0.2
  9
$TRACEWID
 40
0.05
  9
$TEXTSTYLE
  7
Standard
  9
$CLAYER
  8
0
  9
$CELTYPE
  6
ByLayer
  9
$CECOLOR
 62
   256
  9
$CELTSCALE
 40
1.0
  9
$DISPSILH
 70
     0
  9
$LUNITS
 70
     2
  9
$LUPREC
 70
     4
  9
$SKETCHINC
 40
0.1
  9
$FILLETRAD
 40
0.5
  9
$AUNITS
 70
     0
  9
$AUPREC
 70
     0
  9
$MENU
  1
.
  9
$ELEVATION
 40
0.0
  9
$PELEVATION
 40
0.0
  9
$THICKNESS
 40
0.0
  9
$LIMCHECK
 70
     0
  9
$CHAMFERA
 40
0.5
  9
$CHAMFERB
 40
0.5
  9
$CHAMFERC
 40
1.0
  9
$CHAMFERD
 40
0.0
  9
$SKPOLY
 70
     0
  9
$ANGBASE
 50
0.0
  9
$ANGDIR
 70
     0
  9
$PDMODE
 70
     0
  9
$PDSIZE
 40
0.0
  9
$PLINEWID
 40
0.0
  9
$SPLFRAME
 70
     0
  9
$SPLINETYPE
 70
     6
  9
$SPLINESEGS
 70
     8
  9
$HANDSEED
  5
0002034D
  9
$SURFTAB1
 70
     6
  9
$SURFTAB2
 70
     6
  9
$SURFTYPE
 70
     6
  9
$SURFU
 70
     6
  9
$SURFV
 70
     6
  9
$UCSBASE
  2

  9
$UCSNAME
  2

  9
$UCSORG
 10
0.0
 20
0.0
 30
0.0
  9
$UCSXDIR
 10
1.0
 20
0.0
 30
0.0
  9
$UCSYDIR
 10
0.0
 20
1.0
 30
0.0
  9
$UCSORTHOREF
  2

  9
$UCSORTHOVIEW
 70
     0
  9
$UCSORGTOP
 10
0.0
 20
0.0
 30
0.0
  9
$UCSORGBOTTOM
 10
0.0
 20
0.0
 30
0.0
  9
$UCSORGLEFT
 10
0.0
 20
0.0
 30
0.0
  9
$UCSORGRIGHT
 10
0.0
 20
0.0
 30
0.0
  9
$UCSORGFRONT
 10
0.0
 20
0.0
 30
0.0
  9
$UCSORGBACK
 10
0.0
 20
0.0
 30
0.0
  9
$PUCSBASE
  2

  9
$PUCSNAME
  2

  9
$PUCSORG
 10
0.0
 20
0.0
 30
0.0
  9
$PUCSXDIR
 10
1.0
 20
0.0
 30
0.0
  9
$PUCSYDIR
 10
0.0
 20
1.0
 30
0.0
  9
$PUCSORTHOREF
  2

  9
$PUCSORTHOVIEW
 70
     0
  9
$PUCSORGTOP
 10
0.0
 20
0.0
 30
0.0
  9
$PUCSORGBOTTOM
 10
0.0
 20
0.0
 30
0.0
  9
$PUCSORGLEFT
 10
0.0
 20
0.0
 30
0.0
  9
$PUCSORGRIGHT
 10
0.0
 20
0.0
 30
0.0
  9
$PUCSORGFRONT
 10
0.0
 20
0.0
 30
0.0
  9
$PUCSORGBACK
 10
0.0
 20
0.0
 30
0.0
  9
$WORLDVIEW
 70
     1
  9
$SHADEDGE
 70
     3
  9
$SHADEDIF
 70
    70
  9
$TILEMODE
 70
     1
  9
$MAXACTVP
 70
    64
  9
$PINSBASE
 10
0.0
 20
0.0
 30
0.0
  9
$PLIMCHECK
 70
     0
  9
$PEXTMIN
 10
1.000000000000000E+20
 20
1.000000000000000E+20
 30
1.000000000000000E+20
  9
$PEXTMAX
 10
-1.000000000000000E+20
 20
-1.000000000000000E+20
 30
-1.000000000000000E+20
  9
$PLIMMIN
 10
0.0
 20
0.0
  9
$PLIMMAX
 10
12.0
 20
9.0
  9
$UNITMODE
 70
     0
  9
$VISRETAIN
 70
     1
  9
$PLINEGEN
 70
     0
  9
$PSLTSCALE
 70
     1
  9
$TREEDEPTH
 70
  3020
  9
$CMLSTYLE
  2
Standard
  9
$CMLJUST
 70
     0
  9
$CMLSCALE
 40
1.0
  9
$PROXYGRAPHICS
 70
     1
  9
$MEASUREMENT
 70
     0
  9
$CELWEIGHT
370
    -1
  9
$ENDCAPS
280
     0
  9
$JOINSTYLE
280
     0
  9
$LWDISPLAY
290
     0
  9
$INSUNITS
 70
     1
  9
$HYPERLINKBASE
  1

  9
$STYLESHEET
  1

  9
$XEDIT
290
     1
  9
$CEPSNTYPE
380
     0
  9
$PSTYLEMODE
290
     1
  9
$EXTNAMES
290
     1
  9
$PSVPSCALE
 40
0.0
  9
$OLESTARTUP
290
     0
  9
$SORTENTS
280
   127
  9
$INDEXCTL
280
     0
  9
$HIDETEXT
280
     1
  9
$XCLIPFRAME
290
     0
  9
$HALOGAP
280
     0
  9
$OBSCOLOR
 70
   257
  9
$OBSLTYPE
280
     0
  9
$INTERSECTIONDISPLAY
280
     0
  9
$INTERSECTIONCOLOR
 70
   257
  9
$DIMASSOC
280
     2
  9
$PROJECTNAME
  1

  0
ENDSEC
  0
SECTION
  2
CLASSES
  0
CLASS
  1
ACDBDICTIONARYWDFLT
  2
AcDbDictionaryWithDefault
  3
ObjectDBX Classes
 90
        0
 91
        4
280
     0
281
     0
  0
ENDSEC
  0
SECTION
  2
TABLES
  0
TABLE
  2
VPORT
  5
8
330
0
100
AcDbSymbolTable
 70
     1
  0
VPORT
  5
29
330
8
100
AcDbSymbolTableRecord
100
AcDbViewportTableRecord
  2
*Active
 70
     0
 10
0.0
 20
0.0
 11
1.0
 21
1.0
 12
80.25
 22
106.4409457059851
 13
0.0
 23
0.0
 14
0.5
 24
0.5
 15
0.5
 25
0.5
 16
0.0
 26
0.0
 36
1.0
 17
0.0
 27
0.0
 37
0.0
 40
113.3818914119703
 41
0.8863849310366128
 42
50.0
 43
0.0
 44
0.0
 50
0.0
 51
0.0
 71
     0
 72
  1000
 73
     1
 74
     3
 75
     0
 76
     0
 77
     0
 78
     0
281
     0
 65
     1
110
0.0
120
0.0
130
0.0
111
1.0
121
0.0
131
0.0
112
0.0
122
1.0
132
0.0
 79
     0
146
0.0
  0
ENDTAB
  0
TABLE
  2
LTYPE
  5
5
330
0
100
AcDbSymbolTable
 70
     1
  0
LTYPE
  5
14
330
5
100
AcDbSymbolTableRecord
100
AcDbLinetypeTableRecord
  2
ByBlock
 70
     0
  3

 72
    65
 73
     0
 40
0.0
  0
LTYPE
  5
15
330
5
100
AcDbSymbolTableRecord
100
AcDbLinetypeTableRecord
  2
ByLayer
 70
     0
  3

 72
    65
 73
     0
 40
0.0
  0
LTYPE
  5
16
330
5
100
AcDbSymbolTableRecord
100
AcDbLinetypeTableRecord
  2
Continuous
 70
     0
  3
Solid line
 72
    65
 73
     0
 40
0.0
  0
ENDTAB
  0
TABLE
  2
LAYER
  5
2
330
0
100
AcDbSymbolTable
 70
     1
  0
LAYER
  5
10
330
2
100
AcDbSymbolTableRecord
100
AcDbLayerTableRecord
  2
0
 70
     0
 62
     7
  6
Continuous
370
    -3
390
F
  0
ENDTAB
  0
TABLE
  2
STYLE
  5
3
330
0
100
AcDbSymbolTable
 70
     1
  0
STYLE
  5
11
330
3
100
AcDbSymbolTableRecord
100
AcDbTextStyleTableRecord
  2
Standard
 70
     0
 40
0.0
 41
1.0
 50
0.0
 71
     0
 42
0.2
  3
txt
  4

  0
ENDTAB
  0
TABLE
  2
VIEW
  5
6
330
0
100
AcDbSymbolTable
 70
     0
  0
ENDTAB
  0
TABLE
  2
UCS
  5
7
330
0
100
AcDbSymbolTable
 70
     0
  0
ENDTAB
  0
TABLE
  2
APPID
  5
9
330
0
100
AcDbSymbolTable
 70
     1
  0
APPID
  5
12
330
9
100
AcDbSymbolTableRecord
100
AcDbRegAppTableRecord
  2
ACAD
 70
     0
  0
ENDTAB
  0
TABLE
  2
DIMSTYLE
  5
A
330
0
100
AcDbSymbolTable
 70
     1
100
AcDbDimStyleTable
  0
DIMSTYLE
105
27
330
A
100
AcDbSymbolTableRecord
100
AcDbDimStyleTableRecord
  2
Standard
 70
     0
340
11
  0
ENDTAB
  0
TABLE
  2
BLOCK_RECORD
  5
1
330
0
100
AcDbSymbolTable
 70
     1
  0
BLOCK_RECORD
  5
1F
330
1
100
AcDbSymbolTableRecord
100
AcDbBlockTableRecord
  2
*Model_Space
340
22
  0
BLOCK_RECORD
  5
1B
330
1
100
AcDbSymbolTableRecord
100
AcDbBlockTableRecord
  2
*Paper_Space
340
1E
  0
ENDTAB
  0
ENDSEC
  0
SECTION
  2
BLOCKS
  0
BLOCK
  5
20
330
1F
100
AcDbEntity
  8
0
100
AcDbBlockBegin
  2
*Model_Space
 70
     0
 10
0.0
 20
0.0
 30
0.0
  3
*Model_Space
  1

  0
ENDBLK
  5
21
330
1F
100
AcDbEntity
  8
0
100
AcDbBlockEnd
  0
BLOCK
  5
1C
330
1B
100
AcDbEntity
 67
     1
  8
0
100
AcDbBlockBegin
  2
*Paper_Space
 70
     0
 10
0.0
 20
0.0
 30
0.0
  3
*Paper_Space
  1

  0
ENDBLK
  5
1D
330
1B
100
AcDbEntity
 67
     1
  8
0
100
AcDbBlockEnd
  0
ENDSEC
  0
SECTION
  2
ENTITIES
  0
LWPOLYLINE
  5
20000
100
AcDbEntity
  8
0
100
AcDbPolyline
 70
0
 90
2
 10
732022.777269461
 20
4201846.14826495
 10
731997.792235048
 20
4201801.94240652
  0
LWPOLYLINE
  5
20001
100
AcDbEntity
  8
0
100
AcDbPolyline
 70
0
 90
2
 10
732022.777269461
 20
4201846.14826495
 10
732069.778124309
 20
4201819.49236289
  0
LWPOLYLINE
  5
20002
100
AcDbEntity
  8
0
100
AcDbPolyline
 70
0
 90
2
 10
732044.551078815
 20
4201884.67296374
 10
732022.777269461
 20
4201846.14826495
  0
LWPOLYLINE
  5
20003
100
AcDbEntity
  8
0
100
AcDbPolyline
 70
0
 90
2
 10
731972.880618631
 20
4201874.44679857
 10
732022.777269461
 20
4201846.14826495
  0
LWPOLYLINE
  5
20004
100
AcDbEntity
  8
0
100
AcDbPolyline
 70
0
 90
2
 10
731997.792235048
 20
4201801.94240652
 10
732045.128144616
 20
4201775.98114546
  0
LWPOLYLINE
  5
20005
100
AcDbEntity
  8
0
100
AcDbPolyline
 70
0
 90
2
 10
731948.399516511
 20
4201831.15904127
 10
731997.792235048
 20
4201801.94240652
  0
LWPOLYLINE
  5
20006
100
AcDbEntity
  8
0
100
AcDbPolyline
 70
0
 90
2
 10
732044.551078815
 20
4201884.67296374
 10
732091.600398492
 20
4201858.01290549
  0
LWPOLYLINE
  5
20007
100
AcDbEntity
  8
0
100
AcDbPolyline
 70
0
 90
2
 10
732066.721972119
 20
4201923.90062445
 10
732044.551078815
 20
4201884.67296374
  0
LWPOLYLINE
  5
20008
100
AcDbEntity
  8
0
100
AcDbPolyline
 70
0
 90
2
 10
731994.653927548
 20
4201912.94723889
 10
732044.551078815
 20
4201884.67296374
  0
LWPOLYLINE
  5
20009
100
AcDbEntity
  8
0
100
AcDbPolyline
 70
0
 90
2
 10
732066.721972119
 20
4201923.90062445
 10
732113.807823411
 20
4201897.2135273
  0
LWPOLYLINE
  5
2000A
100
AcDbEntity
  8
0
100
AcDbPolyline
 70
0
 90
2
 10
732089.068125099
 20
4201963.4388847
 10
732066.721972119
 20
4201923.90062445
  0
LWPOLYLINE
  5
2000B
100
AcDbEntity
  8
0
100
AcDbPolyline
 70
0
 90
2
 10
732016.837992743
 20
4201952.17423953
 10
732066.721972119
 20
4201923.90062445
  0
LWPOLYLINE
  5
2000C
100
AcDbEntity
  8
0
100
AcDbPolyline
 70
0
 90
2
 10
732089.068125099
 20
4201963.4388847
 10
732136.207110973
 20
4201936.75343242
  0
LWPOLYLINE
  5
2000D
100
AcDbEntity
  8
0
100
AcDbPolyline
 70
0
 90
2
 10
732110.795281963
 20
4202001.88241012
 10
732089.068125099
 20
4201963.4388847
  0
LWPOLYLINE
  5
2000E
100
AcDbEntity
  8
0
100
AcDbPolyline
 70
0
 90
2
 10
732039.179895051
 20
4201991.68102283
 10
732089.068125099
 20
4201963.4388847
  0
LWPOLYLINE
  5
2000F
100
AcDbEntity
  8
0
100
AcDbPolyline
 70
0
 90
2
 10
732110.795281963
 20
4202001.88241012
 10
732157.971501351
 20
4201975.1731576
  0
LWPOLYLINE
  5
20010
100
AcDbEntity
  8
0
100
AcDbPolyline
 70
0
 90
2
 10
732132.855597637
 20
4202040.91590797
 10
732110.795281963
 20
4202001.88241012
  0
LWPOLYLINE
  5
20011
100
AcDbEntity
  8
0
100
AcDbPolyline
 70
0
 90
2
 10
732060.918365946
 20
4202030.12106177
 10
732110.795281963
 20
4202001.88241012
  0
LWPOLYLINE
  5
20012
100
AcDbEntity
  8
0
100
AcDbPolyline
 70
0
 90
2
 10
732132.855597637
 20
4202040.91590797
 10
732180.050577208
 20
4202014.14867944
  0
LWPOLYLINE
  5
20013
100
AcDbEntity
  8
0
100
AcDbPolyline
 70
0
 90
2
 10
732156.163583287
 20
4202082.15738927
 10
732132.855597637
 20
4202040.91590797
  0
LWPOLYLINE
  5
20014
100
AcDbEntity
  8
0
100
AcDbPolyline
 70
0
 90
2
 10
732083.01036186
 20
4202069.1867464
 10
732132.855597637
 20
4202040.91590797
  0
LWPOLYLINE
  5
20015
100
AcDbEntity
  8
0
100
AcDbPolyline
 70
0
 90
2
 10
732156.163583287
 20
4202082.15738927
 10
732181.530751814
 20
4202127.04324673
  0
LWPOLYLINE
  5
20016
100
AcDbEntity
  8
0
100
AcDbPolyline
 70
0
 90
2
 10
732156.163583287
 20
4202082.15738927
 10
732203.390266511
 20
4202055.35010871
  0
LWPOLYLINE
  5
20017
100
AcDbEntity
  8
0
100
AcDbPolyline
 70
0
 90
2
 10
732106.339008782
 20
4202110.43976839
 10
732156.163583287
 20
4202082.15738927
  0
LWPOLYLINE
  5
20018
100
AcDbEntity
  8
0
100
AcDbPolyline
 70
0
 90
2
 10
732181.530751814
 20
4202127.04324673
 10
732228.888964299
 20
4202100.36347542
  0
LWPOLYLINE
  5
20019
100
AcDbEntity
  8
0
100
AcDbPolyline
 70
0
 90
2
 10
732206.80532261
 20
4202171.76575135
 10
732181.530751814
 20
4202127.04324673
  0
LWPOLYLINE
  5
2001A
100
AcDbEntity
  8
0
100
AcDbPolyline
 70
0
 90
2
 10
732131.62664901
 20
4202155.15760033
 10
732181.530751814
 20
4202127.04324673
  0
LWPOLYLINE
  5
2001B
100
AcDbEntity
  8
0
100
AcDbPolyline
 70
0
 90
2
 10
732206.80532261
 20
4202171.76575135
 10
732254.159515726
 20
4202144.97450923
  0
LWPOLYLINE
  5
2001C
100
AcDbEntity
  8
0
100
AcDbPolyline
 70
0
 90
2
 10
732231.006893012
 20
4202214.59016796
 10
732206.80532261
 20
4202171.76575135
  0
LWPOLYLINE
  5
2001D
100
AcDbEntity
  8
0
100
AcDbPolyline
 70
0
 90
2
 10
732156.964253144
 20
4202199.96436327
 10
732206.80532261
 20
4202171.76575135
  0
LWPOLYLINE
  5
2001E
100
AcDbEntity
  8
0
100
AcDbPolyline
 70
0
 90
2
 10
732231.006893012
 20
4202214.59016796
 10
732278.329975091
 20
4202187.64425086
  0
LWPOLYLINE
  5
2001F
100
AcDbEntity
  8
0
100
AcDbPolyline
 70
0
 90
2
 10
732252.697279217
 20
4202252.97161012
 10
732231.006893012
 20
4202214.59016796
  0
LWPOLYLINE
  5
20020
100
AcDbEntity
  8
0
100
AcDbPolyline
 70
0
 90
2
 10
732181.254701556
 20
4202242.91987268
 10
732231.006893012
 20
4202214.59016796
  0
LWPOLYLINE
  5
20021
100
AcDbEntity
  8
0
100
AcDbPolyline
 70
0
 90
2
 10
732252.697279217
 20
4202252.97161012
 10
732300.170512662
 20
4202226.2012475
  0
LWPOLYLINE
  5
20022
100
AcDbEntity
  8
0
100
AcDbPolyline
 70
0
 90
2
 10
732275.35233318
 20
4202293.06065399
 10
732252.697279217
 20
4202252.97161012
  0
LWPOLYLINE
  5
20023
100
AcDbEntity
  8
0
100
AcDbPolyline
 70
0
 90
2
 10
732202.837790591
 20
4202281.08820805
 10
732252.697279217
 20
4202252.97161012
  0
LWPOLYLINE
  5
20024
100
AcDbEntity
  8
0
100
AcDbPolyline
 70
0
 90
2
 10
732275.35233318
 20
4202293.06065399
 10
732322.64795624
 20
4202265.88320784
  0
LWPOLYLINE
  5
20025
100
AcDbEntity
  8
0
100
AcDbPolyline
 70
0
 90
2
 10
732297.681174144
 20
4202332.57273315
 10
732275.35233318
 20
4202293.06065399
  0
LWPOLYLINE
  5
20026
100
AcDbEntity
  8
0
100
AcDbPolyline
 70
0
 90
2
 10
732225.731432437
 20
4202321.57472731
 10
732275.35233318
 20
4202293.06065399
  0
LWPOLYLINE
  5
20027
100
AcDbEntity
  8
0
100
AcDbPolyline
 70
0
 90
2
 10
732297.681174144
 20
4202332.57273315
 10
732345.116121974
 20
4202305.5492136
  0
LWPOLYLINE
  5
20028
100
AcDbEntity
  8
0
100
AcDbPolyline
 70
0
 90
2
 10
732322.320104638
 20
4202376.17329786
 10
732297.681174144
 20
4202332.57273315
  0
LWPOLYLINE
  5
20029
100
AcDbEntity
  8
0
100
AcDbPolyline
 70
0
 90
2
 10
732247.965902689
 20
4202360.89572056
 10
732297.681174144
 20
4202332.57273315
  0
LWPOLYLINE
  5
2002A
100
AcDbEntity
  8
0
100
AcDbPolyline
 70
0
 90
2
 10
732322.320104638
 20
4202376.17329786
 10
732347.22300312
 20
4202420.24150417
  0
LWPOLYLINE
  5
2002B
100
AcDbEntity
  8
0
100
AcDbPolyline
 70
0
 90
2
 10
732322.320104638
 20
4202376.17329786
 10
732369.700209256
 20
4202348.95111472
  0
LWPOLYLINE
  5
2002C
100
AcDbEntity
  8
0
100
AcDbPolyline
 70
0
 90
2
 10
732272.719096569
 20
4202404.67196988
 10
732322.320104638
 20
4202376.17329786
  0
LWPOLYLINE
  5
2002D
100
AcDbEntity
  8
0
100
AcDbPolyline
 70
0
 90
2
 10
732347.22300312
 20
4202420.24150417
 10
732394.783076973
 20
4202393.23439668
  0
LWPOLYLINE
  5
2002E
100
AcDbEntity
  8
0
100
AcDbPolyline
 70
0
 90
2
 10
732369.551353831
 20
4202459.75427013
 10
732347.22300312
 20
4202420.24150417
  0
LWPOLYLINE
  5
2002F
100
AcDbEntity
  8
0
100
AcDbPolyline
 70
0
 90
2
 10
732297.491277614
 20
4202448.4821769
 10
732347.22300312
 20
4202420.24150417
  0
LWPOLYLINE
  5
20030
100
AcDbEntity
  8
0
100
AcDbPolyline
 70
0
 90
2
 10
732369.551353831
 20
4202459.75427013
 10
732417.092852615
 20
4202432.62237631
  0
LWPOLYLINE
  5
20031
100
AcDbEntity
  8
0
100
AcDbPolyline
 70
0
 90
2
 10
732393.136355526
 20
4202501.49142887
 10
732369.551353831
 20
4202459.75427013
  0
LWPOLYLINE
  5
20032
100
AcDbEntity
  8
0
100
AcDbPolyline
 70
0
 90
2
 10
732319.890511903
 20
4202488.09621694
 10
732369.551353831
 20
4202459.75427013
  0
LWPOLYLINE
  5
20033
100
AcDbEntity
  8
0
100
AcDbPolyline
 70
0
 90
2
 10
732393.136355526
 20
4202501.49142887
 10
732440.808011624
 20
4202474.49199758
  0
LWPOLYLINE
  5
20034
100
AcDbEntity
  8
0
100
AcDbPolyline
 70
0
 90
2
 10
732414.929805284
 20
4202540.05873647
 10
732393.136355526
 20
4202501.49142887
  0
LWPOLYLINE
  5
20035
100
AcDbEntity
  8
0
100
AcDbPolyline
 70
0
 90
2
 10
732343.39417082
 20
4202529.66408627
 10
732393.136355526
 20
4202501.49142887
  0
LWPOLYLINE
  5
20036
100
AcDbEntity
  8
0
100
AcDbPolyline
 70
0
 90
2
 10
732414.929805284
 20
4202540.05873647
 10
732437.659380967
 20
4202580.28299054
  0
LWPOLYLINE
  5
20037
100
AcDbEntity
  8
0
100
AcDbPolyline
 70
0
 90
2
 10
732414.929805284
 20
4202540.05873647
 10
732462.606794151
 20
4202512.97862306
  0
LWPOLYLINE
  5
20038
100
AcDbEntity
  8
0
100
AcDbPolyline
 70
0
 90
2
 10
732365.232354228
 20
4202568.28694616
 10
732414.929805284
 20
4202540.05873647
  0
LWPOLYLINE
  5
20039
100
AcDbEntity
  8
0
100
AcDbPolyline
 70
0
 90
2
 10
732437.659380967
 20
4202580.28299054
 10
732485.342633175
 20
4202553.12022804
  0
LWPOLYLINE
  5
2003A
100
AcDbEntity
  8
0
100
AcDbPolyline
 70
0
 90
2
 10
732460.848173768
 20
4202621.32040746
 10
732437.659380967
 20
4202580.28299054
  0
LWPOLYLINE
  5
2003B
100
AcDbEntity
  8
0
100
AcDbPolyline
 70
0
 90
2
 10
732388.007698055
 20
4202608.56766466
 10
732437.659380967
 20
4202580.28299054
  0
LWPOLYLINE
  5
2003C
100
AcDbEntity
  8
0
100
AcDbPolyline
 70
0
 90
2
 10
732460.848173768
 20
4202621.32040746
 10
732508.384293546
 20
4202593.80218471
  0
LWPOLYLINE
  5
2003D
100
AcDbEntity
  8
0
100
AcDbPolyline
 70
0
 90
2
 10
732490.989087366
 20
4202674.66214107
 10
732460.848173768
 20
4202621.32040746
  0
LWPOLYLINE
  5
2003E
100
AcDbEntity
  8
0
100
AcDbPolyline
 70
0
 90
2
 10
732411.18749824
 20
4202649.56424599
 10
732460.848173768
 20
4202621.32040746
  0
LWPOLYLINE
  5
2003F
100
AcDbEntity
  8
0
100
AcDbPolyline
 70
0
 90
2
 10
732490.989087366
 20
4202674.66214107
 10
732538.800294719
 20
4202647.44003823
  0
LWPOLYLINE
  5
20040
100
AcDbEntity
  8
0
100
AcDbPolyline
 70
0
 90
2
 10
732520.38079623
 20
4202726.67854922
 10
732490.989087366
 20
4202674.66214107
  0
LWPOLYLINE
  5
20041
100
AcDbEntity
  8
0
100
AcDbPolyline
 70
0
 90
2
 10
732441.355932885
 20
4202702.92200395
 10
732490.989087366
 20
4202674.66214107
  0
LWPOLYLINE
  5
20042
100
AcDbEntity
  8
0
100
AcDbPolyline
 70
0
 90
2
 10
732520.38079623
 20
4202726.67854922
 10
732541.599715448
 20
4202764.23167716
  0
LWPOLYLINE
  5
20043
100
AcDbEntity
  8
0
100
AcDbPolyline
 70
0
 90
2
 10
732520.38079623
 20
4202726.67854922
 10
732568.299599668
 20
4202699.46213217
  0
LWPOLYLINE
  5
20044
100
AcDbEntity
  8
0
100
AcDbPolyline
 70
0
 90
2
 10
732470.731495998
 20
4202754.87822891
 10
732520.38079623
 20
4202726.67854922
  0
LWPOLYLINE
  5
20045
100
AcDbEntity
  8
0
100
AcDbPolyline
 70
0
 90
2
 10
732541.599715448
 20
4202764.23167716
 10
732589.522587981
 20
4202736.88944479
  0
LWPOLYLINE
  5
20046
100
AcDbEntity
  8
0
100
AcDbPolyline
 70
0
 90
2
 10
732567.446340542
 20
4202809.97541131
 10
732541.599715448
 20
4202764.23167716
  0
LWPOLYLINE
  5
20047
100
AcDbEntity
  8
0
100
AcDbPolyline
 70
0
 90
2
 10
732492.014887807
 20
4202792.5225729
 10
732541.599715448
 20
4202764.23167716
  0
LWPOLYLINE
  5
20048
100
AcDbEntity
  8
0
100
AcDbPolyline
 70
0
 90
2
 10
732567.446340542
 20
4202809.97541131
 10
732615.482841451
 20
4202782.67178067
  0
LWPOLYLINE
  5
20049
100
AcDbEntity
  8
0
100
AcDbPolyline
 70
0
 90
2
 10
732591.421616191
 20
4202852.40782281
 10
732567.446340542
 20
4202809.97541131
  0
LWPOLYLINE
  5
2004A
100
AcDbEntity
  8
0
100
AcDbPolyline
 70
0
 90
2
 10
732517.82774328
 20
4202838.17865617
 10
732567.446340542
 20
4202809.97541131
  0
LWPOLYLINE
  5
2004B
100
AcDbEntity
  8
0
100
AcDbPolyline
 70
0
 90
2
 10
732591.421616191
 20
4202852.40782281
 10
732639.537103194
 20
4202825.09314938
  0
LWPOLYLINE
  5
2004C
100
AcDbEntity
  8
0
100
AcDbPolyline
 70
0
 90
2
 10
732613.095747735
 20
4202890.7679494
 10
732591.421616191
 20
4202852.40782281
  0
LWPOLYLINE
  5
2004D
100
AcDbEntity
  8
0
100
AcDbPolyline
 70
0
 90
2
 10
732541.799251078
 20
4202880.57848339
 10
732591.421616191
 20
4202852.40782281
  0
LWPOLYLINE
  5
2004E
100
AcDbEntity
  8
0
100
AcDbPolyline
 70
0
 90
2
 10
732613.095747735
 20
4202890.7679494
 10
732661.228522637
 20
4202863.34816569
  0
LWPOLYLINE
  5
2004F
100
AcDbEntity
  8
0
100
AcDbPolyline
 70
0
 90
2
 10
732637.772791646
 20
4202934.44347967
 10
732613.095747735
 20
4202890.7679494
  0
LWPOLYLINE
  5
20050
100
AcDbEntity
  8
0
100
AcDbPolyline
 70
0
 90
2
 10
732563.52530396
 20
4202919.00725314
 10
732613.095747735
 20
4202890.7679494
  0
LWPOLYLINE
  5
20051
100
AcDbEntity
  8
0
100
AcDbPolyline
 70
0
 90
2
 10
732637.772791646
 20
4202934.44347967
 10
732685.938178426
 20
4202906.92659321
  0
LWPOLYLINE
  5
20052
100
AcDbEntity
  8
0
100
AcDbPolyline
 70
0
 90
2
 10
732661.943749514
 20
4202977.22382055
 10
732637.772791646
 20
4202934.44347967
  0
LWPOLYLINE
  5
20053
100
AcDbEntity
  8
0
100
AcDbPolyline
 70
0
 90
2
 10
732588.248265399
 20
4202962.73735302
 10
732637.772791646
 20
4202934.44347967
  0
LWPOLYLINE
  5
20054
100
AcDbEntity
  8
0
100
AcDbPolyline
 70
0
 90
2
 10
732661.943749514
 20
4202977.22382055
 10
732684.538586461
 20
4203017.21500333
  0
LWPOLYLINE
  5
20055
100
AcDbEntity
  8
0
100
AcDbPolyline
 70
0
 90
2
 10
732661.943749514
 20
4202977.22382055
 10
732710.142839922
 20
4202949.61485752
  0
LWPOLYLINE
  5
20056
100
AcDbEntity
  8
0
100
AcDbPolyline
 70
0
 90
2
 10
732612.462274922
 20
4203005.56774287
 10
732661.943749514
 20
4202977.22382055
  0
LWPOLYLINE
  5
20057
100
AcDbEntity
  8
0
100
AcDbPolyline
 70
0
 90
2
 10
732684.538586461
 20
4203017.21500333
 10
732732.848254848
 20
4202989.65964306
  0
LWPOLYLINE
  5
20058
100
AcDbEntity
  8
0
100
AcDbPolyline
 70
0
 90
2
 10
732707.356269764
 20
4203057.60123992
 10
732684.538586461
 20
4203017.21500333
  0
LWPOLYLINE
  5
20059
100
AcDbEntity
  8
0
100
AcDbPolyline
 70
0
 90
2
 10
732635.016360237
 20
4203045.46254464
 10
732684.538586461
 20
4203017.21500333
  0
LWPOLYLINE
  5
2005A
100
AcDbEntity
  8
0
100
AcDbPolyline
 70
0
 90
2
 10
732707.356269764
 20
4203057.60123992
 10
732755.725714526
 20
4203030.00840583
  0
LWPOLYLINE
  5
2005B
100
AcDbEntity
  8
0
100
AcDbPolyline
 70
0
 90
2
 10
732734.037473663
 20
4203104.82641611
 10
732707.356269764
 20
4203057.60123992
  0
LWPOLYLINE
  5
2005C
100
AcDbEntity
  8
0
100
AcDbPolyline
 70
0
 90
2
 10
732657.845976782
 20
4203085.8453072
 10
732707.356269764
 20
4203057.60123992
  0
LWPOLYLINE
  5
2005D
100
AcDbEntity
  8
0
100
AcDbPolyline
 70
0
 90
2
 10
732734.037473663
 20
4203104.82641611
 10
732782.41523992
 20
4203077.08093334
  0
LWPOLYLINE
  5
2005E
100
AcDbEntity
  8
0
100
AcDbPolyline
 70
0
 90
2
 10
732758.889577817
 20
4203148.81462375
 10
732734.037473663
 20
4203104.82641611
  0
LWPOLYLINE
  5
2005F
100
AcDbEntity
  8
0
100
AcDbPolyline
 70
0
 90
2
 10
732684.604151894
 20
4203133.17779373
 10
732734.037473663
 20
4203104.82641611
  0
LWPOLYLINE
  5
20060
100
AcDbEntity
  8
0
100
AcDbPolyline
 70
0
 90
2
 10
732758.889577817
 20
4203148.81462375
 10
732807.453334873
 20
4203121.24152927
  0
LWPOLYLINE
  5
20061
100
AcDbEntity
  8
0
100
AcDbPolyline
 70
0
 90
2
 10
732781.787623281
 20
4203189.34458822
 10
732758.889577817
 20
4203148.81462375
  0
LWPOLYLINE
  5
20062
100
AcDbEntity
  8
0
100
AcDbPolyline
 70
0
 90
2
 10
732709.346079651
 20
4203176.94434295
 10
732758.889577817
 20
4203148.81462375
  0
LWPOLYLINE
  5
20063
100
AcDbEntity
  8
0
100
AcDbPolyline
 70
0
 90
2
 10
732781.787623281
 20
4203189.34458822
 10
732830.447515134
 20
4203161.79770008
  0
LWPOLYLINE
  5
20064
100
AcDbEntity
  8
0
100
AcDbPolyline
 70
0
 90
2
 10
732803.391350665
 20
4203227.58408184
 10
732781.787623281
 20
4203189.34458822
  0
LWPOLYLINE
  5
20065
100
AcDbEntity
  8
0
100
AcDbPolyline
 70
0
 90
2
 10
732732.219466115
 20
4203217.40603775
 10
732781.787623281
 20
4203189.34458822
  0
LWPOLYLINE
  5
20066
100
AcDbEntity
  8
0
100
AcDbPolyline
 70
0
 90
2
 10
732803.391350665
 20
4203227.58408184
 10
732852.361313721
 20
4203200.44889701
  0
LWPOLYLINE
  5
20067
100
AcDbEntity
  8
0
100
AcDbPolyline
 70
0
 90
2
 10
732807.66654714
 20
4203235.15154479
 10
732803.391350665
 20
4203227.58408184
  0
LWPOLYLINE
  5
20068
100
AcDbEntity
  8
0
100
AcDbPolyline
 70
0
 90
2
 10
732753.57732944
 20
4203255.18745166
 10
732803.391350665
 20
4203227.58408184
  0
LWPOLYLINE
  5
20069
100
AcDbEntity
  8
0
100
AcDbPolyline
 70
0
 90
2
 10
732254.680143792
 20
4201714.63219662
 10
732229.834602521
 20
4201670.48307223
  0
LWPOLYLINE
  5
2006A
100
AcDbEntity
  8
0
100
AcDbPolyline
 70
0
 90
2
 10
732254.680143792
 20
4201714.63219662
 10
732303.808366701
 20
4201686.77214581
  0
LWPOLYLINE
  5
2006B
100
AcDbEntity
  8
0
100
AcDbPolyline
 70
0
 90
2
 10
732276.431786377
 20
4201753.28410212
 10
732254.680143792
 20
4201714.63219662
  0
LWPOLYLINE
  5
2006C
100
AcDbEntity
  8
0
100
AcDbPolyline
 70
0
 90
2
 10
732204.718440178
 20
4201742.96546307
 10
732254.680143792
 20
4201714.63219662
  0
LWPOLYLINE
  5
2006D
100
AcDbEntity
  8
0
100
AcDbPolyline
 70
0
 90
2
 10
732229.834602521
 20
4201670.48307223
 10
732279.044641705
 20
4201642.37705445
  0
LWPOLYLINE
  5
2006E
100
AcDbEntity
  8
0
100
AcDbPolyline
 70
0
 90
2
 10
732179.981451946
 20
4201698.95686204
 10
732229.834602521
 20
4201670.48307223
  0
LWPOLYLINE
  5
2006F
100
AcDbEntity
  8
0
100
AcDbPolyline
 70
0
 90
2
 10
732276.431786377
 20
4201753.28410212
 10
732325.424527812
 20
4201725.52508426
  0
LWPOLYLINE
  5
20070
100
AcDbEntity
  8
0
100
AcDbPolyline
 70
0
 90
2
 10
732298.516850202
 20
4201792.52910429
 10
732276.431786377
 20
4201753.28410212
  0
LWPOLYLINE
  5
20071
100
AcDbEntity
  8
0
100
AcDbPolyline
 70
0
 90
2
 10
732226.439903949
 20
4201781.60981683
 10
732276.431786377
 20
4201753.28410212
  0
LWPOLYLINE
  5
20072
100
AcDbEntity
  8
0
100
AcDbPolyline
 70
0
 90
2
 10
732298.516850202
 20
4201792.52910429
 10
732347.358904306
 20
4201764.84891953
  0
LWPOLYLINE
  5
20073
100
AcDbEntity
  8
0
100
AcDbPolyline
 70
0
 90
2
 10
732320.856860719
 20
4201832.22758645
 10
732298.516850202
 20
4201792.52910429
  0
LWPOLYLINE
  5
20074
100
AcDbEntity
  8
0
100
AcDbPolyline
 70
0
 90
2
 10
732248.507835957
 20
4201820.87118177
 10
732298.516850202
 20
4201792.52910429
  0
LWPOLYLINE
  5
20075
100
AcDbEntity
  8
0
100
AcDbPolyline
 70
0
 90
2
 10
732320.856860719
 20
4201832.22758645
 10
732369.563270062
 20
4201804.65720669
  0
LWPOLYLINE
  5
20076
100
AcDbEntity
  8
0
100
AcDbPolyline
 70
0
 90
2
 10
732342.507084201
 20
4201870.70090931
 10
732320.856860719
 20
4201832.22758645
  0
LWPOLYLINE
  5
20077
100
AcDbEntity
  8
0
100
AcDbPolyline
 70
0
 90
2
 10
732270.813286979
 20
4201860.5554306
 10
732320.856860719
 20
4201832.22758645
  0
LWPOLYLINE
  5
20078
100
AcDbEntity
  8
0
100
AcDbPolyline
 70
0
 90
2
 10
732342.507084201
 20
4201870.70090931
 10
732364.396181953
 20
4201909.59904299
  0
LWPOLYLINE
  5
20079
100
AcDbEntity
  8
0
100
AcDbPolyline
 70
0
 90
2
 10
732342.507084201
 20
4201870.70090931
 10
732391.067268071
 20
4201843.21037344
  0
LWPOLYLINE
  5
2007A
100
AcDbEntity
  8
0
100
AcDbPolyline
 70
0
 90
2
 10
732292.445230672
 20
4201899.04208737
 10
732342.507084201
 20
4201870.70090931
  0
LWPOLYLINE
  5
2007B
100
AcDbEntity
  8
0
100
AcDbPolyline
 70
0
 90
2
 10
732364.396181953
 20
4201909.59904299
 10
732412.789104311
 20
4201882.15465565
  0
LWPOLYLINE
  5
2007C
100
AcDbEntity
  8
0
100
AcDbPolyline
 70
0
 90
2
 10
732387.581811379
 20
4201950.80177069
 10
732364.396181953
 20
4201909.59904299
  0
LWPOLYLINE
  5
2007D
100
AcDbEntity
  8
0
100
AcDbPolyline
 70
0
 90
2
 10
732314.336055968
 20
4201937.98944124
 10
732364.396181953
 20
4201909.59904299
  0
LWPOLYLINE
  5
2007E
100
AcDbEntity
  8
0
100
AcDbPolyline
 70
0
 90
2
 10
732387.581811379
 20
4201950.80177069
 10
732435.809930246
 20
4201923.42826633
  0
LWPOLYLINE
  5
2007F
100
AcDbEntity
  8
0
100
AcDbPolyline
 70
0
 90
2
 10
732413.452579324
 20
4201996.77218575
 10
732387.581811379
 20
4201950.80177069
  0
LWPOLYLINE
  5
20080
100
AcDbEntity
  8
0
100
AcDbPolyline
 70
0
 90
2
 10
732337.510693335
 20
4201979.22180458
 10
732387.581811379
 20
4201950.80177069
  0
LWPOLYLINE
  5
20081
100
AcDbEntity
  8
0
100
AcDbPolyline
 70
0
 90
3
 10
732413.452579324
 20
4201996.77218575
 10
732642.437876322
 20
4201866.42746367
 10
732617.033683991
 20
4201820.57271612
  0
LWPOLYLINE
  5
20082
100
AcDbEntity
  8
0
100
AcDbPolyline
 70
0
 90
2
 10
732438.243791074
 20
4202040.83075276
 10
732413.452579324
 20
4201996.77218575
  0
LWPOLYLINE
  5
20083
100
AcDbEntity
  8
0
100
AcDbPolyline
 70
0
 90
2
 10
732363.102588088
 20
4202024.75529332
 10
732413.452579324
 20
4201996.77218575
  0
LWPOLYLINE
  5
20084
100
AcDbEntity
  8
0
100
AcDbPolyline
 70
0
 90
2
 10
732438.243791074
 20
4202040.83075276
 10
732462.007100328
 20
4202083.06178391
  0
LWPOLYLINE
  5
20085
100
AcDbEntity
  8
0
100
AcDbPolyline
 70
0
 90
2
 10
732388.08574635
 20
4202069.20644596
 10
732438.243791074
 20
4202040.83075276
  0
LWPOLYLINE
  5
20086
100
AcDbEntity
  8
0
100
AcDbPolyline
 70
0
 90
2
 10
732484.169056493
 20
4202122.44757438
 10
732462.007100328
 20
4202083.06178391
  0
LWPOLYLINE
  5
20087
100
AcDbEntity
  8
0
100
AcDbPolyline
 70
0
 90
2
 10
732411.905445001
 20
4202111.58808851
 10
732462.007100328
 20
4202083.06178391
  0
LWPOLYLINE
  5
20088
100
AcDbEntity
  8
0
100
AcDbPolyline
 70
0
 90
2
 10
732505.694879554
 20
4202160.70323118
 10
732484.169056493
 20
4202122.44757438
  0
LWPOLYLINE
  5
20089
100
AcDbEntity
  8
0
100
AcDbPolyline
 70
0
 90
2
 10
732433.929859053
 20
4202150.77601084
 10
732484.169056493
 20
4202122.44757438
  0
LWPOLYLINE
  5
2008A
100
AcDbEntity
  8
0
100
AcDbPolyline
 70
0
 90
2
 10
732528.435097134
 20
4202201.11756197
 10
732505.694879554
 20
4202160.70323118
  0
LWPOLYLINE
  5
2008B
100
AcDbEntity
  8
0
100
AcDbPolyline
 70
0
 90
2
 10
732455.665257223
 20
4202189.44987983
 10
732505.694879554
 20
4202160.70323118
  0
LWPOLYLINE
  5
2008C
100
AcDbEntity
  8
0
100
AcDbPolyline
 70
0
 90
2
 10
732552.517445947
 20
4202243.91790407
 10
732528.435097134
 20
4202201.11756197
  0
LWPOLYLINE
  5
2008D
100
AcDbEntity
  8
0
100
AcDbPolyline
 70
0
 90
2
 10
732478.27987616
 20
4202229.6888912
 10
732528.435097134
 20
4202201.11756197
  0
LWPOLYLINE
  5
2008E
100
AcDbEntity
  8
0
100
AcDbPolyline
 70
0
 90
2
 10
732552.517445947
 20
4202243.91790407
 10
732577.996406265
 20
4202289.20067485
  0
LWPOLYLINE
  5
2008F
100
AcDbEntity
  8
0
100
AcDbPolyline
 70
0
 90
2
 10
732502.4440523
 20
4202272.6856605
 10
732552.517445947
 20
4202243.91790407
  0
LWPOLYLINE
  5
20090
100
AcDbEntity
  8
0
100
AcDbPolyline
 70
0
 90
2
 10
732599.971868942
 20
4202328.25736345
 10
732577.996406265
 20
4202289.20067485
  0
LWPOLYLINE
  5
20091
100
AcDbEntity
  8
0
100
AcDbPolyline
 70
0
 90
2
 10
732527.757168043
 20
4202317.72730671
 10
732577.996406265
 20
4202289.20067485
  0
LWPOLYLINE
  5
20092
100
AcDbEntity
  8
0
100
AcDbPolyline
 70
0
 90
2
 10
732623.906130292
 20
4202370.79620092
 10
732599.971868942
 20
4202328.25736345
  0
LWPOLYLINE
  5
20093
100
AcDbEntity
  8
0
100
AcDbPolyline
 70
0
 90
2
 10
732549.773786986
 20
4202356.90364254
 10
732599.971868942
 20
4202328.25736345
  0
LWPOLYLINE
  5
20094
100
AcDbEntity
  8
0
100
AcDbPolyline
 70
0
 90
2
 10
732645.468156251
 20
4202409.11901052
 10
732623.906130292
 20
4202370.79620092
  0
LWPOLYLINE
  5
20095
100
AcDbEntity
  8
0
100
AcDbPolyline
 70
0
 90
2
 10
732573.59370421
 20
4202399.28946198
 10
732623.906130292
 20
4202370.79620092
  0
LWPOLYLINE
  5
20096
100
AcDbEntity
  8
0
100
AcDbPolyline
 70
0
 90
2
 10
732667.960475055
 20
4202449.09585074
 10
732645.468156251
 20
4202409.11901052
  0
LWPOLYLINE
  5
20097
100
AcDbEntity
  8
0
100
AcDbPolyline
 70
0
 90
2
 10
732595.171199813
 20
4202437.68543079
 10
732645.468156251
 20
4202409.11901052
  0
LWPOLYLINE
  5
20098
100
AcDbEntity
  8
0
100
AcDbPolyline
 70
0
 90
2
 10
732667.960475055
 20
4202449.09585074
 10
732690.972194195
 20
4202489.99631476
  0
LWPOLYLINE
  5
20099
100
AcDbEntity
  8
0
100
AcDbPolyline
 70
0
 90
2
 10
732617.678858312
 20
4202477.73708658
 10
732667.960475055
 20
4202449.09585074
  0
LWPOLYLINE
  5
2009A
100
AcDbEntity
  8
0
100
AcDbPolyline
 70
0
 90
2
 10
732690.972194195
 20
4202489.99631476
 10
732919.656166778
 20
4202362.46930378
  0
LWPOLYLINE
  5
2009B
100
AcDbEntity
  8
0
100
AcDbPolyline
 70
0
 90
2
 10
732721.143447777
 20
4202543.62438093
 10
732690.972194195
 20
4202489.99631476
  0
LWPOLYLINE
  5
2009C
100
AcDbEntity
  8
0
100
AcDbPolyline
 70
0
 90
2
 10
732641.116242932
 20
4202518.49033736
 10
732690.972194195
 20
4202489.99631476
  0
LWPOLYLINE
  5
2009D
100
AcDbEntity
  8
0
100
AcDbPolyline
 70
0
 90
2
 10
732721.143447777
 20
4202543.62438093
 10
732771.358786679
 20
4202515.03576235
  0
LWPOLYLINE
  5
2009E
100
AcDbEntity
  8
0
100
AcDbPolyline
 70
0
 90
2
 10
732750.576797944
 20
4202595.93863905
 10
732721.143447777
 20
4202543.62438093
  0
LWPOLYLINE
  5
2009F
100
AcDbEntity
  8
0
100
AcDbPolyline
 70
0
 90
2
 10
732671.743797291
 20
4202571.74898938
 10
732721.143447777
 20
4202543.62438093
  0
LWPOLYLINE
  5
200A0
100
AcDbEntity
  8
0
100
AcDbPolyline
 70
0
 90
2
 10
732750.576797944
 20
4202595.93863905
 10
732800.608150709
 20
4202567.28389143
  0
LWPOLYLINE
  5
200A1
100
AcDbEntity
  8
0
100
AcDbPolyline
 70
0
 90
2
 10
732771.473756664
 20
4202633.08217478
 10
732750.576797944
 20
4202595.93863905
  0
LWPOLYLINE
  5
200A2
100
AcDbEntity
  8
0
100
AcDbPolyline
 70
0
 90
2
 10
732701.163853997
 20
4202624.00181257
 10
732750.576797944
 20
4202595.93863905
  0
LWPOLYLINE
  5
200A3
100
AcDbEntity
  8
0
100
AcDbPolyline
 70
0
 90
2
 10
732771.473756664
 20
4202633.08217478
 10
732821.490170951
 20
4202604.58630246
  0
LWPOLYLINE
  5
200A4
100
AcDbEntity
  8
0
100
AcDbPolyline
 70
0
 90
2
 10
732797.446427358
 20
4202679.2491183
 10
732771.473756664
 20
4202633.08217478
  0
LWPOLYLINE
  5
200A5
100
AcDbEntity
  8
0
100
AcDbPolyline
 70
0
 90
2
 10
732722.127087486
 20
4202661.23495413
 10
732771.473756664
 20
4202633.08217478
  0
LWPOLYLINE
  5
200A6
100
AcDbEntity
  8
0
100
AcDbPolyline
 70
0
 90
2
 10
732797.446427358
 20
4202679.2491183
 10
732847.39487504
 20
4202650.86110834
  0
LWPOLYLINE
  5
200A7
100
AcDbEntity
  8
0
100
AcDbPolyline
 70
0
 90
2
 10
732821.412243325
 20
4202721.84836615
 10
732797.446427358
 20
4202679.2491183
  0
LWPOLYLINE
  5
200A8
100
AcDbEntity
  8
0
100
AcDbPolyline
 70
0
 90
2
 10
732748.069726916
 20
4202707.31279696
 10
732797.446427358
 20
4202679.2491183
  0
LWPOLYLINE
  5
200A9
100
AcDbEntity
  8
0
100
AcDbPolyline
 70
0
 90
2
 10
732821.412243325
 20
4202721.84836615
 10
732871.285230686
 20
4202693.53833605
  0
LWPOLYLINE
  5
200AA
100
AcDbEntity
  8
0
100
AcDbPolyline
 70
0
 90
2
 10
732842.821671129
 20
4202759.90405683
 10
732821.412243325
 20
4202721.84836615
  0
LWPOLYLINE
  5
200AB
100
AcDbEntity
  8
0
100
AcDbPolyline
 70
0
 90
2
 10
732772.034369029
 20
4202749.87797993
 10
732821.412243325
 20
4202721.84836615
  0
LWPOLYLINE
  5
200AC
100
AcDbEntity
  8
0
100
AcDbPolyline
 70
0
 90
2
 10
732842.821671129
 20
4202759.90405683
 10
732892.572033617
 20
4202731.56501936
  0
LWPOLYLINE
  5
200AD
100
AcDbEntity
  8
0
100
AcDbPolyline
 70
0
 90
2
 10
732867.258765702
 20
4202803.34214201
 10
732842.821671129
 20
4202759.90405683
  0
LWPOLYLINE
  5
200AE
100
AcDbEntity
  8
0
100
AcDbPolyline
 70
0
 90
2
 10
732793.49760893
 20
4202788.00070536
 10
732842.821671129
 20
4202759.90405683
  0
LWPOLYLINE
  5
200AF
100
AcDbEntity
  8
0
100
AcDbPolyline
 70
0
 90
2
 10
732867.258765702
 20
4202803.34214201
 10
732891.203631423
 20
4202845.90563003
  0
LWPOLYLINE
  5
200B0
100
AcDbEntity
  8
0
100
AcDbPolyline
 70
0
 90
2
 10
732867.258765702
 20
4202803.34214201
 10
732916.882746867
 20
4202774.99422397
  0
LWPOLYLINE
  5
200B1
100
AcDbEntity
  8
0
100
AcDbPolyline
 70
0
 90
2
 10
732817.982863795
 20
4202831.49176152
 10
732867.258765702
 20
4202803.34214201
  0
LWPOLYLINE
  5
200B2
100
AcDbEntity
  8
0
100
AcDbPolyline
 70
0
 90
2
 10
732891.203631423
 20
4202845.90563003
 10
732940.705698414
 20
4202817.55273093
  0
LWPOLYLINE
  5
200B3
100
AcDbEntity
  8
0
100
AcDbPolyline
 70
0
 90
2
 10
732913.960878044
 20
4202886.358724
 10
732891.203631423
 20
4202845.90563003
  0
LWPOLYLINE
  5
200B4
100
AcDbEntity
  8
0
100
AcDbPolyline
 70
0
 90
2
 10
732841.972936186
 20
4202874.10369719
 10
732891.203631423
 20
4202845.90563003
  0
LWPOLYLINE
  5
200B5
100
AcDbEntity
  8
0
100
AcDbPolyline
 70
0
 90
2
 10
732913.960878044
 20
4202886.358724
 10
732963.42804977
 20
4202858.14537174
  0
LWPOLYLINE
  5
200B6
100
AcDbEntity
  8
0
100
AcDbPolyline
 70
0
 90
2
 10
732936.697457073
 20
4202926.77554789
 10
732913.960878044
 20
4202886.358724
  0
LWPOLYLINE
  5
200B7
100
AcDbEntity
  8
0
100
AcDbPolyline
 70
0
 90
2
 10
732864.69236924
 20
4202914.45927035
 10
732913.960878044
 20
4202886.358724
  0
LWPOLYLINE
  5
200B8
100
AcDbEntity
  8
0
100
AcDbPolyline
 70
0
 90
2
 10
732936.697457073
 20
4202926.77554789
 10
732986.07758953
 20
4202898.60851339
  0
LWPOLYLINE
  5
200B9
100
AcDbEntity
  8
0
100
AcDbPolyline
 70
0
 90
2
 10
732962.99350552
 20
4202973.52028802
 10
732936.697457073
 20
4202926.77554789
  0
LWPOLYLINE
  5
200BA
100
AcDbEntity
  8
0
100
AcDbPolyline
 70
0
 90
2
 10
732887.443295564
 20
4202954.87124653
 10
732936.697457073
 20
4202926.77554789
  0
LWPOLYLINE
  5
200BB
100
AcDbEntity
  8
0
100
AcDbPolyline
 70
0
 90
2
 10
732962.99350552
 20
4202973.52028802
 10
733012.210637813
 20
4202945.29569011
  0
LWPOLYLINE
  5
200BC
100
AcDbEntity
  8
0
100
AcDbPolyline
 70
0
 90
2
 10
732988.325540315
 20
4203018.55197372
 10
732962.99350552
 20
4202973.52028802
  0
LWPOLYLINE
  5
200BD
100
AcDbEntity
  8
0
100
AcDbPolyline
 70
0
 90
2
 10
732913.81830522
 20
4203001.72124887
 10
732962.99350552
 20
4202973.52028802
  0
LWPOLYLINE
  5
200BE
100
AcDbEntity
  8
0
100
AcDbPolyline
 70
0
 90
2
 10
732988.325540315
 20
4203018.55197372
 10
733037.567232021
 20
4202990.59625138
  0
LWPOLYLINE
  5
200BF
100
AcDbEntity
  8
0
100
AcDbPolyline
 70
0
 90
2
 10
733011.283777637
 20
4203059.36434926
 10
732988.325540315
 20
4203018.55197372
  0
LWPOLYLINE
  5
200C0
100
AcDbEntity
  8
0
100
AcDbPolyline
 70
0
 90
2
 10
732939.044232367
 20
4203046.53071988
 10
732988.325540315
 20
4203018.55197372
  0
LWPOLYLINE
  5
200C1
100
AcDbEntity
  8
0
100
AcDbPolyline
 70
0
 90
2
 10
733011.283777637
 20
4203059.36434926
 10
733060.329329636
 20
4203031.26157336
  0
LWPOLYLINE
  5
200C2
100
AcDbEntity
  8
0
100
AcDbPolyline
 70
0
 90
2
 10
733034.024179734
 20
4203099.79029985
 10
733011.283777637
 20
4203059.36434926
  0
LWPOLYLINE
  5
200C3
100
AcDbEntity
  8
0
100
AcDbPolyline
 70
0
 90
2
 10
732962.007948371
 20
4203087.32233291
 10
733011.283777637
 20
4203059.36434926
  0
LWPOLYLINE
  5
200C4
100
AcDbEntity
  8
0
100
AcDbPolyline
 70
0
 90
2
 10
733037.573966992
 20
4203106.10090629
 10
733034.024179734
 20
4203099.79029985
  0
LWPOLYLINE
  5
200C5
100
AcDbEntity
  8
0
100
AcDbPolyline
 70
0
 90
2
 10
732984.480310117
 20
4203127.24168693
 10
733034.024179734
 20
4203099.79029985
  0
LWPOLYLINE
  5
200C6
100
AcDbEntity
  8
0
100
AcDbPolyline
 70
0
 90
2
 10
732984.480310117
 20
4203127.24168693
 10
732962.007948371
 20
4203087.32233291
  0
LWPOLYLINE
  5
200C7
100
AcDbEntity
  8
0
100
AcDbPolyline
 70
0
 90
2
 10
732939.130359011
 20
4203152.36976696
 10
732984.480310117
 20
4203127.24168693
  0
LWPOLYLINE
  5
200C8
100
AcDbEntity
  8
0
100
AcDbPolyline
 70
0
 90
2
 10
732852.361313721
 20
4203200.44889701
 10
732894.625914961
 20
4203177.02966123
  0
LWPOLYLINE
  5
200C9
100
AcDbEntity
  8
0
100
AcDbPolyline
 70
0
 90
2
 10
732852.361313721
 20
4203200.44889701
 10
732830.447515134
 20
4203161.79770008
  0
LWPOLYLINE
  5
200CA
100
AcDbEntity
  8
0
100
AcDbPolyline
 70
0
 90
2
 10
732894.625914961
 20
4203177.02966123
 10
732939.130359011
 20
4203152.36976696
  0
LWPOLYLINE
  5
200CB
100
AcDbEntity
  8
0
100
AcDbPolyline
 70
0
 90
2
 10
732894.625914961
 20
4203177.02966123
 10
732872.544346387
 20
4203137.96660639
  0
LWPOLYLINE
  5
200CC
100
AcDbEntity
  8
0
100
AcDbPolyline
 70
0
 90
2
 10
732939.130359011
 20
4203152.36976696
 10
732916.914707824
 20
4203112.84882207
  0
LWPOLYLINE
  5
200CD
100
AcDbEntity
  8
0
100
AcDbPolyline
 70
0
 90
2
 10
732706.426313247
 20
4203281.31553256
 10
732753.57732944
 20
4203255.18745166
  0
LWPOLYLINE
  5
200CE
100
AcDbEntity
  8
0
100
AcDbPolyline
 70
0
 90
2
 10
732706.426313247
 20
4203281.31553256
 10
732686.243955843
 20
4203243.43417798
  0
LWPOLYLINE
  5
200CF
100
AcDbEntity
  8
0
100
AcDbPolyline
 70
0
 90
2
 10
732753.57732944
 20
4203255.18745166
 10
732732.219466115
 20
4203217.40603775
  0
LWPOLYLINE
  5
200D0
100
AcDbEntity
  8
0
100
AcDbPolyline
 70
0
 90
2
 10
732452.384543006
 20
4203266.36848263
 10
732498.80739953
 20
4203239.74159197
  0
LWPOLYLINE
  5
200D1
100
AcDbEntity
  8
0
100
AcDbPolyline
 70
0
 90
2
 10
732452.384543006
 20
4203266.36848263
 10
732425.040588246
 20
4203218.6599691
  0
LWPOLYLINE
  5
200D2
100
AcDbEntity
  8
0
100
AcDbPolyline
 70
0
 90
2
 10
732498.80739953
 20
4203239.74159197
 10
732547.666703107
 20
4203211.71763076
  0
LWPOLYLINE
  5
200D3
100
AcDbEntity
  8
0
100
AcDbPolyline
 70
0
 90
2
 10
732498.80739953
 20
4203239.74159197
 10
732472.269944747
 20
4203191.71495605
  0
LWPOLYLINE
  5
200D4
100
AcDbEntity
  8
0
100
AcDbPolyline
 70
0
 90
3
 10
732498.80739953
 20
4203239.74159197
 10
732522.488253986
 20
4203282.59904081
 10
732571.838902795
 20
4203255.02059483
  0
LWPOLYLINE
  5
200D5
100
AcDbEntity
  8
0
100
AcDbPolyline
 70
0
 90
2
 10
732547.666703107
 20
4203211.71763076
 10
732592.103261779
 20
4203186.23087689
  0
LWPOLYLINE
  5
200D6
100
AcDbEntity
  8
0
100
AcDbPolyline
 70
0
 90
2
 10
732547.666703107
 20
4203211.71763076
 10
732520.986249909
 20
4203163.92200631
  0
LWPOLYLINE
  5
200D7
100
AcDbEntity
  8
0
100
AcDbPolyline
 70
0
 90
2
 10
732571.838902795
 20
4203255.02059483
 10
732547.666703107
 20
4203211.71763076
  0
LWPOLYLINE
  5
200D8
100
AcDbEntity
  8
0
100
AcDbPolyline
 70
0
 90
2
 10
732592.103261779
 20
4203186.23087689
 10
732638.930494124
 20
4203159.37330092
  0
LWPOLYLINE
  5
200D9
100
AcDbEntity
  8
0
100
AcDbPolyline
 70
0
 90
2
 10
732592.103261779
 20
4203186.23087689
 10
732565.463912136
 20
4203138.5476684
  0
LWPOLYLINE
  5
200DA
100
AcDbEntity
  8
0
100
AcDbPolyline
 70
0
 90
2
 10
732616.398646219
 20
4203229.71930582
 10
732592.103261779
 20
4203186.23087689
  0
LWPOLYLINE
  5
200DB
100
AcDbEntity
  8
0
100
AcDbPolyline
 70
0
 90
2
 10
732638.930494124
 20
4203159.37330092
 10
732684.604151894
 20
4203133.17779373
  0
LWPOLYLINE
  5
200DC
100
AcDbEntity
  8
0
100
AcDbPolyline
 70
0
 90
2
 10
732638.930494124
 20
4203159.37330092
 10
732612.201152581
 20
4203111.88463035
  0
LWPOLYLINE
  5
200DD
100
AcDbEntity
  8
0
100
AcDbPolyline
 70
0
 90
2
 10
732638.930494124
 20
4203159.37330092
 10
732663.478731417
 20
4203202.98735935
  0
LWPOLYLINE
  5
200DE
100
AcDbEntity
  8
0
100
AcDbPolyline
 70
0
 90
2
 10
732657.845976782
 20
4203085.8453072
 10
732684.604151894
 20
4203133.17779373
  0
LWPOLYLINE
  5
200DF
100
AcDbEntity
  8
0
100
AcDbPolyline
 70
0
 90
2
 10
732709.346079651
 20
4203176.94434295
 10
732684.604151894
 20
4203133.17779373
  0
LWPOLYLINE
  5
200E0
100
AcDbEntity
  8
0
100
AcDbPolyline
 70
0
 90
2
 10
732782.41523992
 20
4203077.08093334
 10
732824.486736313
 20
4203052.95251871
  0
LWPOLYLINE
  5
200E1
100
AcDbEntity
  8
0
100
AcDbPolyline
 70
0
 90
2
 10
732782.41523992
 20
4203077.08093334
 10
732755.725714526
 20
4203030.00840583
  0
LWPOLYLINE
  5
200E2
100
AcDbEntity
  8
0
100
AcDbPolyline
 70
0
 90
2
 10
732807.453334873
 20
4203121.24152927
 10
732782.41523992
 20
4203077.08093334
  0
LWPOLYLINE
  5
200E3
100
AcDbEntity
  8
0
100
AcDbPolyline
 70
0
 90
2
 10
732824.486736313
 20
4203052.95251871
 10
732868.920249059
 20
4203027.46994298
  0
LWPOLYLINE
  5
200E4
100
AcDbEntity
  8
0
100
AcDbPolyline
 70
0
 90
2
 10
732824.486736313
 20
4203052.95251871
 10
732797.912177783
 20
4203005.94320424
  0
LWPOLYLINE
  5
200E5
100
AcDbEntity
  8
0
100
AcDbPolyline
 70
0
 90
2
 10
732849.572058843
 20
4203097.32829562
 10
732824.486736313
 20
4203052.95251871
  0
LWPOLYLINE
  5
200E6
100
AcDbEntity
  8
0
100
AcDbPolyline
 70
0
 90
2
 10
732868.920249059
 20
4203027.46994298
 10
732913.81830522
 20
4203001.72124887
  0
LWPOLYLINE
  5
200E7
100
AcDbEntity
  8
0
100
AcDbPolyline
 70
0
 90
2
 10
732842.515897112
 20
4202980.49930508
 10
732868.920249059
 20
4203027.46994298
  0
LWPOLYLINE
  5
200E8
100
AcDbEntity
  8
0
100
AcDbPolyline
 70
0
 90
2
 10
732894.008240477
 20
4203072.09951507
 10
732868.920249059
 20
4203027.46994298
  0
LWPOLYLINE
  5
200E9
100
AcDbEntity
  8
0
100
AcDbPolyline
 70
0
 90
2
 10
732913.81830522
 20
4203001.72124887
 10
732887.443295564
 20
4202954.87124653
  0
LWPOLYLINE
  5
200EA
100
AcDbEntity
  8
0
100
AcDbPolyline
 70
0
 90
2
 10
732939.044232367
 20
4203046.53071988
 10
732913.81830522
 20
4203001.72124887
  0
LWPOLYLINE
  5
200EB
100
AcDbEntity
  8
0
100
AcDbPolyline
 70
0
 90
2
 10
733012.210637813
 20
4202945.29569011
 10
733054.655697191
 20
4202920.95496925
  0
LWPOLYLINE
  5
200EC
100
AcDbEntity
  8
0
100
AcDbPolyline
 70
0
 90
2
 10
733012.210637813
 20
4202945.29569011
 10
732986.07758953
 20
4202898.60851339
  0
LWPOLYLINE
  5
200ED
100
AcDbEntity
  8
0
100
AcDbPolyline
 70
0
 90
2
 10
733037.567232021
 20
4202990.59625138
 10
733012.210637813
 20
4202945.29569011
  0
LWPOLYLINE
  5
200EE
100
AcDbEntity
  8
0
100
AcDbPolyline
 70
0
 90
2
 10
733054.655697191
 20
4202920.95496925
 10
733100.878011189
 20
4202894.44867203
  0
LWPOLYLINE
  5
200EF
100
AcDbEntity
  8
0
100
AcDbPolyline
 70
0
 90
2
 10
733054.655697191
 20
4202920.95496925
 10
733080.087252311
 20
4202966.45706728
  0
LWPOLYLINE
  5
200F0
100
AcDbEntity
  8
0
100
AcDbPolyline
 70
0
 90
2
 10
733054.655697191
 20
4202920.95496925
 10
733028.607097711
 20
4202874.34946742
  0
LWPOLYLINE
  5
200F1
100
AcDbEntity
  8
0
100
AcDbPolyline
 70
0
 90
2
 10
733100.878011189
 20
4202894.44867203
 10
733145.76398297
 20
4202868.70901842
  0
LWPOLYLINE
  5
200F2
100
AcDbEntity
  8
0
100
AcDbPolyline
 70
0
 90
2
 10
733100.878011189
 20
4202894.44867203
 10
733074.964057318
 20
4202847.90771427
  0
LWPOLYLINE
  5
200F3
100
AcDbEntity
  8
0
100
AcDbPolyline
 70
0
 90
2
 10
733126.348753421
 20
4202940.19417422
 10
733100.878011189
 20
4202894.44867203
  0
LWPOLYLINE
  5
200F4
100
AcDbEntity
  8
0
100
AcDbPolyline
 70
0
 90
2
 10
733145.76398297
 20
4202868.70901842
 10
733190.87388816
 20
4202842.84135494
  0
LWPOLYLINE
  5
200F5
100
AcDbEntity
  8
0
100
AcDbPolyline
 70
0
 90
2
 10
733145.76398297
 20
4202868.70901842
 10
733119.886792538
 20
4202822.28435754
  0
LWPOLYLINE
  5
200F6
100
AcDbEntity
  8
0
100
AcDbPolyline
 70
0
 90
2
 10
733171.364793745
 20
4202914.6386446
 10
733145.76398297
 20
4202868.70901842
  0
LWPOLYLINE
  5
200F7
100
AcDbEntity
  8
0
100
AcDbPolyline
 70
0
 90
2
 10
733190.87388816
 20
4202842.84135494
 10
733164.804183625
 20
4202796.66451767
  0
LWPOLYLINE
  5
200F8
100
AcDbEntity
  8
0
100
AcDbPolyline
 70
0
 90
3
 10
733190.87388816
 20
4202842.84135494
 10
733239.336945222
 20
4202815.05135068
 10
733213.275172268
 20
4202769.01818802
  0
LWPOLYLINE
  5
200F9
100
AcDbEntity
  8
0
100
AcDbPolyline
 70
0
 90
3
 10
733171.364793745
 20
4202914.6386446
 10
733216.598467313
 20
4202888.40768362
 10
733190.87388816
 20
4202842.84135494
  0
LWPOLYLINE
  5
200FA
100
AcDbEntity
  8
0
100
AcDbPolyline
 70
0
 90
3
 10
733102.950040264
 20
4203007.36285342
 10
733194.656592095
 20
4202955.94145781
 10
733171.364793745
 20
4202914.6386446
  0
LWPOLYLINE
  5
200FB
100
AcDbEntity
  8
0
100
AcDbPolyline
 70
0
 90
2
 10
733126.348753421
 20
4202940.19417422
 10
733171.364793745
 20
4202914.6386446
  0
LWPOLYLINE
  5
200FC
100
AcDbEntity
  8
0
100
AcDbPolyline
 70
0
 90
2
 10
733060.329329636
 20
4203031.26157336
 10
733102.950040264
 20
4203007.36285342
  0
LWPOLYLINE
  5
200FD
100
AcDbEntity
  8
0
100
AcDbPolyline
 70
0
 90
2
 10
733037.567232021
 20
4202990.59625138
 10
733060.329329636
 20
4203031.26157336
  0
LWPOLYLINE
  5
200FE
100
AcDbEntity
  8
0
100
AcDbPolyline
 70
0
 90
2
 10
733102.950040264
 20
4203007.36285342
 10
733080.087252311
 20
4202966.45706728
  0
LWPOLYLINE
  5
200FF
100
AcDbEntity
  8
0
100
AcDbPolyline
 70
0
 90
3
 10
733102.950040264
 20
4203007.36285342
 10
733149.282592059
 20
4202981.38313196
 10
733126.348753421
 20
4202940.19417422
  0
LWPOLYLINE
  5
20100
100
AcDbEntity
  8
0
100
AcDbPolyline
 70
0
 90
2
 10
733164.804183625
 20
4202796.66451767
 10
733142.012540088
 20
4202756.29453801
  0
LWPOLYLINE
  5
20101
100
AcDbEntity
  8
0
100
AcDbPolyline
 70
0
 90
2
 10
733164.804183625
 20
4202796.66451767
 10
733213.275172268
 20
4202769.01818802
  0
LWPOLYLINE
  5
20102
100
AcDbEntity
  8
0
100
AcDbPolyline
 70
0
 90
2
 10
733119.886792538
 20
4202822.28435754
 10
733164.804183625
 20
4202796.66451767
  0
LWPOLYLINE
  5
20103
100
AcDbEntity
  8
0
100
AcDbPolyline
 70
0
 90
2
 10
733142.012540088
 20
4202756.29453801
 10
733118.958397321
 20
4202715.46010851
  0
LWPOLYLINE
  5
20104
100
AcDbEntity
  8
0
100
AcDbPolyline
 70
0
 90
2
 10
733142.012540088
 20
4202756.29453801
 10
733190.436359102
 20
4202728.67837438
  0
LWPOLYLINE
  5
20105
100
AcDbEntity
  8
0
100
AcDbPolyline
 70
0
 90
2
 10
733097.313276725
 20
4202781.78699732
 10
733142.012540088
 20
4202756.29453801
  0
LWPOLYLINE
  5
20106
100
AcDbEntity
  8
0
100
AcDbPolyline
 70
0
 90
2
 10
733118.958397321
 20
4202715.46010851
 10
733095.09536843
 20
4202673.19346181
  0
LWPOLYLINE
  5
20107
100
AcDbEntity
  8
0
100
AcDbPolyline
 70
0
 90
2
 10
733118.958397321
 20
4202715.46010851
 10
733167.283092645
 20
4202687.78355065
  0
LWPOLYLINE
  5
20108
100
AcDbEntity
  8
0
100
AcDbPolyline
 70
0
 90
2
 10
733074.526463129
 20
4202740.90744814
 10
733118.958397321
 20
4202715.46010851
  0
LWPOLYLINE
  5
20109
100
AcDbEntity
  8
0
100
AcDbPolyline
 70
0
 90
2
 10
733095.09536843
 20
4202673.19346181
 10
733070.750588519
 20
4202630.07404862
  0
LWPOLYLINE
  5
2010A
100
AcDbEntity
  8
0
100
AcDbPolyline
 70
0
 90
2
 10
733095.09536843
 20
4202673.19346181
 10
733143.40047337
 20
4202645.60116351
  0
LWPOLYLINE
  5
2010B
100
AcDbEntity
  8
0
100
AcDbPolyline
 70
0
 90
2
 10
733050.864638409
 20
4202698.45896216
 10
733095.09536843
 20
4202673.19346181
  0
LWPOLYLINE
  5
2010C
100
AcDbEntity
  8
0
100
AcDbPolyline
 70
0
 90
2
 10
733070.750588519
 20
4202630.07404862
 10
733119.037552432
 20
4202602.57082422
  0
LWPOLYLINE
  5
2010D
100
AcDbEntity
  8
0
100
AcDbPolyline
 70
0
 90
2
 10
733049.476039611
 20
4202592.39320058
 10
733070.750588519
 20
4202630.07404862
  0
LWPOLYLINE
  5
2010E
100
AcDbEntity
  8
0
100
AcDbPolyline
 70
0
 90
2
 10
733026.723705002
 20
4202655.15134442
 10
733070.750588519
 20
4202630.07404862
  0
LWPOLYLINE
  5
2010F
100
AcDbEntity
  8
0
100
AcDbPolyline
 70
0
 90
2
 10
733049.476039611
 20
4202592.39320058
 10
733025.376683427
 20
4202549.70968488
  0
LWPOLYLINE
  5
20110
100
AcDbEntity
  8
0
100
AcDbPolyline
 70
0
 90
2
 10
733049.476039611
 20
4202592.39320058
 10
733097.946242505
 20
4202564.88151068
  0
LWPOLYLINE
  5
20111
100
AcDbEntity
  8
0
100
AcDbPolyline
 70
0
 90
2
 10
733005.617238034
 20
4202617.28780768
 10
733049.476039611
 20
4202592.39320058
  0
LWPOLYLINE
  5
20112
100
AcDbEntity
  8
0
100
AcDbPolyline
 70
0
 90
2
 10
733025.376683427
 20
4202549.70968488
 10
732999.198302062
 20
4202503.34440088
  0
LWPOLYLINE
  5
20113
100
AcDbEntity
  8
0
100
AcDbPolyline
 70
0
 90
2
 10
733025.376683427
 20
4202549.70968488
 10
733073.994020069
 20
4202522.08041068
  0
LWPOLYLINE
  5
20114
100
AcDbEntity
  8
0
100
AcDbPolyline
 70
0
 90
2
 10
732981.763090874
 20
4202574.49578797
 10
733025.376683427
 20
4202549.70968488
  0
LWPOLYLINE
  5
20115
100
AcDbEntity
  8
0
100
AcDbPolyline
 70
0
 90
2
 10
732999.198302062
 20
4202503.34440088
 10
732977.952778379
 20
4202465.71638136
  0
LWPOLYLINE
  5
20116
100
AcDbEntity
  8
0
100
AcDbPolyline
 70
0
 90
2
 10
732999.198302062
 20
4202503.34440088
 10
733047.962415517
 20
4202475.56419696
  0
LWPOLYLINE
  5
20117
100
AcDbEntity
  8
0
100
AcDbPolyline
 70
0
 90
2
 10
732955.862235516
 20
4202528.03281546
 10
732999.198302062
 20
4202503.34440088
  0
LWPOLYLINE
  5
20118
100
AcDbEntity
  8
0
100
AcDbPolyline
 70
0
 90
2
 10
732977.952778379
 20
4202465.71638136
 10
732948.772011583
 20
4202414.03487164
  0
LWPOLYLINE
  5
20119
100
AcDbEntity
  8
0
100
AcDbPolyline
 70
0
 90
2
 10
732977.952778379
 20
4202465.71638136
 10
733026.79691443
 20
4202437.74372544
  0
LWPOLYLINE
  5
2011A
100
AcDbEntity
  8
0
100
AcDbPolyline
 70
0
 90
2
 10
732934.875910933
 20
4202490.38641538
 10
732977.952778379
 20
4202465.71638136
  0
LWPOLYLINE
  5
2011B
100
AcDbEntity
  8
0
100
AcDbPolyline
 70
0
 90
2
 10
732948.772011583
 20
4202414.03487164
 10
732919.656166778
 20
4202362.46930378
  0
LWPOLYLINE
  5
2011C
100
AcDbEntity
  8
0
100
AcDbPolyline
 70
0
 90
2
 10
732948.772011583
 20
4202414.03487164
 10
732997.882503399
 20
4202386.07749862
  0
LWPOLYLINE
  5
2011D
100
AcDbEntity
  8
0
100
AcDbPolyline
 70
0
 90
2
 10
732905.913832714
 20
4202438.43339716
 10
732948.772011583
 20
4202414.03487164
  0
LWPOLYLINE
  5
2011E
100
AcDbEntity
  8
0
100
AcDbPolyline
 70
0
 90
2
 10
732919.656166778
 20
4202362.46930378
 10
733144.88969844
 20
4202232.0232332
  0
LWPOLYLINE
  5
2011F
100
AcDbEntity
  8
0
100
AcDbPolyline
 70
0
 90
2
 10
733174.456620778
 20
4202285.56223627
 10
733144.88969844
 20
4202232.0232332
  0
LWPOLYLINE
  5
20120
100
AcDbEntity
  8
0
100
AcDbPolyline
 70
0
 90
2
 10
733050.397535922
 20
4202070.51819878
 10
733144.88969844
 20
4202232.0232332
  0
LWPOLYLINE
  5
20121
100
AcDbEntity
  8
0
100
AcDbPolyline
 70
0
 90
2
 10
733174.456620778
 20
4202285.56223627
 10
733542.819494193
 20
4202075.89063918
  0
LWPOLYLINE
  5
20122
100
AcDbEntity
  8
0
100
AcDbPolyline
 70
0
 90
2
 10
733129.82600538
 20
4202310.96779737
 10
733174.456620778
 20
4202285.56223627
  0
LWPOLYLINE
  5
20123
100
AcDbEntity
  8
0
100
AcDbPolyline
 70
0
 90
2
 10
733203.779008143
 20
4202336.391737
 10
733174.456620778
 20
4202285.56223627
  0
LWPOLYLINE
  5
20124
100
AcDbEntity
  8
0
100
AcDbPolyline
 70
0
 90
2
 10
733086.826955584
 20
4202335.44496652
 10
733129.82600538
 20
4202310.96779737
  0
LWPOLYLINE
  5
20125
100
AcDbEntity
  8
0
100
AcDbPolyline
 70
0
 90
2
 10
733042.411233078
 20
4202360.72879896
 10
733086.826955584
 20
4202335.44496652
  0
LWPOLYLINE
  5
20126
100
AcDbEntity
  8
0
100
AcDbPolyline
 70
0
 90
2
 10
733115.450547195
 20
4202386.97384947
 10
733086.826955584
 20
4202335.44496652
  0
LWPOLYLINE
  5
20127
100
AcDbEntity
  8
0
100
AcDbPolyline
 70
0
 90
2
 10
733158.710162388
 20
4202362.20059953
 10
733129.82600538
 20
4202310.96779737
  0
LWPOLYLINE
  5
20128
100
AcDbEntity
  8
0
100
AcDbPolyline
 70
0
 90
2
 10
732997.882503399
 20
4202386.07749862
 10
733042.411233078
 20
4202360.72879896
  0
LWPOLYLINE
  5
20129
100
AcDbEntity
  8
0
100
AcDbPolyline
 70
0
 90
2
 10
733070.894042469
 20
4202412.49008496
 10
733042.411233078
 20
4202360.72879896
  0
LWPOLYLINE
  5
2012A
100
AcDbEntity
  8
0
100
AcDbPolyline
 70
0
 90
2
 10
733026.79691443
 20
4202437.74372544
 10
732997.882503399
 20
4202386.07749862
  0
LWPOLYLINE
  5
2012B
100
AcDbEntity
  8
0
100
AcDbPolyline
 70
0
 90
2
 10
732861.145373536
 20
4202463.91968029
 10
732905.913832714
 20
4202438.43339716
  0
LWPOLYLINE
  5
2012C
100
AcDbEntity
  8
0
100
AcDbPolyline
 70
0
 90
2
 10
732934.875910933
 20
4202490.38641538
 10
732905.913832714
 20
4202438.43339716
  0
LWPOLYLINE
  5
2012D
100
AcDbEntity
  8
0
100
AcDbPolyline
 70
0
 90
2
 10
732861.145373536
 20
4202463.91968029
 10
732890.148344175
 20
4202516.0023113
  0
LWPOLYLINE
  5
2012E
100
AcDbEntity
  8
0
100
AcDbPolyline
 70
0
 90
2
 10
732814.150147765
 20
4202490.67423098
 10
732861.145373536
 20
4202463.91968029
  0
LWPOLYLINE
  5
2012F
100
AcDbEntity
  8
0
100
AcDbPolyline
 70
0
 90
2
 10
732771.358786679
 20
4202515.03576235
 10
732814.150147765
 20
4202490.67423098
  0
LWPOLYLINE
  5
20130
100
AcDbEntity
  8
0
100
AcDbPolyline
 70
0
 90
2
 10
732843.304597249
 20
4202542.83052319
 10
732814.150147765
 20
4202490.67423098
  0
LWPOLYLINE
  5
20131
100
AcDbEntity
  8
0
100
AcDbPolyline
 70
0
 90
2
 10
732800.608150709
 20
4202567.28389143
 10
732771.358786679
 20
4202515.03576235
  0
LWPOLYLINE
  5
20132
100
AcDbEntity
  8
0
100
AcDbPolyline
 70
0
 90
2
 10
732671.743797291
 20
4202571.74898938
 10
732701.163853997
 20
4202624.00181257
  0
LWPOLYLINE
  5
20133
100
AcDbEntity
  8
0
100
AcDbPolyline
 70
0
 90
2
 10
732671.743797291
 20
4202571.74898938
 10
732641.116242932
 20
4202518.49033736
  0
LWPOLYLINE
  5
20134
100
AcDbEntity
  8
0
100
AcDbPolyline
 70
0
 90
2
 10
732627.033798042
 20
4202597.20412109
 10
732671.743797291
 20
4202571.74898938
  0
LWPOLYLINE
  5
20135
100
AcDbEntity
  8
0
100
AcDbPolyline
 70
0
 90
2
 10
732627.033798042
 20
4202597.20412109
 10
732596.47647525
 20
4202543.63831512
  0
LWPOLYLINE
  5
20136
100
AcDbEntity
  8
0
100
AcDbPolyline
 70
0
 90
2
 10
732581.494023361
 20
4202623.1320404
 10
732627.033798042
 20
4202597.20412109
  0
LWPOLYLINE
  5
20137
100
AcDbEntity
  8
0
100
AcDbPolyline
 70
0
 90
2
 10
732656.394757206
 20
4202649.4281016
 10
732627.033798042
 20
4202597.20412109
  0
LWPOLYLINE
  5
20138
100
AcDbEntity
  8
0
100
AcDbPolyline
 70
0
 90
2
 10
732581.494023361
 20
4202623.1320404
 10
732551.249409633
 20
4202569.59118642
  0
LWPOLYLINE
  5
20139
100
AcDbEntity
  8
0
100
AcDbPolyline
 70
0
 90
2
 10
732538.800294719
 20
4202647.44003823
 10
732581.494023361
 20
4202623.1320404
  0
LWPOLYLINE
  5
2013A
100
AcDbEntity
  8
0
100
AcDbPolyline
 70
0
 90
2
 10
732610.952558712
 20
4202675.23699802
 10
732581.494023361
 20
4202623.1320404
  0
LWPOLYLINE
  5
2013B
100
AcDbEntity
  8
0
100
AcDbPolyline
 70
0
 90
2
 10
732508.384293546
 20
4202593.80218471
 10
732538.800294719
 20
4202647.44003823
  0
LWPOLYLINE
  5
2013C
100
AcDbEntity
  8
0
100
AcDbPolyline
 70
0
 90
2
 10
732568.299599668
 20
4202699.46213217
 10
732538.800294719
 20
4202647.44003823
  0
LWPOLYLINE
  5
2013D
100
AcDbEntity
  8
0
100
AcDbPolyline
 70
0
 90
2
 10
732385.456068852
 20
4202734.75065242
 10
732441.355932885
 20
4202702.92200395
  0
LWPOLYLINE
  5
2013E
100
AcDbEntity
  8
0
100
AcDbPolyline
 70
0
 90
2
 10
732470.731495998
 20
4202754.87822891
 10
732441.355932885
 20
4202702.92200395
  0
LWPOLYLINE
  5
2013F
100
AcDbEntity
  8
0
100
AcDbPolyline
 70
0
 90
2
 10
732411.18749824
 20
4202649.56424599
 10
732441.355932885
 20
4202702.92200395
  0
LWPOLYLINE
  5
20140
100
AcDbEntity
  8
0
100
AcDbPolyline
 70
0
 90
2
 10
732385.456068852
 20
4202734.75065242
 10
732356.915316185
 20
4202680.18158384
  0
LWPOLYLINE
  5
20141
100
AcDbEntity
  8
0
100
AcDbPolyline
 70
0
 90
2
 10
732416.671113766
 20
4202785.58390615
 10
732385.456068852
 20
4202734.75065242
  0
LWPOLYLINE
  5
20142
100
AcDbEntity
  8
0
100
AcDbPolyline
 70
0
 90
2
 10
733225.666059078
 20
4202374.33278261
 10
733203.779008143
 20
4202336.391737
  0
LWPOLYLINE
  5
20143
100
AcDbEntity
  8
0
100
AcDbPolyline
 70
0
 90
2
 10
733158.710162388
 20
4202362.20059953
 10
733203.779008143
 20
4202336.391737
  0
LWPOLYLINE
  5
20144
100
AcDbEntity
  8
0
100
AcDbPolyline
 70
0
 90
2
 10
733252.408387218
 20
4202420.69114873
 10
733225.666059078
 20
4202374.33278261
  0
LWPOLYLINE
  5
20145
100
AcDbEntity
  8
0
100
AcDbPolyline
 70
0
 90
2
 10
733180.163293501
 20
4202400.25343968
 10
733225.666059078
 20
4202374.33278261
  0
LWPOLYLINE
  5
20146
100
AcDbEntity
  8
0
100
AcDbPolyline
 70
0
 90
3
 10
733230.54521043
 20
4202489.62061908
 10
733276.899710495
 20
4202463.14775372
 10
733252.408387218
 20
4202420.69114873
  0
LWPOLYLINE
  5
20147
100
AcDbEntity
  8
0
100
AcDbPolyline
 70
0
 90
2
 10
733206.419043447
 20
4202446.82536343
 10
733252.408387218
 20
4202420.69114873
  0
LWPOLYLINE
  5
20148
100
AcDbEntity
  8
0
100
AcDbPolyline
 70
0
 90
2
 10
733230.54521043
 20
4202489.62061908
 10
733206.419043447
 20
4202446.82536343
  0
LWPOLYLINE
  5
20149
100
AcDbEntity
  8
0
100
AcDbPolyline
 70
0
 90
3
 10
733162.294553106
 20
4202578.59630072
 10
733252.793048685
 20
4202528.43997491
 10
733230.54521043
 20
4202489.62061908
  0
LWPOLYLINE
  5
2014A
100
AcDbEntity
  8
0
100
AcDbPolyline
 70
0
 90
2
 10
733186.389055984
 20
4202514.68246521
 10
733230.54521043
 20
4202489.62061908
  0
LWPOLYLINE
  5
2014B
100
AcDbEntity
  8
0
100
AcDbPolyline
 70
0
 90
2
 10
733119.037552432
 20
4202602.57082422
 10
733162.294553106
 20
4202578.59630072
  0
LWPOLYLINE
  5
2014C
100
AcDbEntity
  8
0
100
AcDbPolyline
 70
0
 90
2
 10
733119.037552432
 20
4202602.57082422
 10
733097.946242505
 20
4202564.88151068
  0
LWPOLYLINE
  5
2014D
100
AcDbEntity
  8
0
100
AcDbPolyline
 70
0
 90
2
 10
733143.40047337
 20
4202645.60116351
 10
733119.037552432
 20
4202602.57082422
  0
LWPOLYLINE
  5
2014E
100
AcDbEntity
  8
0
100
AcDbPolyline
 70
0
 90
2
 10
733162.294553106
 20
4202578.59630072
 10
733141.23001673
 20
4202540.31395927
  0
LWPOLYLINE
  5
2014F
100
AcDbEntity
  8
0
100
AcDbPolyline
 70
0
 90
3
 10
733162.294553106
 20
4202578.59630072
 10
733207.862411024
 20
4202553.34133779
 10
733186.389055984
 20
4202514.68246521
  0
LWPOLYLINE
  5
20150
100
AcDbEntity
  8
0
100
AcDbPolyline
 70
0
 90
2
 10
733213.275172268
 20
4202769.01818802
 10
733190.436359102
 20
4202728.67837438
  0
LWPOLYLINE
  5
20151
100
AcDbEntity
  8
0
100
AcDbPolyline
 70
0
 90
2
 10
733190.436359102
 20
4202728.67837438
 10
733167.283092645
 20
4202687.78355065
  0
LWPOLYLINE
  5
20152
100
AcDbEntity
  8
0
100
AcDbPolyline
 70
0
 90
2
 10
733167.283092645
 20
4202687.78355065
 10
733143.40047337
 20
4202645.60116351
  0
LWPOLYLINE
  5
20153
100
AcDbEntity
  8
0
100
AcDbPolyline
 70
0
 90
2
 10
733206.419043447
 20
4202446.82536343
 10
733180.163293501
 20
4202400.25343968
  0
LWPOLYLINE
  5
20154
100
AcDbEntity
  8
0
100
AcDbPolyline
 70
0
 90
2
 10
733162.545740562
 20
4202471.7574591
 10
733206.419043447
 20
4202446.82536343
  0
LWPOLYLINE
  5
20155
100
AcDbEntity
  8
0
100
AcDbPolyline
 70
0
 90
2
 10
733162.545740562
 20
4202471.7574591
 10
733136.609089783
 20
4202425.06449175
  0
LWPOLYLINE
  5
20156
100
AcDbEntity
  8
0
100
AcDbPolyline
 70
0
 90
2
 10
733117.570458332
 20
4202497.31624691
 10
733162.545740562
 20
4202471.7574591
  0
LWPOLYLINE
  5
20157
100
AcDbEntity
  8
0
100
AcDbPolyline
 70
0
 90
2
 10
733186.389055984
 20
4202514.68246521
 10
733162.545740562
 20
4202471.7574591
  0
LWPOLYLINE
  5
20158
100
AcDbEntity
  8
0
100
AcDbPolyline
 70
0
 90
2
 10
733117.570458332
 20
4202497.31624691
 10
733091.845290642
 20
4202450.56503584
  0
LWPOLYLINE
  5
20159
100
AcDbEntity
  8
0
100
AcDbPolyline
 70
0
 90
2
 10
733073.994020069
 20
4202522.08041068
 10
733117.570458332
 20
4202497.31624691
  0
LWPOLYLINE
  5
2015A
100
AcDbEntity
  8
0
100
AcDbPolyline
 70
0
 90
2
 10
733141.23001673
 20
4202540.31395927
 10
733117.570458332
 20
4202497.31624691
  0
LWPOLYLINE
  5
2015B
100
AcDbEntity
  8
0
100
AcDbPolyline
 70
0
 90
2
 10
733097.946242505
 20
4202564.88151068
 10
733073.994020069
 20
4202522.08041068
  0
LWPOLYLINE
  5
2015C
100
AcDbEntity
  8
0
100
AcDbPolyline
 70
0
 90
2
 10
733047.962415517
 20
4202475.56419696
 10
733073.994020069
 20
4202522.08041068
  0
LWPOLYLINE
  5
2015D
100
AcDbEntity
  8
0
100
AcDbPolyline
 70
0
 90
2
 10
732981.763090874
 20
4202574.49578797
 10
732955.862235516
 20
4202528.03281546
  0
LWPOLYLINE
  5
2015E
100
AcDbEntity
  8
0
100
AcDbPolyline
 70
0
 90
2
 10
732936.914149566
 20
4202599.98433263
 10
732981.763090874
 20
4202574.49578797
  0
LWPOLYLINE
  5
2015F
100
AcDbEntity
  8
0
100
AcDbPolyline
 70
0
 90
2
 10
733005.617238034
 20
4202617.28780768
 10
732981.763090874
 20
4202574.49578797
  0
LWPOLYLINE
  5
20160
100
AcDbEntity
  8
0
100
AcDbPolyline
 70
0
 90
2
 10
732936.914149566
 20
4202599.98433263
 10
732911.060708347
 20
4202553.55640528
  0
LWPOLYLINE
  5
20161
100
AcDbEntity
  8
0
100
AcDbPolyline
 70
0
 90
2
 10
732890.118107202
 20
4202626.57992337
 10
732936.914149566
 20
4202599.98433263
  0
LWPOLYLINE
  5
20162
100
AcDbEntity
  8
0
100
AcDbPolyline
 70
0
 90
2
 10
732960.735366326
 20
4202642.76361204
 10
732936.914149566
 20
4202599.98433263
  0
LWPOLYLINE
  5
20163
100
AcDbEntity
  8
0
100
AcDbPolyline
 70
0
 90
2
 10
732847.39487504
 20
4202650.86110834
 10
732890.118107202
 20
4202626.57992337
  0
LWPOLYLINE
  5
20164
100
AcDbEntity
  8
0
100
AcDbPolyline
 70
0
 90
2
 10
732913.994239495
 20
4202669.29508823
 10
732890.118107202
 20
4202626.57992337
  0
LWPOLYLINE
  5
20165
100
AcDbEntity
  8
0
100
AcDbPolyline
 70
0
 90
2
 10
732864.217577762
 20
4202580.2435583
 10
732890.118107202
 20
4202626.57992337
  0
LWPOLYLINE
  5
20166
100
AcDbEntity
  8
0
100
AcDbPolyline
 70
0
 90
2
 10
732847.39487504
 20
4202650.86110834
 10
732821.490170951
 20
4202604.58630246
  0
LWPOLYLINE
  5
20167
100
AcDbEntity
  8
0
100
AcDbPolyline
 70
0
 90
2
 10
732871.285230686
 20
4202693.53833605
 10
732847.39487504
 20
4202650.86110834
  0
LWPOLYLINE
  5
20168
100
AcDbEntity
  8
0
100
AcDbPolyline
 70
0
 90
2
 10
732748.069726916
 20
4202707.31279696
 10
732722.127087486
 20
4202661.23495413
  0
LWPOLYLINE
  5
20169
100
AcDbEntity
  8
0
100
AcDbPolyline
 70
0
 90
2
 10
732703.25680348
 20
4202732.78288084
 10
732748.069726916
 20
4202707.31279696
  0
LWPOLYLINE
  5
2016A
100
AcDbEntity
  8
0
100
AcDbPolyline
 70
0
 90
2
 10
732772.034369029
 20
4202749.87797993
 10
732748.069726916
 20
4202707.31279696
  0
LWPOLYLINE
  5
2016B
100
AcDbEntity
  8
0
100
AcDbPolyline
 70
0
 90
2
 10
732658.021909975
 20
4202758.49320897
 10
732703.25680348
 20
4202732.78288084
  0
LWPOLYLINE
  5
2016C
100
AcDbEntity
  8
0
100
AcDbPolyline
 70
0
 90
2
 10
732727.181626451
 20
4202775.33934878
 10
732703.25680348
 20
4202732.78288084
  0
LWPOLYLINE
  5
2016D
100
AcDbEntity
  8
0
100
AcDbPolyline
 70
0
 90
2
 10
732677.383920037
 20
4202686.76182033
 10
732703.25680348
 20
4202732.78288084
  0
LWPOLYLINE
  5
2016E
100
AcDbEntity
  8
0
100
AcDbPolyline
 70
0
 90
2
 10
732658.021909975
 20
4202758.49320897
 10
732682.034861033
 20
4202800.96796121
  0
LWPOLYLINE
  5
2016F
100
AcDbEntity
  8
0
100
AcDbPolyline
 70
0
 90
2
 10
732658.021909975
 20
4202758.49320897
 10
732632.080798616
 20
4202712.60842198
  0
LWPOLYLINE
  5
20170
100
AcDbEntity
  8
0
100
AcDbPolyline
 70
0
 90
2
 10
732615.482841451
 20
4202782.67178067
 10
732658.021909975
 20
4202758.49320897
  0
LWPOLYLINE
  5
20171
100
AcDbEntity
  8
0
100
AcDbPolyline
 70
0
 90
2
 10
732615.482841451
 20
4202782.67178067
 10
732589.522587981
 20
4202736.88944479
  0
LWPOLYLINE
  5
20172
100
AcDbEntity
  8
0
100
AcDbPolyline
 70
0
 90
2
 10
732639.537103194
 20
4202825.09314938
 10
732615.482841451
 20
4202782.67178067
  0
LWPOLYLINE
  5
20173
100
AcDbEntity
  8
0
100
AcDbPolyline
 70
0
 90
2
 10
732517.82774328
 20
4202838.17865617
 10
732541.799251078
 20
4202880.57848339
  0
LWPOLYLINE
  5
20174
100
AcDbEntity
  8
0
100
AcDbPolyline
 70
0
 90
2
 10
732517.82774328
 20
4202838.17865617
 10
732492.014887807
 20
4202792.5225729
  0
LWPOLYLINE
  5
20175
100
AcDbEntity
  8
0
100
AcDbPolyline
 70
0
 90
2
 10
732472.619721918
 20
4202863.90912498
 10
732517.82774328
 20
4202838.17865617
  0
LWPOLYLINE
  5
20176
100
AcDbEntity
  8
0
100
AcDbPolyline
 70
0
 90
2
 10
732463.888600385
 20
4202868.87233886
 10
732472.619721918
 20
4202863.90912498
  0
LWPOLYLINE
  5
20177
100
AcDbEntity
  8
0
100
AcDbPolyline
 70
0
 90
2
 10
732463.888600385
 20
4202868.87233886
 10
732438.057913706
 20
4202823.30856357
  0
LWPOLYLINE
  5
20178
100
AcDbEntity
  8
0
100
AcDbPolyline
 70
0
 90
2
 10
732426.630020655
 20
4202890.0525665
 10
732463.888600385
 20
4202868.87233886
  0
LWPOLYLINE
  5
20179
100
AcDbEntity
  8
0
100
AcDbPolyline
 70
0
 90
2
 10
732496.484183149
 20
4202906.30432453
 10
732472.619721918
 20
4202863.90912498
  0
LWPOLYLINE
  5
2017A
100
AcDbEntity
  8
0
100
AcDbPolyline
 70
0
 90
2
 10
732382.199781692
 20
4202915.30988364
 10
732426.630020655
 20
4202890.0525665
  0
LWPOLYLINE
  5
2017B
100
AcDbEntity
  8
0
100
AcDbPolyline
 70
0
 90
2
 10
732450.345236258
 20
4202932.49825053
 10
732426.630020655
 20
4202890.0525665
  0
LWPOLYLINE
  5
2017C
100
AcDbEntity
  8
0
100
AcDbPolyline
 70
0
 90
2
 10
732334.51313677
 20
4202942.41889224
 10
732382.199781692
 20
4202915.30988364
  0
LWPOLYLINE
  5
2017D
100
AcDbEntity
  8
0
100
AcDbPolyline
 70
0
 90
2
 10
732405.886403371
 20
4202957.73873426
 10
732382.199781692
 20
4202915.30988364
  0
LWPOLYLINE
  5
2017E
100
AcDbEntity
  8
0
100
AcDbPolyline
 70
0
 90
2
 10
732283.751305581
 20
4202971.08978864
 10
732334.51313677
 20
4202942.41889224
  0
LWPOLYLINE
  5
2017F
100
AcDbEntity
  8
0
100
AcDbPolyline
 70
0
 90
2
 10
732358.002013397
 20
4202984.92450356
 10
732334.51313677
 20
4202942.41889224
  0
LWPOLYLINE
  5
20180
100
AcDbEntity
  8
0
100
AcDbPolyline
 70
0
 90
2
 10
732119.221820835
 20
4203064.7648221
 10
732283.751305581
 20
4202971.08978864
  0
LWPOLYLINE
  5
20181
100
AcDbEntity
  8
0
100
AcDbPolyline
 70
0
 90
2
 10
732307.893913819
 20
4203013.37322825
 10
732283.751305581
 20
4202971.08978864
  0
LWPOLYLINE
  5
20182
100
AcDbEntity
  8
0
100
AcDbPolyline
 70
0
 90
2
 10
732438.057913706
 20
4202823.30856357
 10
732492.014887807
 20
4202792.5225729
  0
LWPOLYLINE
  5
20183
100
AcDbEntity
  8
0
100
AcDbPolyline
 70
0
 90
2
 10
732416.671113766
 20
4202785.58390615
 10
732438.057913706
 20
4202823.30856357
  0
LWPOLYLINE
  5
20184
100
AcDbEntity
  8
0
100
AcDbPolyline
 70
0
 90
2
 10
732416.671113766
 20
4202785.58390615
 10
732470.731495998
 20
4202754.87822891
  0
LWPOLYLINE
  5
20185
100
AcDbEntity
  8
0
100
AcDbPolyline
 70
0
 90
2
 10
732356.915316185
 20
4202680.18158384
 10
732333.816466174
 20
4202639.43892721
  0
LWPOLYLINE
  5
20186
100
AcDbEntity
  8
0
100
AcDbPolyline
 70
0
 90
2
 10
732356.915316185
 20
4202680.18158384
 10
732411.18749824
 20
4202649.56424599
  0
LWPOLYLINE
  5
20187
100
AcDbEntity
  8
0
100
AcDbPolyline
 70
0
 90
2
 10
732333.816466174
 20
4202639.43892721
 10
732388.007698055
 20
4202608.56766466
  0
LWPOLYLINE
  5
20188
100
AcDbEntity
  8
0
100
AcDbPolyline
 70
0
 90
2
 10
732310.955776179
 20
4202599.11662881
 10
732333.816466174
 20
4202639.43892721
  0
LWPOLYLINE
  5
20189
100
AcDbEntity
  8
0
100
AcDbPolyline
 70
0
 90
2
 10
732310.955776179
 20
4202599.11662881
 10
732289.034709667
 20
4202560.4523639
  0
LWPOLYLINE
  5
2018A
100
AcDbEntity
  8
0
100
AcDbPolyline
 70
0
 90
2
 10
732310.955776179
 20
4202599.11662881
 10
732365.232354228
 20
4202568.28694616
  0
LWPOLYLINE
  5
2018B
100
AcDbEntity
  8
0
100
AcDbPolyline
 70
0
 90
2
 10
732289.034709667
 20
4202560.4523639
 10
732265.58381617
 20
4202519.09019419
  0
LWPOLYLINE
  5
2018C
100
AcDbEntity
  8
0
100
AcDbPolyline
 70
0
 90
2
 10
732289.034709667
 20
4202560.4523639
 10
732343.39417082
 20
4202529.66408627
  0
LWPOLYLINE
  5
2018D
100
AcDbEntity
  8
0
100
AcDbPolyline
 70
0
 90
2
 10
732265.58381617
 20
4202519.09019419
 10
732218.508191632
 20
4202435.81938882
  0
LWPOLYLINE
  5
2018E
100
AcDbEntity
  8
0
100
AcDbPolyline
 70
0
 90
2
 10
732265.58381617
 20
4202519.09019419
 10
732319.890511903
 20
4202488.09621694
  0
LWPOLYLINE
  5
2018F
100
AcDbEntity
  8
0
100
AcDbPolyline
 70
0
 90
2
 10
732193.488103384
 20
4202391.932559
 10
732171.323080676
 20
4202352.84049816
  0
LWPOLYLINE
  5
20190
100
AcDbEntity
  8
0
100
AcDbPolyline
 70
0
 90
2
 10
732193.488103384
 20
4202391.932559
 10
732247.965902689
 20
4202360.89572056
  0
LWPOLYLINE
  5
20191
100
AcDbEntity
  8
0
100
AcDbPolyline
 70
0
 90
2
 10
732218.508191632
 20
4202435.81938882
 10
732193.488103384
 20
4202391.932559
  0
LWPOLYLINE
  5
20192
100
AcDbEntity
  8
0
100
AcDbPolyline
 70
0
 90
2
 10
732243.072227108
 20
4202479.38515782
 10
732193.488103384
 20
4202391.932559
  0
LWPOLYLINE
  5
20193
100
AcDbEntity
  8
0
100
AcDbPolyline
 70
0
 90
2
 10
732171.323080676
 20
4202352.84049816
 10
732225.731432437
 20
4202321.57472731
  0
LWPOLYLINE
  5
20194
100
AcDbEntity
  8
0
100
AcDbPolyline
 70
0
 90
2
 10
732148.131533114
 20
4202311.93840016
 10
732171.323080676
 20
4202352.84049816
  0
LWPOLYLINE
  5
20195
100
AcDbEntity
  8
0
100
AcDbPolyline
 70
0
 90
2
 10
732218.508191632
 20
4202435.81938882
 10
732272.719096569
 20
4202404.67196988
  0
LWPOLYLINE
  5
20196
100
AcDbEntity
  8
0
100
AcDbPolyline
 70
0
 90
2
 10
732243.072227108
 20
4202479.38515782
 10
732297.491277614
 20
4202448.4821769
  0
LWPOLYLINE
  5
20197
100
AcDbEntity
  8
0
100
AcDbPolyline
 70
0
 90
2
 10
732148.131533114
 20
4202311.93840016
 10
732126.633056355
 20
4202274.02274741
  0
LWPOLYLINE
  5
20198
100
AcDbEntity
  8
0
100
AcDbPolyline
 70
0
 90
2
 10
732148.131533114
 20
4202311.93840016
 10
732202.837790591
 20
4202281.08820805
  0
LWPOLYLINE
  5
20199
100
AcDbEntity
  8
0
100
AcDbPolyline
 70
0
 90
2
 10
732126.633056355
 20
4202274.02274741
 10
732102.207371443
 20
4202230.94495441
  0
LWPOLYLINE
  5
2019A
100
AcDbEntity
  8
0
100
AcDbPolyline
 70
0
 90
2
 10
732126.633056355
 20
4202274.02274741
 10
732181.254701556
 20
4202242.91987268
  0
LWPOLYLINE
  5
2019B
100
AcDbEntity
  8
0
100
AcDbPolyline
 70
0
 90
2
 10
732102.207371443
 20
4202230.94495441
 10
732076.761021056
 20
4202186.06787048
  0
LWPOLYLINE
  5
2019C
100
AcDbEntity
  8
0
100
AcDbPolyline
 70
0
 90
2
 10
732102.207371443
 20
4202230.94495441
 10
732156.964253144
 20
4202199.96436327
  0
LWPOLYLINE
  5
2019D
100
AcDbEntity
  8
0
100
AcDbPolyline
 70
0
 90
2
 10
732076.761021056
 20
4202186.06787048
 10
732051.519294505
 20
4202141.55211303
  0
LWPOLYLINE
  5
2019E
100
AcDbEntity
  8
0
100
AcDbPolyline
 70
0
 90
2
 10
732076.761021056
 20
4202186.06787048
 10
732131.62664901
 20
4202155.15760033
  0
LWPOLYLINE
  5
2019F
100
AcDbEntity
  8
0
100
AcDbPolyline
 70
0
 90
2
 10
732051.519294505
 20
4202141.55211303
 10
732060.669918822
 20
4202136.35619271
  0
LWPOLYLINE
  5
201A0
100
AcDbEntity
  8
0
100
AcDbPolyline
 70
0
 90
2
 10
732015.294025813
 20
4202162.12177864
 10
732051.519294505
 20
4202141.55211303
  0
LWPOLYLINE
  5
201A1
100
AcDbEntity
  8
0
100
AcDbPolyline
 70
0
 90
2
 10
732015.294025813
 20
4202162.12177864
 10
731991.978951767
 20
4202120.8184389
  0
LWPOLYLINE
  5
201A2
100
AcDbEntity
  8
0
100
AcDbPolyline
 70
0
 90
2
 10
732060.669918822
 20
4202136.35619271
 10
732106.339008782
 20
4202110.43976839
  0
LWPOLYLINE
  5
201A3
100
AcDbEntity
  8
0
100
AcDbPolyline
 70
0
 90
2
 10
732060.669918822
 20
4202136.35619271
 10
732037.367553863
 20
4202095.07451104
  0
LWPOLYLINE
  5
201A4
100
AcDbEntity
  8
0
100
AcDbPolyline
 70
0
 90
2
 10
732106.339008782
 20
4202110.43976839
 10
732083.01036186
 20
4202069.1867464
  0
LWPOLYLINE
  5
201A5
100
AcDbEntity
  8
0
100
AcDbPolyline
 70
0
 90
2
 10
732131.62664901
 20
4202155.15760033
 10
732106.339008782
 20
4202110.43976839
  0
LWPOLYLINE
  5
201A6
100
AcDbEntity
  8
0
100
AcDbPolyline
 70
0
 90
2
 10
732203.390266511
 20
4202055.35010871
 10
732246.810308542
 20
4202030.70398032
  0
LWPOLYLINE
  5
201A7
100
AcDbEntity
  8
0
100
AcDbPolyline
 70
0
 90
2
 10
732203.390266511
 20
4202055.35010871
 10
732180.050577208
 20
4202014.14867944
  0
LWPOLYLINE
  5
201A8
100
AcDbEntity
  8
0
100
AcDbPolyline
 70
0
 90
2
 10
732228.888964299
 20
4202100.36347542
 10
732203.390266511
 20
4202055.35010871
  0
LWPOLYLINE
  5
201A9
100
AcDbEntity
  8
0
100
AcDbPolyline
 70
0
 90
2
 10
732246.810308542
 20
4202030.70398032
 10
732292.2559732
 20
4202004.90856393
  0
LWPOLYLINE
  5
201AA
100
AcDbEntity
  8
0
100
AcDbPolyline
 70
0
 90
2
 10
732246.810308542
 20
4202030.70398032
 10
732223.525766321
 20
4201989.49165436
  0
LWPOLYLINE
  5
201AB
100
AcDbEntity
  8
0
100
AcDbPolyline
 70
0
 90
2
 10
732272.337673439
 20
4202075.88657567
 10
732246.810308542
 20
4202030.70398032
  0
LWPOLYLINE
  5
201AC
100
AcDbEntity
  8
0
100
AcDbPolyline
 70
0
 90
2
 10
732292.2559732
 20
4202004.90856393
 10
732337.510693335
 20
4201979.22180458
  0
LWPOLYLINE
  5
201AD
100
AcDbEntity
  8
0
100
AcDbPolyline
 70
0
 90
2
 10
732292.2559732
 20
4202004.90856393
 10
732269.01359684
 20
4201963.69351962
  0
LWPOLYLINE
  5
201AE
100
AcDbEntity
  8
0
100
AcDbPolyline
 70
0
 90
2
 10
732317.830075815
 20
4202050.25879775
 10
732292.2559732
 20
4202004.90856393
  0
LWPOLYLINE
  5
201AF
100
AcDbEntity
  8
0
100
AcDbPolyline
 70
0
 90
2
 10
732337.510693335
 20
4201979.22180458
 10
732314.336055968
 20
4201937.98944124
  0
LWPOLYLINE
  5
201B0
100
AcDbEntity
  8
0
100
AcDbPolyline
 70
0
 90
2
 10
732337.510693335
 20
4201979.22180458
 10
732363.102588088
 20
4202024.75529332
  0
LWPOLYLINE
  5
201B1
100
AcDbEntity
  8
0
100
AcDbPolyline
 70
0
 90
2
 10
732435.809930246
 20
4201923.42826633
 10
732481.780327266
 20
4201897.33661137
  0
LWPOLYLINE
  5
201B2
100
AcDbEntity
  8
0
100
AcDbPolyline
 70
0
 90
2
 10
732435.809930246
 20
4201923.42826633
 10
732412.789104311
 20
4201882.15465565
  0
LWPOLYLINE
  5
201B3
100
AcDbEntity
  8
0
100
AcDbPolyline
 70
0
 90
2
 10
732481.780327266
 20
4201897.33661137
 10
732528.459335001
 20
4201870.84337132
  0
LWPOLYLINE
  5
201B4
100
AcDbEntity
  8
0
100
AcDbPolyline
 70
0
 90
2
 10
732458.883650835
 20
4201856.01407411
 10
732481.780327266
 20
4201897.33661137
  0
LWPOLYLINE
  5
201B5
100
AcDbEntity
  8
0
100
AcDbPolyline
 70
0
 90
2
 10
732528.459335001
 20
4201870.84337132
 10
732573.49349275
 20
4201845.28382587
  0
LWPOLYLINE
  5
201B6
100
AcDbEntity
  8
0
100
AcDbPolyline
 70
0
 90
2
 10
732528.459335001
 20
4201870.84337132
 10
732505.548665806
 20
4201829.55050716
  0
LWPOLYLINE
  5
201B7
100
AcDbEntity
  8
0
100
AcDbPolyline
 70
0
 90
2
 10
732573.49349275
 20
4201845.28382587
 10
732617.033683991
 20
4201820.57271612
  0
LWPOLYLINE
  5
201B8
100
AcDbEntity
  8
0
100
AcDbPolyline
 70
0
 90
2
 10
732550.585116388
 20
4201804.01077287
 10
732573.49349275
 20
4201845.28382587
  0
LWPOLYLINE
  5
201B9
100
AcDbEntity
  8
0
100
AcDbPolyline
 70
0
 90
2
 10
732617.033683991
 20
4201820.57271612
 10
732594.067176273
 20
4201779.3529708
  0
LWPOLYLINE
  5
201BA
100
AcDbEntity
  8
0
100
AcDbPolyline
 70
0
 90
2
 10
732279.044641705
 20
4201642.37705445
 10
732325.501839462
 20
4201615.84377521
  0
LWPOLYLINE
  5
201BB
100
AcDbEntity
  8
0
100
AcDbPolyline
 70
0
 90
2
 10
732303.808366701
 20
4201686.77214581
 10
732279.044641705
 20
4201642.37705445
  0
LWPOLYLINE
  5
201BC
100
AcDbEntity
  8
0
100
AcDbPolyline
 70
0
 90
2
 10
732350.448196555
 20
4201660.32361623
 10
732325.501839462
 20
4201615.84377521
  0
LWPOLYLINE
  5
201BD
100
AcDbEntity
  8
0
100
AcDbPolyline
 70
0
 90
2
 10
732179.981451946
 20
4201698.95686204
 10
732204.718440178
 20
4201742.96546307
  0
LWPOLYLINE
  5
201BE
100
AcDbEntity
  8
0
100
AcDbPolyline
 70
0
 90
2
 10
732134.397241009
 20
4201724.9928539
 10
732179.981451946
 20
4201698.95686204
  0
LWPOLYLINE
  5
201BF
100
AcDbEntity
  8
0
100
AcDbPolyline
 70
0
 90
2
 10
732088.796251542
 20
4201751.038821
 10
732134.397241009
 20
4201724.9928539
  0
LWPOLYLINE
  5
201C0
100
AcDbEntity
  8
0
100
AcDbPolyline
 70
0
 90
2
 10
732159.117792872
 20
4201768.82590706
 10
732134.397241009
 20
4201724.9928539
  0
LWPOLYLINE
  5
201C1
100
AcDbEntity
  8
0
100
AcDbPolyline
 70
0
 90
2
 10
732045.128144616
 20
4201775.98114546
 10
732088.796251542
 20
4201751.038821
  0
LWPOLYLINE
  5
201C2
100
AcDbEntity
  8
0
100
AcDbPolyline
 70
0
 90
2
 10
732113.473005693
 20
4201794.71187778
 10
732088.796251542
 20
4201751.038821
  0
LWPOLYLINE
  5
201C3
100
AcDbEntity
  8
0
100
AcDbPolyline
 70
0
 90
2
 10
732069.778124309
 20
4201819.49236289
 10
732045.128144616
 20
4201775.98114546
  0
LWPOLYLINE
  5
201C4
100
AcDbEntity
  8
0
100
AcDbPolyline
 70
0
 90
2
 10
731903.036185186
 20
4201857.10750943
 10
731948.399516511
 20
4201831.15904127
  0
LWPOLYLINE
  5
201C5
100
AcDbEntity
  8
0
100
AcDbPolyline
 70
0
 90
2
 10
731972.880618631
 20
4201874.44679857
 10
731948.399516511
 20
4201831.15904127
  0
LWPOLYLINE
  5
201C6
100
AcDbEntity
  8
0
100
AcDbPolyline
 70
0
 90
3
 10
731881.998067926
 20
4201925.99161227
 10
731857.738696223
 20
4201883.01864371
 10
731903.036185186
 20
4201857.10750943
  0
LWPOLYLINE
  5
201C7
100
AcDbEntity
  8
0
100
AcDbPolyline
 70
0
 90
2
 10
731927.389217725
 20
4201900.24743583
 10
731903.036185186
 20
4201857.10750943
  0
LWPOLYLINE
  5
201C8
100
AcDbEntity
  8
0
100
AcDbPolyline
 70
0
 90
2
 10
731903.722580659
 20
4201964.47475007
 10
731881.998067926
 20
4201925.99161227
  0
LWPOLYLINE
  5
201C9
100
AcDbEntity
  8
0
100
AcDbPolyline
 70
0
 90
2
 10
731903.722580659
 20
4201964.47475007
 10
731949.122885841
 20
4201938.74784477
  0
LWPOLYLINE
  5
201CA
100
AcDbEntity
  8
0
100
AcDbPolyline
 70
0
 90
2
 10
731925.88159726
 20
4202003.7282107
 10
731903.722580659
 20
4201964.47475007
  0
LWPOLYLINE
  5
201CB
100
AcDbEntity
  8
0
100
AcDbPolyline
 70
0
 90
2
 10
731881.998067926
 20
4201925.99161227
 10
731927.389217725
 20
4201900.24743583
  0
LWPOLYLINE
  5
201CC
100
AcDbEntity
  8
0
100
AcDbPolyline
 70
0
 90
2
 10
731925.88159726
 20
4202003.7282107
 10
731971.278917209
 20
4201977.99679876
  0
LWPOLYLINE
  5
201CD
100
AcDbEntity
  8
0
100
AcDbPolyline
 70
0
 90
2
 10
731948.166785005
 20
4202043.20557538
 10
731925.88159726
 20
4202003.7282107
  0
LWPOLYLINE
  5
201CE
100
AcDbEntity
  8
0
100
AcDbPolyline
 70
0
 90
2
 10
731948.166785005
 20
4202043.20557538
 10
731993.576863414
 20
4202017.49764892
  0
LWPOLYLINE
  5
201CF
100
AcDbEntity
  8
0
100
AcDbPolyline
 70
0
 90
2
 10
731969.877983654
 20
4202081.66657382
 10
731948.166785005
 20
4202043.20557538
  0
LWPOLYLINE
  5
201D0
100
AcDbEntity
  8
0
100
AcDbPolyline
 70
0
 90
2
 10
731969.877983654
 20
4202081.66657382
 10
732015.286498042
 20
4202055.95684403
  0
LWPOLYLINE
  5
201D1
100
AcDbEntity
  8
0
100
AcDbPolyline
 70
0
 90
2
 10
731991.978951767
 20
4202120.8184389
 10
731969.877983654
 20
4202081.66657382
  0
LWPOLYLINE
  5
201D2
100
AcDbEntity
  8
0
100
AcDbPolyline
 70
0
 90
2
 10
731991.978951767
 20
4202120.8184389
 10
732037.367553863
 20
4202095.07451104
  0
LWPOLYLINE
  5
201D3
100
AcDbEntity
  8
0
100
AcDbPolyline
 70
0
 90
2
 10
732502.4440523
 20
4202272.6856605
 10
732478.27987616
 20
4202229.6888912
  0
LWPOLYLINE
  5
201D4
100
AcDbEntity
  8
0
100
AcDbPolyline
 70
0
 90
2
 10
732457.739133251
 20
4202298.36962061
 10
732502.4440523
 20
4202272.6856605
  0
LWPOLYLINE
  5
201D5
100
AcDbEntity
  8
0
100
AcDbPolyline
 70
0
 90
2
 10
732527.757168043
 20
4202317.72730671
 10
732502.4440523
 20
4202272.6856605
  0
LWPOLYLINE
  5
201D6
100
AcDbEntity
  8
0
100
AcDbPolyline
 70
0
 90
2
 10
732412.662501346
 20
4202324.26760823
 10
732457.739133251
 20
4202298.36962061
  0
LWPOLYLINE
  5
201D7
100
AcDbEntity
  8
0
100
AcDbPolyline
 70
0
 90
2
 10
732433.421132318
 20
4202255.24344857
 10
732457.739133251
 20
4202298.36962061
  0
LWPOLYLINE
  5
201D8
100
AcDbEntity
  8
0
100
AcDbPolyline
 70
0
 90
2
 10
732482.988436242
 20
4202343.14807001
 10
732457.739133251
 20
4202298.36962061
  0
LWPOLYLINE
  5
201D9
100
AcDbEntity
  8
0
100
AcDbPolyline
 70
0
 90
2
 10
732412.662501346
 20
4202324.26760823
 10
732388.216385077
 20
4202280.9956617
  0
LWPOLYLINE
  5
201DA
100
AcDbEntity
  8
0
100
AcDbPolyline
 70
0
 90
2
 10
732369.700209256
 20
4202348.95111472
 10
732412.662501346
 20
4202324.26760823
  0
LWPOLYLINE
  5
201DB
100
AcDbEntity
  8
0
100
AcDbPolyline
 70
0
 90
2
 10
732437.818648209
 20
4202368.7970214
 10
732412.662501346
 20
4202324.26760823
  0
LWPOLYLINE
  5
201DC
100
AcDbEntity
  8
0
100
AcDbPolyline
 70
0
 90
2
 10
732369.700209256
 20
4202348.95111472
 10
732345.116121974
 20
4202305.5492136
  0
LWPOLYLINE
  5
201DD
100
AcDbEntity
  8
0
100
AcDbPolyline
 70
0
 90
2
 10
732394.783076973
 20
4202393.23439668
 10
732369.700209256
 20
4202348.95111472
  0
LWPOLYLINE
  5
201DE
100
AcDbEntity
  8
0
100
AcDbPolyline
 70
0
 90
2
 10
732272.719096569
 20
4202404.67196988
 10
732247.965902689
 20
4202360.89572056
  0
LWPOLYLINE
  5
201DF
100
AcDbEntity
  8
0
100
AcDbPolyline
 70
0
 90
2
 10
732297.491277614
 20
4202448.4821769
 10
732272.719096569
 20
4202404.67196988
  0
LWPOLYLINE
  5
201E0
100
AcDbEntity
  8
0
100
AcDbPolyline
 70
0
 90
2
 10
732307.893913819
 20
4203013.37322825
 10
732329.656933501
 20
4203052.2439945
  0
LWPOLYLINE
  5
201E1
100
AcDbEntity
  8
0
100
AcDbPolyline
 70
0
 90
2
 10
732307.893913819
 20
4203013.37322825
 10
732358.002013397
 20
4202984.92450356
  0
LWPOLYLINE
  5
201E2
100
AcDbEntity
  8
0
100
AcDbPolyline
 70
0
 90
2
 10
732329.656933501
 20
4203052.2439945
 10
732379.507866745
 20
4203023.84253289
  0
LWPOLYLINE
  5
201E3
100
AcDbEntity
  8
0
100
AcDbPolyline
 70
0
 90
2
 10
732354.80206282
 20
4203096.11394499
 10
732329.656933501
 20
4203052.2439945
  0
LWPOLYLINE
  5
201E4
100
AcDbEntity
  8
0
100
AcDbPolyline
 70
0
 90
2
 10
732354.80206282
 20
4203096.11394499
 10
732403.932420502
 20
4203068.04304804
  0
LWPOLYLINE
  5
201E5
100
AcDbEntity
  8
0
100
AcDbPolyline
 70
0
 90
2
 10
732379.420290909
 20
4203139.06514549
 10
732354.80206282
 20
4203096.11394499
  0
LWPOLYLINE
  5
201E6
100
AcDbEntity
  8
0
100
AcDbPolyline
 70
0
 90
2
 10
732379.420290909
 20
4203139.06514549
 10
732427.84781852
 20
4203111.32275466
  0
LWPOLYLINE
  5
201E7
100
AcDbEntity
  8
0
100
AcDbPolyline
 70
0
 90
2
 10
732401.966166474
 20
4203178.40112252
 10
732379.420290909
 20
4203139.06514549
  0
LWPOLYLINE
  5
201E8
100
AcDbEntity
  8
0
100
AcDbPolyline
 70
0
 90
2
 10
732401.966166474
 20
4203178.40112252
 10
732425.040588246
 20
4203218.6599691
  0
LWPOLYLINE
  5
201E9
100
AcDbEntity
  8
0
100
AcDbPolyline
 70
0
 90
2
 10
732401.966166474
 20
4203178.40112252
 10
732449.827024775
 20
4203151.09904874
  0
LWPOLYLINE
  5
201EA
100
AcDbEntity
  8
0
100
AcDbPolyline
 70
0
 90
2
 10
732425.040588246
 20
4203218.6599691
 10
732472.269944747
 20
4203191.71495605
  0
LWPOLYLINE
  5
201EB
100
AcDbEntity
  8
0
100
AcDbPolyline
 70
0
 90
2
 10
732358.002013397
 20
4202984.92450356
 10
732405.886403371
 20
4202957.73873426
  0
LWPOLYLINE
  5
201EC
100
AcDbEntity
  8
0
100
AcDbPolyline
 70
0
 90
2
 10
732379.507866745
 20
4203023.84253289
 10
732358.002013397
 20
4202984.92450356
  0
LWPOLYLINE
  5
201ED
100
AcDbEntity
  8
0
100
AcDbPolyline
 70
0
 90
2
 10
732379.507866745
 20
4203023.84253289
 10
732427.51930996
 20
4202996.48968302
  0
LWPOLYLINE
  5
201EE
100
AcDbEntity
  8
0
100
AcDbPolyline
 70
0
 90
2
 10
732403.932420502
 20
4203068.04304804
 10
732379.507866745
 20
4203023.84253289
  0
LWPOLYLINE
  5
201EF
100
AcDbEntity
  8
0
100
AcDbPolyline
 70
0
 90
2
 10
732403.932420502
 20
4203068.04304804
 10
732427.84781852
 20
4203111.32275466
  0
LWPOLYLINE
  5
201F0
100
AcDbEntity
  8
0
100
AcDbPolyline
 70
0
 90
2
 10
732403.932420502
 20
4203068.04304804
 10
732452.100472484
 20
4203040.52242143
  0
LWPOLYLINE
  5
201F1
100
AcDbEntity
  8
0
100
AcDbPolyline
 70
0
 90
2
 10
732427.84781852
 20
4203111.32275466
 10
732476.170808209
 20
4203083.64063256
  0
LWPOLYLINE
  5
201F2
100
AcDbEntity
  8
0
100
AcDbPolyline
 70
0
 90
2
 10
732449.827024775
 20
4203151.09904874
 10
732427.84781852
 20
4203111.32275466
  0
LWPOLYLINE
  5
201F3
100
AcDbEntity
  8
0
100
AcDbPolyline
 70
0
 90
2
 10
732449.827024775
 20
4203151.09904874
 10
732498.370373506
 20
4203123.40811164
  0
LWPOLYLINE
  5
201F4
100
AcDbEntity
  8
0
100
AcDbPolyline
 70
0
 90
2
 10
732472.269944747
 20
4203191.71495605
 10
732449.827024775
 20
4203151.09904874
  0
LWPOLYLINE
  5
201F5
100
AcDbEntity
  8
0
100
AcDbPolyline
 70
0
 90
2
 10
732472.269944747
 20
4203191.71495605
 10
732520.986249909
 20
4203163.92200631
  0
LWPOLYLINE
  5
201F6
100
AcDbEntity
  8
0
100
AcDbPolyline
 70
0
 90
2
 10
732571.838902795
 20
4203255.02059483
 10
732616.398646219
 20
4203229.71930582
  0
LWPOLYLINE
  5
201F7
100
AcDbEntity
  8
0
100
AcDbPolyline
 70
0
 90
2
 10
732594.831300152
 20
4203295.99340585
 10
732571.838902795
 20
4203255.02059483
  0
LWPOLYLINE
  5
201F8
100
AcDbEntity
  8
0
100
AcDbPolyline
 70
0
 90
2
 10
732594.831300152
 20
4203295.99340585
 10
732639.178395313
 20
4203270.49505293
  0
LWPOLYLINE
  5
201F9
100
AcDbEntity
  8
0
100
AcDbPolyline
 70
0
 90
2
 10
732639.178395313
 20
4203270.49505293
 10
732686.243955843
 20
4203243.43417798
  0
LWPOLYLINE
  5
201FA
100
AcDbEntity
  8
0
100
AcDbPolyline
 70
0
 90
2
 10
732639.178395313
 20
4203270.49505293
 10
732616.398646219
 20
4203229.71930582
  0
LWPOLYLINE
  5
201FB
100
AcDbEntity
  8
0
100
AcDbPolyline
 70
0
 90
2
 10
732686.243955843
 20
4203243.43417798
 10
732663.478731417
 20
4203202.98735935
  0
LWPOLYLINE
  5
201FC
100
AcDbEntity
  8
0
100
AcDbPolyline
 70
0
 90
2
 10
732686.243955843
 20
4203243.43417798
 10
732732.219466115
 20
4203217.40603775
  0
LWPOLYLINE
  5
201FD
100
AcDbEntity
  8
0
100
AcDbPolyline
 70
0
 90
2
 10
732520.986249909
 20
4203163.92200631
 10
732565.463912136
 20
4203138.5476684
  0
LWPOLYLINE
  5
201FE
100
AcDbEntity
  8
0
100
AcDbPolyline
 70
0
 90
2
 10
732498.370373506
 20
4203123.40811164
 10
732520.986249909
 20
4203163.92200631
  0
LWPOLYLINE
  5
201FF
100
AcDbEntity
  8
0
100
AcDbPolyline
 70
0
 90
2
 10
732565.463912136
 20
4203138.5476684
 10
732612.201152581
 20
4203111.88463035
  0
LWPOLYLINE
  5
20200
100
AcDbEntity
  8
0
100
AcDbPolyline
 70
0
 90
2
 10
732565.463912136
 20
4203138.5476684
 10
732542.835380664
 20
4203098.04394476
  0
LWPOLYLINE
  5
20201
100
AcDbEntity
  8
0
100
AcDbPolyline
 70
0
 90
2
 10
732612.201152581
 20
4203111.88463035
 10
732657.845976782
 20
4203085.8453072
  0
LWPOLYLINE
  5
20202
100
AcDbEntity
  8
0
100
AcDbPolyline
 70
0
 90
2
 10
732612.201152581
 20
4203111.88463035
 10
732589.445614014
 20
4203071.45657233
  0
LWPOLYLINE
  5
20203
100
AcDbEntity
  8
0
100
AcDbPolyline
 70
0
 90
2
 10
732657.845976782
 20
4203085.8453072
 10
732635.016360237
 20
4203045.46254464
  0
LWPOLYLINE
  5
20204
100
AcDbEntity
  8
0
100
AcDbPolyline
 70
0
 90
2
 10
732755.725714526
 20
4203030.00840583
 10
732797.912177783
 20
4203005.94320424
  0
LWPOLYLINE
  5
20205
100
AcDbEntity
  8
0
100
AcDbPolyline
 70
0
 90
2
 10
732755.725714526
 20
4203030.00840583
 10
732732.848254848
 20
4202989.65964306
  0
LWPOLYLINE
  5
20206
100
AcDbEntity
  8
0
100
AcDbPolyline
 70
0
 90
2
 10
732797.912177783
 20
4203005.94320424
 10
732842.515897112
 20
4202980.49930508
  0
LWPOLYLINE
  5
20207
100
AcDbEntity
  8
0
100
AcDbPolyline
 70
0
 90
2
 10
732797.912177783
 20
4203005.94320424
 10
732775.087326035
 20
4202965.56726676
  0
LWPOLYLINE
  5
20208
100
AcDbEntity
  8
0
100
AcDbPolyline
 70
0
 90
2
 10
732842.515897112
 20
4202980.49930508
 10
732887.443295564
 20
4202954.87124653
  0
LWPOLYLINE
  5
20209
100
AcDbEntity
  8
0
100
AcDbPolyline
 70
0
 90
2
 10
732842.515897112
 20
4202980.49930508
 10
732819.788804704
 20
4202940.07070308
  0
LWPOLYLINE
  5
2020A
100
AcDbEntity
  8
0
100
AcDbPolyline
 70
0
 90
2
 10
732864.69236924
 20
4202914.45927035
 10
732887.443295564
 20
4202954.87124653
  0
LWPOLYLINE
  5
2020B
100
AcDbEntity
  8
0
100
AcDbPolyline
 70
0
 90
2
 10
732986.07758953
 20
4202898.60851339
 10
733028.607097711
 20
4202874.34946742
  0
LWPOLYLINE
  5
2020C
100
AcDbEntity
  8
0
100
AcDbPolyline
 70
0
 90
2
 10
732986.07758953
 20
4202898.60851339
 10
732963.42804977
 20
4202858.14537174
  0
LWPOLYLINE
  5
2020D
100
AcDbEntity
  8
0
100
AcDbPolyline
 70
0
 90
2
 10
733028.607097711
 20
4202874.34946742
 10
733074.964057318
 20
4202847.90771427
  0
LWPOLYLINE
  5
2020E
100
AcDbEntity
  8
0
100
AcDbPolyline
 70
0
 90
2
 10
733028.607097711
 20
4202874.34946742
 10
733005.984327703
 20
4202833.87396653
  0
LWPOLYLINE
  5
2020F
100
AcDbEntity
  8
0
100
AcDbPolyline
 70
0
 90
2
 10
733074.964057318
 20
4202847.90771427
 10
733119.886792538
 20
4202822.28435754
  0
LWPOLYLINE
  5
20210
100
AcDbEntity
  8
0
100
AcDbPolyline
 70
0
 90
2
 10
733052.407673009
 20
4202807.39742449
 10
733074.964057318
 20
4202847.90771427
  0
LWPOLYLINE
  5
20211
100
AcDbEntity
  8
0
100
AcDbPolyline
 70
0
 90
2
 10
733119.886792538
 20
4202822.28435754
 10
733097.313276725
 20
4202781.78699732
  0
LWPOLYLINE
  5
20212
100
AcDbEntity
  8
0
100
AcDbPolyline
 70
0
 90
2
 10
733097.313276725
 20
4202781.78699732
 10
733074.526463129
 20
4202740.90744814
  0
LWPOLYLINE
  5
20213
100
AcDbEntity
  8
0
100
AcDbPolyline
 70
0
 90
2
 10
733052.407673009
 20
4202807.39742449
 10
733097.313276725
 20
4202781.78699732
  0
LWPOLYLINE
  5
20214
100
AcDbEntity
  8
0
100
AcDbPolyline
 70
0
 90
2
 10
733052.407673009
 20
4202807.39742449
 10
733029.685273343
 20
4202766.58970725
  0
LWPOLYLINE
  5
20215
100
AcDbEntity
  8
0
100
AcDbPolyline
 70
0
 90
2
 10
733005.984327703
 20
4202833.87396653
 10
733052.407673009
 20
4202807.39742449
  0
LWPOLYLINE
  5
20216
100
AcDbEntity
  8
0
100
AcDbPolyline
 70
0
 90
2
 10
733005.984327703
 20
4202833.87396653
 10
732983.244060964
 20
4202793.18872263
  0
LWPOLYLINE
  5
20217
100
AcDbEntity
  8
0
100
AcDbPolyline
 70
0
 90
2
 10
732963.42804977
 20
4202858.14537174
 10
733005.984327703
 20
4202833.87396653
  0
LWPOLYLINE
  5
20218
100
AcDbEntity
  8
0
100
AcDbPolyline
 70
0
 90
2
 10
732963.42804977
 20
4202858.14537174
 10
732940.705698414
 20
4202817.55273093
  0
LWPOLYLINE
  5
20219
100
AcDbEntity
  8
0
100
AcDbPolyline
 70
0
 90
2
 10
732864.69236924
 20
4202914.45927035
 10
732841.972936186
 20
4202874.10369719
  0
LWPOLYLINE
  5
2021A
100
AcDbEntity
  8
0
100
AcDbPolyline
 70
0
 90
2
 10
732819.788804704
 20
4202940.07070308
 10
732864.69236924
 20
4202914.45927035
  0
LWPOLYLINE
  5
2021B
100
AcDbEntity
  8
0
100
AcDbPolyline
 70
0
 90
2
 10
732819.788804704
 20
4202940.07070308
 10
732797.140588172
 20
4202899.78293231
  0
LWPOLYLINE
  5
2021C
100
AcDbEntity
  8
0
100
AcDbPolyline
 70
0
 90
2
 10
732775.087326035
 20
4202965.56726676
 10
732819.788804704
 20
4202940.07070308
  0
LWPOLYLINE
  5
2021D
100
AcDbEntity
  8
0
100
AcDbPolyline
 70
0
 90
2
 10
732775.087326035
 20
4202965.56726676
 10
732752.389272558
 20
4202925.41615995
  0
LWPOLYLINE
  5
2021E
100
AcDbEntity
  8
0
100
AcDbPolyline
 70
0
 90
2
 10
732732.848254848
 20
4202989.65964306
 10
732775.087326035
 20
4202965.56726676
  0
LWPOLYLINE
  5
2021F
100
AcDbEntity
  8
0
100
AcDbPolyline
 70
0
 90
2
 10
732732.848254848
 20
4202989.65964306
 10
732710.142839922
 20
4202949.61485752
  0
LWPOLYLINE
  5
20220
100
AcDbEntity
  8
0
100
AcDbPolyline
 70
0
 90
2
 10
732635.016360237
 20
4203045.46254464
 10
732612.462274922
 20
4203005.56774287
  0
LWPOLYLINE
  5
20221
100
AcDbEntity
  8
0
100
AcDbPolyline
 70
0
 90
2
 10
732589.445614014
 20
4203071.45657233
 10
732635.016360237
 20
4203045.46254464
  0
LWPOLYLINE
  5
20222
100
AcDbEntity
  8
0
100
AcDbPolyline
 70
0
 90
2
 10
732589.445614014
 20
4203071.45657233
 10
732567.012772375
 20
4203031.60244892
  0
LWPOLYLINE
  5
20223
100
AcDbEntity
  8
0
100
AcDbPolyline
 70
0
 90
2
 10
732542.835380664
 20
4203098.04394476
 10
732589.445614014
 20
4203071.45657233
  0
LWPOLYLINE
  5
20224
100
AcDbEntity
  8
0
100
AcDbPolyline
 70
0
 90
2
 10
732542.835380664
 20
4203098.04394476
 10
732520.576633875
 20
4203058.20290317
  0
LWPOLYLINE
  5
20225
100
AcDbEntity
  8
0
100
AcDbPolyline
 70
0
 90
2
 10
732498.370373506
 20
4203123.40811164
 10
732542.835380664
 20
4203098.04394476
  0
LWPOLYLINE
  5
20226
100
AcDbEntity
  8
0
100
AcDbPolyline
 70
0
 90
2
 10
732498.370373506
 20
4203123.40811164
 10
732476.170808209
 20
4203083.64063256
  0
LWPOLYLINE
  5
20227
100
AcDbEntity
  8
0
100
AcDbPolyline
 70
0
 90
2
 10
732476.170808209
 20
4203083.64063256
 10
732520.576633875
 20
4203058.20290317
  0
LWPOLYLINE
  5
20228
100
AcDbEntity
  8
0
100
AcDbPolyline
 70
0
 90
2
 10
732476.170808209
 20
4203083.64063256
 10
732452.100472484
 20
4203040.52242143
  0
LWPOLYLINE
  5
20229
100
AcDbEntity
  8
0
100
AcDbPolyline
 70
0
 90
2
 10
732520.576633875
 20
4203058.20290317
 10
732567.012772375
 20
4203031.60244892
  0
LWPOLYLINE
  5
2022A
100
AcDbEntity
  8
0
100
AcDbPolyline
 70
0
 90
2
 10
732496.519874966
 20
4203015.14391569
 10
732520.576633875
 20
4203058.20290317
  0
LWPOLYLINE
  5
2022B
100
AcDbEntity
  8
0
100
AcDbPolyline
 70
0
 90
2
 10
732567.012772375
 20
4203031.60244892
 10
732612.462274922
 20
4203005.56774287
  0
LWPOLYLINE
  5
2022C
100
AcDbEntity
  8
0
100
AcDbPolyline
 70
0
 90
2
 10
732567.012772375
 20
4203031.60244892
 10
732542.849517185
 20
4202988.67446042
  0
LWPOLYLINE
  5
2022D
100
AcDbEntity
  8
0
100
AcDbPolyline
 70
0
 90
2
 10
732612.462274922
 20
4203005.56774287
 10
732588.248265399
 20
4202962.73735302
  0
LWPOLYLINE
  5
2022E
100
AcDbEntity
  8
0
100
AcDbPolyline
 70
0
 90
2
 10
732710.142839922
 20
4202949.61485752
 10
732752.389272558
 20
4202925.41615995
  0
LWPOLYLINE
  5
2022F
100
AcDbEntity
  8
0
100
AcDbPolyline
 70
0
 90
2
 10
732710.142839922
 20
4202949.61485752
 10
732685.938178426
 20
4202906.92659321
  0
LWPOLYLINE
  5
20230
100
AcDbEntity
  8
0
100
AcDbPolyline
 70
0
 90
2
 10
732752.389272558
 20
4202925.41615995
 10
732797.140588172
 20
4202899.78293231
  0
LWPOLYLINE
  5
20231
100
AcDbEntity
  8
0
100
AcDbPolyline
 70
0
 90
2
 10
732752.389272558
 20
4202925.41615995
 10
732728.266137193
 20
4202882.74496401
  0
LWPOLYLINE
  5
20232
100
AcDbEntity
  8
0
100
AcDbPolyline
 70
0
 90
2
 10
732797.140588172
 20
4202899.78293231
 10
732841.972936186
 20
4202874.10369719
  0
LWPOLYLINE
  5
20233
100
AcDbEntity
  8
0
100
AcDbPolyline
 70
0
 90
2
 10
732797.140588172
 20
4202899.78293231
 10
732773.148230158
 20
4202857.10454162
  0
LWPOLYLINE
  5
20234
100
AcDbEntity
  8
0
100
AcDbPolyline
 70
0
 90
2
 10
732841.972936186
 20
4202874.10369719
 10
732817.982863795
 20
4202831.49176152
  0
LWPOLYLINE
  5
20235
100
AcDbEntity
  8
0
100
AcDbPolyline
 70
0
 90
2
 10
732940.705698414
 20
4202817.55273093
 10
732983.244060964
 20
4202793.18872263
  0
LWPOLYLINE
  5
20236
100
AcDbEntity
  8
0
100
AcDbPolyline
 70
0
 90
2
 10
732940.705698414
 20
4202817.55273093
 10
732916.882746867
 20
4202774.99422397
  0
LWPOLYLINE
  5
20237
100
AcDbEntity
  8
0
100
AcDbPolyline
 70
0
 90
2
 10
732983.244060964
 20
4202793.18872263
 10
733029.685273343
 20
4202766.58970725
  0
LWPOLYLINE
  5
20238
100
AcDbEntity
  8
0
100
AcDbPolyline
 70
0
 90
2
 10
732983.244060964
 20
4202793.18872263
 10
732959.475081681
 20
4202750.66360761
  0
LWPOLYLINE
  5
20239
100
AcDbEntity
  8
0
100
AcDbPolyline
 70
0
 90
2
 10
733029.685273343
 20
4202766.58970725
 10
733074.526463129
 20
4202740.90744814
  0
LWPOLYLINE
  5
2023A
100
AcDbEntity
  8
0
100
AcDbPolyline
 70
0
 90
2
 10
733029.685273343
 20
4202766.58970725
 10
733006.014280007
 20
4202724.07867792
  0
LWPOLYLINE
  5
2023B
100
AcDbEntity
  8
0
100
AcDbPolyline
 70
0
 90
2
 10
733050.864638409
 20
4202698.45896216
 10
733074.526463129
 20
4202740.90744814
  0
LWPOLYLINE
  5
2023C
100
AcDbEntity
  8
0
100
AcDbPolyline
 70
0
 90
2
 10
733050.864638409
 20
4202698.45896216
 10
733026.723705002
 20
4202655.15134442
  0
LWPOLYLINE
  5
2023D
100
AcDbEntity
  8
0
100
AcDbPolyline
 70
0
 90
2
 10
733006.014280007
 20
4202724.07867792
 10
733050.864638409
 20
4202698.45896216
  0
LWPOLYLINE
  5
2023E
100
AcDbEntity
  8
0
100
AcDbPolyline
 70
0
 90
2
 10
733006.014280007
 20
4202724.07867792
 10
732981.862182298
 20
4202680.70435333
  0
LWPOLYLINE
  5
2023F
100
AcDbEntity
  8
0
100
AcDbPolyline
 70
0
 90
2
 10
732959.475081681
 20
4202750.66360761
 10
733006.014280007
 20
4202724.07867792
  0
LWPOLYLINE
  5
20240
100
AcDbEntity
  8
0
100
AcDbPolyline
 70
0
 90
2
 10
732959.475081681
 20
4202750.66360761
 10
732935.221146495
 20
4202707.27131488
  0
LWPOLYLINE
  5
20241
100
AcDbEntity
  8
0
100
AcDbPolyline
 70
0
 90
2
 10
732916.882746867
 20
4202774.99422397
 10
732959.475081681
 20
4202750.66360761
  0
LWPOLYLINE
  5
20242
100
AcDbEntity
  8
0
100
AcDbPolyline
 70
0
 90
2
 10
732916.882746867
 20
4202774.99422397
 10
732892.572033617
 20
4202731.56501936
  0
LWPOLYLINE
  5
20243
100
AcDbEntity
  8
0
100
AcDbPolyline
 70
0
 90
2
 10
732817.982863795
 20
4202831.49176152
 10
732793.49760893
 20
4202788.00070536
  0
LWPOLYLINE
  5
20244
100
AcDbEntity
  8
0
100
AcDbPolyline
 70
0
 90
2
 10
732773.148230158
 20
4202857.10454162
 10
732817.982863795
 20
4202831.49176152
  0
LWPOLYLINE
  5
20245
100
AcDbEntity
  8
0
100
AcDbPolyline
 70
0
 90
2
 10
732773.148230158
 20
4202857.10454162
 10
732748.658872835
 20
4202813.54276108
  0
LWPOLYLINE
  5
20246
100
AcDbEntity
  8
0
100
AcDbPolyline
 70
0
 90
2
 10
732728.266137193
 20
4202882.74496401
 10
732773.148230158
 20
4202857.10454162
  0
LWPOLYLINE
  5
20247
100
AcDbEntity
  8
0
100
AcDbPolyline
 70
0
 90
2
 10
732728.266137193
 20
4202882.74496401
 10
732703.641607715
 20
4202839.18703598
  0
LWPOLYLINE
  5
20248
100
AcDbEntity
  8
0
100
AcDbPolyline
 70
0
 90
2
 10
732685.938178426
 20
4202906.92659321
 10
732728.266137193
 20
4202882.74496401
  0
LWPOLYLINE
  5
20249
100
AcDbEntity
  8
0
100
AcDbPolyline
 70
0
 90
2
 10
732661.228522637
 20
4202863.34816569
 10
732685.938178426
 20
4202906.92659321
  0
LWPOLYLINE
  5
2024A
100
AcDbEntity
  8
0
100
AcDbPolyline
 70
0
 90
2
 10
732588.248265399
 20
4202962.73735302
 10
732563.52530396
 20
4202919.00725314
  0
LWPOLYLINE
  5
2024B
100
AcDbEntity
  8
0
100
AcDbPolyline
 70
0
 90
2
 10
732542.849517185
 20
4202988.67446042
 10
732588.248265399
 20
4202962.73735302
  0
LWPOLYLINE
  5
2024C
100
AcDbEntity
  8
0
100
AcDbPolyline
 70
0
 90
2
 10
732496.519874966
 20
4203015.14391569
 10
732542.849517185
 20
4202988.67446042
  0
LWPOLYLINE
  5
2024D
100
AcDbEntity
  8
0
100
AcDbPolyline
 70
0
 90
2
 10
732518.176742717
 20
4202944.84186144
 10
732542.849517185
 20
4202988.67446042
  0
LWPOLYLINE
  5
2024E
100
AcDbEntity
  8
0
100
AcDbPolyline
 70
0
 90
2
 10
732496.519874966
 20
4203015.14391569
 10
732471.95419109
 20
4202971.17478358
  0
LWPOLYLINE
  5
2024F
100
AcDbEntity
  8
0
100
AcDbPolyline
 70
0
 90
2
 10
732452.100472484
 20
4203040.52242143
 10
732496.519874966
 20
4203015.14391569
  0
LWPOLYLINE
  5
20250
100
AcDbEntity
  8
0
100
AcDbPolyline
 70
0
 90
2
 10
732452.100472484
 20
4203040.52242143
 10
732427.51930996
 20
4202996.48968302
  0
LWPOLYLINE
  5
20251
100
AcDbEntity
  8
0
100
AcDbPolyline
 70
0
 90
2
 10
732427.51930996
 20
4202996.48968302
 10
732471.95419109
 20
4202971.17478358
  0
LWPOLYLINE
  5
20252
100
AcDbEntity
  8
0
100
AcDbPolyline
 70
0
 90
2
 10
732405.886403371
 20
4202957.73873426
 10
732427.51930996
 20
4202996.48968302
  0
LWPOLYLINE
  5
20253
100
AcDbEntity
  8
0
100
AcDbPolyline
 70
0
 90
2
 10
732471.95419109
 20
4202971.17478358
 10
732518.176742717
 20
4202944.84186144
  0
LWPOLYLINE
  5
20254
100
AcDbEntity
  8
0
100
AcDbPolyline
 70
0
 90
2
 10
732471.95419109
 20
4202971.17478358
 10
732450.345236258
 20
4202932.49825053
  0
LWPOLYLINE
  5
20255
100
AcDbEntity
  8
0
100
AcDbPolyline
 70
0
 90
2
 10
732518.176742717
 20
4202944.84186144
 10
732563.52530396
 20
4202919.00725314
  0
LWPOLYLINE
  5
20256
100
AcDbEntity
  8
0
100
AcDbPolyline
 70
0
 90
2
 10
732518.176742717
 20
4202944.84186144
 10
732496.484183149
 20
4202906.30432453
  0
LWPOLYLINE
  5
20257
100
AcDbEntity
  8
0
100
AcDbPolyline
 70
0
 90
2
 10
732563.52530396
 20
4202919.00725314
 10
732541.799251078
 20
4202880.57848339
  0
LWPOLYLINE
  5
20258
100
AcDbEntity
  8
0
100
AcDbPolyline
 70
0
 90
2
 10
732661.228522637
 20
4202863.34816569
 10
732703.641607715
 20
4202839.18703598
  0
LWPOLYLINE
  5
20259
100
AcDbEntity
  8
0
100
AcDbPolyline
 70
0
 90
2
 10
732661.228522637
 20
4202863.34816569
 10
732639.537103194
 20
4202825.09314938
  0
LWPOLYLINE
  5
2025A
100
AcDbEntity
  8
0
100
AcDbPolyline
 70
0
 90
2
 10
732703.641607715
 20
4202839.18703598
 10
732748.658872835
 20
4202813.54276108
  0
LWPOLYLINE
  5
2025B
100
AcDbEntity
  8
0
100
AcDbPolyline
 70
0
 90
2
 10
732703.641607715
 20
4202839.18703598
 10
732682.034861033
 20
4202800.96796121
  0
LWPOLYLINE
  5
2025C
100
AcDbEntity
  8
0
100
AcDbPolyline
 70
0
 90
2
 10
732748.658872835
 20
4202813.54276108
 10
732793.49760893
 20
4202788.00070536
  0
LWPOLYLINE
  5
2025D
100
AcDbEntity
  8
0
100
AcDbPolyline
 70
0
 90
2
 10
732748.658872835
 20
4202813.54276108
 10
732727.181626451
 20
4202775.33934878
  0
LWPOLYLINE
  5
2025E
100
AcDbEntity
  8
0
100
AcDbPolyline
 70
0
 90
2
 10
732793.49760893
 20
4202788.00070536
 10
732772.034369029
 20
4202749.87797993
  0
LWPOLYLINE
  5
2025F
100
AcDbEntity
  8
0
100
AcDbPolyline
 70
0
 90
2
 10
732892.572033617
 20
4202731.56501936
 10
732935.221146495
 20
4202707.27131488
  0
LWPOLYLINE
  5
20260
100
AcDbEntity
  8
0
100
AcDbPolyline
 70
0
 90
2
 10
732871.285230686
 20
4202693.53833605
 10
732892.572033617
 20
4202731.56501936
  0
LWPOLYLINE
  5
20261
100
AcDbEntity
  8
0
100
AcDbPolyline
 70
0
 90
2
 10
732935.221146495
 20
4202707.27131488
 10
732981.862182298
 20
4202680.70435333
  0
LWPOLYLINE
  5
20262
100
AcDbEntity
  8
0
100
AcDbPolyline
 70
0
 90
2
 10
732935.221146495
 20
4202707.27131488
 10
732913.994239495
 20
4202669.29508823
  0
LWPOLYLINE
  5
20263
100
AcDbEntity
  8
0
100
AcDbPolyline
 70
0
 90
2
 10
732981.862182298
 20
4202680.70435333
 10
733026.723705002
 20
4202655.15134442
  0
LWPOLYLINE
  5
20264
100
AcDbEntity
  8
0
100
AcDbPolyline
 70
0
 90
2
 10
732981.862182298
 20
4202680.70435333
 10
732960.735366326
 20
4202642.76361204
  0
LWPOLYLINE
  5
20265
100
AcDbEntity
  8
0
100
AcDbPolyline
 70
0
 90
2
 10
733026.723705002
 20
4202655.15134442
 10
733005.617238034
 20
4202617.28780768
  0
LWPOLYLINE
  5
20266
100
AcDbEntity
  8
0
100
AcDbPolyline
 70
0
 90
2
 10
733141.23001673
 20
4202540.31395927
 10
733186.389055984
 20
4202514.68246521
  0
LWPOLYLINE
  5
20267
100
AcDbEntity
  8
0
100
AcDbPolyline
 70
0
 90
2
 10
733097.946242505
 20
4202564.88151068
 10
733141.23001673
 20
4202540.31395927
  0
LWPOLYLINE
  5
20268
100
AcDbEntity
  8
0
100
AcDbPolyline
 70
0
 90
2
 10
732960.735366326
 20
4202642.76361204
 10
733005.617238034
 20
4202617.28780768
  0
LWPOLYLINE
  5
20269
100
AcDbEntity
  8
0
100
AcDbPolyline
 70
0
 90
2
 10
732913.994239495
 20
4202669.29508823
 10
732960.735366326
 20
4202642.76361204
  0
LWPOLYLINE
  5
2026A
100
AcDbEntity
  8
0
100
AcDbPolyline
 70
0
 90
2
 10
732871.285230686
 20
4202693.53833605
 10
732913.994239495
 20
4202669.29508823
  0
LWPOLYLINE
  5
2026B
100
AcDbEntity
  8
0
100
AcDbPolyline
 70
0
 90
2
 10
732727.181626451
 20
4202775.33934878
 10
732772.034369029
 20
4202749.87797993
  0
LWPOLYLINE
  5
2026C
100
AcDbEntity
  8
0
100
AcDbPolyline
 70
0
 90
2
 10
732682.034861033
 20
4202800.96796121
 10
732727.181626451
 20
4202775.33934878
  0
LWPOLYLINE
  5
2026D
100
AcDbEntity
  8
0
100
AcDbPolyline
 70
0
 90
2
 10
732639.537103194
 20
4202825.09314938
 10
732682.034861033
 20
4202800.96796121
  0
LWPOLYLINE
  5
2026E
100
AcDbEntity
  8
0
100
AcDbPolyline
 70
0
 90
2
 10
732496.484183149
 20
4202906.30432453
 10
732541.799251078
 20
4202880.57848339
  0
LWPOLYLINE
  5
2026F
100
AcDbEntity
  8
0
100
AcDbPolyline
 70
0
 90
2
 10
732450.345236258
 20
4202932.49825053
 10
732496.484183149
 20
4202906.30432453
  0
LWPOLYLINE
  5
20270
100
AcDbEntity
  8
0
100
AcDbPolyline
 70
0
 90
2
 10
732405.886403371
 20
4202957.73873426
 10
732450.345236258
 20
4202932.49825053
  0
LWPOLYLINE
  5
20271
100
AcDbEntity
  8
0
100
AcDbPolyline
 70
0
 90
2
 10
732616.398646219
 20
4203229.71930582
 10
732663.478731417
 20
4203202.98735935
  0
LWPOLYLINE
  5
20272
100
AcDbEntity
  8
0
100
AcDbPolyline
 70
0
 90
2
 10
732663.478731417
 20
4203202.98735935
 10
732709.346079651
 20
4203176.94434295
  0
LWPOLYLINE
  5
20273
100
AcDbEntity
  8
0
100
AcDbPolyline
 70
0
 90
2
 10
732732.219466115
 20
4203217.40603775
 10
732709.346079651
 20
4203176.94434295
  0
LWPOLYLINE
  5
20274
100
AcDbEntity
  8
0
100
AcDbPolyline
 70
0
 90
2
 10
732492.014887807
 20
4202792.5225729
 10
732470.731495998
 20
4202754.87822891
  0
LWPOLYLINE
  5
20275
100
AcDbEntity
  8
0
100
AcDbPolyline
 70
0
 90
2
 10
732411.18749824
 20
4202649.56424599
 10
732388.007698055
 20
4202608.56766466
  0
LWPOLYLINE
  5
20276
100
AcDbEntity
  8
0
100
AcDbPolyline
 70
0
 90
2
 10
732388.007698055
 20
4202608.56766466
 10
732365.232354228
 20
4202568.28694616
  0
LWPOLYLINE
  5
20277
100
AcDbEntity
  8
0
100
AcDbPolyline
 70
0
 90
2
 10
732365.232354228
 20
4202568.28694616
 10
732343.39417082
 20
4202529.66408627
  0
LWPOLYLINE
  5
20278
100
AcDbEntity
  8
0
100
AcDbPolyline
 70
0
 90
2
 10
732319.890511903
 20
4202488.09621694
 10
732343.39417082
 20
4202529.66408627
  0
LWPOLYLINE
  5
20279
100
AcDbEntity
  8
0
100
AcDbPolyline
 70
0
 90
2
 10
732319.890511903
 20
4202488.09621694
 10
732297.491277614
 20
4202448.4821769
  0
LWPOLYLINE
  5
2027A
100
AcDbEntity
  8
0
100
AcDbPolyline
 70
0
 90
2
 10
732247.965902689
 20
4202360.89572056
 10
732225.731432437
 20
4202321.57472731
  0
LWPOLYLINE
  5
2027B
100
AcDbEntity
  8
0
100
AcDbPolyline
 70
0
 90
2
 10
732225.731432437
 20
4202321.57472731
 10
732202.837790591
 20
4202281.08820805
  0
LWPOLYLINE
  5
2027C
100
AcDbEntity
  8
0
100
AcDbPolyline
 70
0
 90
2
 10
732202.837790591
 20
4202281.08820805
 10
732181.254701556
 20
4202242.91987268
  0
LWPOLYLINE
  5
2027D
100
AcDbEntity
  8
0
100
AcDbPolyline
 70
0
 90
2
 10
732156.964253144
 20
4202199.96436327
 10
732181.254701556
 20
4202242.91987268
  0
LWPOLYLINE
  5
2027E
100
AcDbEntity
  8
0
100
AcDbPolyline
 70
0
 90
2
 10
732156.964253144
 20
4202199.96436327
 10
732131.62664901
 20
4202155.15760033
  0
LWPOLYLINE
  5
2027F
100
AcDbEntity
  8
0
100
AcDbPolyline
 70
0
 90
2
 10
732083.01036186
 20
4202069.1867464
 10
732060.918365946
 20
4202030.12106177
  0
LWPOLYLINE
  5
20280
100
AcDbEntity
  8
0
100
AcDbPolyline
 70
0
 90
2
 10
732037.367553863
 20
4202095.07451104
 10
732083.01036186
 20
4202069.1867464
  0
LWPOLYLINE
  5
20281
100
AcDbEntity
  8
0
100
AcDbPolyline
 70
0
 90
2
 10
732060.918365946
 20
4202030.12106177
 10
732039.179895051
 20
4201991.68102283
  0
LWPOLYLINE
  5
20282
100
AcDbEntity
  8
0
100
AcDbPolyline
 70
0
 90
2
 10
732015.286498042
 20
4202055.95684403
 10
732060.918365946
 20
4202030.12106177
  0
LWPOLYLINE
  5
20283
100
AcDbEntity
  8
0
100
AcDbPolyline
 70
0
 90
2
 10
732039.179895051
 20
4201991.68102283
 10
732016.837992743
 20
4201952.17423953
  0
LWPOLYLINE
  5
20284
100
AcDbEntity
  8
0
100
AcDbPolyline
 70
0
 90
2
 10
731993.576863414
 20
4202017.49764892
 10
732039.179895051
 20
4201991.68102283
  0
LWPOLYLINE
  5
20285
100
AcDbEntity
  8
0
100
AcDbPolyline
 70
0
 90
2
 10
732016.837992743
 20
4201952.17423953
 10
731994.653927548
 20
4201912.94723889
  0
LWPOLYLINE
  5
20286
100
AcDbEntity
  8
0
100
AcDbPolyline
 70
0
 90
2
 10
731971.278917209
 20
4201977.99679876
 10
732016.837992743
 20
4201952.17423953
  0
LWPOLYLINE
  5
20287
100
AcDbEntity
  8
0
100
AcDbPolyline
 70
0
 90
2
 10
731994.653927548
 20
4201912.94723889
 10
731972.880618631
 20
4201874.44679857
  0
LWPOLYLINE
  5
20288
100
AcDbEntity
  8
0
100
AcDbPolyline
 70
0
 90
2
 10
731949.122885841
 20
4201938.74784477
 10
731994.653927548
 20
4201912.94723889
  0
LWPOLYLINE
  5
20289
100
AcDbEntity
  8
0
100
AcDbPolyline
 70
0
 90
2
 10
731927.389217725
 20
4201900.24743583
 10
731972.880618631
 20
4201874.44679857
  0
LWPOLYLINE
  5
2028A
100
AcDbEntity
  8
0
100
AcDbPolyline
 70
0
 90
2
 10
731949.122885841
 20
4201938.74784477
 10
731927.389217725
 20
4201900.24743583
  0
LWPOLYLINE
  5
2028B
100
AcDbEntity
  8
0
100
AcDbPolyline
 70
0
 90
2
 10
731971.278917209
 20
4201977.99679876
 10
731949.122885841
 20
4201938.74784477
  0
LWPOLYLINE
  5
2028C
100
AcDbEntity
  8
0
100
AcDbPolyline
 70
0
 90
2
 10
731993.576863414
 20
4202017.49764892
 10
731971.278917209
 20
4201977.99679876
  0
LWPOLYLINE
  5
2028D
100
AcDbEntity
  8
0
100
AcDbPolyline
 70
0
 90
2
 10
732015.286498042
 20
4202055.95684403
 10
731993.576863414
 20
4202017.49764892
  0
LWPOLYLINE
  5
2028E
100
AcDbEntity
  8
0
100
AcDbPolyline
 70
0
 90
2
 10
732037.367553863
 20
4202095.07451104
 10
732015.286498042
 20
4202055.95684403
  0
LWPOLYLINE
  5
2028F
100
AcDbEntity
  8
0
100
AcDbPolyline
 70
0
 90
2
 10
732807.453334873
 20
4203121.24152927
 10
732849.572058843
 20
4203097.32829562
  0
LWPOLYLINE
  5
20290
100
AcDbEntity
  8
0
100
AcDbPolyline
 70
0
 90
2
 10
732830.447515134
 20
4203161.79770008
 10
732807.453334873
 20
4203121.24152927
  0
LWPOLYLINE
  5
20291
100
AcDbEntity
  8
0
100
AcDbPolyline
 70
0
 90
2
 10
732849.572058843
 20
4203097.32829562
 10
732894.008240477
 20
4203072.09951507
  0
LWPOLYLINE
  5
20292
100
AcDbEntity
  8
0
100
AcDbPolyline
 70
0
 90
2
 10
732849.572058843
 20
4203097.32829562
 10
732872.544346387
 20
4203137.96660639
  0
LWPOLYLINE
  5
20293
100
AcDbEntity
  8
0
100
AcDbPolyline
 70
0
 90
2
 10
732894.008240477
 20
4203072.09951507
 10
732939.044232367
 20
4203046.53071988
  0
LWPOLYLINE
  5
20294
100
AcDbEntity
  8
0
100
AcDbPolyline
 70
0
 90
2
 10
732916.914707824
 20
4203112.84882207
 10
732894.008240477
 20
4203072.09951507
  0
LWPOLYLINE
  5
20295
100
AcDbEntity
  8
0
100
AcDbPolyline
 70
0
 90
2
 10
732962.007948371
 20
4203087.32233291
 10
732939.044232367
 20
4203046.53071988
  0
LWPOLYLINE
  5
20296
100
AcDbEntity
  8
0
100
AcDbPolyline
 70
0
 90
2
 10
733037.567232021
 20
4202990.59625138
 10
733080.087252311
 20
4202966.45706728
  0
LWPOLYLINE
  5
20297
100
AcDbEntity
  8
0
100
AcDbPolyline
 70
0
 90
2
 10
733080.087252311
 20
4202966.45706728
 10
733126.348753421
 20
4202940.19417422
  0
LWPOLYLINE
  5
20298
100
AcDbEntity
  8
0
100
AcDbPolyline
 70
0
 90
2
 10
732955.862235516
 20
4202528.03281546
 10
732934.875910933
 20
4202490.38641538
  0
LWPOLYLINE
  5
20299
100
AcDbEntity
  8
0
100
AcDbPolyline
 70
0
 90
2
 10
732911.060708347
 20
4202553.55640528
 10
732955.862235516
 20
4202528.03281546
  0
LWPOLYLINE
  5
2029A
100
AcDbEntity
  8
0
100
AcDbPolyline
 70
0
 90
2
 10
732890.148344175
 20
4202516.0023113
 10
732934.875910933
 20
4202490.38641538
  0
LWPOLYLINE
  5
2029B
100
AcDbEntity
  8
0
100
AcDbPolyline
 70
0
 90
2
 10
733180.163293501
 20
4202400.25343968
 10
733158.710162388
 20
4202362.20059953
  0
LWPOLYLINE
  5
2029C
100
AcDbEntity
  8
0
100
AcDbPolyline
 70
0
 90
2
 10
733136.609089783
 20
4202425.06449175
 10
733180.163293501
 20
4202400.25343968
  0
LWPOLYLINE
  5
2029D
100
AcDbEntity
  8
0
100
AcDbPolyline
 70
0
 90
2
 10
733115.450547195
 20
4202386.97384947
 10
733158.710162388
 20
4202362.20059953
  0
LWPOLYLINE
  5
2029E
100
AcDbEntity
  8
0
100
AcDbPolyline
 70
0
 90
2
 10
733136.609089783
 20
4202425.06449175
 10
733115.450547195
 20
4202386.97384947
  0
LWPOLYLINE
  5
2029F
100
AcDbEntity
  8
0
100
AcDbPolyline
 70
0
 90
2
 10
733091.845290642
 20
4202450.56503584
 10
733136.609089783
 20
4202425.06449175
  0
LWPOLYLINE
  5
202A0
100
AcDbEntity
  8
0
100
AcDbPolyline
 70
0
 90
2
 10
733070.894042469
 20
4202412.49008496
 10
733115.450547195
 20
4202386.97384947
  0
LWPOLYLINE
  5
202A1
100
AcDbEntity
  8
0
100
AcDbPolyline
 70
0
 90
2
 10
733070.894042469
 20
4202412.49008496
 10
733091.845290642
 20
4202450.56503584
  0
LWPOLYLINE
  5
202A2
100
AcDbEntity
  8
0
100
AcDbPolyline
 70
0
 90
2
 10
733047.962415517
 20
4202475.56419696
 10
733091.845290642
 20
4202450.56503584
  0
LWPOLYLINE
  5
202A3
100
AcDbEntity
  8
0
100
AcDbPolyline
 70
0
 90
2
 10
733026.79691443
 20
4202437.74372544
 10
733070.894042469
 20
4202412.49008496
  0
LWPOLYLINE
  5
202A4
100
AcDbEntity
  8
0
100
AcDbPolyline
 70
0
 90
2
 10
733047.962415517
 20
4202475.56419696
 10
733026.79691443
 20
4202437.74372544
  0
LWPOLYLINE
  5
202A5
100
AcDbEntity
  8
0
100
AcDbPolyline
 70
0
 90
2
 10
732843.304597249
 20
4202542.83052319
 10
732890.148344175
 20
4202516.0023113
  0
LWPOLYLINE
  5
202A6
100
AcDbEntity
  8
0
100
AcDbPolyline
 70
0
 90
2
 10
732911.060708347
 20
4202553.55640528
 10
732890.148344175
 20
4202516.0023113
  0
LWPOLYLINE
  5
202A7
100
AcDbEntity
  8
0
100
AcDbPolyline
 70
0
 90
2
 10
732800.608150709
 20
4202567.28389143
 10
732843.304597249
 20
4202542.83052319
  0
LWPOLYLINE
  5
202A8
100
AcDbEntity
  8
0
100
AcDbPolyline
 70
0
 90
2
 10
732864.217577762
 20
4202580.2435583
 10
732843.304597249
 20
4202542.83052319
  0
LWPOLYLINE
  5
202A9
100
AcDbEntity
  8
0
100
AcDbPolyline
 70
0
 90
2
 10
732821.490170951
 20
4202604.58630246
 10
732800.608150709
 20
4202567.28389143
  0
LWPOLYLINE
  5
202AA
100
AcDbEntity
  8
0
100
AcDbPolyline
 70
0
 90
2
 10
732821.490170951
 20
4202604.58630246
 10
732864.217577762
 20
4202580.2435583
  0
LWPOLYLINE
  5
202AB
100
AcDbEntity
  8
0
100
AcDbPolyline
 70
0
 90
2
 10
732864.217577762
 20
4202580.2435583
 10
732911.060708347
 20
4202553.55640528
  0
LWPOLYLINE
  5
202AC
100
AcDbEntity
  8
0
100
AcDbPolyline
 70
0
 90
2
 10
732916.914707824
 20
4203112.84882207
 10
732962.007948371
 20
4203087.32233291
  0
LWPOLYLINE
  5
202AD
100
AcDbEntity
  8
0
100
AcDbPolyline
 70
0
 90
2
 10
732872.544346387
 20
4203137.96660639
 10
732916.914707824
 20
4203112.84882207
  0
LWPOLYLINE
  5
202AE
100
AcDbEntity
  8
0
100
AcDbPolyline
 70
0
 90
2
 10
732830.447515134
 20
4203161.79770008
 10
732872.544346387
 20
4203137.96660639
  0
LWPOLYLINE
  5
202AF
100
AcDbEntity
  8
0
100
AcDbPolyline
 70
0
 90
2
 10
732722.127087486
 20
4202661.23495413
 10
732701.163853997
 20
4202624.00181257
  0
LWPOLYLINE
  5
202B0
100
AcDbEntity
  8
0
100
AcDbPolyline
 70
0
 90
2
 10
732677.383920037
 20
4202686.76182033
 10
732722.127087486
 20
4202661.23495413
  0
LWPOLYLINE
  5
202B1
100
AcDbEntity
  8
0
100
AcDbPolyline
 70
0
 90
2
 10
732656.394757206
 20
4202649.4281016
 10
732701.163853997
 20
4202624.00181257
  0
LWPOLYLINE
  5
202B2
100
AcDbEntity
  8
0
100
AcDbPolyline
 70
0
 90
2
 10
732641.116242932
 20
4202518.49033736
 10
732617.678858312
 20
4202477.73708658
  0
LWPOLYLINE
  5
202B3
100
AcDbEntity
  8
0
100
AcDbPolyline
 70
0
 90
2
 10
732596.47647525
 20
4202543.63831512
 10
732641.116242932
 20
4202518.49033736
  0
LWPOLYLINE
  5
202B4
100
AcDbEntity
  8
0
100
AcDbPolyline
 70
0
 90
2
 10
732596.47647525
 20
4202543.63831512
 10
732573.171965934
 20
4202503.08934749
  0
LWPOLYLINE
  5
202B5
100
AcDbEntity
  8
0
100
AcDbPolyline
 70
0
 90
2
 10
732551.249409633
 20
4202569.59118642
 10
732596.47647525
 20
4202543.63831512
  0
LWPOLYLINE
  5
202B6
100
AcDbEntity
  8
0
100
AcDbPolyline
 70
0
 90
2
 10
732677.383920037
 20
4202686.76182033
 10
732656.394757206
 20
4202649.4281016
  0
LWPOLYLINE
  5
202B7
100
AcDbEntity
  8
0
100
AcDbPolyline
 70
0
 90
2
 10
732610.952558712
 20
4202675.23699802
 10
732656.394757206
 20
4202649.4281016
  0
LWPOLYLINE
  5
202B8
100
AcDbEntity
  8
0
100
AcDbPolyline
 70
0
 90
2
 10
732632.080798616
 20
4202712.60842198
 10
732677.383920037
 20
4202686.76182033
  0
LWPOLYLINE
  5
202B9
100
AcDbEntity
  8
0
100
AcDbPolyline
 70
0
 90
2
 10
732632.080798616
 20
4202712.60842198
 10
732610.952558712
 20
4202675.23699802
  0
LWPOLYLINE
  5
202BA
100
AcDbEntity
  8
0
100
AcDbPolyline
 70
0
 90
2
 10
732589.522587981
 20
4202736.88944479
 10
732632.080798616
 20
4202712.60842198
  0
LWPOLYLINE
  5
202BB
100
AcDbEntity
  8
0
100
AcDbPolyline
 70
0
 90
2
 10
732568.299599668
 20
4202699.46213217
 10
732610.952558712
 20
4202675.23699802
  0
LWPOLYLINE
  5
202BC
100
AcDbEntity
  8
0
100
AcDbPolyline
 70
0
 90
2
 10
732508.384293546
 20
4202593.80218471
 10
732485.342633175
 20
4202553.12022804
  0
LWPOLYLINE
  5
202BD
100
AcDbEntity
  8
0
100
AcDbPolyline
 70
0
 90
2
 10
732508.384293546
 20
4202593.80218471
 10
732551.249409633
 20
4202569.59118642
  0
LWPOLYLINE
  5
202BE
100
AcDbEntity
  8
0
100
AcDbPolyline
 70
0
 90
2
 10
732589.522587981
 20
4202736.88944479
 10
732568.299599668
 20
4202699.46213217
  0
LWPOLYLINE
  5
202BF
100
AcDbEntity
  8
0
100
AcDbPolyline
 70
0
 90
2
 10
732350.448196555
 20
4201660.32361623
 10
732397.23854911
 20
4201633.56705465
  0
LWPOLYLINE
  5
202C0
100
AcDbEntity
  8
0
100
AcDbPolyline
 70
0
 90
2
 10
732350.448196555
 20
4201660.32361623
 10
732371.966021046
 20
4201699.1553091
  0
LWPOLYLINE
  5
202C1
100
AcDbEntity
  8
0
100
AcDbPolyline
 70
0
 90
2
 10
732303.808366701
 20
4201686.77214581
 10
732350.448196555
 20
4201660.32361623
  0
LWPOLYLINE
  5
202C2
100
AcDbEntity
  8
0
100
AcDbPolyline
 70
0
 90
2
 10
732418.773724139
 20
4201672.63528373
 10
732397.23854911
 20
4201633.56705465
  0
LWPOLYLINE
  5
202C3
100
AcDbEntity
  8
0
100
AcDbPolyline
 70
0
 90
2
 10
732440.505699061
 20
4201712.06104405
 10
732418.773724139
 20
4201672.63528373
  0
LWPOLYLINE
  5
202C4
100
AcDbEntity
  8
0
100
AcDbPolyline
 70
0
 90
2
 10
732371.966021046
 20
4201699.1553091
 10
732418.773724139
 20
4201672.63528373
  0
LWPOLYLINE
  5
202C5
100
AcDbEntity
  8
0
100
AcDbPolyline
 70
0
 90
2
 10
732462.537038175
 20
4201752.03029306
 10
732440.505699061
 20
4201712.06104405
  0
LWPOLYLINE
  5
202C6
100
AcDbEntity
  8
0
100
AcDbPolyline
 70
0
 90
2
 10
732393.788063637
 20
4201738.53651065
 10
732440.505699061
 20
4201712.06104405
  0
LWPOLYLINE
  5
202C7
100
AcDbEntity
  8
0
100
AcDbPolyline
 70
0
 90
2
 10
732462.537038175
 20
4201752.03029306
 10
732506.557714076
 20
4201725.87578099
  0
LWPOLYLINE
  5
202C8
100
AcDbEntity
  8
0
100
AcDbPolyline
 70
0
 90
2
 10
732462.537038175
 20
4201752.03029306
 10
732483.952785823
 20
4201790.62797576
  0
LWPOLYLINE
  5
202C9
100
AcDbEntity
  8
0
100
AcDbPolyline
 70
0
 90
2
 10
732415.894654428
 20
4201778.43156761
 10
732462.537038175
 20
4201752.03029306
  0
LWPOLYLINE
  5
202CA
100
AcDbEntity
  8
0
100
AcDbPolyline
 70
0
 90
2
 10
732529.00218055
 20
4201765.12613408
 10
732506.557714076
 20
4201725.87578099
  0
LWPOLYLINE
  5
202CB
100
AcDbEntity
  8
0
100
AcDbPolyline
 70
0
 90
3
 10
732529.00218055
 20
4201765.12613408
 10
732572.132637045
 20
4201739.98583945
 10
732594.067176273
 20
4201779.3529708
  0
LWPOLYLINE
  5
202CC
100
AcDbEntity
  8
0
100
AcDbPolyline
 70
0
 90
2
 10
732550.585116388
 20
4201804.01077287
 10
732529.00218055
 20
4201765.12613408
  0
LWPOLYLINE
  5
202CD
100
AcDbEntity
  8
0
100
AcDbPolyline
 70
0
 90
2
 10
732483.952785823
 20
4201790.62797576
 10
732529.00218055
 20
4201765.12613408
  0
LWPOLYLINE
  5
202CE
100
AcDbEntity
  8
0
100
AcDbPolyline
 70
0
 90
2
 10
732550.585116388
 20
4201804.01077287
 10
732594.067176273
 20
4201779.3529708
  0
LWPOLYLINE
  5
202CF
100
AcDbEntity
  8
0
100
AcDbPolyline
 70
0
 90
2
 10
732505.548665806
 20
4201829.55050716
 10
732550.585116388
 20
4201804.01077287
  0
LWPOLYLINE
  5
202D0
100
AcDbEntity
  8
0
100
AcDbPolyline
 70
0
 90
2
 10
732505.548665806
 20
4201829.55050716
 10
732483.952785823
 20
4201790.62797576
  0
LWPOLYLINE
  5
202D1
100
AcDbEntity
  8
0
100
AcDbPolyline
 70
0
 90
2
 10
732458.883650835
 20
4201856.01407411
 10
732505.548665806
 20
4201829.55050716
  0
LWPOLYLINE
  5
202D2
100
AcDbEntity
  8
0
100
AcDbPolyline
 70
0
 90
2
 10
732458.883650835
 20
4201856.01407411
 10
732437.289888277
 20
4201817.04353099
  0
LWPOLYLINE
  5
202D3
100
AcDbEntity
  8
0
100
AcDbPolyline
 70
0
 90
2
 10
732412.789104311
 20
4201882.15465565
 10
732458.883650835
 20
4201856.01407411
  0
LWPOLYLINE
  5
202D4
100
AcDbEntity
  8
0
100
AcDbPolyline
 70
0
 90
2
 10
732412.789104311
 20
4201882.15465565
 10
732391.067268071
 20
4201843.21037344
  0
LWPOLYLINE
  5
202D5
100
AcDbEntity
  8
0
100
AcDbPolyline
 70
0
 90
2
 10
732314.336055968
 20
4201937.98944124
 10
732292.445230672
 20
4201899.04208737
  0
LWPOLYLINE
  5
202D6
100
AcDbEntity
  8
0
100
AcDbPolyline
 70
0
 90
2
 10
732269.01359684
 20
4201963.69351962
 10
732314.336055968
 20
4201937.98944124
  0
LWPOLYLINE
  5
202D7
100
AcDbEntity
  8
0
100
AcDbPolyline
 70
0
 90
2
 10
732269.01359684
 20
4201963.69351962
 10
732247.047880668
 20
4201924.74294894
  0
LWPOLYLINE
  5
202D8
100
AcDbEntity
  8
0
100
AcDbPolyline
 70
0
 90
2
 10
732223.525766321
 20
4201989.49165436
 10
732269.01359684
 20
4201963.69351962
  0
LWPOLYLINE
  5
202D9
100
AcDbEntity
  8
0
100
AcDbPolyline
 70
0
 90
2
 10
732223.525766321
 20
4201989.49165436
 10
732201.509209822
 20
4201950.52422254
  0
LWPOLYLINE
  5
202DA
100
AcDbEntity
  8
0
100
AcDbPolyline
 70
0
 90
2
 10
732180.050577208
 20
4202014.14867944
 10
732223.525766321
 20
4201989.49165436
  0
LWPOLYLINE
  5
202DB
100
AcDbEntity
  8
0
100
AcDbPolyline
 70
0
 90
2
 10
732157.971501351
 20
4201975.1731576
 10
732180.050577208
 20
4202014.14867944
  0
LWPOLYLINE
  5
202DC
100
AcDbEntity
  8
0
100
AcDbPolyline
 70
0
 90
2
 10
732157.971501351
 20
4201975.1731576
 10
732201.509209822
 20
4201950.52422254
  0
LWPOLYLINE
  5
202DD
100
AcDbEntity
  8
0
100
AcDbPolyline
 70
0
 90
2
 10
732157.971501351
 20
4201975.1731576
 10
732136.207110973
 20
4201936.75343242
  0
LWPOLYLINE
  5
202DE
100
AcDbEntity
  8
0
100
AcDbPolyline
 70
0
 90
2
 10
732201.509209822
 20
4201950.52422254
 10
732247.047880668
 20
4201924.74294894
  0
LWPOLYLINE
  5
202DF
100
AcDbEntity
  8
0
100
AcDbPolyline
 70
0
 90
2
 10
732201.509209822
 20
4201950.52422254
 10
732179.789201859
 20
4201912.0820856
  0
LWPOLYLINE
  5
202E0
100
AcDbEntity
  8
0
100
AcDbPolyline
 70
0
 90
2
 10
732247.047880668
 20
4201924.74294894
 10
732292.445230672
 20
4201899.04208737
  0
LWPOLYLINE
  5
202E1
100
AcDbEntity
  8
0
100
AcDbPolyline
 70
0
 90
2
 10
732247.047880668
 20
4201924.74294894
 10
732225.359926493
 20
4201886.28526469
  0
LWPOLYLINE
  5
202E2
100
AcDbEntity
  8
0
100
AcDbPolyline
 70
0
 90
2
 10
732292.445230672
 20
4201899.04208737
 10
732270.813286979
 20
4201860.5554306
  0
LWPOLYLINE
  5
202E3
100
AcDbEntity
  8
0
100
AcDbPolyline
 70
0
 90
2
 10
732391.067268071
 20
4201843.21037344
 10
732437.289888277
 20
4201817.04353099
  0
LWPOLYLINE
  5
202E4
100
AcDbEntity
  8
0
100
AcDbPolyline
 70
0
 90
2
 10
732391.067268071
 20
4201843.21037344
 10
732369.563270062
 20
4201804.65720669
  0
LWPOLYLINE
  5
202E5
100
AcDbEntity
  8
0
100
AcDbPolyline
 70
0
 90
2
 10
732437.289888277
 20
4201817.04353099
 10
732483.952785823
 20
4201790.62797576
  0
LWPOLYLINE
  5
202E6
100
AcDbEntity
  8
0
100
AcDbPolyline
 70
0
 90
2
 10
732437.289888277
 20
4201817.04353099
 10
732415.894654428
 20
4201778.43156761
  0
LWPOLYLINE
  5
202E7
100
AcDbEntity
  8
0
100
AcDbPolyline
 70
0
 90
2
 10
732415.894654428
 20
4201778.43156761
 10
732393.788063637
 20
4201738.53651065
  0
LWPOLYLINE
  5
202E8
100
AcDbEntity
  8
0
100
AcDbPolyline
 70
0
 90
2
 10
732369.563270062
 20
4201804.65720669
 10
732415.894654428
 20
4201778.43156761
  0
LWPOLYLINE
  5
202E9
100
AcDbEntity
  8
0
100
AcDbPolyline
 70
0
 90
2
 10
732347.358904306
 20
4201764.84891953
 10
732369.563270062
 20
4201804.65720669
  0
LWPOLYLINE
  5
202EA
100
AcDbEntity
  8
0
100
AcDbPolyline
 70
0
 90
2
 10
732270.813286979
 20
4201860.5554306
 10
732248.507835957
 20
4201820.87118177
  0
LWPOLYLINE
  5
202EB
100
AcDbEntity
  8
0
100
AcDbPolyline
 70
0
 90
2
 10
732225.359926493
 20
4201886.28526469
 10
732270.813286979
 20
4201860.5554306
  0
LWPOLYLINE
  5
202EC
100
AcDbEntity
  8
0
100
AcDbPolyline
 70
0
 90
2
 10
732225.359926493
 20
4201886.28526469
 10
732203.011169358
 20
4201846.65645442
  0
LWPOLYLINE
  5
202ED
100
AcDbEntity
  8
0
100
AcDbPolyline
 70
0
 90
2
 10
732179.789201859
 20
4201912.0820856
 10
732225.359926493
 20
4201886.28526469
  0
LWPOLYLINE
  5
202EE
100
AcDbEntity
  8
0
100
AcDbPolyline
 70
0
 90
2
 10
732136.207110973
 20
4201936.75343242
 10
732179.789201859
 20
4201912.0820856
  0
LWPOLYLINE
  5
202EF
100
AcDbEntity
  8
0
100
AcDbPolyline
 70
0
 90
2
 10
732157.421820835
 20
4201872.49453147
 10
732179.789201859
 20
4201912.0820856
  0
LWPOLYLINE
  5
202F0
100
AcDbEntity
  8
0
100
AcDbPolyline
 70
0
 90
2
 10
732136.207110973
 20
4201936.75343242
 10
732113.807823411
 20
4201897.2135273
  0
LWPOLYLINE
  5
202F1
100
AcDbEntity
  8
0
100
AcDbPolyline
 70
0
 90
2
 10
732113.807823411
 20
4201897.2135273
 10
732157.421820835
 20
4201872.49453147
  0
LWPOLYLINE
  5
202F2
100
AcDbEntity
  8
0
100
AcDbPolyline
 70
0
 90
2
 10
732113.807823411
 20
4201897.2135273
 10
732091.600398492
 20
4201858.01290549
  0
LWPOLYLINE
  5
202F3
100
AcDbEntity
  8
0
100
AcDbPolyline
 70
0
 90
2
 10
732157.421820835
 20
4201872.49453147
 10
732203.011169358
 20
4201846.65645442
  0
LWPOLYLINE
  5
202F4
100
AcDbEntity
  8
0
100
AcDbPolyline
 70
0
 90
2
 10
732157.421820835
 20
4201872.49453147
 10
732135.261191905
 20
4201833.27334047
  0
LWPOLYLINE
  5
202F5
100
AcDbEntity
  8
0
100
AcDbPolyline
 70
0
 90
2
 10
732203.011169358
 20
4201846.65645442
 10
732248.507835957
 20
4201820.87118177
  0
LWPOLYLINE
  5
202F6
100
AcDbEntity
  8
0
100
AcDbPolyline
 70
0
 90
2
 10
732180.88464357
 20
4201807.42199268
 10
732203.011169358
 20
4201846.65645442
  0
LWPOLYLINE
  5
202F7
100
AcDbEntity
  8
0
100
AcDbPolyline
 70
0
 90
2
 10
732248.507835957
 20
4201820.87118177
 10
732226.439903949
 20
4201781.60981683
  0
LWPOLYLINE
  5
202F8
100
AcDbEntity
  8
0
100
AcDbPolyline
 70
0
 90
2
 10
732347.358904306
 20
4201764.84891953
 10
732393.788063637
 20
4201738.53651065
  0
LWPOLYLINE
  5
202F9
100
AcDbEntity
  8
0
100
AcDbPolyline
 70
0
 90
2
 10
732347.358904306
 20
4201764.84891953
 10
732325.424527812
 20
4201725.52508426
  0
LWPOLYLINE
  5
202FA
100
AcDbEntity
  8
0
100
AcDbPolyline
 70
0
 90
2
 10
732393.788063637
 20
4201738.53651065
 10
732371.966021046
 20
4201699.1553091
  0
LWPOLYLINE
  5
202FB
100
AcDbEntity
  8
0
100
AcDbPolyline
 70
0
 90
2
 10
732325.424527812
 20
4201725.52508426
 10
732371.966021046
 20
4201699.1553091
  0
LWPOLYLINE
  5
202FC
100
AcDbEntity
  8
0
100
AcDbPolyline
 70
0
 90
2
 10
732325.424527812
 20
4201725.52508426
 10
732303.808366701
 20
4201686.77214581
  0
LWPOLYLINE
  5
202FD
100
AcDbEntity
  8
0
100
AcDbPolyline
 70
0
 90
2
 10
732226.439903949
 20
4201781.60981683
 10
732204.718440178
 20
4201742.96546307
  0
LWPOLYLINE
  5
202FE
100
AcDbEntity
  8
0
100
AcDbPolyline
 70
0
 90
2
 10
732180.88464357
 20
4201807.42199268
 10
732226.439903949
 20
4201781.60981683
  0
LWPOLYLINE
  5
202FF
100
AcDbEntity
  8
0
100
AcDbPolyline
 70
0
 90
2
 10
732180.88464357
 20
4201807.42199268
 10
732159.117792872
 20
4201768.82590706
  0
LWPOLYLINE
  5
20300
100
AcDbEntity
  8
0
100
AcDbPolyline
 70
0
 90
2
 10
732135.261191905
 20
4201833.27334047
 10
732180.88464357
 20
4201807.42199268
  0
LWPOLYLINE
  5
20301
100
AcDbEntity
  8
0
100
AcDbPolyline
 70
0
 90
2
 10
732135.261191905
 20
4201833.27334047
 10
732113.473005693
 20
4201794.71187778
  0
LWPOLYLINE
  5
20302
100
AcDbEntity
  8
0
100
AcDbPolyline
 70
0
 90
2
 10
732091.600398492
 20
4201858.01290549
 10
732135.261191905
 20
4201833.27334047
  0
LWPOLYLINE
  5
20303
100
AcDbEntity
  8
0
100
AcDbPolyline
 70
0
 90
2
 10
732091.600398492
 20
4201858.01290549
 10
732069.778124309
 20
4201819.49236289
  0
LWPOLYLINE
  5
20304
100
AcDbEntity
  8
0
100
AcDbPolyline
 70
0
 90
2
 10
732069.778124309
 20
4201819.49236289
 10
732113.473005693
 20
4201794.71187778
  0
LWPOLYLINE
  5
20305
100
AcDbEntity
  8
0
100
AcDbPolyline
 70
0
 90
2
 10
732113.473005693
 20
4201794.71187778
 10
732159.117792872
 20
4201768.82590706
  0
LWPOLYLINE
  5
20306
100
AcDbEntity
  8
0
100
AcDbPolyline
 70
0
 90
2
 10
732159.117792872
 20
4201768.82590706
 10
732204.718440178
 20
4201742.96546307
  0
LWPOLYLINE
  5
20307
100
AcDbEntity
  8
0
100
AcDbPolyline
 70
0
 90
2
 10
732388.08574635
 20
4202069.20644596
 10
732363.102588088
 20
4202024.75529332
  0
LWPOLYLINE
  5
20308
100
AcDbEntity
  8
0
100
AcDbPolyline
 70
0
 90
2
 10
732317.830075815
 20
4202050.25879775
 10
732363.102588088
 20
4202024.75529332
  0
LWPOLYLINE
  5
20309
100
AcDbEntity
  8
0
100
AcDbPolyline
 70
0
 90
2
 10
732411.905445001
 20
4202111.58808851
 10
732388.08574635
 20
4202069.20644596
  0
LWPOLYLINE
  5
2030A
100
AcDbEntity
  8
0
100
AcDbPolyline
 70
0
 90
2
 10
732342.923063118
 20
4202094.75657031
 10
732388.08574635
 20
4202069.20644596
  0
LWPOLYLINE
  5
2030B
100
AcDbEntity
  8
0
100
AcDbPolyline
 70
0
 90
2
 10
732433.929859053
 20
4202150.77601084
 10
732411.905445001
 20
4202111.58808851
  0
LWPOLYLINE
  5
2030C
100
AcDbEntity
  8
0
100
AcDbPolyline
 70
0
 90
2
 10
732366.873246084
 20
4202137.22852183
 10
732411.905445001
 20
4202111.58808851
  0
LWPOLYLINE
  5
2030D
100
AcDbEntity
  8
0
100
AcDbPolyline
 70
0
 90
2
 10
732433.929859053
 20
4202150.77601084
 10
732455.665257223
 20
4202189.44987983
  0
LWPOLYLINE
  5
2030E
100
AcDbEntity
  8
0
100
AcDbPolyline
 70
0
 90
2
 10
732388.847538961
 20
4202176.19697263
 10
732433.929859053
 20
4202150.77601084
  0
LWPOLYLINE
  5
2030F
100
AcDbEntity
  8
0
100
AcDbPolyline
 70
0
 90
2
 10
732478.27987616
 20
4202229.6888912
 10
732455.665257223
 20
4202189.44987983
  0
LWPOLYLINE
  5
20310
100
AcDbEntity
  8
0
100
AcDbPolyline
 70
0
 90
2
 10
732410.843725068
 20
4202215.20444135
 10
732455.665257223
 20
4202189.44987983
  0
LWPOLYLINE
  5
20311
100
AcDbEntity
  8
0
100
AcDbPolyline
 70
0
 90
2
 10
732433.421132318
 20
4202255.24344857
 10
732478.27987616
 20
4202229.6888912
  0
LWPOLYLINE
  5
20312
100
AcDbEntity
  8
0
100
AcDbPolyline
 70
0
 90
2
 10
732527.757168043
 20
4202317.72730671
 10
732549.773786986
 20
4202356.90364254
  0
LWPOLYLINE
  5
20313
100
AcDbEntity
  8
0
100
AcDbPolyline
 70
0
 90
2
 10
732482.988436242
 20
4202343.14807001
 10
732527.757168043
 20
4202317.72730671
  0
LWPOLYLINE
  5
20314
100
AcDbEntity
  8
0
100
AcDbPolyline
 70
0
 90
2
 10
732573.59370421
 20
4202399.28946198
 10
732549.773786986
 20
4202356.90364254
  0
LWPOLYLINE
  5
20315
100
AcDbEntity
  8
0
100
AcDbPolyline
 70
0
 90
2
 10
732505.115049641
 20
4202382.38915646
 10
732549.773786986
 20
4202356.90364254
  0
LWPOLYLINE
  5
20316
100
AcDbEntity
  8
0
100
AcDbPolyline
 70
0
 90
2
 10
732595.171199813
 20
4202437.68543079
 10
732573.59370421
 20
4202399.28946198
  0
LWPOLYLINE
  5
20317
100
AcDbEntity
  8
0
100
AcDbPolyline
 70
0
 90
2
 10
732528.912616896
 20
4202424.59404639
 10
732573.59370421
 20
4202399.28946198
  0
LWPOLYLINE
  5
20318
100
AcDbEntity
  8
0
100
AcDbPolyline
 70
0
 90
2
 10
732617.678858312
 20
4202477.73708658
 10
732595.171199813
 20
4202437.68543079
  0
LWPOLYLINE
  5
20319
100
AcDbEntity
  8
0
100
AcDbPolyline
 70
0
 90
2
 10
732550.575749736
 20
4202463.01409208
 10
732595.171199813
 20
4202437.68543079
  0
LWPOLYLINE
  5
2031A
100
AcDbEntity
  8
0
100
AcDbPolyline
 70
0
 90
2
 10
732573.171965934
 20
4202503.08934749
 10
732617.678858312
 20
4202477.73708658
  0
LWPOLYLINE
  5
2031B
100
AcDbEntity
  8
0
100
AcDbPolyline
 70
0
 90
2
 10
732342.923063118
 20
4202094.75657031
 10
732317.830075815
 20
4202050.25879775
  0
LWPOLYLINE
  5
2031C
100
AcDbEntity
  8
0
100
AcDbPolyline
 70
0
 90
2
 10
732272.337673439
 20
4202075.88657567
 10
732317.830075815
 20
4202050.25879775
  0
LWPOLYLINE
  5
2031D
100
AcDbEntity
  8
0
100
AcDbPolyline
 70
0
 90
2
 10
732342.923063118
 20
4202094.75657031
 10
732366.873246084
 20
4202137.22852183
  0
LWPOLYLINE
  5
2031E
100
AcDbEntity
  8
0
100
AcDbPolyline
 70
0
 90
2
 10
732297.513294324
 20
4202120.4469658
 10
732342.923063118
 20
4202094.75657031
  0
LWPOLYLINE
  5
2031F
100
AcDbEntity
  8
0
100
AcDbPolyline
 70
0
 90
2
 10
732388.847538961
 20
4202176.19697263
 10
732366.873246084
 20
4202137.22852183
  0
LWPOLYLINE
  5
20320
100
AcDbEntity
  8
0
100
AcDbPolyline
 70
0
 90
2
 10
732321.568191803
 20
4202163.02459761
 10
732366.873246084
 20
4202137.22852183
  0
LWPOLYLINE
  5
20321
100
AcDbEntity
  8
0
100
AcDbPolyline
 70
0
 90
2
 10
732410.843725068
 20
4202215.20444135
 10
732388.847538961
 20
4202176.19697263
  0
LWPOLYLINE
  5
20322
100
AcDbEntity
  8
0
100
AcDbPolyline
 70
0
 90
2
 10
732343.467103783
 20
4202201.78641011
 10
732388.847538961
 20
4202176.19697263
  0
LWPOLYLINE
  5
20323
100
AcDbEntity
  8
0
100
AcDbPolyline
 70
0
 90
2
 10
732433.421132318
 20
4202255.24344857
 10
732410.843725068
 20
4202215.20444135
  0
LWPOLYLINE
  5
20324
100
AcDbEntity
  8
0
100
AcDbPolyline
 70
0
 90
2
 10
732365.701988781
 20
4202241.14339689
 10
732410.843725068
 20
4202215.20444135
  0
LWPOLYLINE
  5
20325
100
AcDbEntity
  8
0
100
AcDbPolyline
 70
0
 90
2
 10
732388.216385077
 20
4202280.9956617
 10
732433.421132318
 20
4202255.24344857
  0
LWPOLYLINE
  5
20326
100
AcDbEntity
  8
0
100
AcDbPolyline
 70
0
 90
2
 10
732505.115049641
 20
4202382.38915646
 10
732482.988436242
 20
4202343.14807001
  0
LWPOLYLINE
  5
20327
100
AcDbEntity
  8
0
100
AcDbPolyline
 70
0
 90
2
 10
732437.818648209
 20
4202368.7970214
 10
732482.988436242
 20
4202343.14807001
  0
LWPOLYLINE
  5
20328
100
AcDbEntity
  8
0
100
AcDbPolyline
 70
0
 90
2
 10
732528.912616896
 20
4202424.59404639
 10
732505.115049641
 20
4202382.38915646
  0
LWPOLYLINE
  5
20329
100
AcDbEntity
  8
0
100
AcDbPolyline
 70
0
 90
2
 10
732460.031706314
 20
4202408.11751475
 10
732505.115049641
 20
4202382.38915646
  0
LWPOLYLINE
  5
2032A
100
AcDbEntity
  8
0
100
AcDbPolyline
 70
0
 90
2
 10
732528.912616896
 20
4202424.59404639
 10
732550.575749736
 20
4202463.01409208
  0
LWPOLYLINE
  5
2032B
100
AcDbEntity
  8
0
100
AcDbPolyline
 70
0
 90
2
 10
732483.779445708
 20
4202450.15502155
 10
732528.912616896
 20
4202424.59404639
  0
LWPOLYLINE
  5
2032C
100
AcDbEntity
  8
0
100
AcDbPolyline
 70
0
 90
2
 10
732573.171965934
 20
4202503.08934749
 10
732550.575749736
 20
4202463.01409208
  0
LWPOLYLINE
  5
2032D
100
AcDbEntity
  8
0
100
AcDbPolyline
 70
0
 90
2
 10
732505.504860734
 20
4202488.61313954
 10
732550.575749736
 20
4202463.01409208
  0
LWPOLYLINE
  5
2032E
100
AcDbEntity
  8
0
100
AcDbPolyline
 70
0
 90
2
 10
732528.165202968
 20
4202528.72673667
 10
732573.171965934
 20
4202503.08934749
  0
LWPOLYLINE
  5
2032F
100
AcDbEntity
  8
0
100
AcDbPolyline
 70
0
 90
2
 10
732485.342633175
 20
4202553.12022804
 10
732462.606794151
 20
4202512.97862306
  0
LWPOLYLINE
  5
20330
100
AcDbEntity
  8
0
100
AcDbPolyline
 70
0
 90
2
 10
732485.342633175
 20
4202553.12022804
 10
732528.165202968
 20
4202528.72673667
  0
LWPOLYLINE
  5
20331
100
AcDbEntity
  8
0
100
AcDbPolyline
 70
0
 90
2
 10
732462.606794151
 20
4202512.97862306
 10
732440.808011624
 20
4202474.49199758
  0
LWPOLYLINE
  5
20332
100
AcDbEntity
  8
0
100
AcDbPolyline
 70
0
 90
2
 10
732462.606794151
 20
4202512.97862306
 10
732505.504860734
 20
4202488.61313954
  0
LWPOLYLINE
  5
20333
100
AcDbEntity
  8
0
100
AcDbPolyline
 70
0
 90
2
 10
732440.808011624
 20
4202474.49199758
 10
732483.779445708
 20
4202450.15502155
  0
LWPOLYLINE
  5
20334
100
AcDbEntity
  8
0
100
AcDbPolyline
 70
0
 90
2
 10
732417.092852615
 20
4202432.62237631
 10
732440.808011624
 20
4202474.49199758
  0
LWPOLYLINE
  5
20335
100
AcDbEntity
  8
0
100
AcDbPolyline
 70
0
 90
2
 10
732417.092852615
 20
4202432.62237631
 10
732394.783076973
 20
4202393.23439668
  0
LWPOLYLINE
  5
20336
100
AcDbEntity
  8
0
100
AcDbPolyline
 70
0
 90
2
 10
732417.092852615
 20
4202432.62237631
 10
732460.031706314
 20
4202408.11751475
  0
LWPOLYLINE
  5
20337
100
AcDbEntity
  8
0
100
AcDbPolyline
 70
0
 90
2
 10
732394.783076973
 20
4202393.23439668
 10
732437.818648209
 20
4202368.7970214
  0
LWPOLYLINE
  5
20338
100
AcDbEntity
  8
0
100
AcDbPolyline
 70
0
 90
2
 10
732345.116121974
 20
4202305.5492136
 10
732388.216385077
 20
4202280.9956617
  0
LWPOLYLINE
  5
20339
100
AcDbEntity
  8
0
100
AcDbPolyline
 70
0
 90
2
 10
732322.64795624
 20
4202265.88320784
 10
732345.116121974
 20
4202305.5492136
  0
LWPOLYLINE
  5
2033A
100
AcDbEntity
  8
0
100
AcDbPolyline
 70
0
 90
2
 10
732322.64795624
 20
4202265.88320784
 10
732300.170512662
 20
4202226.2012475
  0
LWPOLYLINE
  5
2033B
100
AcDbEntity
  8
0
100
AcDbPolyline
 70
0
 90
2
 10
732322.64795624
 20
4202265.88320784
 10
732365.701988781
 20
4202241.14339689
  0
LWPOLYLINE
  5
2033C
100
AcDbEntity
  8
0
100
AcDbPolyline
 70
0
 90
2
 10
732300.170512662
 20
4202226.2012475
 10
732278.329975091
 20
4202187.64425086
  0
LWPOLYLINE
  5
2033D
100
AcDbEntity
  8
0
100
AcDbPolyline
 70
0
 90
2
 10
732300.170512662
 20
4202226.2012475
 10
732343.467103783
 20
4202201.78641011
  0
LWPOLYLINE
  5
2033E
100
AcDbEntity
  8
0
100
AcDbPolyline
 70
0
 90
2
 10
732278.329975091
 20
4202187.64425086
 10
732254.159515726
 20
4202144.97450923
  0
LWPOLYLINE
  5
2033F
100
AcDbEntity
  8
0
100
AcDbPolyline
 70
0
 90
2
 10
732278.329975091
 20
4202187.64425086
 10
732321.568191803
 20
4202163.02459761
  0
LWPOLYLINE
  5
20340
100
AcDbEntity
  8
0
100
AcDbPolyline
 70
0
 90
2
 10
732254.159515726
 20
4202144.97450923
 10
732228.888964299
 20
4202100.36347542
  0
LWPOLYLINE
  5
20341
100
AcDbEntity
  8
0
100
AcDbPolyline
 70
0
 90
2
 10
732254.159515726
 20
4202144.97450923
 10
732297.513294324
 20
4202120.4469658
  0
LWPOLYLINE
  5
20342
100
AcDbEntity
  8
0
100
AcDbPolyline
 70
0
 90
2
 10
732228.888964299
 20
4202100.36347542
 10
732272.337673439
 20
4202075.88657567
  0
LWPOLYLINE
  5
20343
100
AcDbEntity
  8
0
100
AcDbPolyline
 70
0
 90
2
 10
732297.513294324
 20
4202120.4469658
 10
732272.337673439
 20
4202075.88657567
  0
LWPOLYLINE
  5
20344
100
AcDbEntity
  8
0
100
AcDbPolyline
 70
0
 90
2
 10
732321.568191803
 20
4202163.02459761
 10
732297.513294324
 20
4202120.4469658
  0
LWPOLYLINE
  5
20345
100
AcDbEntity
  8
0
100
AcDbPolyline
 70
0
 90
2
 10
732343.467103783
 20
4202201.78641011
 10
732321.568191803
 20
4202163.02459761
  0
LWPOLYLINE
  5
20346
100
AcDbEntity
  8
0
100
AcDbPolyline
 70
0
 90
2
 10
732343.467103783
 20
4202201.78641011
 10
732365.701988781
 20
4202241.14339689
  0
LWPOLYLINE
  5
20347
100
AcDbEntity
  8
0
100
AcDbPolyline
 70
0
 90
2
 10
732388.216385077
 20
4202280.9956617
 10
732365.701988781
 20
4202241.14339689
  0
LWPOLYLINE
  5
20348
100
AcDbEntity
  8
0
100
AcDbPolyline
 70
0
 90
2
 10
732437.818648209
 20
4202368.7970214
 10
732460.031706314
 20
4202408.11751475
  0
LWPOLYLINE
  5
20349
100
AcDbEntity
  8
0
100
AcDbPolyline
 70
0
 90
2
 10
732483.779445708
 20
4202450.15502155
 10
732460.031706314
 20
4202408.11751475
  0
LWPOLYLINE
  5
2034A
100
AcDbEntity
  8
0
100
AcDbPolyline
 70
0
 90
2
 10
732505.504860734
 20
4202488.61313954
 10
732483.779445708
 20
4202450.15502155
  0
LWPOLYLINE
  5
2034B
100
AcDbEntity
  8
0
100
AcDbPolyline
 70
0
 90
2
 10
732528.165202968
 20
4202528.72673667
 10
732505.504860734
 20
4202488.61313954
  0
LWPOLYLINE
  5
2034C
100
AcDbEntity
  8
0
100
AcDbPolyline
 70
0
 90
2
 10
732528.165202968
 20
4202528.72673667
 10
732551.249409633
 20
4202569.59118642
  0
ENDSEC
  0
SECTION
  2
OBJECTS
  0
DICTIONARY
  5
C
330
0
100
AcDbDictionary
281
     1
  3
ACAD_GROUP
350
D
  3
ACAD_LAYOUT
350
1A
  3
ACAD_MLEADERSTYLE
350
43
  3
ACAD_PLOTSETTINGS
350
19
  3
ACAD_PLOTSTYLENAME
350
E
  3
ACAD_TABLESTYLE
350
42
  0
DICTIONARY
  5
D
102
{ACAD_REACTORS
330
C
102
}
330
C
100
AcDbDictionary
281
     1
  0
DICTIONARY
  5
1A
102
{ACAD_REACTORS
330
C
102
}
330
C
100
AcDbDictionary
281
     1
  3
Layout1
350
1E
  3
Model
350
22
  0
DICTIONARY
  5
43
102
{ACAD_REACTORS
330
C
102
}
330
C
100
AcDbDictionary
281
     1
  0
DICTIONARY
  5
19
102
{ACAD_REACTORS
330
C
102
}
330
C
100
AcDbDictionary
281
     1
  0
ACDBDICTIONARYWDFLT
  5
E
102
{ACAD_REACTORS
330
C
102
}
330
C
100
AcDbDictionary
281
     1
  3
Normal
350
F
100
AcDbDictionaryWithDefault
340
F
  0
DICTIONARY
  5
42
102
{ACAD_REACTORS
330
C
102
}
330
C
100
AcDbDictionary
281
     1
  0
LAYOUT
  5
1E
102
{ACAD_REACTORS
330
1A
102
}
330
1A
100
AcDbPlotSettings
  1

  2
none_device
  4

  6

 40
0.0
 41
0.0
 42
0.0
 43
0.0
 44
0.0
 45
0.0
 46
0.0
 47
0.0
 48
0.0
 49
0.0
140
0.0
141
0.0
142
1.0
143
1.0
 70
   688
 72
     0
 73
     0
 74
     5
  7

 75
    16
 76
     0
 77
     2
 78
   300
147
1.0
148
0.0
149
0.0
100
AcDbLayout
  1
Layout1
 70
     1
 71
     1
 10
0.0
 20
0.0
 11
12.0
 21
9.0
 12
0.0
 22
0.0
 32
0.0
 14
1.000000000000000E+20
 24
1.000000000000000E+20
 34
1.000000000000000E+20
 15
-1.000000000000000E+20
 25
-1.000000000000000E+20
 35
-1.000000000000000E+20
146
0.0
 13
0.0
 23
0.0
 33
0.0
 16
1.0
 26
0.0
 36
0.0
 17
0.0
 27
1.0
 37
0.0
 76
     0
330
1B
  0
LAYOUT
  5
22
102
{ACAD_REACTORS
330
1A
102
}
330
1A
100
AcDbPlotSettings
  1

  2
none_device
  4

  6

 40
0.0
 41
0.0
 42
0.0
 43
0.0
 44
0.0
 45
0.0
 46
0.0
 47
0.0
 48
0.0
 49
0.0
140
0.0
141
0.0
142
1.0
143
1.0
 70
  1712
 72
     0
 73
     0
 74
     0
  7

 75
     0
 76
     0
 77
     2
 78
   300
147
1.0
148
0.0
149
0.0
100
AcDbLayout
  1
Model
 70
     1
 71
     0
 10
0.0
 20
0.0
 11
12.0
 21
9.0
 12
0.0
 22
0.0
 32
0.0
 14
30.0
 24
49.75
 34
0.0
 15
130.5
 25
163.1318914119703
 35
0.0
146
0.0
 13
0.0
 23
0.0
 33
0.0
 16
1.0
 26
0.0
 36
0.0
 17
0.0
 27
1.0
 37
0.0
 76
     0
330
1F
331
29
  0
ENDSEC
  0
EOF
