  0
SECTION
  2
HEADER
  9
$ACADVER
  1
AC1018
  9
$ACADMAINTVER
 70
     0
  9
$DWGCODEPAGE
  3
ANSI_1252
  9
$EXTMIN
 10
657942.322090081
 20
3845988.20747541
 30
0.0
  9
$EXTMAX
 10
658794.289071972
 20
3846959.15177278
 30
0.0
  9
$LIMMIN
 10
0.0
 20
0.0
  9
$LIMMAX
 10
12.0
 20
9.0
  9
$ORTHOMODE
 70
     0
  9
$REGENMODE
 70
     1
  9
$FILLMODE
 70
     1
  9
$QTEXTMODE
 70
     0
  9
$MIRRTEXT
 70
     1
  9
$LTSCALE
 40
1.0
  9
$ATTMODE
 70
     1
  9
$TEXTSIZE
 40
0.2
  9
$TRACEWID
 40
0.05
  9
$TEXTSTYLE
  7
Standard
  9
$CLAYER
  8
0
  9
$CELTYPE
  6
ByLayer
  9
$CECOLOR
 62
   256
  9
$CELTSCALE
 40
1.0
  9
$DISPSILH
 70
     0
  9
$LUNITS
 70
     2
  9
$LUPREC
 70
     4
  9
$SKETCHINC
 40
0.1
  9
$FILLETRAD
 40
0.5
  9
$AUNITS
 70
     0
  9
$AUPREC
 70
     0
  9
$MENU
  1
.
  9
$ELEVATION
 40
0.0
  9
$PELEVATION
 40
0.0
  9
$THICKNESS
 40
0.0
  9
$LIMCHECK
 70
     0
  9
$CHAMFERA
 40
0.5
  9
$CHAMFERB
 40
0.5
  9
$CHAMFERC
 40
1.0
  9
$CHAMFERD
 40
0.0
  9
$SKPOLY
 70
     0
  9
$ANGBASE
 50
0.0
  9
$ANGDIR
 70
     0
  9
$PDMODE
 70
     0
  9
$PDSIZE
 40
0.0
  9
$PLINEWID
 40
0.0
  9
$SPLFRAME
 70
     0
  9
$SPLINETYPE
 70
     6
  9
$SPLINESEGS
 70
     8
  9
$HANDSEED
  5
00020116
  9
$SURFTAB1
 70
     6
  9
$SURFTAB2
 70
     6
  9
$SURFTYPE
 70
     6
  9
$SURFU
 70
     6
  9
$SURFV
 70
     6
  9
$UCSBASE
  2

  9
$UCSNAME
  2

  9
$UCSORG
 10
0.0
 20
0.0
 30
0.0
  9
$UCSXDIR
 10
1.0
 20
0.0
 30
0.0
  9
$UCSYDIR
 10
0.0
 20
1.0
 30
0.0
  9
$UCSORTHOREF
  2

  9
$UCSORTHOVIEW
 70
     0
  9
$UCSORGTOP
 10
0.0
 20
0.0
 30
0.0
  9
$UCSORGBOTTOM
 10
0.0
 20
0.0
 30
0.0
  9
$UCSORGLEFT
 10
0.0
 20
0.0
 30
0.0
  9
$UCSORGRIGHT
 10
0.0
 20
0.0
 30
0.0
  9
$UCSORGFRONT
 10
0.0
 20
0.0
 30
0.0
  9
$UCSORGBACK
 10
0.0
 20
0.0
 30
0.0
  9
$PUCSBASE
  2

  9
$PUCSNAME
  2

  9
$PUCSORG
 10
0.0
 20
0.0
 30
0.0
  9
$PUCSXDIR
 10
1.0
 20
0.0
 30
0.0
  9
$PUCSYDIR
 10
0.0
 20
1.0
 30
0.0
  9
$PUCSORTHOREF
  2

  9
$PUCSORTHOVIEW
 70
     0
  9
$PUCSORGTOP
 10
0.0
 20
0.0
 30
0.0
  9
$PUCSORGBOTTOM
 10
0.0
 20
0.0
 30
0.0
  9
$PUCSORGLEFT
 10
0.0
 20
0.0
 30
0.0
  9
$PUCSORGRIGHT
 10
0.0
 20
0.0
 30
0.0
  9
$PUCSORGFRONT
 10
0.0
 20
0.0
 30
0.0
  9
$PUCSORGBACK
 10
0.0
 20
0.0
 30
0.0
  9
$WORLDVIEW
 70
     1
  9
$SHADEDGE
 70
     3
  9
$SHADEDIF
 70
    70
  9
$TILEMODE
 70
     1
  9
$MAXACTVP
 70
    64
  9
$PINSBASE
 10
0.0
 20
0.0
 30
0.0
  9
$PLIMCHECK
 70
     0
  9
$PEXTMIN
 10
1.000000000000000E+20
 20
1.000000000000000E+20
 30
1.000000000000000E+20
  9
$PEXTMAX
 10
-1.000000000000000E+20
 20
-1.000000000000000E+20
 30
-1.000000000000000E+20
  9
$PLIMMIN
 10
0.0
 20
0.0
  9
$PLIMMAX
 10
12.0
 20
9.0
  9
$UNITMODE
 70
     0
  9
$VISRETAIN
 70
     1
  9
$PLINEGEN
 70
     0
  9
$PSLTSCALE
 70
     1
  9
$TREEDEPTH
 70
  3020
  9
$CMLSTYLE
  2
Standard
  9
$CMLJUST
 70
     0
  9
$CMLSCALE
 40
1.0
  9
$PROXYGRAPHICS
 70
     1
  9
$MEASUREMENT
 70
     0
  9
$CELWEIGHT
370
    -1
  9
$ENDCAPS
280
     0
  9
$JOINSTYLE
280
     0
  9
$LWDISPLAY
290
     0
  9
$INSUNITS
 70
     1
  9
$HYPERLINKBASE
  1

  9
$STYLESHEET
  1

  9
$XEDIT
290
     1
  9
$CEPSNTYPE
380
     0
  9
$PSTYLEMODE
290
     1
  9
$EXTNAMES
290
     1
  9
$PSVPSCALE
 40
0.0
  9
$OLESTARTUP
290
     0
  9
$SORTENTS
280
   127
  9
$INDEXCTL
280
     0
  9
$HIDETEXT
280
     1
  9
$XCLIPFRAME
290
     0
  9
$HALOGAP
280
     0
  9
$OBSCOLOR
 70
   257
  9
$OBSLTYPE
280
     0
  9
$INTERSECTIONDISPLAY
280
     0
  9
$INTERSECTIONCOLOR
 70
   257
  9
$DIMASSOC
280
     2
  9
$PROJECTNAME
  1

  0
ENDSEC
  0
SECTION
  2
CLASSES
  0
CLASS
  1
ACDBDICTIONARYWDFLT
  2
AcDbDictionaryWithDefault
  3
ObjectDBX Classes
 90
        0
 91
        4
280
     0
281
     0
  0
ENDSEC
  0
SECTION
  2
TABLES
  0
TABLE
  2
VPORT
  5
8
330
0
100
AcDbSymbolTable
 70
     1
  0
VPORT
  5
29
330
8
100
AcDbSymbolTableRecord
100
AcDbViewportTableRecord
  2
*Active
 70
     0
 10
0.0
 20
0.0
 11
1.0
 21
1.0
 12
80.25
 22
106.4409457059851
 13
0.0
 23
0.0
 14
0.5
 24
0.5
 15
0.5
 25
0.5
 16
0.0
 26
0.0
 36
1.0
 17
0.0
 27
0.0
 37
0.0
 40
113.3818914119703
 41
0.8863849310366128
 42
50.0
 43
0.0
 44
0.0
 50
0.0
 51
0.0
 71
     0
 72
  1000
 73
     1
 74
     3
 75
     0
 76
     0
 77
     0
 78
     0
281
     0
 65
     1
110
0.0
120
0.0
130
0.0
111
1.0
121
0.0
131
0.0
112
0.0
122
1.0
132
0.0
 79
     0
146
0.0
  0
ENDTAB
  0
TABLE
  2
LTYPE
  5
5
330
0
100
AcDbSymbolTable
 70
     1
  0
LTYPE
  5
14
330
5
100
AcDbSymbolTableRecord
100
AcDbLinetypeTableRecord
  2
ByBlock
 70
     0
  3

 72
    65
 73
     0
 40
0.0
  0
LTYPE
  5
15
330
5
100
AcDbSymbolTableRecord
100
AcDbLinetypeTableRecord
  2
ByLayer
 70
     0
  3

 72
    65
 73
     0
 40
0.0
  0
LTYPE
  5
16
330
5
100
AcDbSymbolTableRecord
100
AcDbLinetypeTableRecord
  2
Continuous
 70
     0
  3
Solid line
 72
    65
 73
     0
 40
0.0
  0
ENDTAB
  0
TABLE
  2
LAYER
  5
2
330
0
100
AcDbSymbolTable
 70
     1
  0
LAYER
  5
10
330
2
100
AcDbSymbolTableRecord
100
AcDbLayerTableRecord
  2
0
 70
     0
 62
     7
  6
Continuous
370
    -3
390
F
  0
ENDTAB
  0
TABLE
  2
STYLE
  5
3
330
0
100
AcDbSymbolTable
 70
     1
  0
STYLE
  5
11
330
3
100
AcDbSymbolTableRecord
100
AcDbTextStyleTableRecord
  2
Standard
 70
     0
 40
0.0
 41
1.0
 50
0.0
 71
     0
 42
0.2
  3
txt
  4

  0
ENDTAB
  0
TABLE
  2
VIEW
  5
6
330
0
100
AcDbSymbolTable
 70
     0
  0
ENDTAB
  0
TABLE
  2
UCS
  5
7
330
0
100
AcDbSymbolTable
 70
     0
  0
ENDTAB
  0
TABLE
  2
APPID
  5
9
330
0
100
AcDbSymbolTable
 70
     1
  0
APPID
  5
12
330
9
100
AcDbSymbolTableRecord
100
AcDbRegAppTableRecord
  2
ACAD
 70
     0
  0
ENDTAB
  0
TABLE
  2
DIMSTYLE
  5
A
330
0
100
AcDbSymbolTable
 70
     1
100
AcDbDimStyleTable
  0
DIMSTYLE
105
27
330
A
100
AcDbSymbolTableRecord
100
AcDbDimStyleTableRecord
  2
Standard
 70
     0
340
11
  0
ENDTAB
  0
TABLE
  2
BLOCK_RECORD
  5
1
330
0
100
AcDbSymbolTable
 70
     1
  0
BLOCK_RECORD
  5
1F
330
1
100
AcDbSymbolTableRecord
100
AcDbBlockTableRecord
  2
*Model_Space
340
22
  0
BLOCK_RECORD
  5
1B
330
1
100
AcDbSymbolTableRecord
100
AcDbBlockTableRecord
  2
*Paper_Space
340
1E
  0
ENDTAB
  0
ENDSEC
  0
SECTION
  2
BLOCKS
  0
BLOCK
  5
20
330
1F
100
AcDbEntity
  8
0
100
AcDbBlockBegin
  2
*Model_Space
 70
     0
 10
0.0
 20
0.0
 30
0.0
  3
*Model_Space
  1

  0
ENDBLK
  5
21
330
1F
100
AcDbEntity
  8
0
100
AcDbBlockEnd
  0
BLOCK
  5
1C
330
1B
100
AcDbEntity
 67
     1
  8
0
100
AcDbBlockBegin
  2
*Paper_Space
 70
     0
 10
0.0
 20
0.0
 30
0.0
  3
*Paper_Space
  1

  0
ENDBLK
  5
1D
330
1B
100
AcDbEntity
 67
     1
  8
0
100
AcDbBlockEnd
  0
ENDSEC
  0
SECTION
  2
ENTITIES
  0
LWPOLYLINE
  5
20000
100
AcDbEntity
  8
0
100
AcDbPolyline
 70
0
 90
2
 10
657968.656435251
 20
3846761.3497872
 10
657981.193676504
 20
3846736.60435939
  0
LWPOLYLINE
  5
20001
100
AcDbEntity
  8
0
100
AcDbPolyline
 70
0
 90
2
 10
657981.193676504
 20
3846736.60435939
 10
658014.875370617
 20
3846670.12595131
  0
LWPOLYLINE
  5
20002
100
AcDbEntity
  8
0
100
AcDbPolyline
 70
0
 90
3
 10
657981.193676504
 20
3846736.60435939
 10
657942.322090081
 20
3846718.92781243
 10
657976.377891303
 20
3846652.74781124
  0
LWPOLYLINE
  5
20003
100
AcDbEntity
  8
0
100
AcDbPolyline
 70
0
 90
2
 10
658019.790905328
 20
3846754.15643682
 10
657981.193676504
 20
3846736.60435939
  0
LWPOLYLINE
  5
20004
100
AcDbEntity
  8
0
100
AcDbPolyline
 70
0
 90
2
 10
658014.875370617
 20
3846670.12595131
 10
658050.290008655
 20
3846600.22823262
  0
LWPOLYLINE
  5
20005
100
AcDbEntity
  8
0
100
AcDbPolyline
 70
0
 90
2
 10
658014.875370617
 20
3846670.12595131
 10
657976.377891303
 20
3846652.74781124
  0
LWPOLYLINE
  5
20006
100
AcDbEntity
  8
0
100
AcDbPolyline
 70
0
 90
2
 10
658053.88882097
 20
3846687.73745164
 10
658014.875370617
 20
3846670.12595131
  0
LWPOLYLINE
  5
20007
100
AcDbEntity
  8
0
100
AcDbPolyline
 70
0
 90
2
 10
658050.290008655
 20
3846600.22823262
 10
658085.200986711
 20
3846531.32555628
  0
LWPOLYLINE
  5
20008
100
AcDbEntity
  8
0
100
AcDbPolyline
 70
0
 90
2
 10
658050.290008655
 20
3846600.22823262
 10
658014.347268783
 20
3846583.25684734
  0
LWPOLYLINE
  5
20009
100
AcDbEntity
  8
0
100
AcDbPolyline
 70
0
 90
2
 10
658089.34684818
 20
3846618.67024026
 10
658050.290008655
 20
3846600.22823262
  0
LWPOLYLINE
  5
2000A
100
AcDbEntity
  8
0
100
AcDbPolyline
 70
0
 90
2
 10
658085.200986711
 20
3846531.32555628
 10
658122.486798671
 20
3846457.73712325
  0
LWPOLYLINE
  5
2000B
100
AcDbEntity
  8
0
100
AcDbPolyline
 70
0
 90
2
 10
658085.200986711
 20
3846531.32555628
 10
658048.45209478
 20
3846513.85892924
  0
LWPOLYLINE
  5
2000C
100
AcDbEntity
  8
0
100
AcDbPolyline
 70
0
 90
2
 10
658124.579887798
 20
3846550.04238028
 10
658085.200986711
 20
3846531.32555628
  0
LWPOLYLINE
  5
2000D
100
AcDbEntity
  8
0
100
AcDbPolyline
 70
0
 90
2
 10
658122.486798671
 20
3846457.73712325
 10
658158.134834633
 20
3846387.38213788
  0
LWPOLYLINE
  5
2000E
100
AcDbEntity
  8
0
100
AcDbPolyline
 70
0
 90
2
 10
658122.486798671
 20
3846457.73712325
 10
658085.017538757
 20
3846439.45520408
  0
LWPOLYLINE
  5
2000F
100
AcDbEntity
  8
0
100
AcDbPolyline
 70
0
 90
2
 10
658162.057175431
 20
3846477.04437925
 10
658122.486798671
 20
3846457.73712325
  0
LWPOLYLINE
  5
20010
100
AcDbEntity
  8
0
100
AcDbPolyline
 70
0
 90
2
 10
658158.134834633
 20
3846387.38213788
 10
658195.816456475
 20
3846313.01495831
  0
LWPOLYLINE
  5
20011
100
AcDbEntity
  8
0
100
AcDbPolyline
 70
0
 90
2
 10
658158.134834633
 20
3846387.38213788
 10
658197.793868673
 20
3846407.43780952
  0
LWPOLYLINE
  5
20012
100
AcDbEntity
  8
0
100
AcDbPolyline
 70
0
 90
2
 10
658158.134834633
 20
3846387.38213788
 10
658120.0695317
 20
3846368.13252202
  0
LWPOLYLINE
  5
20013
100
AcDbEntity
  8
0
100
AcDbPolyline
 70
0
 90
2
 10
658195.816456475
 20
3846313.01495831
 10
658231.703857371
 20
3846242.18994186
  0
LWPOLYLINE
  5
20014
100
AcDbEntity
  8
0
100
AcDbPolyline
 70
0
 90
2
 10
658236.189321534
 20
3846332.65370958
 10
658195.816456475
 20
3846313.01495831
  0
LWPOLYLINE
  5
20015
100
AcDbEntity
  8
0
100
AcDbPolyline
 70
0
 90
2
 10
658156.545915083
 20
3846293.91255751
 10
658195.816456475
 20
3846313.01495831
  0
LWPOLYLINE
  5
20016
100
AcDbEntity
  8
0
100
AcDbPolyline
 70
0
 90
2
 10
658231.703857371
 20
3846242.18994186
 10
658266.649627147
 20
3846173.22432253
  0
LWPOLYLINE
  5
20017
100
AcDbEntity
  8
0
100
AcDbPolyline
 70
0
 90
2
 10
658231.703857371
 20
3846242.18994186
 10
658191.609295889
 20
3846222.56900041
  0
LWPOLYLINE
  5
20018
100
AcDbEntity
  8
0
100
AcDbPolyline
 70
0
 90
2
 10
658272.408496099
 20
3846262.10968065
 10
658231.703857371
 20
3846242.18994186
  0
LWPOLYLINE
  5
20019
100
AcDbEntity
  8
0
100
AcDbPolyline
 70
0
 90
2
 10
658266.649627147
 20
3846173.22432253
 10
658299.134258223
 20
3846109.1167849
  0
LWPOLYLINE
  5
2001A
100
AcDbEntity
  8
0
100
AcDbPolyline
 70
0
 90
2
 10
658266.649627147
 20
3846173.22432253
 10
658225.979500127
 20
3846152.63680036
  0
LWPOLYLINE
  5
2001B
100
AcDbEntity
  8
0
100
AcDbPolyline
 70
0
 90
2
 10
658307.442866242
 20
3846193.87428377
 10
658266.649627147
 20
3846173.22432253
  0
LWPOLYLINE
  5
2001C
100
AcDbEntity
  8
0
100
AcDbPolyline
 70
0
 90
2
 10
658299.134258223
 20
3846109.1167849
 10
658338.464073804
 20
3846031.5016709
  0
LWPOLYLINE
  5
2001D
100
AcDbEntity
  8
0
100
AcDbPolyline
 70
0
 90
2
 10
658299.134258223
 20
3846109.1167849
 10
658257.394230703
 20
3846088.71918831
  0
LWPOLYLINE
  5
2001E
100
AcDbEntity
  8
0
100
AcDbPolyline
 70
0
 90
2
 10
658299.134258223
 20
3846109.1167849
 10
658340.565438637
 20
3846129.36370914
  0
LWPOLYLINE
  5
2001F
100
AcDbEntity
  8
0
100
AcDbPolyline
 70
0
 90
2
 10
658379.882284539
 20
3846052.78994736
 10
658338.464073804
 20
3846031.5016709
  0
LWPOLYLINE
  5
20020
100
AcDbEntity
  8
0
100
AcDbPolyline
 70
0
 90
3
 10
658257.394230703
 20
3846088.71918831
 10
658296.225904198
 20
3846009.71200334
 10
658338.464073804
 20
3846031.5016709
  0
LWPOLYLINE
  5
20021
100
AcDbEntity
  8
0
100
AcDbPolyline
 70
0
 90
2
 10
657999.599772137
 20
3846793.4869214
 10
658019.790905328
 20
3846754.15643682
  0
LWPOLYLINE
  5
20022
100
AcDbEntity
  8
0
100
AcDbPolyline
 70
0
 90
2
 10
658019.790905328
 20
3846754.15643682
 10
658053.88882097
 20
3846687.73745164
  0
LWPOLYLINE
  5
20023
100
AcDbEntity
  8
0
100
AcDbPolyline
 70
0
 90
2
 10
658058.559808954
 20
3846771.78674225
 10
658019.790905328
 20
3846754.15643682
  0
LWPOLYLINE
  5
20024
100
AcDbEntity
  8
0
100
AcDbPolyline
 70
0
 90
2
 10
658053.88882097
 20
3846687.73745164
 10
658089.34684818
 20
3846618.67024026
  0
LWPOLYLINE
  5
20025
100
AcDbEntity
  8
0
100
AcDbPolyline
 70
0
 90
2
 10
658092.876416318
 20
3846705.33736512
 10
658053.88882097
 20
3846687.73745164
  0
LWPOLYLINE
  5
20026
100
AcDbEntity
  8
0
100
AcDbPolyline
 70
0
 90
2
 10
658089.34684818
 20
3846618.67024026
 10
658124.579887798
 20
3846550.04238028
  0
LWPOLYLINE
  5
20027
100
AcDbEntity
  8
0
100
AcDbPolyline
 70
0
 90
2
 10
658128.167915624
 20
3846637.00119894
 10
658089.34684818
 20
3846618.67024026
  0
LWPOLYLINE
  5
20028
100
AcDbEntity
  8
0
100
AcDbPolyline
 70
0
 90
2
 10
658124.579887798
 20
3846550.04238028
 10
658162.057175431
 20
3846477.04437925
  0
LWPOLYLINE
  5
20029
100
AcDbEntity
  8
0
100
AcDbPolyline
 70
0
 90
2
 10
658163.519116245
 20
3846568.55035057
 10
658124.579887798
 20
3846550.04238028
  0
LWPOLYLINE
  5
2002A
100
AcDbEntity
  8
0
100
AcDbPolyline
 70
0
 90
2
 10
658162.057175431
 20
3846477.04437925
 10
658197.793868673
 20
3846407.43780952
  0
LWPOLYLINE
  5
2002B
100
AcDbEntity
  8
0
100
AcDbPolyline
 70
0
 90
2
 10
658200.971745102
 20
3846496.03189452
 10
658162.057175431
 20
3846477.04437925
  0
LWPOLYLINE
  5
2002C
100
AcDbEntity
  8
0
100
AcDbPolyline
 70
0
 90
2
 10
658197.793868673
 20
3846407.43780952
 10
658236.189321534
 20
3846332.65370958
  0
LWPOLYLINE
  5
2002D
100
AcDbEntity
  8
0
100
AcDbPolyline
 70
0
 90
2
 10
658236.593655819
 20
3846427.05929751
 10
658197.793868673
 20
3846407.43780952
  0
LWPOLYLINE
  5
2002E
100
AcDbEntity
  8
0
100
AcDbPolyline
 70
0
 90
2
 10
658236.189321534
 20
3846332.65370958
 10
658272.408496099
 20
3846262.10968065
  0
LWPOLYLINE
  5
2002F
100
AcDbEntity
  8
0
100
AcDbPolyline
 70
0
 90
2
 10
658275.48034295
 20
3846351.76647291
 10
658236.189321534
 20
3846332.65370958
  0
LWPOLYLINE
  5
20030
100
AcDbEntity
  8
0
100
AcDbPolyline
 70
0
 90
2
 10
658272.408496099
 20
3846262.10968065
 10
658307.442866242
 20
3846193.87428377
  0
LWPOLYLINE
  5
20031
100
AcDbEntity
  8
0
100
AcDbPolyline
 70
0
 90
2
 10
658311.823924133
 20
3846281.39890467
 10
658272.408496099
 20
3846262.10968065
  0
LWPOLYLINE
  5
20032
100
AcDbEntity
  8
0
100
AcDbPolyline
 70
0
 90
2
 10
658307.442866242
 20
3846193.87428377
 10
658340.565438637
 20
3846129.36370914
  0
LWPOLYLINE
  5
20033
100
AcDbEntity
  8
0
100
AcDbPolyline
 70
0
 90
2
 10
658307.442866242
 20
3846193.87428377
 10
658346.751883313
 20
3846213.77332622
  0
LWPOLYLINE
  5
20034
100
AcDbEntity
  8
0
100
AcDbPolyline
 70
0
 90
2
 10
658340.565438637
 20
3846129.36370914
 10
658379.882284539
 20
3846052.78994736
  0
LWPOLYLINE
  5
20035
100
AcDbEntity
  8
0
100
AcDbPolyline
 70
0
 90
2
 10
658380.315886363
 20
3846148.78954492
 10
658340.565438637
 20
3846129.36370914
  0
LWPOLYLINE
  5
20036
100
AcDbEntity
  8
0
100
AcDbPolyline
 70
0
 90
2
 10
658419.560050571
 20
3846072.8094474
 10
658379.882284539
 20
3846052.78994736
  0
LWPOLYLINE
  5
20037
100
AcDbEntity
  8
0
100
AcDbPolyline
 70
0
 90
2
 10
658257.394230703
 20
3846088.71918831
 10
658189.278893564
 20
3846055.43306906
  0
LWPOLYLINE
  5
20038
100
AcDbEntity
  8
0
100
AcDbPolyline
 70
0
 90
2
 10
658225.979500127
 20
3846152.63680036
 10
658257.394230703
 20
3846088.71918831
  0
LWPOLYLINE
  5
20039
100
AcDbEntity
  8
0
100
AcDbPolyline
 70
0
 90
2
 10
658189.278893564
 20
3846055.43306906
 10
658212.667673593
 20
3845988.20747541
  0
LWPOLYLINE
  5
2003A
100
AcDbEntity
  8
0
100
AcDbPolyline
 70
0
 90
2
 10
658165.535941077
 20
3846122.04044343
 10
658189.278893564
 20
3846055.43306906
  0
LWPOLYLINE
  5
2003B
100
AcDbEntity
  8
0
100
AcDbPolyline
 70
0
 90
2
 10
658380.315886363
 20
3846148.78954492
 10
658419.560050571
 20
3846072.8094474
  0
LWPOLYLINE
  5
2003C
100
AcDbEntity
  8
0
100
AcDbPolyline
 70
0
 90
2
 10
658419.409153763
 20
3846167.89449401
 10
658380.315886363
 20
3846148.78954492
  0
LWPOLYLINE
  5
2003D
100
AcDbEntity
  8
0
100
AcDbPolyline
 70
0
 90
2
 10
658346.751883313
 20
3846213.77332622
 10
658380.315886363
 20
3846148.78954492
  0
LWPOLYLINE
  5
2003E
100
AcDbEntity
  8
0
100
AcDbPolyline
 70
0
 90
2
 10
658419.409153763
 20
3846167.89449401
 10
658457.893844444
 20
3846094.63785909
  0
LWPOLYLINE
  5
2003F
100
AcDbEntity
  8
0
100
AcDbPolyline
 70
0
 90
2
 10
658457.715116812
 20
3846186.61495514
 10
658419.409153763
 20
3846167.89449401
  0
LWPOLYLINE
  5
20040
100
AcDbEntity
  8
0
100
AcDbPolyline
 70
0
 90
2
 10
658385.107421357
 20
3846233.18983963
 10
658419.409153763
 20
3846167.89449401
  0
LWPOLYLINE
  5
20041
100
AcDbEntity
  8
0
100
AcDbPolyline
 70
0
 90
2
 10
658457.715116812
 20
3846186.61495514
 10
658494.462078467
 20
3846204.57373177
  0
LWPOLYLINE
  5
20042
100
AcDbEntity
  8
0
100
AcDbPolyline
 70
0
 90
2
 10
658457.715116812
 20
3846186.61495514
 10
658496.083370019
 20
3846113.84837844
  0
LWPOLYLINE
  5
20043
100
AcDbEntity
  8
0
100
AcDbPolyline
 70
0
 90
2
 10
658423.034124562
 20
3846252.38956686
 10
658457.715116812
 20
3846186.61495514
  0
LWPOLYLINE
  5
20044
100
AcDbEntity
  8
0
100
AcDbPolyline
 70
0
 90
2
 10
658494.462078467
 20
3846204.57373177
 10
658533.357502629
 20
3846132.59852275
  0
LWPOLYLINE
  5
20045
100
AcDbEntity
  8
0
100
AcDbPolyline
 70
0
 90
2
 10
658535.703366302
 20
3846224.72911294
 10
658494.462078467
 20
3846204.57373177
  0
LWPOLYLINE
  5
20046
100
AcDbEntity
  8
0
100
AcDbPolyline
 70
0
 90
2
 10
658458.830186486
 20
3846270.51089895
 10
658494.462078467
 20
3846204.57373177
  0
LWPOLYLINE
  5
20047
100
AcDbEntity
  8
0
100
AcDbPolyline
 70
0
 90
2
 10
658535.703366302
 20
3846224.72911294
 10
658574.150808199
 20
3846153.1193297
  0
LWPOLYLINE
  5
20048
100
AcDbEntity
  8
0
100
AcDbPolyline
 70
0
 90
2
 10
658570.305381097
 20
3846241.64011601
 10
658535.703366302
 20
3846224.72911294
  0
LWPOLYLINE
  5
20049
100
AcDbEntity
  8
0
100
AcDbPolyline
 70
0
 90
2
 10
658499.947683069
 20
3846291.32643827
 10
658535.703366302
 20
3846224.72911294
  0
LWPOLYLINE
  5
2004A
100
AcDbEntity
  8
0
100
AcDbPolyline
 70
0
 90
2
 10
658570.305381097
 20
3846241.64011601
 10
658610.860556066
 20
3846261.46073958
  0
LWPOLYLINE
  5
2004B
100
AcDbEntity
  8
0
100
AcDbPolyline
 70
0
 90
2
 10
658570.305381097
 20
3846241.64011601
 10
658611.328127159
 20
3846171.82121009
  0
LWPOLYLINE
  5
2004C
100
AcDbEntity
  8
0
100
AcDbPolyline
 70
0
 90
2
 10
658535.080381595
 20
3846309.11236961
 10
658570.305381097
 20
3846241.64011601
  0
LWPOLYLINE
  5
2004D
100
AcDbEntity
  8
0
100
AcDbPolyline
 70
0
 90
2
 10
658610.860556066
 20
3846261.46073958
 10
658648.055739189
 20
3846197.11956543
  0
LWPOLYLINE
  5
2004E
100
AcDbEntity
  8
0
100
AcDbPolyline
 70
0
 90
2
 10
658572.901174047
 20
3846328.25944681
 10
658610.860556066
 20
3846261.46073958
  0
LWPOLYLINE
  5
2004F
100
AcDbEntity
  8
0
100
AcDbPolyline
 70
0
 90
2
 10
658191.609295889
 20
3846222.56900041
 10
658225.979500127
 20
3846152.63680036
  0
LWPOLYLINE
  5
20050
100
AcDbEntity
  8
0
100
AcDbPolyline
 70
0
 90
2
 10
658165.535941077
 20
3846122.04044343
 10
658225.979500127
 20
3846152.63680036
  0
LWPOLYLINE
  5
20051
100
AcDbEntity
  8
0
100
AcDbPolyline
 70
0
 90
2
 10
658156.545915083
 20
3846293.91255751
 10
658191.609295889
 20
3846222.56900041
  0
LWPOLYLINE
  5
20052
100
AcDbEntity
  8
0
100
AcDbPolyline
 70
0
 90
2
 10
658138.896755071
 20
3846196.77374019
 10
658191.609295889
 20
3846222.56900041
  0
LWPOLYLINE
  5
20053
100
AcDbEntity
  8
0
100
AcDbPolyline
 70
0
 90
2
 10
658156.545915083
 20
3846293.91255751
 10
658109.642227149
 20
3846271.09759358
  0
LWPOLYLINE
  5
20054
100
AcDbEntity
  8
0
100
AcDbPolyline
 70
0
 90
2
 10
658120.0695317
 20
3846368.13252202
 10
658156.545915083
 20
3846293.91255751
  0
LWPOLYLINE
  5
20055
100
AcDbEntity
  8
0
100
AcDbPolyline
 70
0
 90
2
 10
658120.0695317
 20
3846368.13252202
 10
658077.3458333
 20
3846346.52759832
  0
LWPOLYLINE
  5
20056
100
AcDbEntity
  8
0
100
AcDbPolyline
 70
0
 90
2
 10
658085.017538757
 20
3846439.45520408
 10
658120.0695317
 20
3846368.13252202
  0
LWPOLYLINE
  5
20057
100
AcDbEntity
  8
0
100
AcDbPolyline
 70
0
 90
2
 10
658085.017538757
 20
3846439.45520408
 10
658045.759332471
 20
3846420.30076992
  0
LWPOLYLINE
  5
20058
100
AcDbEntity
  8
0
100
AcDbPolyline
 70
0
 90
2
 10
658048.45209478
 20
3846513.85892924
 10
658085.017538757
 20
3846439.45520408
  0
LWPOLYLINE
  5
20059
100
AcDbEntity
  8
0
100
AcDbPolyline
 70
0
 90
3
 10
658048.45209478
 20
3846513.85892924
 10
658012.930727018
 20
3846496.97613029
 10
658045.759332471
 20
3846420.30076992
  0
LWPOLYLINE
  5
2005A
100
AcDbEntity
  8
0
100
AcDbPolyline
 70
0
 90
2
 10
658014.347268783
 20
3846583.25684734
 10
658048.45209478
 20
3846513.85892924
  0
LWPOLYLINE
  5
2005B
100
AcDbEntity
  8
0
100
AcDbPolyline
 70
0
 90
2
 10
657976.377891303
 20
3846652.74781124
 10
658014.347268783
 20
3846583.25684734
  0
LWPOLYLINE
  5
2005C
100
AcDbEntity
  8
0
100
AcDbPolyline
 70
0
 90
2
 10
658109.642227149
 20
3846271.09759358
 10
658138.896755071
 20
3846196.77374019
  0
LWPOLYLINE
  5
2005D
100
AcDbEntity
  8
0
100
AcDbPolyline
 70
0
 90
2
 10
658077.3458333
 20
3846346.52759832
 10
658109.642227149
 20
3846271.09759358
  0
LWPOLYLINE
  5
2005E
100
AcDbEntity
  8
0
100
AcDbPolyline
 70
0
 90
2
 10
658138.896755071
 20
3846196.77374019
 10
658165.535941077
 20
3846122.04044343
  0
LWPOLYLINE
  5
2005F
100
AcDbEntity
  8
0
100
AcDbPolyline
 70
0
 90
2
 10
658045.759332471
 20
3846420.30076992
 10
658077.3458333
 20
3846346.52759832
  0
LWPOLYLINE
  5
20060
100
AcDbEntity
  8
0
100
AcDbPolyline
 70
0
 90
2
 10
658163.519116245
 20
3846568.55035057
 10
658200.971745102
 20
3846496.03189452
  0
LWPOLYLINE
  5
20061
100
AcDbEntity
  8
0
100
AcDbPolyline
 70
0
 90
2
 10
658200.337617806
 20
3846586.0507208
 10
658163.519116245
 20
3846568.55035057
  0
LWPOLYLINE
  5
20062
100
AcDbEntity
  8
0
100
AcDbPolyline
 70
0
 90
2
 10
658128.167915624
 20
3846637.00119894
 10
658163.519116245
 20
3846568.55035057
  0
LWPOLYLINE
  5
20063
100
AcDbEntity
  8
0
100
AcDbPolyline
 70
0
 90
2
 10
658200.337617806
 20
3846586.0507208
 10
658241.105651302
 20
3846605.42843682
  0
LWPOLYLINE
  5
20064
100
AcDbEntity
  8
0
100
AcDbPolyline
 70
0
 90
2
 10
658200.337617806
 20
3846586.0507208
 10
658237.441657721
 20
3846513.82683594
  0
LWPOLYLINE
  5
20065
100
AcDbEntity
  8
0
100
AcDbPolyline
 70
0
 90
2
 10
658165.183624195
 20
3846654.47986972
 10
658200.337617806
 20
3846586.0507208
  0
LWPOLYLINE
  5
20066
100
AcDbEntity
  8
0
100
AcDbPolyline
 70
0
 90
2
 10
658241.105651302
 20
3846605.42843682
 10
658276.399972191
 20
3846532.83607523
  0
LWPOLYLINE
  5
20067
100
AcDbEntity
  8
0
100
AcDbPolyline
 70
0
 90
2
 10
658278.602263156
 20
3846623.25155175
 10
658241.105651302
 20
3846605.42843682
  0
LWPOLYLINE
  5
20068
100
AcDbEntity
  8
0
100
AcDbPolyline
 70
0
 90
2
 10
658207.534332569
 20
3846674.47798553
 10
658241.105651302
 20
3846605.42843682
  0
LWPOLYLINE
  5
20069
100
AcDbEntity
  8
0
100
AcDbPolyline
 70
0
 90
2
 10
658278.602263156
 20
3846623.25155175
 10
658312.806944353
 20
3846550.60084879
  0
LWPOLYLINE
  5
2006A
100
AcDbEntity
  8
0
100
AcDbPolyline
 70
0
 90
2
 10
658316.716271675
 20
3846641.3683569
 10
658278.602263156
 20
3846623.25155175
  0
LWPOLYLINE
  5
2006B
100
AcDbEntity
  8
0
100
AcDbPolyline
 70
0
 90
2
 10
658245.945295125
 20
3846692.61603023
 10
658278.602263156
 20
3846623.25155175
  0
LWPOLYLINE
  5
2006C
100
AcDbEntity
  8
0
100
AcDbPolyline
 70
0
 90
2
 10
658316.716271675
 20
3846641.3683569
 10
658357.82815979
 20
3846660.91029559
  0
LWPOLYLINE
  5
2006D
100
AcDbEntity
  8
0
100
AcDbPolyline
 70
0
 90
2
 10
658316.716271675
 20
3846641.3683569
 10
658352.673952181
 20
3846570.05397234
  0
LWPOLYLINE
  5
2006E
100
AcDbEntity
  8
0
100
AcDbPolyline
 70
0
 90
2
 10
658282.236280738
 20
3846709.75322951
 10
658316.716271675
 20
3846641.3683569
  0
LWPOLYLINE
  5
2006F
100
AcDbEntity
  8
0
100
AcDbPolyline
 70
0
 90
2
 10
658357.82815979
 20
3846660.91029559
 10
658392.908478226
 20
3846589.68678755
  0
LWPOLYLINE
  5
20070
100
AcDbEntity
  8
0
100
AcDbPolyline
 70
0
 90
2
 10
658395.291185857
 20
3846678.71813373
 10
658357.82815979
 20
3846660.91029559
  0
LWPOLYLINE
  5
20071
100
AcDbEntity
  8
0
100
AcDbPolyline
 70
0
 90
2
 10
658324.047052303
 20
3846729.49721376
 10
658357.82815979
 20
3846660.91029559
  0
LWPOLYLINE
  5
20072
100
AcDbEntity
  8
0
100
AcDbPolyline
 70
0
 90
2
 10
658395.291185857
 20
3846678.71813373
 10
658429.253270157
 20
3846607.42179821
  0
LWPOLYLINE
  5
20073
100
AcDbEntity
  8
0
100
AcDbPolyline
 70
0
 90
2
 10
658437.156702261
 20
3846698.61889798
 10
658395.291185857
 20
3846678.71813373
  0
LWPOLYLINE
  5
20074
100
AcDbEntity
  8
0
100
AcDbPolyline
 70
0
 90
2
 10
658362.461752465
 20
3846747.63772062
 10
658395.291185857
 20
3846678.71813373
  0
LWPOLYLINE
  5
20075
100
AcDbEntity
  8
0
100
AcDbPolyline
 70
0
 90
2
 10
658437.156702261
 20
3846698.61889798
 10
658468.026843149
 20
3846626.34228666
  0
LWPOLYLINE
  5
20076
100
AcDbEntity
  8
0
100
AcDbPolyline
 70
0
 90
2
 10
658454.476736264
 20
3846706.85207873
 10
658437.156702261
 20
3846698.61889798
  0
LWPOLYLINE
  5
20077
100
AcDbEntity
  8
0
100
AcDbPolyline
 70
0
 90
2
 10
658397.102291747
 20
3846763.99612252
 10
658437.156702261
 20
3846698.61889798
  0
LWPOLYLINE
  5
20078
100
AcDbEntity
  8
0
100
AcDbPolyline
 70
0
 90
2
 10
658454.476736264
 20
3846706.85207873
 10
658530.193091117
 20
3846624.67466705
  0
LWPOLYLINE
  5
20079
100
AcDbEntity
  8
0
100
AcDbPolyline
 70
0
 90
2
 10
658473.137605968
 20
3846715.72268346
 10
658454.476736264
 20
3846706.85207873
  0
LWPOLYLINE
  5
2007A
100
AcDbEntity
  8
0
100
AcDbPolyline
 70
0
 90
2
 10
658473.137605968
 20
3846715.72268346
 10
658556.622642278
 20
3846635.94766044
  0
LWPOLYLINE
  5
2007B
100
AcDbEntity
  8
0
100
AcDbPolyline
 70
0
 90
2
 10
658165.183624195
 20
3846654.47986972
 10
658128.167915624
 20
3846637.00119894
  0
LWPOLYLINE
  5
2007C
100
AcDbEntity
  8
0
100
AcDbPolyline
 70
0
 90
2
 10
658092.876416318
 20
3846705.33736512
 10
658128.167915624
 20
3846637.00119894
  0
LWPOLYLINE
  5
2007D
100
AcDbEntity
  8
0
100
AcDbPolyline
 70
0
 90
2
 10
658207.534332569
 20
3846674.47798553
 10
658165.183624195
 20
3846654.47986972
  0
LWPOLYLINE
  5
2007E
100
AcDbEntity
  8
0
100
AcDbPolyline
 70
0
 90
2
 10
658130.363514429
 20
3846722.26020267
 10
658165.183624195
 20
3846654.47986972
  0
LWPOLYLINE
  5
2007F
100
AcDbEntity
  8
0
100
AcDbPolyline
 70
0
 90
2
 10
658207.534332569
 20
3846674.47798553
 10
658245.945295125
 20
3846692.61603023
  0
LWPOLYLINE
  5
20080
100
AcDbEntity
  8
0
100
AcDbPolyline
 70
0
 90
2
 10
658174.595322451
 20
3846742.22806137
 10
658207.534332569
 20
3846674.47798553
  0
LWPOLYLINE
  5
20081
100
AcDbEntity
  8
0
100
AcDbPolyline
 70
0
 90
2
 10
658282.236280738
 20
3846709.75322951
 10
658245.945295125
 20
3846692.61603023
  0
LWPOLYLINE
  5
20082
100
AcDbEntity
  8
0
100
AcDbPolyline
 70
0
 90
2
 10
658214.175815139
 20
3846760.09642922
 10
658245.945295125
 20
3846692.61603023
  0
LWPOLYLINE
  5
20083
100
AcDbEntity
  8
0
100
AcDbPolyline
 70
0
 90
2
 10
658324.047052303
 20
3846729.49721376
 10
658282.236280738
 20
3846709.75322951
  0
LWPOLYLINE
  5
20084
100
AcDbEntity
  8
0
100
AcDbPolyline
 70
0
 90
2
 10
658248.940217772
 20
3846775.79085045
 10
658282.236280738
 20
3846709.75322951
  0
LWPOLYLINE
  5
20085
100
AcDbEntity
  8
0
100
AcDbPolyline
 70
0
 90
2
 10
658324.047052303
 20
3846729.49721376
 10
658362.461752465
 20
3846747.63772062
  0
LWPOLYLINE
  5
20086
100
AcDbEntity
  8
0
100
AcDbPolyline
 70
0
 90
2
 10
658291.731535033
 20
3846795.10924567
 10
658324.047052303
 20
3846729.49721376
  0
LWPOLYLINE
  5
20087
100
AcDbEntity
  8
0
100
AcDbPolyline
 70
0
 90
2
 10
658397.102291747
 20
3846763.99612252
 10
658362.461752465
 20
3846747.63772062
  0
LWPOLYLINE
  5
20088
100
AcDbEntity
  8
0
100
AcDbPolyline
 70
0
 90
2
 10
658331.33303604
 20
3846812.98782328
 10
658362.461752465
 20
3846747.63772062
  0
LWPOLYLINE
  5
20089
100
AcDbEntity
  8
0
100
AcDbPolyline
 70
0
 90
2
 10
658367.578751152
 20
3846829.35156975
 10
658397.102291747
 20
3846763.99612252
  0
LWPOLYLINE
  5
2008A
100
AcDbEntity
  8
0
100
AcDbPolyline
 70
0
 90
2
 10
658331.33303604
 20
3846812.98782328
 10
658367.578751152
 20
3846829.35156975
  0
LWPOLYLINE
  5
2008B
100
AcDbEntity
  8
0
100
AcDbPolyline
 70
0
 90
2
 10
658356.81903444
 20
3846849.56828296
 10
658367.578751152
 20
3846829.35156975
  0
LWPOLYLINE
  5
2008C
100
AcDbEntity
  8
0
100
AcDbPolyline
 70
0
 90
2
 10
658400.465759598
 20
3846842.95240196
 10
658367.578751152
 20
3846829.35156975
  0
LWPOLYLINE
  5
2008D
100
AcDbEntity
  8
0
100
AcDbPolyline
 70
0
 90
2
 10
658331.33303604
 20
3846812.98782328
 10
658291.731535033
 20
3846795.10924567
  0
LWPOLYLINE
  5
2008E
100
AcDbEntity
  8
0
100
AcDbPolyline
 70
0
 90
2
 10
658291.731535033
 20
3846795.10924567
 10
658248.940217772
 20
3846775.79085045
  0
LWPOLYLINE
  5
2008F
100
AcDbEntity
  8
0
100
AcDbPolyline
 70
0
 90
2
 10
658259.864390541
 20
3846859.81215015
 10
658291.731535033
 20
3846795.10924567
  0
LWPOLYLINE
  5
20090
100
AcDbEntity
  8
0
100
AcDbPolyline
 70
0
 90
2
 10
658248.940217772
 20
3846775.79085045
 10
658214.175815139
 20
3846760.09642922
  0
LWPOLYLINE
  5
20091
100
AcDbEntity
  8
0
100
AcDbPolyline
 70
0
 90
2
 10
658216.227165733
 20
3846840.6733754
 10
658248.940217772
 20
3846775.79085045
  0
LWPOLYLINE
  5
20092
100
AcDbEntity
  8
0
100
AcDbPolyline
 70
0
 90
2
 10
658174.595322451
 20
3846742.22806137
 10
658214.175815139
 20
3846760.09642922
  0
LWPOLYLINE
  5
20093
100
AcDbEntity
  8
0
100
AcDbPolyline
 70
0
 90
2
 10
658176.519969547
 20
3846840.08105866
 10
658214.175815139
 20
3846760.09642922
  0
LWPOLYLINE
  5
20094
100
AcDbEntity
  8
0
100
AcDbPolyline
 70
0
 90
2
 10
658174.595322451
 20
3846742.22806137
 10
658130.363514429
 20
3846722.26020267
  0
LWPOLYLINE
  5
20095
100
AcDbEntity
  8
0
100
AcDbPolyline
 70
0
 90
2
 10
658142.074631885
 20
3846809.11874832
 10
658174.595322451
 20
3846742.22806137
  0
LWPOLYLINE
  5
20096
100
AcDbEntity
  8
0
100
AcDbPolyline
 70
0
 90
2
 10
658130.363514429
 20
3846722.26020267
 10
658092.876416318
 20
3846705.33736512
  0
LWPOLYLINE
  5
20097
100
AcDbEntity
  8
0
100
AcDbPolyline
 70
0
 90
2
 10
658058.559808954
 20
3846771.78674225
 10
658092.876416318
 20
3846705.33736512
  0
LWPOLYLINE
  5
20098
100
AcDbEntity
  8
0
100
AcDbPolyline
 70
0
 90
2
 10
658200.971745102
 20
3846496.03189452
 10
658236.593655819
 20
3846427.05929751
  0
LWPOLYLINE
  5
20099
100
AcDbEntity
  8
0
100
AcDbPolyline
 70
0
 90
2
 10
658200.971745102
 20
3846496.03189452
 10
658237.441657721
 20
3846513.82683594
  0
LWPOLYLINE
  5
2009A
100
AcDbEntity
  8
0
100
AcDbPolyline
 70
0
 90
2
 10
658236.593655819
 20
3846427.05929751
 10
658275.48034295
 20
3846351.76647291
  0
LWPOLYLINE
  5
2009B
100
AcDbEntity
  8
0
100
AcDbPolyline
 70
0
 90
2
 10
658273.269244447
 20
3846445.60676632
 10
658236.593655819
 20
3846427.05929751
  0
LWPOLYLINE
  5
2009C
100
AcDbEntity
  8
0
100
AcDbPolyline
 70
0
 90
2
 10
658275.48034295
 20
3846351.76647291
 10
658311.823924133
 20
3846281.39890467
  0
LWPOLYLINE
  5
2009D
100
AcDbEntity
  8
0
100
AcDbPolyline
 70
0
 90
2
 10
658313.182434205
 20
3846370.10653566
 10
658275.48034295
 20
3846351.76647291
  0
LWPOLYLINE
  5
2009E
100
AcDbEntity
  8
0
100
AcDbPolyline
 70
0
 90
2
 10
658311.823924133
 20
3846281.39890467
 10
658346.751883313
 20
3846213.77332622
  0
LWPOLYLINE
  5
2009F
100
AcDbEntity
  8
0
100
AcDbPolyline
 70
0
 90
2
 10
658311.823924133
 20
3846281.39890467
 10
658349.974227986
 20
3846300.06899436
  0
LWPOLYLINE
  5
200A0
100
AcDbEntity
  8
0
100
AcDbPolyline
 70
0
 90
2
 10
658385.107421357
 20
3846233.18983963
 10
658346.751883313
 20
3846213.77332622
  0
LWPOLYLINE
  5
200A1
100
AcDbEntity
  8
0
100
AcDbPolyline
 70
0
 90
2
 10
658419.560050571
 20
3846072.8094474
 10
658457.893844444
 20
3846094.63785909
  0
LWPOLYLINE
  5
200A2
100
AcDbEntity
  8
0
100
AcDbPolyline
 70
0
 90
2
 10
658457.893844444
 20
3846094.63785909
 10
658487.329042189
 20
3846027.29744795
  0
LWPOLYLINE
  5
200A3
100
AcDbEntity
  8
0
100
AcDbPolyline
 70
0
 90
2
 10
658496.083370019
 20
3846113.84837844
 10
658457.893844444
 20
3846094.63785909
  0
LWPOLYLINE
  5
200A4
100
AcDbEntity
  8
0
100
AcDbPolyline
 70
0
 90
2
 10
658349.974227986
 20
3846300.06899436
 10
658385.107421357
 20
3846233.18983963
  0
LWPOLYLINE
  5
200A5
100
AcDbEntity
  8
0
100
AcDbPolyline
 70
0
 90
2
 10
658423.034124562
 20
3846252.38956686
 10
658385.107421357
 20
3846233.18983963
  0
LWPOLYLINE
  5
200A6
100
AcDbEntity
  8
0
100
AcDbPolyline
 70
0
 90
2
 10
658313.182434205
 20
3846370.10653566
 10
658349.974227986
 20
3846300.06899436
  0
LWPOLYLINE
  5
200A7
100
AcDbEntity
  8
0
100
AcDbPolyline
 70
0
 90
2
 10
658388.06562765
 20
3846318.71061196
 10
658349.974227986
 20
3846300.06899436
  0
LWPOLYLINE
  5
200A8
100
AcDbEntity
  8
0
100
AcDbPolyline
 70
0
 90
2
 10
658313.182434205
 20
3846370.10653566
 10
658351.212757394
 20
3846388.60662119
  0
LWPOLYLINE
  5
200A9
100
AcDbEntity
  8
0
100
AcDbPolyline
 70
0
 90
2
 10
658273.269244447
 20
3846445.60676632
 10
658313.182434205
 20
3846370.10653566
  0
LWPOLYLINE
  5
200AA
100
AcDbEntity
  8
0
100
AcDbPolyline
 70
0
 90
2
 10
658276.399972191
 20
3846532.83607523
 10
658237.441657721
 20
3846513.82683594
  0
LWPOLYLINE
  5
200AB
100
AcDbEntity
  8
0
100
AcDbPolyline
 70
0
 90
2
 10
658276.399972191
 20
3846532.83607523
 10
658296.265859537
 20
3846492.82211182
  0
LWPOLYLINE
  5
200AC
100
AcDbEntity
  8
0
100
AcDbPolyline
 70
0
 90
2
 10
658312.806944353
 20
3846550.60084879
 10
658276.399972191
 20
3846532.83607523
  0
LWPOLYLINE
  5
200AD
100
AcDbEntity
  8
0
100
AcDbPolyline
 70
0
 90
2
 10
658352.673952181
 20
3846570.05397234
 10
658312.806944353
 20
3846550.60084879
  0
LWPOLYLINE
  5
200AE
100
AcDbEntity
  8
0
100
AcDbPolyline
 70
0
 90
2
 10
658352.673952181
 20
3846570.05397234
 10
658392.908478226
 20
3846589.68678755
  0
LWPOLYLINE
  5
200AF
100
AcDbEntity
  8
0
100
AcDbPolyline
 70
0
 90
2
 10
658352.673952181
 20
3846570.05397234
 10
658371.747558806
 20
3846532.22605982
  0
LWPOLYLINE
  5
200B0
100
AcDbEntity
  8
0
100
AcDbPolyline
 70
0
 90
2
 10
658392.908478226
 20
3846589.68678755
 10
658438.908503596
 20
3846496.29480614
  0
LWPOLYLINE
  5
200B1
100
AcDbEntity
  8
0
100
AcDbPolyline
 70
0
 90
2
 10
658429.253270157
 20
3846607.42179821
 10
658392.908478226
 20
3846589.68678755
  0
LWPOLYLINE
  5
200B2
100
AcDbEntity
  8
0
100
AcDbPolyline
 70
0
 90
2
 10
658429.253270157
 20
3846607.42179821
 10
658475.551441515
 20
3846515.54182618
  0
LWPOLYLINE
  5
200B3
100
AcDbEntity
  8
0
100
AcDbPolyline
 70
0
 90
2
 10
658468.026843149
 20
3846626.34228666
 10
658429.253270157
 20
3846607.42179821
  0
LWPOLYLINE
  5
200B4
100
AcDbEntity
  8
0
100
AcDbPolyline
 70
0
 90
2
 10
658468.026843149
 20
3846626.34228666
 10
658499.366464125
 20
3846567.33025061
  0
LWPOLYLINE
  5
200B5
100
AcDbEntity
  8
0
100
AcDbPolyline
 70
0
 90
4
 10
658499.366464125
 20
3846567.33025061
 10
658522.134858952
 20
3846530.56154751
 10
658509.281135982
 20
3846525.87816022
 10
658518.97619761
 20
3846512.90831552
  0
LWPOLYLINE
  5
200B6
100
AcDbEntity
  8
0
100
AcDbPolyline
 70
0
 90
2
 10
658523.908076523
 20
3846581.75055035
 10
658499.366464125
 20
3846567.33025061
  0
LWPOLYLINE
  5
200B7
100
AcDbEntity
  8
0
100
AcDbPolyline
 70
0
 90
2
 10
658523.908076523
 20
3846581.75055035
 10
658561.782239816
 20
3846526.72709453
  0
LWPOLYLINE
  5
200B8
100
AcDbEntity
  8
0
100
AcDbPolyline
 70
0
 90
2
 10
658534.963964972
 20
3846590.17024977
 10
658523.908076523
 20
3846581.75055035
  0
LWPOLYLINE
  5
200B9
100
AcDbEntity
  8
0
100
AcDbPolyline
 70
0
 90
2
 10
658534.963964972
 20
3846590.17024977
 10
658548.300020457
 20
3846576.26792508
  0
LWPOLYLINE
  5
200BA
100
AcDbEntity
  8
0
100
AcDbPolyline
 70
0
 90
2
 10
658563.555206614
 20
3846587.62324541
 10
658548.300020457
 20
3846576.26792508
  0
LWPOLYLINE
  5
200BB
100
AcDbEntity
  8
0
100
AcDbPolyline
 70
0
 90
2
 10
658563.555206614
 20
3846587.62324541
 10
658578.108917701
 20
3846569.79672622
  0
LWPOLYLINE
  5
200BC
100
AcDbEntity
  8
0
100
AcDbPolyline
 70
0
 90
2
 10
658530.193091117
 20
3846624.67466705
 10
658563.555206614
 20
3846587.62324541
  0
LWPOLYLINE
  5
200BD
100
AcDbEntity
  8
0
100
AcDbPolyline
 70
0
 90
2
 10
658592.619016598
 20
3846606.48838976
 10
658563.555206614
 20
3846587.62324541
  0
LWPOLYLINE
  5
200BE
100
AcDbEntity
  8
0
100
AcDbPolyline
 70
0
 90
2
 10
658518.97619761
 20
3846512.90831552
 10
658485.193149703
 20
3846496.40773444
  0
LWPOLYLINE
  5
200BF
100
AcDbEntity
  8
0
100
AcDbPolyline
 70
0
 90
2
 10
658518.97619761
 20
3846512.90831552
 10
658542.161506579
 20
3846481.07734228
  0
LWPOLYLINE
  5
200C0
100
AcDbEntity
  8
0
100
AcDbPolyline
 70
0
 90
2
 10
658475.551441515
 20
3846515.54182618
 10
658485.193149703
 20
3846496.40773444
  0
LWPOLYLINE
  5
200C1
100
AcDbEntity
  8
0
100
AcDbPolyline
 70
0
 90
2
 10
658475.551441515
 20
3846515.54182618
 10
658438.908503596
 20
3846496.29480614
  0
LWPOLYLINE
  5
200C2
100
AcDbEntity
  8
0
100
AcDbPolyline
 70
0
 90
2
 10
658210.938984282
 20
3846959.15177278
 10
658259.864390541
 20
3846859.81215015
  0
LWPOLYLINE
  5
200C3
100
AcDbEntity
  8
0
100
AcDbPolyline
 70
0
 90
2
 10
658216.227165733
 20
3846840.6733754
 10
658259.864390541
 20
3846859.81215015
  0
LWPOLYLINE
  5
200C4
100
AcDbEntity
  8
0
100
AcDbPolyline
 70
0
 90
2
 10
658294.472752613
 20
3846874.9911983
 10
658259.864390541
 20
3846859.81215015
  0
LWPOLYLINE
  5
200C5
100
AcDbEntity
  8
0
100
AcDbPolyline
 70
0
 90
2
 10
658438.908503596
 20
3846496.29480614
 10
658464.746809079
 20
3846443.83711945
  0
LWPOLYLINE
  5
200C6
100
AcDbEntity
  8
0
100
AcDbPolyline
 70
0
 90
2
 10
658438.908503596
 20
3846496.29480614
 10
658400.683891738
 20
3846476.21725965
  0
LWPOLYLINE
  5
200C7
100
AcDbEntity
  8
0
100
AcDbPolyline
 70
0
 90
2
 10
658464.746809079
 20
3846443.83711945
 10
658501.171330591
 20
3846374.06505588
  0
LWPOLYLINE
  5
200C8
100
AcDbEntity
  8
0
100
AcDbPolyline
 70
0
 90
2
 10
658464.746809079
 20
3846443.83711945
 10
658542.161506579
 20
3846481.07734228
  0
LWPOLYLINE
  5
200C9
100
AcDbEntity
  8
0
100
AcDbPolyline
 70
0
 90
2
 10
658464.746809079
 20
3846443.83711945
 10
658427.734381132
 20
3846425.83156601
  0
LWPOLYLINE
  5
200CA
100
AcDbEntity
  8
0
100
AcDbPolyline
 70
0
 90
2
 10
658296.265859537
 20
3846492.82211182
 10
658371.747558806
 20
3846532.22605982
  0
LWPOLYLINE
  5
200CB
100
AcDbEntity
  8
0
100
AcDbPolyline
 70
0
 90
2
 10
658296.265859537
 20
3846492.82211182
 10
658323.758614253
 20
3846440.67744275
  0
LWPOLYLINE
  5
200CC
100
AcDbEntity
  8
0
100
AcDbPolyline
 70
0
 90
2
 10
658371.747558806
 20
3846532.22605982
 10
658400.683891738
 20
3846476.21725965
  0
LWPOLYLINE
  5
200CD
100
AcDbEntity
  8
0
100
AcDbPolyline
 70
0
 90
2
 10
658189.634773784
 20
3846893.4167904
 10
658216.227165733
 20
3846840.6733754
  0
LWPOLYLINE
  5
200CE
100
AcDbEntity
  8
0
100
AcDbPolyline
 70
0
 90
2
 10
658323.758614253
 20
3846440.67744275
 10
658351.212757394
 20
3846388.60662119
  0
LWPOLYLINE
  5
200CF
100
AcDbEntity
  8
0
100
AcDbPolyline
 70
0
 90
2
 10
658323.758614253
 20
3846440.67744275
 10
658358.131737196
 20
3846456.85994969
  0
LWPOLYLINE
  5
200D0
100
AcDbEntity
  8
0
100
AcDbPolyline
 70
0
 90
2
 10
658351.212757394
 20
3846388.60662119
 10
658388.06562765
 20
3846318.71061196
  0
LWPOLYLINE
  5
200D1
100
AcDbEntity
  8
0
100
AcDbPolyline
 70
0
 90
2
 10
658385.896409578
 20
3846405.47886044
 10
658351.212757394
 20
3846388.60662119
  0
LWPOLYLINE
  5
200D2
100
AcDbEntity
  8
0
100
AcDbPolyline
 70
0
 90
2
 10
658388.06562765
 20
3846318.71061196
 10
658423.034124562
 20
3846252.38956686
  0
LWPOLYLINE
  5
200D3
100
AcDbEntity
  8
0
100
AcDbPolyline
 70
0
 90
2
 10
658423.430993716
 20
3846336.0184067
 10
658388.06562765
 20
3846318.71061196
  0
LWPOLYLINE
  5
200D4
100
AcDbEntity
  8
0
100
AcDbPolyline
 70
0
 90
2
 10
658458.830186486
 20
3846270.51089895
 10
658423.034124562
 20
3846252.38956686
  0
LWPOLYLINE
  5
200D5
100
AcDbEntity
  8
0
100
AcDbPolyline
 70
0
 90
2
 10
658496.083370019
 20
3846113.84837844
 10
658529.545808095
 20
3846050.38678672
  0
LWPOLYLINE
  5
200D6
100
AcDbEntity
  8
0
100
AcDbPolyline
 70
0
 90
2
 10
658533.357502629
 20
3846132.59852275
 10
658496.083370019
 20
3846113.84837844
  0
LWPOLYLINE
  5
200D7
100
AcDbEntity
  8
0
100
AcDbPolyline
 70
0
 90
2
 10
658533.357502629
 20
3846132.59852275
 10
658568.915960973
 20
3846066.79945774
  0
LWPOLYLINE
  5
200D8
100
AcDbEntity
  8
0
100
AcDbPolyline
 70
0
 90
2
 10
658574.150808199
 20
3846153.1193297
 10
658533.357502629
 20
3846132.59852275
  0
LWPOLYLINE
  5
200D9
100
AcDbEntity
  8
0
100
AcDbPolyline
 70
0
 90
2
 10
658574.150808199
 20
3846153.1193297
 10
658611.328127159
 20
3846171.82121009
  0
LWPOLYLINE
  5
200DA
100
AcDbEntity
  8
0
100
AcDbPolyline
 70
0
 90
2
 10
658574.150808199
 20
3846153.1193297
 10
658600.593783298
 20
3846103.86896683
  0
LWPOLYLINE
  5
200DB
100
AcDbEntity
  8
0
100
AcDbPolyline
 70
0
 90
2
 10
658611.328127159
 20
3846171.82121009
 10
658637.343316722
 20
3846129.64003162
  0
LWPOLYLINE
  5
200DC
100
AcDbEntity
  8
0
100
AcDbPolyline
 70
0
 90
2
 10
658535.080381595
 20
3846309.11236961
 10
658499.947683069
 20
3846291.32643827
  0
LWPOLYLINE
  5
200DD
100
AcDbEntity
  8
0
100
AcDbPolyline
 70
0
 90
2
 10
658535.080381595
 20
3846309.11236961
 10
658610.765843731
 20
3846347.42896759
  0
LWPOLYLINE
  5
200DE
100
AcDbEntity
  8
0
100
AcDbPolyline
 70
0
 90
2
 10
658519.466743647
 20
3846339.02019115
 10
658535.080381595
 20
3846309.11236961
  0
LWPOLYLINE
  5
200DF
100
AcDbEntity
  8
0
100
AcDbPolyline
 70
0
 90
2
 10
658501.171330591
 20
3846374.06505588
 10
658519.466743647
 20
3846339.02019115
  0
LWPOLYLINE
  5
200E0
100
AcDbEntity
  8
0
100
AcDbPolyline
 70
0
 90
3
 10
658530.160797325
 20
3846388.25300521
 10
658531.577303555
 20
3846347.07429206
 10
658519.466743647
 20
3846339.02019115
  0
LWPOLYLINE
  5
200E1
100
AcDbEntity
  8
0
100
AcDbPolyline
 70
0
 90
2
 10
658465.024388347
 20
3846356.37437725
 10
658501.171330591
 20
3846374.06505588
  0
LWPOLYLINE
  5
200E2
100
AcDbEntity
  8
0
100
AcDbPolyline
 70
0
 90
2
 10
658530.160797325
 20
3846388.25300521
 10
658501.171330591
 20
3846374.06505588
  0
LWPOLYLINE
  5
200E3
100
AcDbEntity
  8
0
100
AcDbPolyline
 70
0
 90
2
 10
658458.830186486
 20
3846270.51089895
 10
658499.947683069
 20
3846291.32643827
  0
LWPOLYLINE
  5
200E4
100
AcDbEntity
  8
0
100
AcDbPolyline
 70
0
 90
2
 10
658423.430993716
 20
3846336.0184067
 10
658458.830186486
 20
3846270.51089895
  0
LWPOLYLINE
  5
200E5
100
AcDbEntity
  8
0
100
AcDbPolyline
 70
0
 90
2
 10
658465.024388347
 20
3846356.37437725
 10
658499.947683069
 20
3846291.32643827
  0
LWPOLYLINE
  5
200E6
100
AcDbEntity
  8
0
100
AcDbPolyline
 70
0
 90
2
 10
658647.846560912
 20
3846366.20171554
 10
658610.765843731
 20
3846347.42896759
  0
LWPOLYLINE
  5
200E7
100
AcDbEntity
  8
0
100
AcDbPolyline
 70
0
 90
2
 10
658647.846560912
 20
3846366.20171554
 10
658701.215690345
 20
3846270.5723415
  0
LWPOLYLINE
  5
200E8
100
AcDbEntity
  8
0
100
AcDbPolyline
 70
0
 90
2
 10
658683.557069752
 20
3846384.28111406
 10
658647.846560912
 20
3846366.20171554
  0
LWPOLYLINE
  5
200E9
100
AcDbEntity
  8
0
100
AcDbPolyline
 70
0
 90
2
 10
658610.765843731
 20
3846347.42896759
 10
658669.483317187
 20
3846243.38690243
  0
LWPOLYLINE
  5
200EA
100
AcDbEntity
  8
0
100
AcDbPolyline
 70
0
 90
2
 10
658572.901174047
 20
3846328.25944681
 10
658610.765843731
 20
3846347.42896759
  0
LWPOLYLINE
  5
200EB
100
AcDbEntity
  8
0
100
AcDbPolyline
 70
0
 90
2
 10
658683.557069752
 20
3846384.28111406
 10
658713.701869264
 20
3846332.41876313
  0
LWPOLYLINE
  5
200EC
100
AcDbEntity
  8
0
100
AcDbPolyline
 70
0
 90
2
 10
658667.469742063
 20
3846407.50778777
 10
658683.557069752
 20
3846384.28111406
  0
LWPOLYLINE
  5
200ED
100
AcDbEntity
  8
0
100
AcDbPolyline
 70
0
 90
2
 10
658385.896409578
 20
3846405.47886044
 10
658423.430993716
 20
3846336.0184067
  0
LWPOLYLINE
  5
200EE
100
AcDbEntity
  8
0
100
AcDbPolyline
 70
0
 90
2
 10
658465.024388347
 20
3846356.37437725
 10
658423.430993716
 20
3846336.0184067
  0
LWPOLYLINE
  5
200EF
100
AcDbEntity
  8
0
100
AcDbPolyline
 70
0
 90
2
 10
658358.131737196
 20
3846456.85994969
 10
658385.896409578
 20
3846405.47886044
  0
LWPOLYLINE
  5
200F0
100
AcDbEntity
  8
0
100
AcDbPolyline
 70
0
 90
2
 10
658427.734381132
 20
3846425.83156601
 10
658385.896409578
 20
3846405.47886044
  0
LWPOLYLINE
  5
200F1
100
AcDbEntity
  8
0
100
AcDbPolyline
 70
0
 90
2
 10
658400.683891738
 20
3846476.21725965
 10
658358.131737196
 20
3846456.85994969
  0
LWPOLYLINE
  5
200F2
100
AcDbEntity
  8
0
100
AcDbPolyline
 70
0
 90
2
 10
658400.683891738
 20
3846476.21725965
 10
658427.734381132
 20
3846425.83156601
  0
LWPOLYLINE
  5
200F3
100
AcDbEntity
  8
0
100
AcDbPolyline
 70
0
 90
2
 10
658427.734381132
 20
3846425.83156601
 10
658465.024388347
 20
3846356.37437725
  0
LWPOLYLINE
  5
200F4
100
AcDbEntity
  8
0
100
AcDbPolyline
 70
0
 90
4
 10
658542.161506579
 20
3846481.07734228
 10
658539.828986314
 20
3846430.15505785
 10
658527.642363463
 20
3846430.33155564
 10
658530.160797325
 20
3846388.25300521
  0
LWPOLYLINE
  5
200F5
100
AcDbEntity
  8
0
100
AcDbPolyline
 70
0
 90
4
 10
658561.782239816
 20
3846526.72709453
 10
658567.842778896
 20
3846514.83114207
 10
658565.180293014
 20
3846501.07420004
 10
658542.161506579
 20
3846481.07734228
  0
LWPOLYLINE
  5
200F6
100
AcDbEntity
  8
0
100
AcDbPolyline
 70
0
 90
2
 10
658587.94563466
 20
3846543.27610445
 10
658561.782239816
 20
3846526.72709453
  0
LWPOLYLINE
  5
200F7
100
AcDbEntity
  8
0
100
AcDbPolyline
 70
0
 90
2
 10
658587.94563466
 20
3846543.27610445
 10
658612.975007444
 20
3846510.10229274
  0
LWPOLYLINE
  5
200F8
100
AcDbEntity
  8
0
100
AcDbPolyline
 70
0
 90
2
 10
658591.620729067
 20
3846556.9552153
 10
658587.94563466
 20
3846543.27610445
  0
LWPOLYLINE
  5
200F9
100
AcDbEntity
  8
0
100
AcDbPolyline
 70
0
 90
2
 10
658591.620729067
 20
3846556.9552153
 10
658635.426760696
 20
3846575.97471863
  0
LWPOLYLINE
  5
200FA
100
AcDbEntity
  8
0
100
AcDbPolyline
 70
0
 90
2
 10
658578.108917701
 20
3846569.79672622
 10
658591.620729067
 20
3846556.9552153
  0
LWPOLYLINE
  5
200FB
100
AcDbEntity
  8
0
100
AcDbPolyline
 70
0
 90
2
 10
658635.426760696
 20
3846575.97471863
 10
658660.835291902
 20
3846548.30377352
  0
LWPOLYLINE
  5
200FC
100
AcDbEntity
  8
0
100
AcDbPolyline
 70
0
 90
2
 10
658612.872286416
 20
3846592.45668716
 10
658635.426760696
 20
3846575.97471863
  0
LWPOLYLINE
  5
200FD
100
AcDbEntity
  8
0
100
AcDbPolyline
 70
0
 90
2
 10
658599.6739792
 20
3846502.58713569
 10
658612.975007444
 20
3846510.10229274
  0
LWPOLYLINE
  5
200FE
100
AcDbEntity
  8
0
100
AcDbPolyline
 70
0
 90
2
 10
658599.6739792
 20
3846502.58713569
 10
658667.469742063
 20
3846407.50778777
  0
LWPOLYLINE
  5
200FF
100
AcDbEntity
  8
0
100
AcDbPolyline
 70
0
 90
2
 10
658556.622642278
 20
3846635.94766044
 10
658530.193091117
 20
3846624.67466705
  0
LWPOLYLINE
  5
20100
100
AcDbEntity
  8
0
100
AcDbPolyline
 70
0
 90
2
 10
658556.622642278
 20
3846635.94766044
 10
658592.619016598
 20
3846606.48838976
  0
LWPOLYLINE
  5
20101
100
AcDbEntity
  8
0
100
AcDbPolyline
 70
0
 90
2
 10
658573.832531838
 20
3846651.15589495
 10
658556.622642278
 20
3846635.94766044
  0
LWPOLYLINE
  5
20102
100
AcDbEntity
  8
0
100
AcDbPolyline
 70
0
 90
2
 10
658573.832531838
 20
3846651.15589495
 10
658630.530873346
 20
3846607.75530564
  0
LWPOLYLINE
  5
20103
100
AcDbEntity
  8
0
100
AcDbPolyline
 70
0
 90
2
 10
658612.872286416
 20
3846592.45668716
 10
658630.530873346
 20
3846607.75530564
  0
LWPOLYLINE
  5
20104
100
AcDbEntity
  8
0
100
AcDbPolyline
 70
0
 90
2
 10
658612.872286416
 20
3846592.45668716
 10
658578.108917701
 20
3846569.79672622
  0
LWPOLYLINE
  5
20105
100
AcDbEntity
  8
0
100
AcDbPolyline
 70
0
 90
2
 10
658592.619016598
 20
3846606.48838976
 10
658612.872286416
 20
3846592.45668716
  0
LWPOLYLINE
  5
20106
100
AcDbEntity
  8
0
100
AcDbPolyline
 70
0
 90
2
 10
658692.606663899
 20
3846559.72077083
 10
658660.835291902
 20
3846548.30377352
  0
LWPOLYLINE
  5
20107
100
AcDbEntity
  8
0
100
AcDbPolyline
 70
0
 90
2
 10
658692.606663899
 20
3846559.72077083
 10
658724.874749059
 20
3846495.98186667
  0
LWPOLYLINE
  5
20108
100
AcDbEntity
  8
0
100
AcDbPolyline
 70
0
 90
2
 10
658723.683206282
 20
3846578.15887487
 10
658692.606663899
 20
3846559.72077083
  0
LWPOLYLINE
  5
20109
100
AcDbEntity
  8
0
100
AcDbPolyline
 70
0
 90
2
 10
658724.874749059
 20
3846495.98186667
 10
658740.651387141
 20
3846471.56106844
  0
LWPOLYLINE
  5
2010A
100
AcDbEntity
  8
0
100
AcDbPolyline
 70
0
 90
2
 10
658739.243755845
 20
3846501.85438523
 10
658724.874749059
 20
3846495.98186667
  0
LWPOLYLINE
  5
2010B
100
AcDbEntity
  8
0
100
AcDbPolyline
 70
0
 90
2
 10
658739.243755845
 20
3846501.85438523
 10
658763.452774606
 20
3846475.72063331
  0
LWPOLYLINE
  5
2010C
100
AcDbEntity
  8
0
100
AcDbPolyline
 70
0
 90
2
 10
658760.249450358
 20
3846507.0260406
 10
658739.243755845
 20
3846501.85438523
  0
LWPOLYLINE
  5
2010D
100
AcDbEntity
  8
0
100
AcDbPolyline
 70
0
 90
2
 10
658763.452774606
 20
3846475.72063331
 10
658784.216669191
 20
3846460.34648074
  0
LWPOLYLINE
  5
2010E
100
AcDbEntity
  8
0
100
AcDbPolyline
 70
0
 90
5
 10
658760.249450358
 20
3846507.0260406
 10
658776.501774992
 20
3846501.31798636
 10
658784.081376296
 20
3846490.68805403
 10
658772.480527395
 20
3846484.23675126
 10
658763.452774606
 20
3846475.72063331
  0
LWPOLYLINE
  5
2010F
100
AcDbEntity
  8
0
100
AcDbPolyline
 70
0
 90
2
 10
658794.289071972
 20
3846477.80676113
 10
658784.216669191
 20
3846460.34648074
  0
LWPOLYLINE
  5
20110
100
AcDbEntity
  8
0
100
AcDbPolyline
 70
0
 90
3
 10
658734.168469428
 20
3846457.59080629
 10
658691.497810163
 20
3846424.53624333
 10
658667.469742063
 20
3846407.50778777
  0
LWPOLYLINE
  5
20111
100
AcDbEntity
  8
0
100
AcDbPolyline
 70
0
 90
2
 10
658737.800882411
 20
3846337.16544132
 10
658713.701869264
 20
3846332.41876313
  0
LWPOLYLINE
  5
20112
100
AcDbEntity
  8
0
100
AcDbPolyline
 70
0
 90
4
 10
658737.800882411
 20
3846337.16544132
 10
658740.180635104
 20
3846322.55454674
 10
658729.217081549
 20
3846293.96130616
 10
658701.215690345
 20
3846270.5723415
  0
LWPOLYLINE
  5
20113
100
AcDbEntity
  8
0
100
AcDbPolyline
 70
0
 90
2
 10
658696.47847319
 20
3846255.89313786
 10
658669.483317187
 20
3846243.38690243
  0
LWPOLYLINE
  5
20114
100
AcDbEntity
  8
0
100
AcDbPolyline
 70
0
 90
3
 10
658669.483317187
 20
3846243.38690243
 10
658682.135054164
 20
3846220.07289311
 10
658648.055739189
 20
3846197.11956543
  0
LWPOLYLINE
  5
20115
100
AcDbEntity
  8
0
100
AcDbPolyline
 70
0
 90
3
 10
658648.055739189
 20
3846197.11956543
 10
658634.431714019
 20
3846188.10819152
 10
658653.521213255
 20
3846138.93763422
  0
ENDSEC
  0
SECTION
  2
OBJECTS
  0
DICTIONARY
  5
C
330
0
100
AcDbDictionary
281
     1
  3
ACAD_GROUP
350
D
  3
ACAD_LAYOUT
350
1A
  3
ACAD_MLEADERSTYLE
350
43
  3
ACAD_PLOTSETTINGS
350
19
  3
ACAD_PLOTSTYLENAME
350
E
  3
ACAD_TABLESTYLE
350
42
  0
DICTIONARY
  5
D
102
{ACAD_REACTORS
330
C
102
}
330
C
100
AcDbDictionary
281
     1
  0
DICTIONARY
  5
1A
102
{ACAD_REACTORS
330
C
102
}
330
C
100
AcDbDictionary
281
     1
  3
Layout1
350
1E
  3
Model
350
22
  0
DICTIONARY
  5
43
102
{ACAD_REACTORS
330
C
102
}
330
C
100
AcDbDictionary
281
     1
  0
DICTIONARY
  5
19
102
{ACAD_REACTORS
330
C
102
}
330
C
100
AcDbDictionary
281
     1
  0
ACDBDICTIONARYWDFLT
  5
E
102
{ACAD_REACTORS
330
C
102
}
330
C
100
AcDbDictionary
281
     1
  3
Normal
350
F
100
AcDbDictionaryWithDefault
340
F
  0
DICTIONARY
  5
42
102
{ACAD_REACTORS
330
C
102
}
330
C
100
AcDbDictionary
281
     1
  0
LAYOUT
  5
1E
102
{ACAD_REACTORS
330
1A
102
}
330
1A
100
AcDbPlotSettings
  1

  2
none_device
  4

  6

 40
0.0
 41
0.0
 42
0.0
 43
0.0
 44
0.0
 45
0.0
 46
0.0
 47
0.0
 48
0.0
 49
0.0
140
0.0
141
0.0
142
1.0
143
1.0
 70
   688
 72
     0
 73
     0
 74
     5
  7

 75
    16
 76
     0
 77
     2
 78
   300
147
1.0
148
0.0
149
0.0
100
AcDbLayout
  1
Layout1
 70
     1
 71
     1
 10
0.0
 20
0.0
 11
12.0
 21
9.0
 12
0.0
 22
0.0
 32
0.0
 14
1.000000000000000E+20
 24
1.000000000000000E+20
 34
1.000000000000000E+20
 15
-1.000000000000000E+20
 25
-1.000000000000000E+20
 35
-1.000000000000000E+20
146
0.0
 13
0.0
 23
0.0
 33
0.0
 16
1.0
 26
0.0
 36
0.0
 17
0.0
 27
1.0
 37
0.0
 76
     0
330
1B
  0
LAYOUT
  5
22
102
{ACAD_REACTORS
330
1A
102
}
330
1A
100
AcDbPlotSettings
  1

  2
none_device
  4

  6

 40
0.0
 41
0.0
 42
0.0
 43
0.0
 44
0.0
 45
0.0
 46
0.0
 47
0.0
 48
0.0
 49
0.0
140
0.0
141
0.0
142
1.0
143
1.0
 70
  1712
 72
     0
 73
     0
 74
     0
  7

 75
     0
 76
     0
 77
     2
 78
   300
147
1.0
148
0.0
149
0.0
100
AcDbLayout
  1
Model
 70
     1
 71
     0
 10
0.0
 20
0.0
 11
12.0
 21
9.0
 12
0.0
 22
0.0
 32
0.0
 14
30.0
 24
49.75
 34
0.0
 15
130.5
 25
163.1318914119703
 35
0.0
146
0.0
 13
0.0
 23
0.0
 33
0.0
 16
1.0
 26
0.0
 36
0.0
 17
0.0
 27
1.0
 37
0.0
 76
     0
330
1F
331
29
  0
ENDSEC
  0
EOF
