  0
SECTION
  2
HEADER
  9
$ACADVER
  1
AC1018
  9
$ACADMAINTVER
 70
     0
  9
$DWGCODEPAGE
  3
ANSI_1252
  9
$EXTMIN
 10
494685.893866559
 20
3618074.95055602
 30
0.0
  9
$EXTMAX
 10
496553.195518369
 20
3619837.14743592
 30
0.0
  9
$LIMMIN
 10
0.0
 20
0.0
  9
$LIMMAX
 10
12.0
 20
9.0
  9
$ORTHOMODE
 70
     0
  9
$REGENMODE
 70
     1
  9
$FILLMODE
 70
     1
  9
$QTEXTMODE
 70
     0
  9
$MIRRTEXT
 70
     1
  9
$LTSCALE
 40
1.0
  9
$ATTMODE
 70
     1
  9
$TEXTSIZE
 40
0.2
  9
$TRACEWID
 40
0.05
  9
$TEXTSTYLE
  7
Standard
  9
$CLAYER
  8
0
  9
$CELTYPE
  6
ByLayer
  9
$CECOLOR
 62
   256
  9
$CELTSCALE
 40
1.0
  9
$DISPSILH
 70
     0
  9
$LUNITS
 70
     2
  9
$LUPREC
 70
     4
  9
$SKETCHINC
 40
0.1
  9
$FILLETRAD
 40
0.5
  9
$AUNITS
 70
     0
  9
$AUPREC
 70
     0
  9
$MENU
  1
.
  9
$ELEVATION
 40
0.0
  9
$PELEVATION
 40
0.0
  9
$THICKNESS
 40
0.0
  9
$LIMCHECK
 70
     0
  9
$CHAMFERA
 40
0.5
  9
$CHAMFERB
 40
0.5
  9
$CHAMFERC
 40
1.0
  9
$CHAMFERD
 40
0.0
  9
$SKPOLY
 70
     0
  9
$ANGBASE
 50
0.0
  9
$ANGDIR
 70
     0
  9
$PDMODE
 70
     0
  9
$PDSIZE
 40
0.0
  9
$PLINEWID
 40
0.0
  9
$SPLFRAME
 70
     0
  9
$SPLINETYPE
 70
     6
  9
$SPLINESEGS
 70
     8
  9
$HANDSEED
  5
00020217
  9
$SURFTAB1
 70
     6
  9
$SURFTAB2
 70
     6
  9
$SURFTYPE
 70
     6
  9
$SURFU
 70
     6
  9
$SURFV
 70
     6
  9
$UCSBASE
  2

  9
$UCSNAME
  2

  9
$UCSORG
 10
0.0
 20
0.0
 30
0.0
  9
$UCSXDIR
 10
1.0
 20
0.0
 30
0.0
  9
$UCSYDIR
 10
0.0
 20
1.0
 30
0.0
  9
$UCSORTHOREF
  2

  9
$UCSORTHOVIEW
 70
     0
  9
$UCSORGTOP
 10
0.0
 20
0.0
 30
0.0
  9
$UCSORGBOTTOM
 10
0.0
 20
0.0
 30
0.0
  9
$UCSORGLEFT
 10
0.0
 20
0.0
 30
0.0
  9
$UCSORGRIGHT
 10
0.0
 20
0.0
 30
0.0
  9
$UCSORGFRONT
 10
0.0
 20
0.0
 30
0.0
  9
$UCSORGBACK
 10
0.0
 20
0.0
 30
0.0
  9
$PUCSBASE
  2

  9
$PUCSNAME
  2

  9
$PUCSORG
 10
0.0
 20
0.0
 30
0.0
  9
$PUCSXDIR
 10
1.0
 20
0.0
 30
0.0
  9
$PUCSYDIR
 10
0.0
 20
1.0
 30
0.0
  9
$PUCSORTHOREF
  2

  9
$PUCSORTHOVIEW
 70
     0
  9
$PUCSORGTOP
 10
0.0
 20
0.0
 30
0.0
  9
$PUCSORGBOTTOM
 10
0.0
 20
0.0
 30
0.0
  9
$PUCSORGLEFT
 10
0.0
 20
0.0
 30
0.0
  9
$PUCSORGRIGHT
 10
0.0
 20
0.0
 30
0.0
  9
$PUCSORGFRONT
 10
0.0
 20
0.0
 30
0.0
  9
$PUCSORGBACK
 10
0.0
 20
0.0
 30
0.0
  9
$WORLDVIEW
 70
     1
  9
$SHADEDGE
 70
     3
  9
$SHADEDIF
 70
    70
  9
$TILEMODE
 70
     1
  9
$MAXACTVP
 70
    64
  9
$PINSBASE
 10
0.0
 20
0.0
 30
0.0
  9
$PLIMCHECK
 70
     0
  9
$PEXTMIN
 10
1.000000000000000E+20
 20
1.000000000000000E+20
 30
1.000000000000000E+20
  9
$PEXTMAX
 10
-1.000000000000000E+20
 20
-1.000000000000000E+20
 30
-1.000000000000000E+20
  9
$PLIMMIN
 10
0.0
 20
0.0
  9
$PLIMMAX
 10
12.0
 20
9.0
  9
$UNITMODE
 70
     0
  9
$VISRETAIN
 70
     1
  9
$PLINEGEN
 70
     0
  9
$PSLTSCALE
 70
     1
  9
$TREEDEPTH
 70
  3020
  9
$CMLSTYLE
  2
Standard
  9
$CMLJUST
 70
     0
  9
$CMLSCALE
 40
1.0
  9
$PROXYGRAPHICS
 70
     1
  9
$MEASUREMENT
 70
     0
  9
$CELWEIGHT
370
    -1
  9
$ENDCAPS
280
     0
  9
$JOINSTYLE
280
     0
  9
$LWDISPLAY
290
     0
  9
$INSUNITS
 70
     1
  9
$HYPERLINKBASE
  1

  9
$STYLESHEET
  1

  9
$XEDIT
290
     1
  9
$CEPSNTYPE
380
     0
  9
$PSTYLEMODE
290
     1
  9
$EXTNAMES
290
     1
  9
$PSVPSCALE
 40
0.0
  9
$OLESTARTUP
290
     0
  9
$SORTENTS
280
   127
  9
$INDEXCTL
280
     0
  9
$HIDETEXT
280
     1
  9
$XCLIPFRAME
290
     0
  9
$HALOGAP
280
     0
  9
$OBSCOLOR
 70
   257
  9
$OBSLTYPE
280
     0
  9
$INTERSECTIONDISPLAY
280
     0
  9
$INTERSECTIONCOLOR
 70
   257
  9
$DIMASSOC
280
     2
  9
$PROJECTNAME
  1

  0
ENDSEC
  0
SECTION
  2
CLASSES
  0
CLASS
  1
ACDBDICTIONARYWDFLT
  2
AcDbDictionaryWithDefault
  3
ObjectDBX Classes
 90
        0
 91
        4
280
     0
281
     0
  0
ENDSEC
  0
SECTION
  2
TABLES
  0
TABLE
  2
VPORT
  5
8
330
0
100
AcDbSymbolTable
 70
     1
  0
VPORT
  5
29
330
8
100
AcDbSymbolTableRecord
100
AcDbViewportTableRecord
  2
*Active
 70
     0
 10
0.0
 20
0.0
 11
1.0
 21
1.0
 12
80.25
 22
106.4409457059851
 13
0.0
 23
0.0
 14
0.5
 24
0.5
 15
0.5
 25
0.5
 16
0.0
 26
0.0
 36
1.0
 17
0.0
 27
0.0
 37
0.0
 40
113.3818914119703
 41
0.8863849310366128
 42
50.0
 43
0.0
 44
0.0
 50
0.0
 51
0.0
 71
     0
 72
  1000
 73
     1
 74
     3
 75
     0
 76
     0
 77
     0
 78
     0
281
     0
 65
     1
110
0.0
120
0.0
130
0.0
111
1.0
121
0.0
131
0.0
112
0.0
122
1.0
132
0.0
 79
     0
146
0.0
  0
ENDTAB
  0
TABLE
  2
LTYPE
  5
5
330
0
100
AcDbSymbolTable
 70
     1
  0
LTYPE
  5
14
330
5
100
AcDbSymbolTableRecord
100
AcDbLinetypeTableRecord
  2
ByBlock
 70
     0
  3

 72
    65
 73
     0
 40
0.0
  0
LTYPE
  5
15
330
5
100
AcDbSymbolTableRecord
100
AcDbLinetypeTableRecord
  2
ByLayer
 70
     0
  3

 72
    65
 73
     0
 40
0.0
  0
LTYPE
  5
16
330
5
100
AcDbSymbolTableRecord
100
AcDbLinetypeTableRecord
  2
Continuous
 70
     0
  3
Solid line
 72
    65
 73
     0
 40
0.0
  0
ENDTAB
  0
TABLE
  2
LAYER
  5
2
330
0
100
AcDbSymbolTable
 70
     1
  0
LAYER
  5
10
330
2
100
AcDbSymbolTableRecord
100
AcDbLayerTableRecord
  2
0
 70
     0
 62
     7
  6
Continuous
370
    -3
390
F
  0
ENDTAB
  0
TABLE
  2
STYLE
  5
3
330
0
100
AcDbSymbolTable
 70
     1
  0
STYLE
  5
11
330
3
100
AcDbSymbolTableRecord
100
AcDbTextStyleTableRecord
  2
Standard
 70
     0
 40
0.0
 41
1.0
 50
0.0
 71
     0
 42
0.2
  3
txt
  4

  0
ENDTAB
  0
TABLE
  2
VIEW
  5
6
330
0
100
AcDbSymbolTable
 70
     0
  0
ENDTAB
  0
TABLE
  2
UCS
  5
7
330
0
100
AcDbSymbolTable
 70
     0
  0
ENDTAB
  0
TABLE
  2
APPID
  5
9
330
0
100
AcDbSymbolTable
 70
     1
  0
APPID
  5
12
330
9
100
AcDbSymbolTableRecord
100
AcDbRegAppTableRecord
  2
ACAD
 70
     0
  0
ENDTAB
  0
TABLE
  2
DIMSTYLE
  5
A
330
0
100
AcDbSymbolTable
 70
     1
100
AcDbDimStyleTable
  0
DIMSTYLE
105
27
330
A
100
AcDbSymbolTableRecord
100
AcDbDimStyleTableRecord
  2
Standard
 70
     0
340
11
  0
ENDTAB
  0
TABLE
  2
BLOCK_RECORD
  5
1
330
0
100
AcDbSymbolTable
 70
     1
  0
BLOCK_RECORD
  5
1F
330
1
100
AcDbSymbolTableRecord
100
AcDbBlockTableRecord
  2
*Model_Space
340
22
  0
BLOCK_RECORD
  5
1B
330
1
100
AcDbSymbolTableRecord
100
AcDbBlockTableRecord
  2
*Paper_Space
340
1E
  0
ENDTAB
  0
ENDSEC
  0
SECTION
  2
BLOCKS
  0
BLOCK
  5
20
330
1F
100
AcDbEntity
  8
0
100
AcDbBlockBegin
  2
*Model_Space
 70
     0
 10
0.0
 20
0.0
 30
0.0
  3
*Model_Space
  1

  0
ENDBLK
  5
21
330
1F
100
AcDbEntity
  8
0
100
AcDbBlockEnd
  0
BLOCK
  5
1C
330
1B
100
AcDbEntity
 67
     1
  8
0
100
AcDbBlockBegin
  2
*Paper_Space
 70
     0
 10
0.0
 20
0.0
 30
0.0
  3
*Paper_Space
  1

  0
ENDBLK
  5
1D
330
1B
100
AcDbEntity
 67
     1
  8
0
100
AcDbBlockEnd
  0
ENDSEC
  0
SECTION
  2
ENTITIES
  0
LWPOLYLINE
  5
20000
100
AcDbEntity
  8
0
100
AcDbPolyline
 70
0
 90
2
 10
494817.905191141
 20
3619178.32659494
 10
494919.126979435
 20
3619024.11171993
  0
LWPOLYLINE
  5
20001
100
AcDbEntity
  8
0
100
AcDbPolyline
 70
0
 90
3
 10
494817.905191141
 20
3619178.32659494
 10
494782.512194405
 20
3619155.2158837
 10
494883.568471905
 20
3619000.70021012
  0
LWPOLYLINE
  5
20002
100
AcDbEntity
  8
0
100
AcDbPolyline
 70
0
 90
2
 10
494850.493636821
 20
3619199.60623069
 10
494817.905191141
 20
3619178.32659494
  0
LWPOLYLINE
  5
20003
100
AcDbEntity
  8
0
100
AcDbPolyline
 70
0
 90
2
 10
494883.568471905
 20
3619000.70021012
 10
494984.042297348
 20
3618847.08071927
  0
LWPOLYLINE
  5
20004
100
AcDbEntity
  8
0
100
AcDbPolyline
 70
0
 90
2
 10
494883.568471905
 20
3619000.70021012
 10
494849.437573342
 20
3618978.22869247
  0
LWPOLYLINE
  5
20005
100
AcDbEntity
  8
0
100
AcDbPolyline
 70
0
 90
2
 10
494919.126979435
 20
3619024.11171993
 10
494883.568471905
 20
3619000.70021012
  0
LWPOLYLINE
  5
20006
100
AcDbEntity
  8
0
100
AcDbPolyline
 70
0
 90
2
 10
494850.493636821
 20
3619199.60623069
 10
494951.980184502
 20
3619045.74218324
  0
LWPOLYLINE
  5
20007
100
AcDbEntity
  8
0
100
AcDbPolyline
 70
0
 90
2
 10
494887.295769675
 20
3619223.637665
 10
494850.493636821
 20
3619199.60623069
  0
LWPOLYLINE
  5
20008
100
AcDbEntity
  8
0
100
AcDbPolyline
 70
0
 90
3
 10
494785.679679207
 20
3619378.32569503
 10
494748.521324407
 20
3619354.21267699
 10
494850.493636821
 20
3619199.60623069
  0
LWPOLYLINE
  5
20009
100
AcDbEntity
  8
0
100
AcDbPolyline
 70
0
 90
2
 10
494919.126979435
 20
3619024.11171993
 10
495019.918869229
 20
3618870.55738556
  0
LWPOLYLINE
  5
2000A
100
AcDbEntity
  8
0
100
AcDbPolyline
 70
0
 90
2
 10
494951.980184502
 20
3619045.74218324
 10
494919.126979435
 20
3619024.11171993
  0
LWPOLYLINE
  5
2000B
100
AcDbEntity
  8
0
100
AcDbPolyline
 70
0
 90
2
 10
494984.042297348
 20
3618847.08071927
 10
494950.001080278
 20
3618824.8054721
  0
LWPOLYLINE
  5
2000C
100
AcDbEntity
  8
0
100
AcDbPolyline
 70
0
 90
2
 10
494984.042297348
 20
3618847.08071927
 10
495082.641664623
 20
3618696.33313401
  0
LWPOLYLINE
  5
2000D
100
AcDbEntity
  8
0
100
AcDbPolyline
 70
0
 90
2
 10
495019.918869229
 20
3618870.55738556
 10
494984.042297348
 20
3618847.08071927
  0
LWPOLYLINE
  5
2000E
100
AcDbEntity
  8
0
100
AcDbPolyline
 70
0
 90
2
 10
494849.437573342
 20
3618978.22869247
 10
494950.001080278
 20
3618824.8054721
  0
LWPOLYLINE
  5
2000F
100
AcDbEntity
  8
0
100
AcDbPolyline
 70
0
 90
3
 10
494849.437573342
 20
3618978.22869247
 10
494813.623444428
 20
3618954.64928855
 10
494914.078519287
 20
3618801.29926274
  0
LWPOLYLINE
  5
20010
100
AcDbEntity
  8
0
100
AcDbPolyline
 70
0
 90
2
 10
494887.295769675
 20
3619223.637665
 10
494988.406045032
 20
3619069.72540221
  0
LWPOLYLINE
  5
20011
100
AcDbEntity
  8
0
100
AcDbPolyline
 70
0
 90
2
 10
494923.013124408
 20
3619246.96098335
 10
494887.295769675
 20
3619223.637665
  0
LWPOLYLINE
  5
20012
100
AcDbEntity
  8
0
100
AcDbPolyline
 70
0
 90
2
 10
494785.679679207
 20
3619378.32569503
 10
494887.295769675
 20
3619223.637665
  0
LWPOLYLINE
  5
20013
100
AcDbEntity
  8
0
100
AcDbPolyline
 70
0
 90
2
 10
494951.980184502
 20
3619045.74218324
 10
495053.178152745
 20
3618892.32144502
  0
LWPOLYLINE
  5
20014
100
AcDbEntity
  8
0
100
AcDbPolyline
 70
0
 90
2
 10
494988.406045032
 20
3619069.72540221
 10
494951.980184502
 20
3619045.74218324
  0
LWPOLYLINE
  5
20015
100
AcDbEntity
  8
0
100
AcDbPolyline
 70
0
 90
2
 10
495019.918869229
 20
3618870.55738556
 10
495118.809700392
 20
3618719.90490035
  0
LWPOLYLINE
  5
20016
100
AcDbEntity
  8
0
100
AcDbPolyline
 70
0
 90
2
 10
495053.178152745
 20
3618892.32144502
 10
495019.918869229
 20
3618870.55738556
  0
LWPOLYLINE
  5
20017
100
AcDbEntity
  8
0
100
AcDbPolyline
 70
0
 90
2
 10
494950.001080278
 20
3618824.8054721
 10
494914.078519287
 20
3618801.29926274
  0
LWPOLYLINE
  5
20018
100
AcDbEntity
  8
0
100
AcDbPolyline
 70
0
 90
2
 10
494950.001080278
 20
3618824.8054721
 10
495048.709235483
 20
3618674.21846059
  0
LWPOLYLINE
  5
20019
100
AcDbEntity
  8
0
100
AcDbPolyline
 70
0
 90
2
 10
495082.641664623
 20
3618696.33313401
 10
495182.393004036
 20
3618543.82995385
  0
LWPOLYLINE
  5
2001A
100
AcDbEntity
  8
0
100
AcDbPolyline
 70
0
 90
2
 10
495118.809700392
 20
3618719.90490035
 10
495082.641664623
 20
3618696.33313401
  0
LWPOLYLINE
  5
2001B
100
AcDbEntity
  8
0
100
AcDbPolyline
 70
0
 90
2
 10
495048.709235483
 20
3618674.21846059
 10
495082.641664623
 20
3618696.33313401
  0
LWPOLYLINE
  5
2001C
100
AcDbEntity
  8
0
100
AcDbPolyline
 70
0
 90
2
 10
494923.013124408
 20
3619246.96098335
 10
495023.866181579
 20
3619093.07282029
  0
LWPOLYLINE
  5
2001D
100
AcDbEntity
  8
0
100
AcDbPolyline
 70
0
 90
2
 10
494959.366124491
 20
3619270.69948187
 10
494923.013124408
 20
3619246.96098335
  0
LWPOLYLINE
  5
2001E
100
AcDbEntity
  8
0
100
AcDbPolyline
 70
0
 90
2
 10
494821.633922298
 20
3619401.65750854
 10
494923.013124408
 20
3619246.96098335
  0
LWPOLYLINE
  5
2001F
100
AcDbEntity
  8
0
100
AcDbPolyline
 70
0
 90
2
 10
494988.406045032
 20
3619069.72540221
 10
495089.38684482
 20
3618916.01580604
  0
LWPOLYLINE
  5
20020
100
AcDbEntity
  8
0
100
AcDbPolyline
 70
0
 90
2
 10
495023.866181579
 20
3619093.07282029
 10
494988.406045032
 20
3619069.72540221
  0
LWPOLYLINE
  5
20021
100
AcDbEntity
  8
0
100
AcDbPolyline
 70
0
 90
2
 10
494821.633922298
 20
3619401.65750854
 10
494785.679679207
 20
3619378.32569503
  0
LWPOLYLINE
  5
20022
100
AcDbEntity
  8
0
100
AcDbPolyline
 70
0
 90
3
 10
494721.90379888
 20
3619553.84369726
 10
494685.893866559
 20
3619530.23335854
 10
494785.679679207
 20
3619378.32569503
  0
LWPOLYLINE
  5
20023
100
AcDbEntity
  8
0
100
AcDbPolyline
 70
0
 90
2
 10
495053.178152745
 20
3618892.32144502
 10
495152.448555424
 20
3618741.82873247
  0
LWPOLYLINE
  5
20024
100
AcDbEntity
  8
0
100
AcDbPolyline
 70
0
 90
2
 10
495089.38684482
 20
3618916.01580604
 10
495053.178152745
 20
3618892.32144502
  0
LWPOLYLINE
  5
20025
100
AcDbEntity
  8
0
100
AcDbPolyline
 70
0
 90
2
 10
495118.809700392
 20
3618719.90490035
 10
495218.746591405
 20
3618567.66482625
  0
LWPOLYLINE
  5
20026
100
AcDbEntity
  8
0
100
AcDbPolyline
 70
0
 90
2
 10
495152.448555424
 20
3618741.82873247
 10
495118.809700392
 20
3618719.90490035
  0
LWPOLYLINE
  5
20027
100
AcDbEntity
  8
0
100
AcDbPolyline
 70
0
 90
2
 10
494914.078519287
 20
3618801.29926274
 10
495012.701563983
 20
3618650.75162778
  0
LWPOLYLINE
  5
20028
100
AcDbEntity
  8
0
100
AcDbPolyline
 70
0
 90
2
 10
495048.709235483
 20
3618674.21846059
 10
495012.701563983
 20
3618650.75162778
  0
LWPOLYLINE
  5
20029
100
AcDbEntity
  8
0
100
AcDbPolyline
 70
0
 90
2
 10
495048.709235483
 20
3618674.21846059
 10
495148.673039164
 20
3618521.72193522
  0
LWPOLYLINE
  5
2002A
100
AcDbEntity
  8
0
100
AcDbPolyline
 70
0
 90
2
 10
495182.393004036
 20
3618543.82995385
 10
495148.673039164
 20
3618521.72193522
  0
LWPOLYLINE
  5
2002B
100
AcDbEntity
  8
0
100
AcDbPolyline
 70
0
 90
2
 10
495182.393004036
 20
3618543.82995385
 10
495285.076886959
 20
3618386.84921529
  0
LWPOLYLINE
  5
2002C
100
AcDbEntity
  8
0
100
AcDbPolyline
 70
0
 90
2
 10
495218.746591405
 20
3618567.66482625
 10
495182.393004036
 20
3618543.82995385
  0
LWPOLYLINE
  5
2002D
100
AcDbEntity
  8
0
100
AcDbPolyline
 70
0
 90
2
 10
494959.366124491
 20
3619270.69948187
 10
495060.024222689
 20
3619116.8799558
  0
LWPOLYLINE
  5
2002E
100
AcDbEntity
  8
0
100
AcDbPolyline
 70
0
 90
2
 10
494994.244362494
 20
3619293.47541574
 10
494959.366124491
 20
3619270.69948187
  0
LWPOLYLINE
  5
2002F
100
AcDbEntity
  8
0
100
AcDbPolyline
 70
0
 90
2
 10
494858.160709612
 20
3619425.36129672
 10
494959.366124491
 20
3619270.69948187
  0
LWPOLYLINE
  5
20030
100
AcDbEntity
  8
0
100
AcDbPolyline
 70
0
 90
2
 10
495023.866181579
 20
3619093.07282029
 10
495124.743718619
 20
3618939.15300605
  0
LWPOLYLINE
  5
20031
100
AcDbEntity
  8
0
100
AcDbPolyline
 70
0
 90
2
 10
495060.024222689
 20
3619116.8799558
 10
495023.866181579
 20
3619093.07282029
  0
LWPOLYLINE
  5
20032
100
AcDbEntity
  8
0
100
AcDbPolyline
 70
0
 90
2
 10
494858.160709612
 20
3619425.36129672
 10
494821.633922298
 20
3619401.65750854
  0
LWPOLYLINE
  5
20033
100
AcDbEntity
  8
0
100
AcDbPolyline
 70
0
 90
2
 10
494721.90379888
 20
3619553.84369726
 10
494821.633922298
 20
3619401.65750854
  0
LWPOLYLINE
  5
20034
100
AcDbEntity
  8
0
100
AcDbPolyline
 70
0
 90
2
 10
495089.38684482
 20
3618916.01580604
 10
495188.421815341
 20
3618765.27403009
  0
LWPOLYLINE
  5
20035
100
AcDbEntity
  8
0
100
AcDbPolyline
 70
0
 90
2
 10
495089.38684482
 20
3618916.01580604
 10
495124.743718619
 20
3618939.15300605
  0
LWPOLYLINE
  5
20036
100
AcDbEntity
  8
0
100
AcDbPolyline
 70
0
 90
2
 10
495152.448555424
 20
3618741.82873247
 10
495252.6668797
 20
3618589.90468351
  0
LWPOLYLINE
  5
20037
100
AcDbEntity
  8
0
100
AcDbPolyline
 70
0
 90
2
 10
495188.421815341
 20
3618765.27403009
 10
495152.448555424
 20
3618741.82873247
  0
LWPOLYLINE
  5
20038
100
AcDbEntity
  8
0
100
AcDbPolyline
 70
0
 90
2
 10
495218.746591405
 20
3618567.66482625
 10
495321.687224672
 20
3618410.85461065
  0
LWPOLYLINE
  5
20039
100
AcDbEntity
  8
0
100
AcDbPolyline
 70
0
 90
2
 10
495252.6668797
 20
3618589.90468351
 10
495218.746591405
 20
3618567.66482625
  0
LWPOLYLINE
  5
2003A
100
AcDbEntity
  8
0
100
AcDbPolyline
 70
0
 90
2
 10
495012.701563983
 20
3618650.75162778
 10
495112.68767251
 20
3618498.12891359
  0
LWPOLYLINE
  5
2003B
100
AcDbEntity
  8
0
100
AcDbPolyline
 70
0
 90
2
 10
495148.673039164
 20
3618521.72193522
 10
495112.68767251
 20
3618498.12891359
  0
LWPOLYLINE
  5
2003C
100
AcDbEntity
  8
0
100
AcDbPolyline
 70
0
 90
2
 10
495148.673039164
 20
3618521.72193522
 10
495251.513755084
 20
3618364.84221007
  0
LWPOLYLINE
  5
2003D
100
AcDbEntity
  8
0
100
AcDbPolyline
 70
0
 90
2
 10
494994.244362494
 20
3619293.47541574
 10
495094.956487123
 20
3619139.8803606
  0
LWPOLYLINE
  5
2003E
100
AcDbEntity
  8
0
100
AcDbPolyline
 70
0
 90
2
 10
495030.697052403
 20
3619317.27941961
 10
494994.244362494
 20
3619293.47541574
  0
LWPOLYLINE
  5
2003F
100
AcDbEntity
  8
0
100
AcDbPolyline
 70
0
 90
2
 10
494892.962347583
 20
3619447.94558342
 10
494994.244362494
 20
3619293.47541574
  0
LWPOLYLINE
  5
20040
100
AcDbEntity
  8
0
100
AcDbPolyline
 70
0
 90
2
 10
495060.024222689
 20
3619116.8799558
 10
495160.863380059
 20
3618962.78969506
  0
LWPOLYLINE
  5
20041
100
AcDbEntity
  8
0
100
AcDbPolyline
 70
0
 90
2
 10
495094.956487123
 20
3619139.8803606
 10
495060.024222689
 20
3619116.8799558
  0
LWPOLYLINE
  5
20042
100
AcDbEntity
  8
0
100
AcDbPolyline
 70
0
 90
2
 10
494892.962347583
 20
3619447.94558342
 10
494858.160709612
 20
3619425.36129672
  0
LWPOLYLINE
  5
20043
100
AcDbEntity
  8
0
100
AcDbPolyline
 70
0
 90
2
 10
494758.422052261
 20
3619577.78757258
 10
494858.160709612
 20
3619425.36129672
  0
LWPOLYLINE
  5
20044
100
AcDbEntity
  8
0
100
AcDbPolyline
 70
0
 90
2
 10
495124.743718619
 20
3618939.15300605
 10
495223.655850997
 20
3618788.23792728
  0
LWPOLYLINE
  5
20045
100
AcDbEntity
  8
0
100
AcDbPolyline
 70
0
 90
2
 10
495160.863380059
 20
3618962.78969506
 10
495124.743718619
 20
3618939.15300605
  0
LWPOLYLINE
  5
20046
100
AcDbEntity
  8
0
100
AcDbPolyline
 70
0
 90
2
 10
494758.422052261
 20
3619577.78757258
 10
494721.90379888
 20
3619553.84369726
  0
LWPOLYLINE
  5
20047
100
AcDbEntity
  8
0
100
AcDbPolyline
 70
0
 90
2
 10
495188.421815341
 20
3618765.27403009
 10
495288.293814741
 20
3618613.26370405
  0
LWPOLYLINE
  5
20048
100
AcDbEntity
  8
0
100
AcDbPolyline
 70
0
 90
2
 10
495223.655850997
 20
3618788.23792728
 10
495188.421815341
 20
3618765.27403009
  0
LWPOLYLINE
  5
20049
100
AcDbEntity
  8
0
100
AcDbPolyline
 70
0
 90
2
 10
495252.6668797
 20
3618589.90468351
 10
495355.95911963
 20
3618433.32666967
  0
LWPOLYLINE
  5
2004A
100
AcDbEntity
  8
0
100
AcDbPolyline
 70
0
 90
2
 10
495288.293814741
 20
3618613.26370405
 10
495252.6668797
 20
3618589.90468351
  0
LWPOLYLINE
  5
2004B
100
AcDbEntity
  8
0
100
AcDbPolyline
 70
0
 90
2
 10
495321.687224672
 20
3618410.85461065
 10
495355.95911963
 20
3618433.32666967
  0
LWPOLYLINE
  5
2004C
100
AcDbEntity
  8
0
100
AcDbPolyline
 70
0
 90
2
 10
495321.687224672
 20
3618410.85461065
 10
495423.327696428
 20
3618256.03139988
  0
LWPOLYLINE
  5
2004D
100
AcDbEntity
  8
0
100
AcDbPolyline
 70
0
 90
2
 10
495321.687224672
 20
3618410.85461065
 10
495285.076886959
 20
3618386.84921529
  0
LWPOLYLINE
  5
2004E
100
AcDbEntity
  8
0
100
AcDbPolyline
 70
0
 90
2
 10
495030.697052403
 20
3619317.27941961
 10
495131.296625503
 20
3619163.80794427
  0
LWPOLYLINE
  5
2004F
100
AcDbEntity
  8
0
100
AcDbPolyline
 70
0
 90
2
 10
495065.464339587
 20
3619339.98327159
 10
495030.697052403
 20
3619317.27941961
  0
LWPOLYLINE
  5
20050
100
AcDbEntity
  8
0
100
AcDbPolyline
 70
0
 90
2
 10
494929.505387714
 20
3619471.66026859
 10
495030.697052403
 20
3619317.27941961
  0
LWPOLYLINE
  5
20051
100
AcDbEntity
  8
0
100
AcDbPolyline
 70
0
 90
2
 10
495094.956487123
 20
3619139.8803606
 10
495131.296625503
 20
3619163.80794427
  0
LWPOLYLINE
  5
20052
100
AcDbEntity
  8
0
100
AcDbPolyline
 70
0
 90
2
 10
495094.956487123
 20
3619139.8803606
 10
495196.001011262
 20
3618985.78369917
  0
LWPOLYLINE
  5
20053
100
AcDbEntity
  8
0
100
AcDbPolyline
 70
0
 90
2
 10
494792.976762245
 20
3619600.44425382
 10
494892.962347583
 20
3619447.94558342
  0
LWPOLYLINE
  5
20054
100
AcDbEntity
  8
0
100
AcDbPolyline
 70
0
 90
2
 10
494929.505387714
 20
3619471.66026859
 10
494892.962347583
 20
3619447.94558342
  0
LWPOLYLINE
  5
20055
100
AcDbEntity
  8
0
100
AcDbPolyline
 70
0
 90
2
 10
495160.863380059
 20
3618962.78969506
 10
495259.716152029
 20
3618811.74031073
  0
LWPOLYLINE
  5
20056
100
AcDbEntity
  8
0
100
AcDbPolyline
 70
0
 90
2
 10
495196.001011262
 20
3618985.78369917
 10
495160.863380059
 20
3618962.78969506
  0
LWPOLYLINE
  5
20057
100
AcDbEntity
  8
0
100
AcDbPolyline
 70
0
 90
2
 10
494792.976762245
 20
3619600.44425382
 10
494758.422052261
 20
3619577.78757258
  0
LWPOLYLINE
  5
20058
100
AcDbEntity
  8
0
100
AcDbPolyline
 70
0
 90
2
 10
495223.655850997
 20
3618788.23792728
 10
495323.298055981
 20
3618636.21453461
  0
LWPOLYLINE
  5
20059
100
AcDbEntity
  8
0
100
AcDbPolyline
 70
0
 90
2
 10
495259.716152029
 20
3618811.74031073
 10
495223.655850997
 20
3618788.23792728
  0
LWPOLYLINE
  5
2005A
100
AcDbEntity
  8
0
100
AcDbPolyline
 70
0
 90
2
 10
494829.428955712
 20
3619624.34530312
 10
494792.976762245
 20
3619600.44425382
  0
LWPOLYLINE
  5
2005B
100
AcDbEntity
  8
0
100
AcDbPolyline
 70
0
 90
2
 10
494829.428955712
 20
3619624.34530312
 10
494929.505387714
 20
3619471.66026859
  0
LWPOLYLINE
  5
2005C
100
AcDbEntity
  8
0
100
AcDbPolyline
 70
0
 90
2
 10
494864.12396253
 20
3619647.09439117
 10
494829.428955712
 20
3619624.34530312
  0
LWPOLYLINE
  5
2005D
100
AcDbEntity
  8
0
100
AcDbPolyline
 70
0
 90
2
 10
495288.293814741
 20
3618613.26370405
 10
495391.294887777
 20
3618456.49696143
  0
LWPOLYLINE
  5
2005E
100
AcDbEntity
  8
0
100
AcDbPolyline
 70
0
 90
2
 10
495323.298055981
 20
3618636.21453461
 10
495288.293814741
 20
3618613.26370405
  0
LWPOLYLINE
  5
2005F
100
AcDbEntity
  8
0
100
AcDbPolyline
 70
0
 90
2
 10
495355.95911963
 20
3618433.32666967
 10
495457.919912061
 20
3618278.77281403
  0
LWPOLYLINE
  5
20060
100
AcDbEntity
  8
0
100
AcDbPolyline
 70
0
 90
2
 10
495391.294887777
 20
3618456.49696143
 10
495355.95911963
 20
3618433.32666967
  0
LWPOLYLINE
  5
20061
100
AcDbEntity
  8
0
100
AcDbPolyline
 70
0
 90
2
 10
495065.464339587
 20
3619339.98327159
 10
495165.992310177
 20
3619186.65307528
  0
LWPOLYLINE
  5
20062
100
AcDbEntity
  8
0
100
AcDbPolyline
 70
0
 90
2
 10
495100.106501211
 20
3619362.60560725
 10
495065.464339587
 20
3619339.98327159
  0
LWPOLYLINE
  5
20063
100
AcDbEntity
  8
0
100
AcDbPolyline
 70
0
 90
2
 10
494964.322450926
 20
3619494.25532954
 10
495065.464339587
 20
3619339.98327159
  0
LWPOLYLINE
  5
20064
100
AcDbEntity
  8
0
100
AcDbPolyline
 70
0
 90
2
 10
495131.296625503
 20
3619163.80794427
 10
495232.386117429
 20
3619009.59456315
  0
LWPOLYLINE
  5
20065
100
AcDbEntity
  8
0
100
AcDbPolyline
 70
0
 90
2
 10
495165.992310177
 20
3619186.65307528
 10
495131.296625503
 20
3619163.80794427
  0
LWPOLYLINE
  5
20066
100
AcDbEntity
  8
0
100
AcDbPolyline
 70
0
 90
2
 10
494964.322450926
 20
3619494.25532954
 10
494929.505387714
 20
3619471.66026859
  0
LWPOLYLINE
  5
20067
100
AcDbEntity
  8
0
100
AcDbPolyline
 70
0
 90
2
 10
495196.001011262
 20
3618985.78369917
 10
495295.034797412
 20
3618834.75984909
  0
LWPOLYLINE
  5
20068
100
AcDbEntity
  8
0
100
AcDbPolyline
 70
0
 90
2
 10
495232.386117429
 20
3619009.59456315
 10
495196.001011262
 20
3618985.78369917
  0
LWPOLYLINE
  5
20069
100
AcDbEntity
  8
0
100
AcDbPolyline
 70
0
 90
2
 10
495259.716152029
 20
3618811.74031073
 10
495359.189887493
 20
3618659.74772788
  0
LWPOLYLINE
  5
2006A
100
AcDbEntity
  8
0
100
AcDbPolyline
 70
0
 90
2
 10
495295.034797412
 20
3618834.75984909
 10
495259.716152029
 20
3618811.74031073
  0
LWPOLYLINE
  5
2006B
100
AcDbEntity
  8
0
100
AcDbPolyline
 70
0
 90
2
 10
495323.298055981
 20
3618636.21453461
 10
495359.189887493
 20
3618659.74772788
  0
LWPOLYLINE
  5
2006C
100
AcDbEntity
  8
0
100
AcDbPolyline
 70
0
 90
2
 10
495323.298055981
 20
3618636.21453461
 10
495426.126277731
 20
3618479.33648789
  0
LWPOLYLINE
  5
2006D
100
AcDbEntity
  8
0
100
AcDbPolyline
 70
0
 90
2
 10
494864.12396253
 20
3619647.09439117
 10
494964.322450926
 20
3619494.25532954
  0
LWPOLYLINE
  5
2006E
100
AcDbEntity
  8
0
100
AcDbPolyline
 70
0
 90
2
 10
494882.018587347
 20
3619655.69527105
 10
494864.12396253
 20
3619647.09439117
  0
LWPOLYLINE
  5
2006F
100
AcDbEntity
  8
0
100
AcDbPolyline
 70
0
 90
2
 10
495391.294887777
 20
3618456.49696143
 10
495492.941653827
 20
3618301.79727758
  0
LWPOLYLINE
  5
20070
100
AcDbEntity
  8
0
100
AcDbPolyline
 70
0
 90
2
 10
495426.126277731
 20
3618479.33648789
 10
495391.294887777
 20
3618456.49696143
  0
LWPOLYLINE
  5
20071
100
AcDbEntity
  8
0
100
AcDbPolyline
 70
0
 90
2
 10
495100.106501211
 20
3619362.60560725
 10
495200.67855399
 20
3619209.49212461
  0
LWPOLYLINE
  5
20072
100
AcDbEntity
  8
0
100
AcDbPolyline
 70
0
 90
2
 10
494998.897956124
 20
3619516.69355293
 10
495100.106501211
 20
3619362.60560725
  0
LWPOLYLINE
  5
20073
100
AcDbEntity
  8
0
100
AcDbPolyline
 70
0
 90
2
 10
495147.060505208
 20
3619393.26823422
 10
495100.106501211
 20
3619362.60560725
  0
LWPOLYLINE
  5
20074
100
AcDbEntity
  8
0
100
AcDbPolyline
 70
0
 90
2
 10
495165.992310177
 20
3619186.65307528
 10
495267.160884297
 20
3619032.35165348
  0
LWPOLYLINE
  5
20075
100
AcDbEntity
  8
0
100
AcDbPolyline
 70
0
 90
2
 10
495200.67855399
 20
3619209.49212461
 10
495165.992310177
 20
3619186.65307528
  0
LWPOLYLINE
  5
20076
100
AcDbEntity
  8
0
100
AcDbPolyline
 70
0
 90
2
 10
495232.386117429
 20
3619009.59456315
 10
495331.442204276
 20
3618858.48913872
  0
LWPOLYLINE
  5
20077
100
AcDbEntity
  8
0
100
AcDbPolyline
 70
0
 90
2
 10
495267.160884297
 20
3619032.35165348
 10
495232.386117429
 20
3619009.59456315
  0
LWPOLYLINE
  5
20078
100
AcDbEntity
  8
0
100
AcDbPolyline
 70
0
 90
2
 10
494998.897956124
 20
3619516.69355293
 10
494964.322450926
 20
3619494.25532954
  0
LWPOLYLINE
  5
20079
100
AcDbEntity
  8
0
100
AcDbPolyline
 70
0
 90
2
 10
495295.034797412
 20
3618834.75984909
 10
495394.584188897
 20
3618682.9548141
  0
LWPOLYLINE
  5
2007A
100
AcDbEntity
  8
0
100
AcDbPolyline
 70
0
 90
2
 10
495331.442204276
 20
3618858.48913872
 10
495295.034797412
 20
3618834.75984909
  0
LWPOLYLINE
  5
2007B
100
AcDbEntity
  8
0
100
AcDbPolyline
 70
0
 90
2
 10
495359.189887493
 20
3618659.74772788
 10
495461.909957974
 20
3618502.80070192
  0
LWPOLYLINE
  5
2007C
100
AcDbEntity
  8
0
100
AcDbPolyline
 70
0
 90
2
 10
495394.584188897
 20
3618682.9548141
 10
495359.189887493
 20
3618659.74772788
  0
LWPOLYLINE
  5
2007D
100
AcDbEntity
  8
0
100
AcDbPolyline
 70
0
 90
2
 10
495426.126277731
 20
3618479.33648789
 10
495527.576022075
 20
3618324.56685145
  0
LWPOLYLINE
  5
2007E
100
AcDbEntity
  8
0
100
AcDbPolyline
 70
0
 90
2
 10
495461.909957974
 20
3618502.80070192
 10
495426.126277731
 20
3618479.33648789
  0
LWPOLYLINE
  5
2007F
100
AcDbEntity
  8
0
100
AcDbPolyline
 70
0
 90
2
 10
494882.018587347
 20
3619655.69527105
 10
494932.699145505
 20
3619619.33920121
  0
LWPOLYLINE
  5
20080
100
AcDbEntity
  8
0
100
AcDbPolyline
 70
0
 90
2
 10
494932.699145505
 20
3619619.33920121
 10
494998.897956124
 20
3619516.69355293
  0
LWPOLYLINE
  5
20081
100
AcDbEntity
  8
0
100
AcDbPolyline
 70
0
 90
2
 10
494932.699145505
 20
3619619.33920121
 10
494967.004388175
 20
3619609.40544469
  0
LWPOLYLINE
  5
20082
100
AcDbEntity
  8
0
100
AcDbPolyline
 70
0
 90
2
 10
495045.332562687
 20
3619546.82829661
 10
494998.897956124
 20
3619516.69355293
  0
LWPOLYLINE
  5
20083
100
AcDbEntity
  8
0
100
AcDbPolyline
 70
0
 90
2
 10
495000.758573362
 20
3619612.73023993
 10
494967.004388175
 20
3619609.40544469
  0
LWPOLYLINE
  5
20084
100
AcDbEntity
  8
0
100
AcDbPolyline
 70
0
 90
2
 10
495000.758573362
 20
3619612.73023993
 10
495045.332562687
 20
3619546.82829661
  0
LWPOLYLINE
  5
20085
100
AcDbEntity
  8
0
100
AcDbPolyline
 70
0
 90
2
 10
495045.332562687
 20
3619546.82829661
 10
495147.060505208
 20
3619393.26823422
  0
LWPOLYLINE
  5
20086
100
AcDbEntity
  8
0
100
AcDbPolyline
 70
0
 90
2
 10
495082.650532118
 20
3619571.04699703
 10
495045.332562687
 20
3619546.82829661
  0
LWPOLYLINE
  5
20087
100
AcDbEntity
  8
0
100
AcDbPolyline
 70
0
 90
2
 10
495147.060505208
 20
3619393.26823422
 10
495185.171321466
 20
3619418.1562704
  0
LWPOLYLINE
  5
20088
100
AcDbEntity
  8
0
100
AcDbPolyline
 70
0
 90
2
 10
495147.060505208
 20
3619393.26823422
 10
495248.116741263
 20
3619240.72799874
  0
LWPOLYLINE
  5
20089
100
AcDbEntity
  8
0
100
AcDbPolyline
 70
0
 90
2
 10
495200.67855399
 20
3619209.49212461
 10
495302.042554467
 20
3619055.1790975
  0
LWPOLYLINE
  5
2008A
100
AcDbEntity
  8
0
100
AcDbPolyline
 70
0
 90
2
 10
495248.116741263
 20
3619240.72799874
 10
495200.67855399
 20
3619209.49212461
  0
LWPOLYLINE
  5
2008B
100
AcDbEntity
  8
0
100
AcDbPolyline
 70
0
 90
2
 10
495267.160884297
 20
3619032.35165348
 10
495366.273760922
 20
3618881.19156068
  0
LWPOLYLINE
  5
2008C
100
AcDbEntity
  8
0
100
AcDbPolyline
 70
0
 90
2
 10
495302.042554467
 20
3619055.1790975
 10
495267.160884297
 20
3619032.35165348
  0
LWPOLYLINE
  5
2008D
100
AcDbEntity
  8
0
100
AcDbPolyline
 70
0
 90
2
 10
495331.442204276
 20
3618858.48913872
 10
495430.904694587
 20
3618706.76952942
  0
LWPOLYLINE
  5
2008E
100
AcDbEntity
  8
0
100
AcDbPolyline
 70
0
 90
2
 10
495366.273760922
 20
3618881.19156068
 10
495331.442204276
 20
3618858.48913872
  0
LWPOLYLINE
  5
2008F
100
AcDbEntity
  8
0
100
AcDbPolyline
 70
0
 90
2
 10
495394.584188897
 20
3618682.9548141
 10
495497.446990159
 20
3618526.10341975
  0
LWPOLYLINE
  5
20090
100
AcDbEntity
  8
0
100
AcDbPolyline
 70
0
 90
2
 10
495430.904694587
 20
3618706.76952942
 10
495394.584188897
 20
3618682.9548141
  0
LWPOLYLINE
  5
20091
100
AcDbEntity
  8
0
100
AcDbPolyline
 70
0
 90
2
 10
495461.909957974
 20
3618502.80070192
 10
495563.226257393
 20
3618348.00488037
  0
LWPOLYLINE
  5
20092
100
AcDbEntity
  8
0
100
AcDbPolyline
 70
0
 90
2
 10
495497.446990159
 20
3618526.10341975
 10
495461.909957974
 20
3618502.80070192
  0
LWPOLYLINE
  5
20093
100
AcDbEntity
  8
0
100
AcDbPolyline
 70
0
 90
2
 10
495185.171321466
 20
3619418.1562704
 10
495286.987066515
 20
3619266.32286888
  0
LWPOLYLINE
  5
20094
100
AcDbEntity
  8
0
100
AcDbPolyline
 70
0
 90
2
 10
495220.084991253
 20
3619440.95692763
 10
495185.171321466
 20
3619418.1562704
  0
LWPOLYLINE
  5
20095
100
AcDbEntity
  8
0
100
AcDbPolyline
 70
0
 90
2
 10
495082.650532118
 20
3619571.04699703
 10
495185.171321466
 20
3619418.1562704
  0
LWPOLYLINE
  5
20096
100
AcDbEntity
  8
0
100
AcDbPolyline
 70
0
 90
2
 10
495248.116741263
 20
3619240.72799874
 10
495350.176314685
 20
3619086.67929119
  0
LWPOLYLINE
  5
20097
100
AcDbEntity
  8
0
100
AcDbPolyline
 70
0
 90
2
 10
495286.987066515
 20
3619266.32286888
 10
495248.116741263
 20
3619240.72799874
  0
LWPOLYLINE
  5
20098
100
AcDbEntity
  8
0
100
AcDbPolyline
 70
0
 90
2
 10
495302.042554467
 20
3619055.1790975
 10
495401.326410166
 20
3618904.03833604
  0
LWPOLYLINE
  5
20099
100
AcDbEntity
  8
0
100
AcDbPolyline
 70
0
 90
2
 10
495350.176314685
 20
3619086.67929119
 10
495302.042554467
 20
3619055.1790975
  0
LWPOLYLINE
  5
2009A
100
AcDbEntity
  8
0
100
AcDbPolyline
 70
0
 90
2
 10
495366.273760922
 20
3618881.19156068
 10
495401.326410166
 20
3618904.03833604
  0
LWPOLYLINE
  5
2009B
100
AcDbEntity
  8
0
100
AcDbPolyline
 70
0
 90
2
 10
495366.273760922
 20
3618881.19156068
 10
495465.688334231
 20
3618729.5767427
  0
LWPOLYLINE
  5
2009C
100
AcDbEntity
  8
0
100
AcDbPolyline
 70
0
 90
2
 10
495430.904694587
 20
3618706.76952942
 10
495533.743914967
 20
3618549.90477069
  0
LWPOLYLINE
  5
2009D
100
AcDbEntity
  8
0
100
AcDbPolyline
 70
0
 90
2
 10
495465.688334231
 20
3618729.5767427
 10
495430.904694587
 20
3618706.76952942
  0
LWPOLYLINE
  5
2009E
100
AcDbEntity
  8
0
100
AcDbPolyline
 70
0
 90
2
 10
495497.446990159
 20
3618526.10341975
 10
495598.876699453
 20
3618371.44314846
  0
LWPOLYLINE
  5
2009F
100
AcDbEntity
  8
0
100
AcDbPolyline
 70
0
 90
2
 10
495533.743914967
 20
3618549.90477069
 10
495497.446990159
 20
3618526.10341975
  0
LWPOLYLINE
  5
200A0
100
AcDbEntity
  8
0
100
AcDbPolyline
 70
0
 90
2
 10
495220.084991253
 20
3619440.95692763
 10
495322.119650135
 20
3619289.45656307
  0
LWPOLYLINE
  5
200A1
100
AcDbEntity
  8
0
100
AcDbPolyline
 70
0
 90
2
 10
495255.937277505
 20
3619464.37050992
 10
495220.084991253
 20
3619440.95692763
  0
LWPOLYLINE
  5
200A2
100
AcDbEntity
  8
0
100
AcDbPolyline
 70
0
 90
2
 10
495117.320092236
 20
3619593.54722296
 10
495220.084991253
 20
3619440.95692763
  0
LWPOLYLINE
  5
200A3
100
AcDbEntity
  8
0
100
AcDbPolyline
 70
0
 90
2
 10
495286.987066515
 20
3619266.32286888
 10
495389.985239091
 20
3619112.73184019
  0
LWPOLYLINE
  5
200A4
100
AcDbEntity
  8
0
100
AcDbPolyline
 70
0
 90
2
 10
495322.119650135
 20
3619289.45656307
 10
495286.987066515
 20
3619266.32286888
  0
LWPOLYLINE
  5
200A5
100
AcDbEntity
  8
0
100
AcDbPolyline
 70
0
 90
2
 10
495117.320092236
 20
3619593.54722296
 10
495082.650532118
 20
3619571.04699703
  0
LWPOLYLINE
  5
200A6
100
AcDbEntity
  8
0
100
AcDbPolyline
 70
0
 90
2
 10
495350.176314685
 20
3619086.67929119
 10
495450.114528911
 20
3618935.8380132
  0
LWPOLYLINE
  5
200A7
100
AcDbEntity
  8
0
100
AcDbPolyline
 70
0
 90
2
 10
495389.985239091
 20
3619112.73184019
 10
495350.176314685
 20
3619086.67929119
  0
LWPOLYLINE
  5
200A8
100
AcDbEntity
  8
0
100
AcDbPolyline
 70
0
 90
2
 10
495401.326410166
 20
3618904.03833604
 10
495500.807070382
 20
3618752.60386268
  0
LWPOLYLINE
  5
200A9
100
AcDbEntity
  8
0
100
AcDbPolyline
 70
0
 90
2
 10
495450.114528911
 20
3618935.8380132
 10
495401.326410166
 20
3618904.03833604
  0
LWPOLYLINE
  5
200AA
100
AcDbEntity
  8
0
100
AcDbPolyline
 70
0
 90
2
 10
495465.688334231
 20
3618729.5767427
 10
495568.541836339
 20
3618572.72330749
  0
LWPOLYLINE
  5
200AB
100
AcDbEntity
  8
0
100
AcDbPolyline
 70
0
 90
2
 10
495500.807070382
 20
3618752.60386268
 10
495465.688334231
 20
3618729.5767427
  0
LWPOLYLINE
  5
200AC
100
AcDbEntity
  8
0
100
AcDbPolyline
 70
0
 90
2
 10
495533.743914967
 20
3618549.90477069
 10
495635.122969744
 20
3618395.27337695
  0
LWPOLYLINE
  5
200AD
100
AcDbEntity
  8
0
100
AcDbPolyline
 70
0
 90
2
 10
495568.541836339
 20
3618572.72330749
 10
495533.743914967
 20
3618549.90477069
  0
LWPOLYLINE
  5
200AE
100
AcDbEntity
  8
0
100
AcDbPolyline
 70
0
 90
2
 10
495255.937277505
 20
3619464.37050992
 10
495357.798711666
 20
3619312.95040547
  0
LWPOLYLINE
  5
200AF
100
AcDbEntity
  8
0
100
AcDbPolyline
 70
0
 90
2
 10
495290.927212679
 20
3619487.22115457
 10
495255.937277505
 20
3619464.37050992
  0
LWPOLYLINE
  5
200B0
100
AcDbEntity
  8
0
100
AcDbPolyline
 70
0
 90
2
 10
495153.324149275
 20
3619616.91358419
 10
495255.937277505
 20
3619464.37050992
  0
LWPOLYLINE
  5
200B1
100
AcDbEntity
  8
0
100
AcDbPolyline
 70
0
 90
2
 10
495322.119650135
 20
3619289.45656307
 10
495425.495303594
 20
3619135.97114322
  0
LWPOLYLINE
  5
200B2
100
AcDbEntity
  8
0
100
AcDbPolyline
 70
0
 90
2
 10
495357.798711666
 20
3619312.95040547
 10
495322.119650135
 20
3619289.45656307
  0
LWPOLYLINE
  5
200B3
100
AcDbEntity
  8
0
100
AcDbPolyline
 70
0
 90
2
 10
495153.324149275
 20
3619616.91358419
 10
495117.320092236
 20
3619593.54722296
  0
LWPOLYLINE
  5
200B4
100
AcDbEntity
  8
0
100
AcDbPolyline
 70
0
 90
2
 10
495389.985239091
 20
3619112.73184019
 10
495490.821211979
 20
3618962.37066287
  0
LWPOLYLINE
  5
200B5
100
AcDbEntity
  8
0
100
AcDbPolyline
 70
0
 90
2
 10
495389.985239091
 20
3619112.73184019
 10
495425.495303594
 20
3619135.97114322
  0
LWPOLYLINE
  5
200B6
100
AcDbEntity
  8
0
100
AcDbPolyline
 70
0
 90
2
 10
495450.114528911
 20
3618935.8380132
 10
495550.102610375
 20
3618784.92725172
  0
LWPOLYLINE
  5
200B7
100
AcDbEntity
  8
0
100
AcDbPolyline
 70
0
 90
2
 10
495490.821211979
 20
3618962.37066287
 10
495450.114528911
 20
3618935.8380132
  0
LWPOLYLINE
  5
200B8
100
AcDbEntity
  8
0
100
AcDbPolyline
 70
0
 90
2
 10
495500.807070382
 20
3618752.60386268
 10
495603.792985434
 20
3618595.83941155
  0
LWPOLYLINE
  5
200B9
100
AcDbEntity
  8
0
100
AcDbPolyline
 70
0
 90
2
 10
495550.102610375
 20
3618784.92725172
 10
495500.807070382
 20
3618752.60386268
  0
LWPOLYLINE
  5
200BA
100
AcDbEntity
  8
0
100
AcDbPolyline
 70
0
 90
2
 10
495290.927212679
 20
3619487.22115457
 10
495392.625631266
 20
3619335.88329091
  0
LWPOLYLINE
  5
200BB
100
AcDbEntity
  8
0
100
AcDbPolyline
 70
0
 90
2
 10
495325.964234564
 20
3619510.10271849
 10
495290.927212679
 20
3619487.22115457
  0
LWPOLYLINE
  5
200BC
100
AcDbEntity
  8
0
100
AcDbPolyline
 70
0
 90
2
 10
495188.456208255
 20
3619639.7143618
 10
495290.927212679
 20
3619487.22115457
  0
LWPOLYLINE
  5
200BD
100
AcDbEntity
  8
0
100
AcDbPolyline
 70
0
 90
2
 10
495357.798711666
 20
3619312.95040547
 10
495461.157448971
 20
3619159.3104954
  0
LWPOLYLINE
  5
200BE
100
AcDbEntity
  8
0
100
AcDbPolyline
 70
0
 90
2
 10
495392.625631266
 20
3619335.88329091
 10
495357.798711666
 20
3619312.95040547
  0
LWPOLYLINE
  5
200BF
100
AcDbEntity
  8
0
100
AcDbPolyline
 70
0
 90
2
 10
495153.324149275
 20
3619616.91358419
 10
495188.456208255
 20
3619639.7143618
  0
LWPOLYLINE
  5
200C0
100
AcDbEntity
  8
0
100
AcDbPolyline
 70
0
 90
2
 10
495425.495303594
 20
3619135.97114322
 10
495526.68028155
 20
3618985.74374479
  0
LWPOLYLINE
  5
200C1
100
AcDbEntity
  8
0
100
AcDbPolyline
 70
0
 90
2
 10
495461.157448971
 20
3619159.3104954
 10
495425.495303594
 20
3619135.97114322
  0
LWPOLYLINE
  5
200C2
100
AcDbEntity
  8
0
100
AcDbPolyline
 70
0
 90
2
 10
495490.821211979
 20
3618962.37066287
 10
495591.582781469
 20
3618812.12631159
  0
LWPOLYLINE
  5
200C3
100
AcDbEntity
  8
0
100
AcDbPolyline
 70
0
 90
2
 10
495526.68028155
 20
3618985.74374479
 10
495490.821211979
 20
3618962.37066287
  0
LWPOLYLINE
  5
200C4
100
AcDbEntity
  8
0
100
AcDbPolyline
 70
0
 90
2
 10
495550.102610375
 20
3618784.92725172
 10
495653.703792746
 20
3618628.5688755
  0
LWPOLYLINE
  5
200C5
100
AcDbEntity
  8
0
100
AcDbPolyline
 70
0
 90
2
 10
495591.582781469
 20
3618812.12631159
 10
495550.102610375
 20
3618784.92725172
  0
LWPOLYLINE
  5
200C6
100
AcDbEntity
  8
0
100
AcDbPolyline
 70
0
 90
2
 10
495603.792985434
 20
3618595.83941155
 10
495705.2631829
 20
3618441.38804681
  0
LWPOLYLINE
  5
200C7
100
AcDbEntity
  8
0
100
AcDbPolyline
 70
0
 90
2
 10
495653.703792746
 20
3618628.5688755
 10
495603.792985434
 20
3618595.83941155
  0
LWPOLYLINE
  5
200C8
100
AcDbEntity
  8
0
100
AcDbPolyline
 70
0
 90
2
 10
495568.541836339
 20
3618572.72330749
 10
495603.792985434
 20
3618595.83941155
  0
LWPOLYLINE
  5
200C9
100
AcDbEntity
  8
0
100
AcDbPolyline
 70
0
 90
2
 10
495325.964234564
 20
3619510.10271849
 10
495427.495138469
 20
3619358.84443651
  0
LWPOLYLINE
  5
200CA
100
AcDbEntity
  8
0
100
AcDbPolyline
 70
0
 90
2
 10
495230.562808302
 20
3619652.23509364
 10
495325.964234564
 20
3619510.10271849
  0
LWPOLYLINE
  5
200CB
100
AcDbEntity
  8
0
100
AcDbPolyline
 70
0
 90
2
 10
495366.372033833
 20
3619536.49223639
 10
495325.964234564
 20
3619510.10271849
  0
LWPOLYLINE
  5
200CC
100
AcDbEntity
  8
0
100
AcDbPolyline
 70
0
 90
2
 10
495206.374027367
 20
3619653.63042815
 10
495188.456208255
 20
3619639.7143618
  0
LWPOLYLINE
  5
200CD
100
AcDbEntity
  8
0
100
AcDbPolyline
 70
0
 90
2
 10
495392.625631266
 20
3619335.88329091
 10
495427.495138469
 20
3619358.84443651
  0
LWPOLYLINE
  5
200CE
100
AcDbEntity
  8
0
100
AcDbPolyline
 70
0
 90
2
 10
495392.625631266
 20
3619335.88329091
 10
495495.973822614
 20
3619182.09630614
  0
LWPOLYLINE
  5
200CF
100
AcDbEntity
  8
0
100
AcDbPolyline
 70
0
 90
2
 10
495461.157448971
 20
3619159.3104954
 10
495562.304435449
 20
3619008.96408168
  0
LWPOLYLINE
  5
200D0
100
AcDbEntity
  8
0
100
AcDbPolyline
 70
0
 90
2
 10
495495.973822614
 20
3619182.09630614
 10
495461.157448971
 20
3619159.3104954
  0
LWPOLYLINE
  5
200D1
100
AcDbEntity
  8
0
100
AcDbPolyline
 70
0
 90
2
 10
495526.68028155
 20
3618985.74374479
 10
495627.680623279
 20
3618835.79618441
  0
LWPOLYLINE
  5
200D2
100
AcDbEntity
  8
0
100
AcDbPolyline
 70
0
 90
2
 10
495562.304435449
 20
3619008.96408168
 10
495526.68028155
 20
3618985.74374479
  0
LWPOLYLINE
  5
200D3
100
AcDbEntity
  8
0
100
AcDbPolyline
 70
0
 90
2
 10
495591.582781469
 20
3618812.12631159
 10
495696.061283401
 20
3618656.34553632
  0
LWPOLYLINE
  5
200D4
100
AcDbEntity
  8
0
100
AcDbPolyline
 70
0
 90
2
 10
495591.582781469
 20
3618812.12631159
 10
495627.680623279
 20
3618835.79618441
  0
LWPOLYLINE
  5
200D5
100
AcDbEntity
  8
0
100
AcDbPolyline
 70
0
 90
2
 10
495653.703792746
 20
3618628.5688755
 10
495755.741671135
 20
3618474.57615619
  0
LWPOLYLINE
  5
200D6
100
AcDbEntity
  8
0
100
AcDbPolyline
 70
0
 90
2
 10
495696.061283401
 20
3618656.34553632
 10
495653.703792746
 20
3618628.5688755
  0
LWPOLYLINE
  5
200D7
100
AcDbEntity
  8
0
100
AcDbPolyline
 70
0
 90
2
 10
495568.541836339
 20
3618572.72330749
 10
495669.908473891
 20
3618418.14337357
  0
LWPOLYLINE
  5
200D8
100
AcDbEntity
  8
0
100
AcDbPolyline
 70
0
 90
2
 10
495206.374027367
 20
3619653.63042815
 10
495230.562808302
 20
3619652.23509364
  0
LWPOLYLINE
  5
200D9
100
AcDbEntity
  8
0
100
AcDbPolyline
 70
0
 90
2
 10
495278.439668037
 20
3619669.95191973
 10
495230.562808302
 20
3619652.23509364
  0
LWPOLYLINE
  5
200DA
100
AcDbEntity
  8
0
100
AcDbPolyline
 70
0
 90
2
 10
495366.372033833
 20
3619536.49223639
 10
495467.837665609
 20
3619385.41009711
  0
LWPOLYLINE
  5
200DB
100
AcDbEntity
  8
0
100
AcDbPolyline
 70
0
 90
2
 10
495278.439668037
 20
3619669.95191973
 10
495366.372033833
 20
3619536.49223639
  0
LWPOLYLINE
  5
200DC
100
AcDbEntity
  8
0
100
AcDbPolyline
 70
0
 90
2
 10
495418.469089934
 20
3619570.51609849
 10
495366.372033833
 20
3619536.49223639
  0
LWPOLYLINE
  5
200DD
100
AcDbEntity
  8
0
100
AcDbPolyline
 70
0
 90
2
 10
495427.495138469
 20
3619358.84443651
 10
495530.828004168
 20
3619204.90716475
  0
LWPOLYLINE
  5
200DE
100
AcDbEntity
  8
0
100
AcDbPolyline
 70
0
 90
2
 10
495467.837665609
 20
3619385.41009711
 10
495427.495138469
 20
3619358.84443651
  0
LWPOLYLINE
  5
200DF
100
AcDbEntity
  8
0
100
AcDbPolyline
 70
0
 90
2
 10
495495.973822614
 20
3619182.09630614
 10
495597.089187507
 20
3619031.63751684
  0
LWPOLYLINE
  5
200E0
100
AcDbEntity
  8
0
100
AcDbPolyline
 70
0
 90
2
 10
495530.828004168
 20
3619204.90716475
 10
495495.973822614
 20
3619182.09630614
  0
LWPOLYLINE
  5
200E1
100
AcDbEntity
  8
0
100
AcDbPolyline
 70
0
 90
2
 10
495562.304435449
 20
3619008.96408168
 10
495663.157857422
 20
3618859.05962207
  0
LWPOLYLINE
  5
200E2
100
AcDbEntity
  8
0
100
AcDbPolyline
 70
0
 90
2
 10
495597.089187507
 20
3619031.63751684
 10
495562.304435449
 20
3619008.96408168
  0
LWPOLYLINE
  5
200E3
100
AcDbEntity
  8
0
100
AcDbPolyline
 70
0
 90
2
 10
495627.680623279
 20
3618835.79618441
 10
495732.473695103
 20
3618680.22383423
  0
LWPOLYLINE
  5
200E4
100
AcDbEntity
  8
0
100
AcDbPolyline
 70
0
 90
2
 10
495663.157857422
 20
3618859.05962207
 10
495627.680623279
 20
3618835.79618441
  0
LWPOLYLINE
  5
200E5
100
AcDbEntity
  8
0
100
AcDbPolyline
 70
0
 90
2
 10
495696.061283401
 20
3618656.34553632
 10
495798.929363987
 20
3618502.97146555
  0
LWPOLYLINE
  5
200E6
100
AcDbEntity
  8
0
100
AcDbPolyline
 70
0
 90
2
 10
495732.473695103
 20
3618680.22383423
 10
495696.061283401
 20
3618656.34553632
  0
LWPOLYLINE
  5
200E7
100
AcDbEntity
  8
0
100
AcDbPolyline
 70
0
 90
2
 10
495334.813777549
 20
3619697.03068531
 10
495278.439668037
 20
3619669.95191973
  0
LWPOLYLINE
  5
200E8
100
AcDbEntity
  8
0
100
AcDbPolyline
 70
0
 90
2
 10
495418.469089934
 20
3619570.51609849
 10
495453.29469386
 20
3619593.2606396
  0
LWPOLYLINE
  5
200E9
100
AcDbEntity
  8
0
100
AcDbPolyline
 70
0
 90
2
 10
495418.469089934
 20
3619570.51609849
 10
495519.267449051
 20
3619419.276817
  0
LWPOLYLINE
  5
200EA
100
AcDbEntity
  8
0
100
AcDbPolyline
 70
0
 90
2
 10
495334.813777549
 20
3619697.03068531
 10
495418.469089934
 20
3619570.51609849
  0
LWPOLYLINE
  5
200EB
100
AcDbEntity
  8
0
100
AcDbPolyline
 70
0
 90
2
 10
495467.837665609
 20
3619385.41009711
 10
495571.283958372
 20
3619231.38461584
  0
LWPOLYLINE
  5
200EC
100
AcDbEntity
  8
0
100
AcDbPolyline
 70
0
 90
2
 10
495519.267449051
 20
3619419.276817
 10
495467.837665609
 20
3619385.41009711
  0
LWPOLYLINE
  5
200ED
100
AcDbEntity
  8
0
100
AcDbPolyline
 70
0
 90
2
 10
495530.828004168
 20
3619204.90716475
 10
495631.907342484
 20
3619054.33289801
  0
LWPOLYLINE
  5
200EE
100
AcDbEntity
  8
0
100
AcDbPolyline
 70
0
 90
2
 10
495571.283958372
 20
3619231.38461584
 10
495530.828004168
 20
3619204.90716475
  0
LWPOLYLINE
  5
200EF
100
AcDbEntity
  8
0
100
AcDbPolyline
 70
0
 90
2
 10
495597.089187507
 20
3619031.63751684
 10
495697.805056501
 20
3618881.77891588
  0
LWPOLYLINE
  5
200F0
100
AcDbEntity
  8
0
100
AcDbPolyline
 70
0
 90
2
 10
495597.089187507
 20
3619031.63751684
 10
495631.907342484
 20
3619054.33289801
  0
LWPOLYLINE
  5
200F1
100
AcDbEntity
  8
0
100
AcDbPolyline
 70
0
 90
2
 10
495663.157857422
 20
3618859.05962207
 10
495767.864894545
 20
3618703.43280468
  0
LWPOLYLINE
  5
200F2
100
AcDbEntity
  8
0
100
AcDbPolyline
 70
0
 90
2
 10
495697.805056501
 20
3618881.77891588
 10
495663.157857422
 20
3618859.05962207
  0
LWPOLYLINE
  5
200F3
100
AcDbEntity
  8
0
100
AcDbPolyline
 70
0
 90
2
 10
495732.473695103
 20
3618680.22383423
 10
495835.623183451
 20
3618527.09733486
  0
LWPOLYLINE
  5
200F4
100
AcDbEntity
  8
0
100
AcDbPolyline
 70
0
 90
2
 10
495767.864894545
 20
3618703.43280468
 10
495732.473695103
 20
3618680.22383423
  0
LWPOLYLINE
  5
200F5
100
AcDbEntity
  8
0
100
AcDbPolyline
 70
0
 90
2
 10
495401.684287893
 20
3619738.88976113
 10
495486.215268409
 20
3619614.7610445
  0
LWPOLYLINE
  5
200F6
100
AcDbEntity
  8
0
100
AcDbPolyline
 70
0
 90
2
 10
495401.684287893
 20
3619738.88976113
 10
495368.842318717
 20
3619718.46433624
  0
LWPOLYLINE
  5
200F7
100
AcDbEntity
  8
0
100
AcDbPolyline
 70
0
 90
3
 10
495450.951573367
 20
3619758.15409148
 10
495417.86093396
 20
3619748.44752899
 10
495401.684287893
 20
3619738.88976113
  0
LWPOLYLINE
  5
200F8
100
AcDbEntity
  8
0
100
AcDbPolyline
 70
0
 90
2
 10
495486.215268409
 20
3619614.7610445
 10
495453.29469386
 20
3619593.2606396
  0
LWPOLYLINE
  5
200F9
100
AcDbEntity
  8
0
100
AcDbPolyline
 70
0
 90
2
 10
495486.215268409
 20
3619614.7610445
 10
495587.408754092
 20
3619464.14915133
  0
LWPOLYLINE
  5
200FA
100
AcDbEntity
  8
0
100
AcDbPolyline
 70
0
 90
2
 10
495520.431418794
 20
3619637.10790741
 10
495486.215268409
 20
3619614.7610445
  0
LWPOLYLINE
  5
200FB
100
AcDbEntity
  8
0
100
AcDbPolyline
 70
0
 90
2
 10
495453.29469386
 20
3619593.2606396
 10
495554.541068055
 20
3619442.505167
  0
LWPOLYLINE
  5
200FC
100
AcDbEntity
  8
0
100
AcDbPolyline
 70
0
 90
2
 10
495368.842318717
 20
3619718.46433624
 10
495453.29469386
 20
3619593.2606396
  0
LWPOLYLINE
  5
200FD
100
AcDbEntity
  8
0
100
AcDbPolyline
 70
0
 90
2
 10
495368.842318717
 20
3619718.46433624
 10
495334.813777549
 20
3619697.03068531
  0
LWPOLYLINE
  5
200FE
100
AcDbEntity
  8
0
100
AcDbPolyline
 70
0
 90
2
 10
495519.267449051
 20
3619419.276817
 10
495622.261674558
 20
3619264.74856004
  0
LWPOLYLINE
  5
200FF
100
AcDbEntity
  8
0
100
AcDbPolyline
 70
0
 90
2
 10
495554.541068055
 20
3619442.505167
 10
495519.267449051
 20
3619419.276817
  0
LWPOLYLINE
  5
20100
100
AcDbEntity
  8
0
100
AcDbPolyline
 70
0
 90
2
 10
495571.283958372
 20
3619231.38461584
 10
495672.449933767
 20
3619080.76005694
  0
LWPOLYLINE
  5
20101
100
AcDbEntity
  8
0
100
AcDbPolyline
 70
0
 90
2
 10
495622.261674558
 20
3619264.74856004
 10
495571.283958372
 20
3619231.38461584
  0
LWPOLYLINE
  5
20102
100
AcDbEntity
  8
0
100
AcDbPolyline
 70
0
 90
2
 10
495631.907342484
 20
3619054.33289801
 10
495732.481065464
 20
3618904.5172748
  0
LWPOLYLINE
  5
20103
100
AcDbEntity
  8
0
100
AcDbPolyline
 70
0
 90
2
 10
495672.449933767
 20
3619080.76005694
 10
495631.907342484
 20
3619054.33289801
  0
LWPOLYLINE
  5
20104
100
AcDbEntity
  8
0
100
AcDbPolyline
 70
0
 90
2
 10
495697.805056501
 20
3618881.77891588
 10
495802.43439618
 20
3618726.10293954
  0
LWPOLYLINE
  5
20105
100
AcDbEntity
  8
0
100
AcDbPolyline
 70
0
 90
2
 10
495732.481065464
 20
3618904.5172748
 10
495697.805056501
 20
3618881.77891588
  0
LWPOLYLINE
  5
20106
100
AcDbEntity
  8
0
100
AcDbPolyline
 70
0
 90
2
 10
495554.541068055
 20
3619442.505167
 10
495658.150228269
 20
3619288.23717895
  0
LWPOLYLINE
  5
20107
100
AcDbEntity
  8
0
100
AcDbPolyline
 70
0
 90
2
 10
495587.408754092
 20
3619464.14915133
 10
495554.541068055
 20
3619442.505167
  0
LWPOLYLINE
  5
20108
100
AcDbEntity
  8
0
100
AcDbPolyline
 70
0
 90
2
 10
495622.261674558
 20
3619264.74856004
 10
495658.150228269
 20
3619288.23717895
  0
LWPOLYLINE
  5
20109
100
AcDbEntity
  8
0
100
AcDbPolyline
 70
0
 90
2
 10
495622.261674558
 20
3619264.74856004
 10
495722.953476898
 20
3619113.68041088
  0
LWPOLYLINE
  5
2010A
100
AcDbEntity
  8
0
100
AcDbPolyline
 70
0
 90
2
 10
495672.449933767
 20
3619080.76005694
 10
495772.986379566
 20
3618931.07832408
  0
LWPOLYLINE
  5
2010B
100
AcDbEntity
  8
0
100
AcDbPolyline
 70
0
 90
2
 10
495722.953476898
 20
3619113.68041088
 10
495672.449933767
 20
3619080.76005694
  0
LWPOLYLINE
  5
2010C
100
AcDbEntity
  8
0
100
AcDbPolyline
 70
0
 90
2
 10
495732.481065464
 20
3618904.5172748
 10
495837.02783381
 20
3618748.7892591
  0
LWPOLYLINE
  5
2010D
100
AcDbEntity
  8
0
100
AcDbPolyline
 70
0
 90
2
 10
495772.986379566
 20
3618931.07832408
 10
495732.481065464
 20
3618904.5172748
  0
LWPOLYLINE
  5
2010E
100
AcDbEntity
  8
0
100
AcDbPolyline
 70
0
 90
2
 10
495450.951573367
 20
3619758.15409148
 10
495520.431418794
 20
3619637.10790741
  0
LWPOLYLINE
  5
2010F
100
AcDbEntity
  8
0
100
AcDbPolyline
 70
0
 90
2
 10
495450.951573367
 20
3619758.15409148
 10
495490.668728545
 20
3619761.13417143
  0
LWPOLYLINE
  5
20110
100
AcDbEntity
  8
0
100
AcDbPolyline
 70
0
 90
2
 10
495520.431418794
 20
3619637.10790741
 10
495621.742924971
 20
3619486.75914362
  0
LWPOLYLINE
  5
20111
100
AcDbEntity
  8
0
100
AcDbPolyline
 70
0
 90
2
 10
495556.602982539
 20
3619660.73195116
 10
495520.431418794
 20
3619637.10790741
  0
LWPOLYLINE
  5
20112
100
AcDbEntity
  8
0
100
AcDbPolyline
 70
0
 90
2
 10
495587.408754092
 20
3619464.14915133
 10
495691.110666935
 20
3619309.80973821
  0
LWPOLYLINE
  5
20113
100
AcDbEntity
  8
0
100
AcDbPolyline
 70
0
 90
2
 10
495621.742924971
 20
3619486.75914362
 10
495587.408754092
 20
3619464.14915133
  0
LWPOLYLINE
  5
20114
100
AcDbEntity
  8
0
100
AcDbPolyline
 70
0
 90
2
 10
495658.150228269
 20
3619288.23717895
 10
495759.423242734
 20
3619137.45326207
  0
LWPOLYLINE
  5
20115
100
AcDbEntity
  8
0
100
AcDbPolyline
 70
0
 90
2
 10
495691.110666935
 20
3619309.80973821
 10
495658.150228269
 20
3619288.23717895
  0
LWPOLYLINE
  5
20116
100
AcDbEntity
  8
0
100
AcDbPolyline
 70
0
 90
2
 10
495722.953476898
 20
3619113.68041088
 10
495822.865977789
 20
3618963.78704665
  0
LWPOLYLINE
  5
20117
100
AcDbEntity
  8
0
100
AcDbPolyline
 70
0
 90
2
 10
495759.423242734
 20
3619137.45326207
 10
495722.953476898
 20
3619113.68041088
  0
LWPOLYLINE
  5
20118
100
AcDbEntity
  8
0
100
AcDbPolyline
 70
0
 90
2
 10
495772.986379566
 20
3618931.07832408
 10
495877.569971219
 20
3618775.37698639
  0
LWPOLYLINE
  5
20119
100
AcDbEntity
  8
0
100
AcDbPolyline
 70
0
 90
2
 10
495822.865977789
 20
3618963.78704665
 10
495772.986379566
 20
3618931.07832408
  0
LWPOLYLINE
  5
2011A
100
AcDbEntity
  8
0
100
AcDbPolyline
 70
0
 90
2
 10
495556.602982539
 20
3619660.73195116
 10
495657.993811847
 20
3619510.63161049
  0
LWPOLYLINE
  5
2011B
100
AcDbEntity
  8
0
100
AcDbPolyline
 70
0
 90
2
 10
495592.284758217
 20
3619684.03641669
 10
495556.602982539
 20
3619660.73195116
  0
LWPOLYLINE
  5
2011C
100
AcDbEntity
  8
0
100
AcDbPolyline
 70
0
 90
2
 10
495490.668728545
 20
3619761.13417143
 10
495556.602982539
 20
3619660.73195116
  0
LWPOLYLINE
  5
2011D
100
AcDbEntity
  8
0
100
AcDbPolyline
 70
0
 90
2
 10
495621.742924971
 20
3619486.75914362
 10
495725.71955928
 20
3619332.46131501
  0
LWPOLYLINE
  5
2011E
100
AcDbEntity
  8
0
100
AcDbPolyline
 70
0
 90
2
 10
495657.993811847
 20
3619510.63161049
 10
495621.742924971
 20
3619486.75914362
  0
LWPOLYLINE
  5
2011F
100
AcDbEntity
  8
0
100
AcDbPolyline
 70
0
 90
2
 10
495691.110666935
 20
3619309.80973821
 10
495792.454795525
 20
3619158.98499568
  0
LWPOLYLINE
  5
20120
100
AcDbEntity
  8
0
100
AcDbPolyline
 70
0
 90
2
 10
495725.71955928
 20
3619332.46131501
 10
495691.110666935
 20
3619309.80973821
  0
LWPOLYLINE
  5
20121
100
AcDbEntity
  8
0
100
AcDbPolyline
 70
0
 90
2
 10
495759.423242734
 20
3619137.45326207
 10
495859.801099531
 20
3618988.00769827
  0
LWPOLYLINE
  5
20122
100
AcDbEntity
  8
0
100
AcDbPolyline
 70
0
 90
2
 10
495792.454795525
 20
3619158.98499568
 10
495759.423242734
 20
3619137.45326207
  0
LWPOLYLINE
  5
20123
100
AcDbEntity
  8
0
100
AcDbPolyline
 70
0
 90
2
 10
495822.865977789
 20
3618963.78704665
 10
495859.801099531
 20
3618988.00769827
  0
LWPOLYLINE
  5
20124
100
AcDbEntity
  8
0
100
AcDbPolyline
 70
0
 90
2
 10
495822.865977789
 20
3618963.78704665
 10
495926.894451919
 20
3618807.72440247
  0
LWPOLYLINE
  5
20125
100
AcDbEntity
  8
0
100
AcDbPolyline
 70
0
 90
2
 10
495583.54221449
 20
3619761.30008238
 10
495629.889855358
 20
3619708.59748298
  0
LWPOLYLINE
  5
20126
100
AcDbEntity
  8
0
100
AcDbPolyline
 70
0
 90
2
 10
495583.54221449
 20
3619761.30008238
 10
495539.996525135
 20
3619760.09237005
  0
LWPOLYLINE
  5
20127
100
AcDbEntity
  8
0
100
AcDbPolyline
 70
0
 90
2
 10
495629.889855358
 20
3619708.59748298
 10
495731.956138477
 20
3619559.33898045
  0
LWPOLYLINE
  5
20128
100
AcDbEntity
  8
0
100
AcDbPolyline
 70
0
 90
2
 10
495629.889855358
 20
3619708.59748298
 10
495592.284758217
 20
3619684.03641669
  0
LWPOLYLINE
  5
20129
100
AcDbEntity
  8
0
100
AcDbPolyline
 70
0
 90
2
 10
495669.399684501
 20
3619734.40276431
 10
495629.889855358
 20
3619708.59748298
  0
LWPOLYLINE
  5
2012A
100
AcDbEntity
  8
0
100
AcDbPolyline
 70
0
 90
2
 10
495592.284758217
 20
3619684.03641669
 10
495693.79671266
 20
3619534.20919735
  0
LWPOLYLINE
  5
2012B
100
AcDbEntity
  8
0
100
AcDbPolyline
 70
0
 90
2
 10
495539.996525135
 20
3619760.09237005
 10
495592.284758217
 20
3619684.03641669
  0
LWPOLYLINE
  5
2012C
100
AcDbEntity
  8
0
100
AcDbPolyline
 70
0
 90
2
 10
495539.996525135
 20
3619760.09237005
 10
495490.668728545
 20
3619761.13417143
  0
LWPOLYLINE
  5
2012D
100
AcDbEntity
  8
0
100
AcDbPolyline
 70
0
 90
2
 10
495657.993811847
 20
3619510.63161049
 10
495693.79671266
 20
3619534.20919735
  0
LWPOLYLINE
  5
2012E
100
AcDbEntity
  8
0
100
AcDbPolyline
 70
0
 90
2
 10
495657.993811847
 20
3619510.63161049
 10
495762.214618538
 20
3619356.34757656
  0
LWPOLYLINE
  5
2012F
100
AcDbEntity
  8
0
100
AcDbPolyline
 70
0
 90
2
 10
495725.71955928
 20
3619332.46131501
 10
495827.311993275
 20
3619181.70720961
  0
LWPOLYLINE
  5
20130
100
AcDbEntity
  8
0
100
AcDbPolyline
 70
0
 90
2
 10
495762.214618538
 20
3619356.34757656
 10
495725.71955928
 20
3619332.46131501
  0
LWPOLYLINE
  5
20131
100
AcDbEntity
  8
0
100
AcDbPolyline
 70
0
 90
2
 10
495792.454795525
 20
3619158.98499568
 10
495892.802422477
 20
3619009.64907679
  0
LWPOLYLINE
  5
20132
100
AcDbEntity
  8
0
100
AcDbPolyline
 70
0
 90
2
 10
495827.311993275
 20
3619181.70720961
 10
495792.454795525
 20
3619158.98499568
  0
LWPOLYLINE
  5
20133
100
AcDbEntity
  8
0
100
AcDbPolyline
 70
0
 90
2
 10
495859.801099531
 20
3618988.00769827
 10
495964.382544906
 20
3618832.30981305
  0
LWPOLYLINE
  5
20134
100
AcDbEntity
  8
0
100
AcDbPolyline
 70
0
 90
2
 10
495892.802422477
 20
3619009.64907679
 10
495859.801099531
 20
3618988.00769827
  0
LWPOLYLINE
  5
20135
100
AcDbEntity
  8
0
100
AcDbPolyline
 70
0
 90
2
 10
495669.399684501
 20
3619734.40276431
 10
495710.047228461
 20
3619760.95143882
  0
LWPOLYLINE
  5
20136
100
AcDbEntity
  8
0
100
AcDbPolyline
 70
0
 90
2
 10
495669.399684501
 20
3619734.40276431
 10
495771.947658918
 20
3619585.67556418
  0
LWPOLYLINE
  5
20137
100
AcDbEntity
  8
0
100
AcDbPolyline
 70
0
 90
2
 10
495731.956138477
 20
3619559.33898045
 10
495693.79671266
 20
3619534.20919735
  0
LWPOLYLINE
  5
20138
100
AcDbEntity
  8
0
100
AcDbPolyline
 70
0
 90
2
 10
495731.956138477
 20
3619559.33898045
 10
495837.205914865
 20
3619405.43085812
  0
LWPOLYLINE
  5
20139
100
AcDbEntity
  8
0
100
AcDbPolyline
 70
0
 90
2
 10
495771.947658918
 20
3619585.67556418
 10
495731.956138477
 20
3619559.33898045
  0
LWPOLYLINE
  5
2013A
100
AcDbEntity
  8
0
100
AcDbPolyline
 70
0
 90
2
 10
495693.79671266
 20
3619534.20919735
 10
495798.303122354
 20
3619379.96820344
  0
LWPOLYLINE
  5
2013B
100
AcDbEntity
  8
0
100
AcDbPolyline
 70
0
 90
2
 10
495762.214618538
 20
3619356.34757656
 10
495864.024153007
 20
3619205.63875632
  0
LWPOLYLINE
  5
2013C
100
AcDbEntity
  8
0
100
AcDbPolyline
 70
0
 90
2
 10
495798.303122354
 20
3619379.96820344
 10
495762.214618538
 20
3619356.34757656
  0
LWPOLYLINE
  5
2013D
100
AcDbEntity
  8
0
100
AcDbPolyline
 70
0
 90
2
 10
495827.311993275
 20
3619181.70720961
 10
495927.798995269
 20
3619032.59894467
  0
LWPOLYLINE
  5
2013E
100
AcDbEntity
  8
0
100
AcDbPolyline
 70
0
 90
2
 10
495827.311993275
 20
3619181.70720961
 10
495864.024153007
 20
3619205.63875632
  0
LWPOLYLINE
  5
2013F
100
AcDbEntity
  8
0
100
AcDbPolyline
 70
0
 90
2
 10
495892.802422477
 20
3619009.64907679
 10
495997.41434349
 20
3618853.97302801
  0
LWPOLYLINE
  5
20140
100
AcDbEntity
  8
0
100
AcDbPolyline
 70
0
 90
2
 10
495927.798995269
 20
3619032.59894467
 10
495892.802422477
 20
3619009.64907679
  0
LWPOLYLINE
  5
20141
100
AcDbEntity
  8
0
100
AcDbPolyline
 70
0
 90
2
 10
495798.303122354
 20
3619379.96820344
 10
495900.370719274
 20
3619229.33225182
  0
LWPOLYLINE
  5
20142
100
AcDbEntity
  8
0
100
AcDbPolyline
 70
0
 90
2
 10
495837.205914865
 20
3619405.43085812
 10
495798.303122354
 20
3619379.96820344
  0
LWPOLYLINE
  5
20143
100
AcDbEntity
  8
0
100
AcDbPolyline
 70
0
 90
2
 10
495864.024153007
 20
3619205.63875632
 10
495964.61370414
 20
3619056.74144072
  0
LWPOLYLINE
  5
20144
100
AcDbEntity
  8
0
100
AcDbPolyline
 70
0
 90
2
 10
495900.370719274
 20
3619229.33225182
 10
495864.024153007
 20
3619205.63875632
  0
LWPOLYLINE
  5
20145
100
AcDbEntity
  8
0
100
AcDbPolyline
 70
0
 90
2
 10
495927.798995269
 20
3619032.59894467
 10
496032.621685121
 20
3618877.06307436
  0
LWPOLYLINE
  5
20146
100
AcDbEntity
  8
0
100
AcDbPolyline
 70
0
 90
2
 10
495964.61370414
 20
3619056.74144072
 10
495927.798995269
 20
3619032.59894467
  0
LWPOLYLINE
  5
20147
100
AcDbEntity
  8
0
100
AcDbPolyline
 70
0
 90
2
 10
495710.047228461
 20
3619760.95143882
 10
495811.862473984
 20
3619611.96212456
  0
LWPOLYLINE
  5
20148
100
AcDbEntity
  8
0
100
AcDbPolyline
 70
0
 90
2
 10
495748.297051693
 20
3619785.93425868
 10
495710.047228461
 20
3619760.95143882
  0
LWPOLYLINE
  5
20149
100
AcDbEntity
  8
0
100
AcDbPolyline
 70
0
 90
2
 10
495771.947658918
 20
3619585.67556418
 10
495877.876406648
 20
3619432.05103474
  0
LWPOLYLINE
  5
2014A
100
AcDbEntity
  8
0
100
AcDbPolyline
 70
0
 90
2
 10
495811.862473984
 20
3619611.96212456
 10
495771.947658918
 20
3619585.67556418
  0
LWPOLYLINE
  5
2014B
100
AcDbEntity
  8
0
100
AcDbPolyline
 70
0
 90
2
 10
495837.205914865
 20
3619405.43085812
 10
495939.978002747
 20
3619255.15163372
  0
LWPOLYLINE
  5
2014C
100
AcDbEntity
  8
0
100
AcDbPolyline
 70
0
 90
2
 10
495877.876406648
 20
3619432.05103474
 10
495837.205914865
 20
3619405.43085812
  0
LWPOLYLINE
  5
2014D
100
AcDbEntity
  8
0
100
AcDbPolyline
 70
0
 90
2
 10
495900.370719274
 20
3619229.33225182
 10
496001.103968107
 20
3619080.6712519
  0
LWPOLYLINE
  5
2014E
100
AcDbEntity
  8
0
100
AcDbPolyline
 70
0
 90
2
 10
495939.978002747
 20
3619255.15163372
 10
495900.370719274
 20
3619229.33225182
  0
LWPOLYLINE
  5
2014F
100
AcDbEntity
  8
0
100
AcDbPolyline
 70
0
 90
2
 10
495964.61370414
 20
3619056.74144072
 10
496069.612584058
 20
3618901.32305775
  0
LWPOLYLINE
  5
20150
100
AcDbEntity
  8
0
100
AcDbPolyline
 70
0
 90
2
 10
496001.103968107
 20
3619080.6712519
 10
495964.61370414
 20
3619056.74144072
  0
LWPOLYLINE
  5
20151
100
AcDbEntity
  8
0
100
AcDbPolyline
 70
0
 90
2
 10
495748.297051693
 20
3619785.93425868
 10
495850.149446651
 20
3619637.1766705
  0
LWPOLYLINE
  5
20152
100
AcDbEntity
  8
0
100
AcDbPolyline
 70
0
 90
2
 10
495787.917534641
 20
3619811.81268689
 10
495748.297051693
 20
3619785.93425868
  0
LWPOLYLINE
  5
20153
100
AcDbEntity
  8
0
100
AcDbPolyline
 70
0
 90
2
 10
495811.862473984
 20
3619611.96212456
 10
495917.216287304
 20
3619457.80049381
  0
LWPOLYLINE
  5
20154
100
AcDbEntity
  8
0
100
AcDbPolyline
 70
0
 90
2
 10
495850.149446651
 20
3619637.1766705
 10
495811.862473984
 20
3619611.96212456
  0
LWPOLYLINE
  5
20155
100
AcDbEntity
  8
0
100
AcDbPolyline
 70
0
 90
2
 10
495877.876406648
 20
3619432.05103474
 10
495981.288777198
 20
3619282.08169561
  0
LWPOLYLINE
  5
20156
100
AcDbEntity
  8
0
100
AcDbPolyline
 70
0
 90
2
 10
495877.876406648
 20
3619432.05103474
 10
495917.216287304
 20
3619457.80049381
  0
LWPOLYLINE
  5
20157
100
AcDbEntity
  8
0
100
AcDbPolyline
 70
0
 90
2
 10
495939.978002747
 20
3619255.15163372
 10
496041.284331416
 20
3619107.02146469
  0
LWPOLYLINE
  5
20158
100
AcDbEntity
  8
0
100
AcDbPolyline
 70
0
 90
2
 10
495981.288777198
 20
3619282.08169561
 10
495939.978002747
 20
3619255.15163372
  0
LWPOLYLINE
  5
20159
100
AcDbEntity
  8
0
100
AcDbPolyline
 70
0
 90
2
 10
496001.103968107
 20
3619080.6712519
 10
496106.32140706
 20
3618925.39849477
  0
LWPOLYLINE
  5
2015A
100
AcDbEntity
  8
0
100
AcDbPolyline
 70
0
 90
2
 10
496041.284331416
 20
3619107.02146469
 10
496001.103968107
 20
3619080.6712519
  0
LWPOLYLINE
  5
2015B
100
AcDbEntity
  8
0
100
AcDbPolyline
 70
0
 90
2
 10
495787.917534641
 20
3619811.81268689
 10
495889.680728737
 20
3619663.21106638
  0
LWPOLYLINE
  5
2015C
100
AcDbEntity
  8
0
100
AcDbPolyline
 70
0
 90
2
 10
495826.70521773
 20
3619837.14743592
 10
495787.917534641
 20
3619811.81268689
  0
LWPOLYLINE
  5
2015D
100
AcDbEntity
  8
0
100
AcDbPolyline
 70
0
 90
2
 10
495850.149446651
 20
3619637.1766705
 10
495955.716035686
 20
3619483.0002777
  0
LWPOLYLINE
  5
2015E
100
AcDbEntity
  8
0
100
AcDbPolyline
 70
0
 90
2
 10
495889.680728737
 20
3619663.21106638
 10
495850.149446651
 20
3619637.1766705
  0
LWPOLYLINE
  5
2015F
100
AcDbEntity
  8
0
100
AcDbPolyline
 70
0
 90
2
 10
495917.216287304
 20
3619457.80049381
 10
496020.041546096
 20
3619307.34458641
  0
LWPOLYLINE
  5
20160
100
AcDbEntity
  8
0
100
AcDbPolyline
 70
0
 90
2
 10
495955.716035686
 20
3619483.0002777
 10
495917.216287304
 20
3619457.80049381
  0
LWPOLYLINE
  5
20161
100
AcDbEntity
  8
0
100
AcDbPolyline
 70
0
 90
2
 10
495981.288777198
 20
3619282.08169561
 10
496083.097886448
 20
3619134.44272098
  0
LWPOLYLINE
  5
20162
100
AcDbEntity
  8
0
100
AcDbPolyline
 70
0
 90
2
 10
496020.041546096
 20
3619307.34458641
 10
495981.288777198
 20
3619282.08169561
  0
LWPOLYLINE
  5
20163
100
AcDbEntity
  8
0
100
AcDbPolyline
 70
0
 90
2
 10
496041.284331416
 20
3619107.02146469
 10
496147.175588978
 20
3618952.19284037
  0
LWPOLYLINE
  5
20164
100
AcDbEntity
  8
0
100
AcDbPolyline
 70
0
 90
2
 10
496083.097886448
 20
3619134.44272098
 10
496041.284331416
 20
3619107.02146469
  0
LWPOLYLINE
  5
20165
100
AcDbEntity
  8
0
100
AcDbPolyline
 70
0
 90
2
 10
495826.70521773
 20
3619837.14743592
 10
495928.629019652
 20
3619688.86185718
  0
LWPOLYLINE
  5
20166
100
AcDbEntity
  8
0
100
AcDbPolyline
 70
0
 90
2
 10
495889.680728737
 20
3619663.21106638
 10
495928.629019652
 20
3619688.86185718
  0
LWPOLYLINE
  5
20167
100
AcDbEntity
  8
0
100
AcDbPolyline
 70
0
 90
2
 10
495889.680728737
 20
3619663.21106638
 10
495995.335237324
 20
3619508.93306623
  0
LWPOLYLINE
  5
20168
100
AcDbEntity
  8
0
100
AcDbPolyline
 70
0
 90
2
 10
495955.716035686
 20
3619483.0002777
 10
496058.726248161
 20
3619332.56342484
  0
LWPOLYLINE
  5
20169
100
AcDbEntity
  8
0
100
AcDbPolyline
 70
0
 90
2
 10
495995.335237324
 20
3619508.93306623
 10
495955.716035686
 20
3619483.0002777
  0
LWPOLYLINE
  5
2016A
100
AcDbEntity
  8
0
100
AcDbPolyline
 70
0
 90
2
 10
496020.041546096
 20
3619307.34458641
 10
496121.154043105
 20
3619159.40042688
  0
LWPOLYLINE
  5
2016B
100
AcDbEntity
  8
0
100
AcDbPolyline
 70
0
 90
2
 10
496058.726248161
 20
3619332.56342484
 10
496020.041546096
 20
3619307.34458641
  0
LWPOLYLINE
  5
2016C
100
AcDbEntity
  8
0
100
AcDbPolyline
 70
0
 90
2
 10
495928.629019652
 20
3619688.86185718
 10
496034.62820088
 20
3619534.65285853
  0
LWPOLYLINE
  5
2016D
100
AcDbEntity
  8
0
100
AcDbPolyline
 70
0
 90
2
 10
495995.335237324
 20
3619508.93306623
 10
496098.406952134
 20
3619358.43196633
  0
LWPOLYLINE
  5
2016E
100
AcDbEntity
  8
0
100
AcDbPolyline
 70
0
 90
2
 10
496034.62820088
 20
3619534.65285853
 10
495995.335237324
 20
3619508.93306623
  0
LWPOLYLINE
  5
2016F
100
AcDbEntity
  8
0
100
AcDbPolyline
 70
0
 90
2
 10
496058.726248161
 20
3619332.56342484
 10
496159.901367531
 20
3619184.81174151
  0
LWPOLYLINE
  5
20170
100
AcDbEntity
  8
0
100
AcDbPolyline
 70
0
 90
2
 10
496098.406952134
 20
3619358.43196633
 10
496058.726248161
 20
3619332.56342484
  0
LWPOLYLINE
  5
20171
100
AcDbEntity
  8
0
100
AcDbPolyline
 70
0
 90
2
 10
496083.097886448
 20
3619134.44272098
 10
496189.593785296
 20
3618980.01316084
  0
LWPOLYLINE
  5
20172
100
AcDbEntity
  8
0
100
AcDbPolyline
 70
0
 90
2
 10
496121.154043105
 20
3619159.40042688
 10
496083.097886448
 20
3619134.44272098
  0
LWPOLYLINE
  5
20173
100
AcDbEntity
  8
0
100
AcDbPolyline
 70
0
 90
2
 10
496034.62820088
 20
3619534.65285853
 10
496138.013580789
 20
3619384.25214127
  0
LWPOLYLINE
  5
20174
100
AcDbEntity
  8
0
100
AcDbPolyline
 70
0
 90
2
 10
496098.406952134
 20
3619358.43196633
 10
496199.520866973
 20
3619210.79521858
  0
LWPOLYLINE
  5
20175
100
AcDbEntity
  8
0
100
AcDbPolyline
 70
0
 90
2
 10
496138.013580789
 20
3619384.25214127
 10
496098.406952134
 20
3619358.43196633
  0
LWPOLYLINE
  5
20176
100
AcDbEntity
  8
0
100
AcDbPolyline
 70
0
 90
2
 10
496138.013580789
 20
3619384.25214127
 10
496239.312832998
 20
3619236.89208285
  0
LWPOLYLINE
  5
20177
100
AcDbEntity
  8
0
100
AcDbPolyline
 70
0
 90
2
 10
496159.901367531
 20
3619184.81174151
 10
496265.881856317
 20
3619030.04840581
  0
LWPOLYLINE
  5
20178
100
AcDbEntity
  8
0
100
AcDbPolyline
 70
0
 90
2
 10
496121.154043105
 20
3619159.40042688
 10
496159.901367531
 20
3619184.81174151
  0
LWPOLYLINE
  5
20179
100
AcDbEntity
  8
0
100
AcDbPolyline
 70
0
 90
2
 10
496199.520866973
 20
3619210.79521858
 10
496159.901367531
 20
3619184.81174151
  0
LWPOLYLINE
  5
2017A
100
AcDbEntity
  8
0
100
AcDbPolyline
 70
0
 90
2
 10
496121.154043105
 20
3619159.40042688
 10
496226.994988812
 20
3619004.54350714
  0
LWPOLYLINE
  5
2017B
100
AcDbEntity
  8
0
100
AcDbPolyline
 70
0
 90
2
 10
496189.593785296
 20
3618980.01316084
 10
496147.175588978
 20
3618952.19284037
  0
LWPOLYLINE
  5
2017C
100
AcDbEntity
  8
0
100
AcDbPolyline
 70
0
 90
2
 10
496189.593785296
 20
3618980.01316084
 10
496294.057960213
 20
3618828.53560942
  0
LWPOLYLINE
  5
2017D
100
AcDbEntity
  8
0
100
AcDbPolyline
 70
0
 90
2
 10
496226.994988812
 20
3619004.54350714
 10
496189.593785296
 20
3618980.01316084
  0
LWPOLYLINE
  5
2017E
100
AcDbEntity
  8
0
100
AcDbPolyline
 70
0
 90
2
 10
496239.312832998
 20
3619236.89208285
 10
496344.651920358
 20
3619083.66061552
  0
LWPOLYLINE
  5
2017F
100
AcDbEntity
  8
0
100
AcDbPolyline
 70
0
 90
2
 10
496239.312832998
 20
3619236.89208285
 10
496199.520866973
 20
3619210.79521858
  0
LWPOLYLINE
  5
20180
100
AcDbEntity
  8
0
100
AcDbPolyline
 70
0
 90
2
 10
496199.520866973
 20
3619210.79521858
 10
496305.512850765
 20
3619056.04171848
  0
LWPOLYLINE
  5
20181
100
AcDbEntity
  8
0
100
AcDbPolyline
 70
0
 90
2
 10
496265.881856317
 20
3619030.04840581
 10
496226.994988812
 20
3619004.54350714
  0
LWPOLYLINE
  5
20182
100
AcDbEntity
  8
0
100
AcDbPolyline
 70
0
 90
2
 10
496265.881856317
 20
3619030.04840581
 10
496369.78114846
 20
3618878.3301888
  0
LWPOLYLINE
  5
20183
100
AcDbEntity
  8
0
100
AcDbPolyline
 70
0
 90
2
 10
496305.512850765
 20
3619056.04171848
 10
496265.881856317
 20
3619030.04840581
  0
LWPOLYLINE
  5
20184
100
AcDbEntity
  8
0
100
AcDbPolyline
 70
0
 90
2
 10
496226.994988812
 20
3619004.54350714
 10
496330.78809158
 20
3618852.68868721
  0
LWPOLYLINE
  5
20185
100
AcDbEntity
  8
0
100
AcDbPolyline
 70
0
 90
2
 10
496147.175588978
 20
3618952.19284037
 10
496251.080559474
 20
3618800.27452213
  0
LWPOLYLINE
  5
20186
100
AcDbEntity
  8
0
100
AcDbPolyline
 70
0
 90
2
 10
496106.32140706
 20
3618925.39849477
 10
496147.175588978
 20
3618952.19284037
  0
LWPOLYLINE
  5
20187
100
AcDbEntity
  8
0
100
AcDbPolyline
 70
0
 90
2
 10
496344.651920358
 20
3619083.66061552
 10
496449.687478138
 20
3618930.87682405
  0
LWPOLYLINE
  5
20188
100
AcDbEntity
  8
0
100
AcDbPolyline
 70
0
 90
2
 10
496344.651920358
 20
3619083.66061552
 10
496305.512850765
 20
3619056.04171848
  0
LWPOLYLINE
  5
20189
100
AcDbEntity
  8
0
100
AcDbPolyline
 70
0
 90
2
 10
496305.512850765
 20
3619056.04171848
 10
496409.392344398
 20
3618904.37845835
  0
LWPOLYLINE
  5
2018A
100
AcDbEntity
  8
0
100
AcDbPolyline
 70
0
 90
2
 10
496449.687478138
 20
3618930.87682405
 10
496409.392344398
 20
3618904.37845835
  0
LWPOLYLINE
  5
2018B
100
AcDbEntity
  8
0
100
AcDbPolyline
 70
0
 90
3
 10
496449.687478138
 20
3618930.87682405
 10
496553.195518369
 20
3618776.04444834
 10
496514.529144555
 20
3618750.88533294
  0
LWPOLYLINE
  5
2018C
100
AcDbEntity
  8
0
100
AcDbPolyline
 70
0
 90
2
 10
496409.392344398
 20
3618904.37845835
 10
496514.529144555
 20
3618750.88533294
  0
LWPOLYLINE
  5
2018D
100
AcDbEntity
  8
0
100
AcDbPolyline
 70
0
 90
2
 10
496409.392344398
 20
3618904.37845835
 10
496369.78114846
 20
3618878.3301888
  0
LWPOLYLINE
  5
2018E
100
AcDbEntity
  8
0
100
AcDbPolyline
 70
0
 90
3
 10
496514.529144555
 20
3618750.88533294
 10
496496.134832726
 20
3618737.96700539
 10
496465.171362324
 20
3618739.15281052
  0
LWPOLYLINE
  5
2018F
100
AcDbEntity
  8
0
100
AcDbPolyline
 70
0
 90
2
 10
496369.78114846
 20
3618878.3301888
 10
496330.78809158
 20
3618852.68868721
  0
LWPOLYLINE
  5
20190
100
AcDbEntity
  8
0
100
AcDbPolyline
 70
0
 90
2
 10
496369.78114846
 20
3618878.3301888
 10
496465.171362324
 20
3618739.15281052
  0
LWPOLYLINE
  5
20191
100
AcDbEntity
  8
0
100
AcDbPolyline
 70
0
 90
2
 10
496465.171362324
 20
3618739.15281052
 10
496418.343317946
 20
3618722.62547906
  0
LWPOLYLINE
  5
20192
100
AcDbEntity
  8
0
100
AcDbPolyline
 70
0
 90
2
 10
496330.78809158
 20
3618852.68868721
 10
496418.343317946
 20
3618722.62547906
  0
LWPOLYLINE
  5
20193
100
AcDbEntity
  8
0
100
AcDbPolyline
 70
0
 90
2
 10
496330.78809158
 20
3618852.68868721
 10
496294.057960213
 20
3618828.53560942
  0
LWPOLYLINE
  5
20194
100
AcDbEntity
  8
0
100
AcDbPolyline
 70
0
 90
2
 10
496418.343317946
 20
3618722.62547906
 10
496384.501412247
 20
3618697.44141038
  0
LWPOLYLINE
  5
20195
100
AcDbEntity
  8
0
100
AcDbPolyline
 70
0
 90
3
 10
496384.501412247
 20
3618697.44141038
 10
496379.9420979
 20
3618662.97262753
 10
496356.238141931
 20
3618646.53042299
  0
LWPOLYLINE
  5
20196
100
AcDbEntity
  8
0
100
AcDbPolyline
 70
0
 90
2
 10
496294.057960213
 20
3618828.53560942
 10
496384.501412247
 20
3618697.44141038
  0
LWPOLYLINE
  5
20197
100
AcDbEntity
  8
0
100
AcDbPolyline
 70
0
 90
2
 10
496294.057960213
 20
3618828.53560942
 10
496251.080559474
 20
3618800.27452213
  0
LWPOLYLINE
  5
20198
100
AcDbEntity
  8
0
100
AcDbPolyline
 70
0
 90
2
 10
496356.238141931
 20
3618646.53042299
 10
496314.118275678
 20
3618618.7633899
  0
LWPOLYLINE
  5
20199
100
AcDbEntity
  8
0
100
AcDbPolyline
 70
0
 90
3
 10
496356.238141931
 20
3618646.53042299
 10
496463.471878759
 20
3618489.75696121
 10
496420.771546267
 20
3618461.38974198
  0
LWPOLYLINE
  5
2019A
100
AcDbEntity
  8
0
100
AcDbPolyline
 70
0
 90
2
 10
496251.080559474
 20
3618800.27452213
 10
496356.238141931
 20
3618646.53042299
  0
LWPOLYLINE
  5
2019B
100
AcDbEntity
  8
0
100
AcDbPolyline
 70
0
 90
2
 10
496251.080559474
 20
3618800.27452213
 10
496209.597245187
 20
3618772.99644556
  0
LWPOLYLINE
  5
2019C
100
AcDbEntity
  8
0
100
AcDbPolyline
 70
0
 90
2
 10
496314.118275678
 20
3618618.7633899
 10
496277.034628907
 20
3618594.31674766
  0
LWPOLYLINE
  5
2019D
100
AcDbEntity
  8
0
100
AcDbPolyline
 70
0
 90
2
 10
496314.118275678
 20
3618618.7633899
 10
496420.771546267
 20
3618461.38974198
  0
LWPOLYLINE
  5
2019E
100
AcDbEntity
  8
0
100
AcDbPolyline
 70
0
 90
2
 10
496209.597245187
 20
3618772.99644556
 10
496314.118275678
 20
3618618.7633899
  0
LWPOLYLINE
  5
2019F
100
AcDbEntity
  8
0
100
AcDbPolyline
 70
0
 90
2
 10
496209.597245187
 20
3618772.99644556
 10
496172.702653529
 20
3618748.73601919
  0
LWPOLYLINE
  5
201A0
100
AcDbEntity
  8
0
100
AcDbPolyline
 70
0
 90
2
 10
496106.32140706
 20
3618925.39849477
 10
496209.597245187
 20
3618772.99644556
  0
LWPOLYLINE
  5
201A1
100
AcDbEntity
  8
0
100
AcDbPolyline
 70
0
 90
2
 10
496277.034628907
 20
3618594.31674766
 10
496239.75298913
 20
3618569.73962141
  0
LWPOLYLINE
  5
201A2
100
AcDbEntity
  8
0
100
AcDbPolyline
 70
0
 90
2
 10
496277.034628907
 20
3618594.31674766
 10
496353.019562566
 20
3618481.85678493
  0
LWPOLYLINE
  5
201A3
100
AcDbEntity
  8
0
100
AcDbPolyline
 70
0
 90
2
 10
496172.702653529
 20
3618748.73601919
 10
496277.034628907
 20
3618594.31674766
  0
LWPOLYLINE
  5
201A4
100
AcDbEntity
  8
0
100
AcDbPolyline
 70
0
 90
2
 10
496353.019562566
 20
3618481.85678493
 10
496420.771546267
 20
3618461.38974198
  0
LWPOLYLINE
  5
201A5
100
AcDbEntity
  8
0
100
AcDbPolyline
 70
0
 90
2
 10
496239.75298913
 20
3618569.73962141
 10
496204.183311434
 20
3618546.29148207
  0
LWPOLYLINE
  5
201A6
100
AcDbEntity
  8
0
100
AcDbPolyline
 70
0
 90
2
 10
496239.75298913
 20
3618569.73962141
 10
496302.985258655
 20
3618473.46604122
  0
LWPOLYLINE
  5
201A7
100
AcDbEntity
  8
0
100
AcDbPolyline
 70
0
 90
2
 10
496135.567698903
 20
3618724.31774475
 10
496239.75298913
 20
3618569.73962141
  0
LWPOLYLINE
  5
201A8
100
AcDbEntity
  8
0
100
AcDbPolyline
 70
0
 90
2
 10
496172.702653529
 20
3618748.73601919
 10
496135.567698903
 20
3618724.31774475
  0
LWPOLYLINE
  5
201A9
100
AcDbEntity
  8
0
100
AcDbPolyline
 70
0
 90
2
 10
496069.612584058
 20
3618901.32305775
 10
496172.702653529
 20
3618748.73601919
  0
LWPOLYLINE
  5
201AA
100
AcDbEntity
  8
0
100
AcDbPolyline
 70
0
 90
2
 10
496324.837919639
 20
3618483.45383136
 10
496353.019562566
 20
3618481.85678493
  0
LWPOLYLINE
  5
201AB
100
AcDbEntity
  8
0
100
AcDbPolyline
 70
0
 90
2
 10
496106.32140706
 20
3618925.39849477
 10
496069.612584058
 20
3618901.32305775
  0
LWPOLYLINE
  5
201AC
100
AcDbEntity
  8
0
100
AcDbPolyline
 70
0
 90
2
 10
496204.183311434
 20
3618546.29148207
 10
496171.141712614
 20
3618524.51008633
  0
LWPOLYLINE
  5
201AD
100
AcDbEntity
  8
0
100
AcDbPolyline
 70
0
 90
2
 10
496204.183311434
 20
3618546.29148207
 10
496262.428688121
 20
3618459.82876726
  0
LWPOLYLINE
  5
201AE
100
AcDbEntity
  8
0
100
AcDbPolyline
 70
0
 90
2
 10
496100.180691769
 20
3618701.04915417
 10
496204.183311434
 20
3618546.29148207
  0
LWPOLYLINE
  5
201AF
100
AcDbEntity
  8
0
100
AcDbPolyline
 70
0
 90
2
 10
496135.567698903
 20
3618724.31774475
 10
496100.180691769
 20
3618701.04915417
  0
LWPOLYLINE
  5
201B0
100
AcDbEntity
  8
0
100
AcDbPolyline
 70
0
 90
2
 10
496032.621685121
 20
3618877.06307436
 10
496135.567698903
 20
3618724.31774475
  0
LWPOLYLINE
  5
201B1
100
AcDbEntity
  8
0
100
AcDbPolyline
 70
0
 90
2
 10
496302.985258655
 20
3618473.46604122
 10
496262.428688121
 20
3618459.82876726
  0
LWPOLYLINE
  5
201B2
100
AcDbEntity
  8
0
100
AcDbPolyline
 70
0
 90
2
 10
496324.837919639
 20
3618483.45383136
 10
496302.985258655
 20
3618473.46604122
  0
LWPOLYLINE
  5
201B3
100
AcDbEntity
  8
0
100
AcDbPolyline
 70
0
 90
2
 10
496069.612584058
 20
3618901.32305775
 10
496032.621685121
 20
3618877.06307436
  0
LWPOLYLINE
  5
201B4
100
AcDbEntity
  8
0
100
AcDbPolyline
 70
0
 90
2
 10
496262.428688121
 20
3618459.82876726
 10
496227.052099471
 20
3618439.52731379
  0
LWPOLYLINE
  5
201B5
100
AcDbEntity
  8
0
100
AcDbPolyline
 70
0
 90
2
 10
496227.052099471
 20
3618439.52731379
 10
496190.208282451
 20
3618411.46837141
  0
LWPOLYLINE
  5
201B6
100
AcDbEntity
  8
0
100
AcDbPolyline
 70
0
 90
2
 10
496171.141712614
 20
3618524.51008633
 10
496227.052099471
 20
3618439.52731379
  0
LWPOLYLINE
  5
201B7
100
AcDbEntity
  8
0
100
AcDbPolyline
 70
0
 90
2
 10
496171.141712614
 20
3618524.51008633
 10
496132.619513212
 20
3618499.11595443
  0
LWPOLYLINE
  5
201B8
100
AcDbEntity
  8
0
100
AcDbPolyline
 70
0
 90
2
 10
496067.144556394
 20
3618679.32640723
 10
496171.141712614
 20
3618524.51008633
  0
LWPOLYLINE
  5
201B9
100
AcDbEntity
  8
0
100
AcDbPolyline
 70
0
 90
2
 10
496067.144556394
 20
3618679.32640723
 10
496100.180691769
 20
3618701.04915417
  0
LWPOLYLINE
  5
201BA
100
AcDbEntity
  8
0
100
AcDbPolyline
 70
0
 90
2
 10
495997.41434349
 20
3618853.97302801
 10
496100.180691769
 20
3618701.04915417
  0
LWPOLYLINE
  5
201BB
100
AcDbEntity
  8
0
100
AcDbPolyline
 70
0
 90
2
 10
496032.621685121
 20
3618877.06307436
 10
495997.41434349
 20
3618853.97302801
  0
LWPOLYLINE
  5
201BC
100
AcDbEntity
  8
0
100
AcDbPolyline
 70
0
 90
2
 10
496132.619513212
 20
3618499.11595443
 10
496084.465994893
 20
3618467.37333448
  0
LWPOLYLINE
  5
201BD
100
AcDbEntity
  8
0
100
AcDbPolyline
 70
0
 90
2
 10
496132.619513212
 20
3618499.11595443
 10
496190.208282451
 20
3618411.46837141
  0
LWPOLYLINE
  5
201BE
100
AcDbEntity
  8
0
100
AcDbPolyline
 70
0
 90
2
 10
496029.142650347
 20
3618654.33885939
 10
496132.619513212
 20
3618499.11595443
  0
LWPOLYLINE
  5
201BF
100
AcDbEntity
  8
0
100
AcDbPolyline
 70
0
 90
2
 10
496067.144556394
 20
3618679.32640723
 10
496029.142650347
 20
3618654.33885939
  0
LWPOLYLINE
  5
201C0
100
AcDbEntity
  8
0
100
AcDbPolyline
 70
0
 90
2
 10
495964.382544906
 20
3618832.30981305
 10
496067.144556394
 20
3618679.32640723
  0
LWPOLYLINE
  5
201C1
100
AcDbEntity
  8
0
100
AcDbPolyline
 70
0
 90
2
 10
495997.41434349
 20
3618853.97302801
 10
495964.382544906
 20
3618832.30981305
  0
LWPOLYLINE
  5
201C2
100
AcDbEntity
  8
0
100
AcDbPolyline
 70
0
 90
3
 10
496190.208282451
 20
3618411.46837141
 10
496157.099997987
 20
3618395.89747328
 10
496129.91367763
 20
3618396.68212101
  0
LWPOLYLINE
  5
201C3
100
AcDbEntity
  8
0
100
AcDbPolyline
 70
0
 90
2
 10
496084.465994893
 20
3618467.37333448
 10
496129.91367763
 20
3618396.68212101
  0
LWPOLYLINE
  5
201C4
100
AcDbEntity
  8
0
100
AcDbPolyline
 70
0
 90
2
 10
496043.912883765
 20
3618440.64099964
 10
496084.465994893
 20
3618467.37333448
  0
LWPOLYLINE
  5
201C5
100
AcDbEntity
  8
0
100
AcDbPolyline
 70
0
 90
2
 10
495980.401396575
 20
3618622.29023643
 10
496084.465994893
 20
3618467.37333448
  0
LWPOLYLINE
  5
201C6
100
AcDbEntity
  8
0
100
AcDbPolyline
 70
0
 90
2
 10
496029.142650347
 20
3618654.33885939
 10
495980.401396575
 20
3618622.29023643
  0
LWPOLYLINE
  5
201C7
100
AcDbEntity
  8
0
100
AcDbPolyline
 70
0
 90
2
 10
495926.894451919
 20
3618807.72440247
 10
496029.142650347
 20
3618654.33885939
  0
LWPOLYLINE
  5
201C8
100
AcDbEntity
  8
0
100
AcDbPolyline
 70
0
 90
2
 10
495964.382544906
 20
3618832.30981305
 10
495926.894451919
 20
3618807.72440247
  0
LWPOLYLINE
  5
201C9
100
AcDbEntity
  8
0
100
AcDbPolyline
 70
0
 90
2
 10
496129.91367763
 20
3618396.68212101
 10
496086.112829871
 20
3618377.78843082
  0
LWPOLYLINE
  5
201CA
100
AcDbEntity
  8
0
100
AcDbPolyline
 70
0
 90
2
 10
496043.912883765
 20
3618440.64099964
 10
496009.535086877
 20
3618417.97993354
  0
LWPOLYLINE
  5
201CB
100
AcDbEntity
  8
0
100
AcDbPolyline
 70
0
 90
2
 10
496043.912883765
 20
3618440.64099964
 10
496086.112829871
 20
3618377.78843082
  0
LWPOLYLINE
  5
201CC
100
AcDbEntity
  8
0
100
AcDbPolyline
 70
0
 90
2
 10
495939.854289046
 20
3618595.62981968
 10
496043.912883765
 20
3618440.64099964
  0
LWPOLYLINE
  5
201CD
100
AcDbEntity
  8
0
100
AcDbPolyline
 70
0
 90
2
 10
495980.401396575
 20
3618622.29023643
 10
495939.854289046
 20
3618595.62981968
  0
LWPOLYLINE
  5
201CE
100
AcDbEntity
  8
0
100
AcDbPolyline
 70
0
 90
2
 10
495877.569971219
 20
3618775.37698639
 10
495980.401396575
 20
3618622.29023643
  0
LWPOLYLINE
  5
201CF
100
AcDbEntity
  8
0
100
AcDbPolyline
 70
0
 90
2
 10
495926.894451919
 20
3618807.72440247
 10
495877.569971219
 20
3618775.37698639
  0
LWPOLYLINE
  5
201D0
100
AcDbEntity
  8
0
100
AcDbPolyline
 70
0
 90
2
 10
496009.535086877
 20
3618417.97993354
 10
496053.418550889
 20
3618349.24780828
  0
LWPOLYLINE
  5
201D1
100
AcDbEntity
  8
0
100
AcDbPolyline
 70
0
 90
2
 10
496009.535086877
 20
3618417.97993354
 10
495975.172133427
 20
3618395.32862522
  0
LWPOLYLINE
  5
201D2
100
AcDbEntity
  8
0
100
AcDbPolyline
 70
0
 90
2
 10
495905.36862472
 20
3618572.95507471
 10
496009.535086877
 20
3618417.97993354
  0
LWPOLYLINE
  5
201D3
100
AcDbEntity
  8
0
100
AcDbPolyline
 70
0
 90
2
 10
495939.854289046
 20
3618595.62981968
 10
495905.36862472
 20
3618572.95507471
  0
LWPOLYLINE
  5
201D4
100
AcDbEntity
  8
0
100
AcDbPolyline
 70
0
 90
2
 10
495837.02783381
 20
3618748.7892591
 10
495939.854289046
 20
3618595.62981968
  0
LWPOLYLINE
  5
201D5
100
AcDbEntity
  8
0
100
AcDbPolyline
 70
0
 90
2
 10
495877.569971219
 20
3618775.37698639
 10
495837.02783381
 20
3618748.7892591
  0
LWPOLYLINE
  5
201D6
100
AcDbEntity
  8
0
100
AcDbPolyline
 70
0
 90
2
 10
496053.418550889
 20
3618349.24780828
 10
496029.577433994
 20
3618312.70978901
  0
LWPOLYLINE
  5
201D7
100
AcDbEntity
  8
0
100
AcDbPolyline
 70
0
 90
2
 10
496053.418550889
 20
3618349.24780828
 10
496067.714621598
 20
3618367.65191882
  0
LWPOLYLINE
  5
201D8
100
AcDbEntity
  8
0
100
AcDbPolyline
 70
0
 90
2
 10
495975.172133427
 20
3618395.32862522
 10
495940.004812358
 20
3618372.14743511
  0
LWPOLYLINE
  5
201D9
100
AcDbEntity
  8
0
100
AcDbPolyline
 70
0
 90
2
 10
495975.172133427
 20
3618395.32862522
 10
496029.577433994
 20
3618312.70978901
  0
LWPOLYLINE
  5
201DA
100
AcDbEntity
  8
0
100
AcDbPolyline
 70
0
 90
2
 10
495870.902490774
 20
3618550.29341184
 10
495975.172133427
 20
3618395.32862522
  0
LWPOLYLINE
  5
201DB
100
AcDbEntity
  8
0
100
AcDbPolyline
 70
0
 90
2
 10
495905.36862472
 20
3618572.95507471
 10
495870.902490774
 20
3618550.29341184
  0
LWPOLYLINE
  5
201DC
100
AcDbEntity
  8
0
100
AcDbPolyline
 70
0
 90
2
 10
495802.43439618
 20
3618726.10293954
 10
495905.36862472
 20
3618572.95507471
  0
LWPOLYLINE
  5
201DD
100
AcDbEntity
  8
0
100
AcDbPolyline
 70
0
 90
2
 10
495802.43439618
 20
3618726.10293954
 10
495837.02783381
 20
3618748.7892591
  0
LWPOLYLINE
  5
201DE
100
AcDbEntity
  8
0
100
AcDbPolyline
 70
0
 90
3
 10
496029.577433994
 20
3618312.70978901
 10
496026.516548654
 20
3618292.05653716
 10
496046.834862196
 20
3618213.56930712
  0
LWPOLYLINE
  5
201DF
100
AcDbEntity
  8
0
100
AcDbPolyline
 70
0
 90
2
 10
495940.004812358
 20
3618372.14743511
 10
496046.834862196
 20
3618213.56930712
  0
LWPOLYLINE
  5
201E0
100
AcDbEntity
  8
0
100
AcDbPolyline
 70
0
 90
2
 10
496009.598609958
 20
3618188.88705971
 10
496046.834862196
 20
3618213.56930712
  0
LWPOLYLINE
  5
201E1
100
AcDbEntity
  8
0
100
AcDbPolyline
 70
0
 90
2
 10
495940.004812358
 20
3618372.14743511
 10
495903.025828054
 20
3618347.77232291
  0
LWPOLYLINE
  5
201E2
100
AcDbEntity
  8
0
100
AcDbPolyline
 70
0
 90
2
 10
495835.623183451
 20
3618527.09733486
 10
495940.004812358
 20
3618372.14743511
  0
LWPOLYLINE
  5
201E3
100
AcDbEntity
  8
0
100
AcDbPolyline
 70
0
 90
2
 10
495870.902490774
 20
3618550.29341184
 10
495835.623183451
 20
3618527.09733486
  0
LWPOLYLINE
  5
201E4
100
AcDbEntity
  8
0
100
AcDbPolyline
 70
0
 90
2
 10
495767.864894545
 20
3618703.43280468
 10
495870.902490774
 20
3618550.29341184
  0
LWPOLYLINE
  5
201E5
100
AcDbEntity
  8
0
100
AcDbPolyline
 70
0
 90
2
 10
495802.43439618
 20
3618726.10293954
 10
495767.864894545
 20
3618703.43280468
  0
LWPOLYLINE
  5
201E6
100
AcDbEntity
  8
0
100
AcDbPolyline
 70
0
 90
2
 10
496009.598609958
 20
3618188.88705971
 10
495988.161761231
 20
3618175.78865704
  0
LWPOLYLINE
  5
201E7
100
AcDbEntity
  8
0
100
AcDbPolyline
 70
0
 90
2
 10
495903.025828054
 20
3618347.77232291
 10
496009.598609958
 20
3618188.88705971
  0
LWPOLYLINE
  5
201E8
100
AcDbEntity
  8
0
100
AcDbPolyline
 70
0
 90
3
 10
495932.546668146
 20
3618210.06462533
 10
495953.763736354
 20
3618203.85607696
 10
495988.161761231
 20
3618175.78865704
  0
LWPOLYLINE
  5
201E9
100
AcDbEntity
  8
0
100
AcDbPolyline
 70
0
 90
2
 10
495903.025828054
 20
3618347.77232291
 10
495858.997602524
 20
3618318.75103069
  0
LWPOLYLINE
  5
201EA
100
AcDbEntity
  8
0
100
AcDbPolyline
 70
0
 90
2
 10
495798.929363987
 20
3618502.97146555
 10
495903.025828054
 20
3618347.77232291
  0
LWPOLYLINE
  5
201EB
100
AcDbEntity
  8
0
100
AcDbPolyline
 70
0
 90
2
 10
495835.623183451
 20
3618527.09733486
 10
495798.929363987
 20
3618502.97146555
  0
LWPOLYLINE
  5
201EC
100
AcDbEntity
  8
0
100
AcDbPolyline
 70
0
 90
2
 10
495858.997602524
 20
3618318.75103069
 10
495932.546668146
 20
3618210.06462533
  0
LWPOLYLINE
  5
201ED
100
AcDbEntity
  8
0
100
AcDbPolyline
 70
0
 90
2
 10
495858.997602524
 20
3618318.75103069
 10
495807.944200766
 20
3618285.09938377
  0
LWPOLYLINE
  5
201EE
100
AcDbEntity
  8
0
100
AcDbPolyline
 70
0
 90
2
 10
495755.741671135
 20
3618474.57615619
 10
495858.997602524
 20
3618318.75103069
  0
LWPOLYLINE
  5
201EF
100
AcDbEntity
  8
0
100
AcDbPolyline
 70
0
 90
2
 10
495755.741671135
 20
3618474.57615619
 10
495798.929363987
 20
3618502.97146555
  0
LWPOLYLINE
  5
201F0
100
AcDbEntity
  8
0
100
AcDbPolyline
 70
0
 90
2
 10
495932.546668146
 20
3618210.06462533
 10
495856.305253416
 20
3618211.02518983
  0
LWPOLYLINE
  5
201F1
100
AcDbEntity
  8
0
100
AcDbPolyline
 70
0
 90
2
 10
495807.944200766
 20
3618285.09938377
 10
495856.305253416
 20
3618211.02518983
  0
LWPOLYLINE
  5
201F2
100
AcDbEntity
  8
0
100
AcDbPolyline
 70
0
 90
2
 10
495772.483865527
 20
3618261.72613593
 10
495807.944200766
 20
3618285.09938377
  0
LWPOLYLINE
  5
201F3
100
AcDbEntity
  8
0
100
AcDbPolyline
 70
0
 90
2
 10
495705.2631829
 20
3618441.38804681
 10
495807.944200766
 20
3618285.09938377
  0
LWPOLYLINE
  5
201F4
100
AcDbEntity
  8
0
100
AcDbPolyline
 70
0
 90
2
 10
495856.305253416
 20
3618211.02518983
 10
495804.866895452
 20
3618212.8826328
  0
LWPOLYLINE
  5
201F5
100
AcDbEntity
  8
0
100
AcDbPolyline
 70
0
 90
2
 10
495755.741671135
 20
3618474.57615619
 10
495705.2631829
 20
3618441.38804681
  0
LWPOLYLINE
  5
201F6
100
AcDbEntity
  8
0
100
AcDbPolyline
 70
0
 90
2
 10
495772.483865527
 20
3618261.72613593
 10
495737.709839451
 20
3618238.805452
  0
LWPOLYLINE
  5
201F7
100
AcDbEntity
  8
0
100
AcDbPolyline
 70
0
 90
2
 10
495772.483865527
 20
3618261.72613593
 10
495804.866895452
 20
3618212.8826328
  0
LWPOLYLINE
  5
201F8
100
AcDbEntity
  8
0
100
AcDbPolyline
 70
0
 90
2
 10
495669.908473891
 20
3618418.14337357
 10
495772.483865527
 20
3618261.72613593
  0
LWPOLYLINE
  5
201F9
100
AcDbEntity
  8
0
100
AcDbPolyline
 70
0
 90
2
 10
495705.2631829
 20
3618441.38804681
 10
495669.908473891
 20
3618418.14337357
  0
LWPOLYLINE
  5
201FA
100
AcDbEntity
  8
0
100
AcDbPolyline
 70
0
 90
2
 10
495737.709839451
 20
3618238.805452
 10
495701.513847766
 20
3618214.94778399
  0
LWPOLYLINE
  5
201FB
100
AcDbEntity
  8
0
100
AcDbPolyline
 70
0
 90
3
 10
495737.709839451
 20
3618238.805452
 10
495763.083053506
 20
3618213.0674134
 10
495804.866895452
 20
3618212.8826328
  0
LWPOLYLINE
  5
201FC
100
AcDbEntity
  8
0
100
AcDbPolyline
 70
0
 90
2
 10
495635.122969744
 20
3618395.27337695
 10
495737.709839451
 20
3618238.805452
  0
LWPOLYLINE
  5
201FD
100
AcDbEntity
  8
0
100
AcDbPolyline
 70
0
 90
2
 10
495669.908473891
 20
3618418.14337357
 10
495635.122969744
 20
3618395.27337695
  0
LWPOLYLINE
  5
201FE
100
AcDbEntity
  8
0
100
AcDbPolyline
 70
0
 90
2
 10
495701.513847766
 20
3618214.94778399
 10
495665.747554236
 20
3618191.37362764
  0
LWPOLYLINE
  5
201FF
100
AcDbEntity
  8
0
100
AcDbPolyline
 70
0
 90
2
 10
495598.876699453
 20
3618371.44314846
 10
495701.513847766
 20
3618214.94778399
  0
LWPOLYLINE
  5
20200
100
AcDbEntity
  8
0
100
AcDbPolyline
 70
0
 90
2
 10
495635.122969744
 20
3618395.27337695
 10
495598.876699453
 20
3618371.44314846
  0
LWPOLYLINE
  5
20201
100
AcDbEntity
  8
0
100
AcDbPolyline
 70
0
 90
2
 10
495665.747554236
 20
3618191.37362764
 10
495630.231327339
 20
3618167.96455343
  0
LWPOLYLINE
  5
20202
100
AcDbEntity
  8
0
100
AcDbPolyline
 70
0
 90
2
 10
495563.226257393
 20
3618348.00488037
 10
495665.747554236
 20
3618191.37362764
  0
LWPOLYLINE
  5
20203
100
AcDbEntity
  8
0
100
AcDbPolyline
 70
0
 90
2
 10
495598.876699453
 20
3618371.44314846
 10
495563.226257393
 20
3618348.00488037
  0
LWPOLYLINE
  5
20204
100
AcDbEntity
  8
0
100
AcDbPolyline
 70
0
 90
2
 10
495630.231327339
 20
3618167.96455343
 10
495595.794920277
 20
3618145.26737045
  0
LWPOLYLINE
  5
20205
100
AcDbEntity
  8
0
100
AcDbPolyline
 70
0
 90
2
 10
495527.576022075
 20
3618324.56685145
 10
495630.231327339
 20
3618167.96455343
  0
LWPOLYLINE
  5
20206
100
AcDbEntity
  8
0
100
AcDbPolyline
 70
0
 90
2
 10
495527.576022075
 20
3618324.56685145
 10
495563.226257393
 20
3618348.00488037
  0
LWPOLYLINE
  5
20207
100
AcDbEntity
  8
0
100
AcDbPolyline
 70
0
 90
2
 10
495595.794920277
 20
3618145.26737045
 10
495561.089365712
 20
3618122.39294888
  0
LWPOLYLINE
  5
20208
100
AcDbEntity
  8
0
100
AcDbPolyline
 70
0
 90
2
 10
495492.941653827
 20
3618301.79727758
 10
495595.794920277
 20
3618145.26737045
  0
LWPOLYLINE
  5
20209
100
AcDbEntity
  8
0
100
AcDbPolyline
 70
0
 90
2
 10
495527.576022075
 20
3618324.56685145
 10
495492.941653827
 20
3618301.79727758
  0
LWPOLYLINE
  5
2020A
100
AcDbEntity
  8
0
100
AcDbPolyline
 70
0
 90
2
 10
495526.172321077
 20
3618099.37939965
 10
495561.089365712
 20
3618122.39294888
  0
LWPOLYLINE
  5
2020B
100
AcDbEntity
  8
0
100
AcDbPolyline
 70
0
 90
2
 10
495457.919912061
 20
3618278.77281403
 10
495561.089365712
 20
3618122.39294888
  0
LWPOLYLINE
  5
2020C
100
AcDbEntity
  8
0
100
AcDbPolyline
 70
0
 90
2
 10
495526.172321077
 20
3618099.37939965
 10
495489.107392513
 20
3618074.95055602
  0
LWPOLYLINE
  5
2020D
100
AcDbEntity
  8
0
100
AcDbPolyline
 70
0
 90
2
 10
495423.327696428
 20
3618256.03139988
 10
495526.172321077
 20
3618099.37939965
  0
LWPOLYLINE
  5
2020E
100
AcDbEntity
  8
0
100
AcDbPolyline
 70
0
 90
2
 10
495492.941653827
 20
3618301.79727758
 10
495457.919912061
 20
3618278.77281403
  0
LWPOLYLINE
  5
2020F
100
AcDbEntity
  8
0
100
AcDbPolyline
 70
0
 90
2
 10
495386.491707072
 20
3618231.81478294
 10
495489.107392513
 20
3618074.95055602
  0
LWPOLYLINE
  5
20210
100
AcDbEntity
  8
0
100
AcDbPolyline
 70
0
 90
2
 10
495423.327696428
 20
3618256.03139988
 10
495386.491707072
 20
3618231.81478294
  0
LWPOLYLINE
  5
20211
100
AcDbEntity
  8
0
100
AcDbPolyline
 70
0
 90
2
 10
495457.919912061
 20
3618278.77281403
 10
495423.327696428
 20
3618256.03139988
  0
LWPOLYLINE
  5
20212
100
AcDbEntity
  8
0
100
AcDbPolyline
 70
0
 90
2
 10
495386.491707072
 20
3618231.81478294
 10
495353.10892204
 20
3618209.86876899
  0
LWPOLYLINE
  5
20213
100
AcDbEntity
  8
0
100
AcDbPolyline
 70
0
 90
2
 10
495285.076886959
 20
3618386.84921529
 10
495386.491707072
 20
3618231.81478294
  0
LWPOLYLINE
  5
20214
100
AcDbEntity
  8
0
100
AcDbPolyline
 70
0
 90
2
 10
495285.076886959
 20
3618386.84921529
 10
495251.513755084
 20
3618364.84221007
  0
LWPOLYLINE
  5
20215
100
AcDbEntity
  8
0
100
AcDbPolyline
 70
0
 90
2
 10
495251.513755084
 20
3618364.84221007
 10
495353.10892204
 20
3618209.86876899
  0
LWPOLYLINE
  5
20216
100
AcDbEntity
  8
0
100
AcDbPolyline
 70
0
 90
2
 10
496086.112829871
 20
3618377.78843082
 10
496067.714621598
 20
3618367.65191882
  0
ENDSEC
  0
SECTION
  2
OBJECTS
  0
DICTIONARY
  5
C
330
0
100
AcDbDictionary
281
     1
  3
ACAD_GROUP
350
D
  3
ACAD_LAYOUT
350
1A
  3
ACAD_MLEADERSTYLE
350
43
  3
ACAD_PLOTSETTINGS
350
19
  3
ACAD_PLOTSTYLENAME
350
E
  3
ACAD_TABLESTYLE
350
42
  0
DICTIONARY
  5
D
102
{ACAD_REACTORS
330
C
102
}
330
C
100
AcDbDictionary
281
     1
  0
DICTIONARY
  5
1A
102
{ACAD_REACTORS
330
C
102
}
330
C
100
AcDbDictionary
281
     1
  3
Layout1
350
1E
  3
Model
350
22
  0
DICTIONARY
  5
43
102
{ACAD_REACTORS
330
C
102
}
330
C
100
AcDbDictionary
281
     1
  0
DICTIONARY
  5
19
102
{ACAD_REACTORS
330
C
102
}
330
C
100
AcDbDictionary
281
     1
  0
ACDBDICTIONARYWDFLT
  5
E
102
{ACAD_REACTORS
330
C
102
}
330
C
100
AcDbDictionary
281
     1
  3
Normal
350
F
100
AcDbDictionaryWithDefault
340
F
  0
DICTIONARY
  5
42
102
{ACAD_REACTORS
330
C
102
}
330
C
100
AcDbDictionary
281
     1
  0
LAYOUT
  5
1E
102
{ACAD_REACTORS
330
1A
102
}
330
1A
100
AcDbPlotSettings
  1

  2
none_device
  4

  6

 40
0.0
 41
0.0
 42
0.0
 43
0.0
 44
0.0
 45
0.0
 46
0.0
 47
0.0
 48
0.0
 49
0.0
140
0.0
141
0.0
142
1.0
143
1.0
 70
   688
 72
     0
 73
     0
 74
     5
  7

 75
    16
 76
     0
 77
     2
 78
   300
147
1.0
148
0.0
149
0.0
100
AcDbLayout
  1
Layout1
 70
     1
 71
     1
 10
0.0
 20
0.0
 11
12.0
 21
9.0
 12
0.0
 22
0.0
 32
0.0
 14
1.000000000000000E+20
 24
1.000000000000000E+20
 34
1.000000000000000E+20
 15
-1.000000000000000E+20
 25
-1.000000000000000E+20
 35
-1.000000000000000E+20
146
0.0
 13
0.0
 23
0.0
 33
0.0
 16
1.0
 26
0.0
 36
0.0
 17
0.0
 27
1.0
 37
0.0
 76
     0
330
1B
  0
LAYOUT
  5
22
102
{ACAD_REACTORS
330
1A
102
}
330
1A
100
AcDbPlotSettings
  1

  2
none_device
  4

  6

 40
0.0
 41
0.0
 42
0.0
 43
0.0
 44
0.0
 45
0.0
 46
0.0
 47
0.0
 48
0.0
 49
0.0
140
0.0
141
0.0
142
1.0
143
1.0
 70
  1712
 72
     0
 73
     0
 74
     0
  7

 75
     0
 76
     0
 77
     2
 78
   300
147
1.0
148
0.0
149
0.0
100
AcDbLayout
  1
Model
 70
     1
 71
     0
 10
0.0
 20
0.0
 11
12.0
 21
9.0
 12
0.0
 22
0.0
 32
0.0
 14
30.0
 24
49.75
 34
0.0
 15
130.5
 25
163.1318914119703
 35
0.0
146
0.0
 13
0.0
 23
0.0
 33
0.0
 16
1.0
 26
0.0
 36
0.0
 17
0.0
 27
1.0
 37
0.0
 76
     0
330
1F
331
29
  0
ENDSEC
  0
EOF
