  0
SECTION
  2
HEADER
  9
$ACADVER
  1
AC1018
  9
$ACADMAINTVER
 70
     0
  9
$DWGCODEPAGE
  3
ANSI_1252
  9
$EXTMIN
 10
525895.887836755
 20
4167840.2119574
 30
0.0
  9
$EXTMAX
 10
526577.048121999
 20
4168161.87327457
 30
0.0
  9
$LIMMIN
 10
0.0
 20
0.0
  9
$LIMMAX
 10
12.0
 20
9.0
  9
$ORTHOMODE
 70
     0
  9
$REGENMODE
 70
     1
  9
$FILLMODE
 70
     1
  9
$QTEXTMODE
 70
     0
  9
$MIRRTEXT
 70
     1
  9
$LTSCALE
 40
1.0
  9
$ATTMODE
 70
     1
  9
$TEXTSIZE
 40
0.2
  9
$TRACEWID
 40
0.05
  9
$TEXTSTYLE
  7
Standard
  9
$CLAYER
  8
0
  9
$CELTYPE
  6
ByLayer
  9
$CECOLOR
 62
   256
  9
$CELTSCALE
 40
1.0
  9
$DISPSILH
 70
     0
  9
$LUNITS
 70
     2
  9
$LUPREC
 70
     4
  9
$SKETCHINC
 40
0.1
  9
$FILLETRAD
 40
0.5
  9
$AUNITS
 70
     0
  9
$AUPREC
 70
     0
  9
$MENU
  1
.
  9
$ELEVATION
 40
0.0
  9
$PELEVATION
 40
0.0
  9
$THICKNESS
 40
0.0
  9
$LIMCHECK
 70
     0
  9
$CHAMFERA
 40
0.5
  9
$CHAMFERB
 40
0.5
  9
$CHAMFERC
 40
1.0
  9
$CHAMFERD
 40
0.0
  9
$SKPOLY
 70
     0
  9
$ANGBASE
 50
0.0
  9
$ANGDIR
 70
     0
  9
$PDMODE
 70
     0
  9
$PDSIZE
 40
0.0
  9
$PLINEWID
 40
0.0
  9
$SPLFRAME
 70
     0
  9
$SPLINETYPE
 70
     6
  9
$SPLINESEGS
 70
     8
  9
$HANDSEED
  5
000200C0
  9
$SURFTAB1
 70
     6
  9
$SURFTAB2
 70
     6
  9
$SURFTYPE
 70
     6
  9
$SURFU
 70
     6
  9
$SURFV
 70
     6
  9
$UCSBASE
  2

  9
$UCSNAME
  2

  9
$UCSORG
 10
0.0
 20
0.0
 30
0.0
  9
$UCSXDIR
 10
1.0
 20
0.0
 30
0.0
  9
$UCSYDIR
 10
0.0
 20
1.0
 30
0.0
  9
$UCSORTHOREF
  2

  9
$UCSORTHOVIEW
 70
     0
  9
$UCSORGTOP
 10
0.0
 20
0.0
 30
0.0
  9
$UCSORGBOTTOM
 10
0.0
 20
0.0
 30
0.0
  9
$UCSORGLEFT
 10
0.0
 20
0.0
 30
0.0
  9
$UCSORGRIGHT
 10
0.0
 20
0.0
 30
0.0
  9
$UCSORGFRONT
 10
0.0
 20
0.0
 30
0.0
  9
$UCSORGBACK
 10
0.0
 20
0.0
 30
0.0
  9
$PUCSBASE
  2

  9
$PUCSNAME
  2

  9
$PUCSORG
 10
0.0
 20
0.0
 30
0.0
  9
$PUCSXDIR
 10
1.0
 20
0.0
 30
0.0
  9
$PUCSYDIR
 10
0.0
 20
1.0
 30
0.0
  9
$PUCSORTHOREF
  2

  9
$PUCSORTHOVIEW
 70
     0
  9
$PUCSORGTOP
 10
0.0
 20
0.0
 30
0.0
  9
$PUCSORGBOTTOM
 10
0.0
 20
0.0
 30
0.0
  9
$PUCSORGLEFT
 10
0.0
 20
0.0
 30
0.0
  9
$PUCSORGRIGHT
 10
0.0
 20
0.0
 30
0.0
  9
$PUCSORGFRONT
 10
0.0
 20
0.0
 30
0.0
  9
$PUCSORGBACK
 10
0.0
 20
0.0
 30
0.0
  9
$WORLDVIEW
 70
     1
  9
$SHADEDGE
 70
     3
  9
$SHADEDIF
 70
    70
  9
$TILEMODE
 70
     1
  9
$MAXACTVP
 70
    64
  9
$PINSBASE
 10
0.0
 20
0.0
 30
0.0
  9
$PLIMCHECK
 70
     0
  9
$PEXTMIN
 10
1.000000000000000E+20
 20
1.000000000000000E+20
 30
1.000000000000000E+20
  9
$PEXTMAX
 10
-1.000000000000000E+20
 20
-1.000000000000000E+20
 30
-1.000000000000000E+20
  9
$PLIMMIN
 10
0.0
 20
0.0
  9
$PLIMMAX
 10
12.0
 20
9.0
  9
$UNITMODE
 70
     0
  9
$VISRETAIN
 70
     1
  9
$PLINEGEN
 70
     0
  9
$PSLTSCALE
 70
     1
  9
$TREEDEPTH
 70
  3020
  9
$CMLSTYLE
  2
Standard
  9
$CMLJUST
 70
     0
  9
$CMLSCALE
 40
1.0
  9
$PROXYGRAPHICS
 70
     1
  9
$MEASUREMENT
 70
     0
  9
$CELWEIGHT
370
    -1
  9
$ENDCAPS
280
     0
  9
$JOINSTYLE
280
     0
  9
$LWDISPLAY
290
     0
  9
$INSUNITS
 70
     1
  9
$HYPERLINKBASE
  1

  9
$STYLESHEET
  1

  9
$XEDIT
290
     1
  9
$CEPSNTYPE
380
     0
  9
$PSTYLEMODE
290
     1
  9
$EXTNAMES
290
     1
  9
$PSVPSCALE
 40
0.0
  9
$OLESTARTUP
290
     0
  9
$SORTENTS
280
   127
  9
$INDEXCTL
280
     0
  9
$HIDETEXT
280
     1
  9
$XCLIPFRAME
290
     0
  9
$HALOGAP
280
     0
  9
$OBSCOLOR
 70
   257
  9
$OBSLTYPE
280
     0
  9
$INTERSECTIONDISPLAY
280
     0
  9
$INTERSECTIONCOLOR
 70
   257
  9
$DIMASSOC
280
     2
  9
$PROJECTNAME
  1

  0
ENDSEC
  0
SECTION
  2
CLASSES
  0
CLASS
  1
ACDBDICTIONARYWDFLT
  2
AcDbDictionaryWithDefault
  3
ObjectDBX Classes
 90
        0
 91
        4
280
     0
281
     0
  0
ENDSEC
  0
SECTION
  2
TABLES
  0
TABLE
  2
VPORT
  5
8
330
0
100
AcDbSymbolTable
 70
     1
  0
VPORT
  5
29
330
8
100
AcDbSymbolTableRecord
100
AcDbViewportTableRecord
  2
*Active
 70
     0
 10
0.0
 20
0.0
 11
1.0
 21
1.0
 12
80.25
 22
106.4409457059851
 13
0.0
 23
0.0
 14
0.5
 24
0.5
 15
0.5
 25
0.5
 16
0.0
 26
0.0
 36
1.0
 17
0.0
 27
0.0
 37
0.0
 40
113.3818914119703
 41
0.8863849310366128
 42
50.0
 43
0.0
 44
0.0
 50
0.0
 51
0.0
 71
     0
 72
  1000
 73
     1
 74
     3
 75
     0
 76
     0
 77
     0
 78
     0
281
     0
 65
     1
110
0.0
120
0.0
130
0.0
111
1.0
121
0.0
131
0.0
112
0.0
122
1.0
132
0.0
 79
     0
146
0.0
  0
ENDTAB
  0
TABLE
  2
LTYPE
  5
5
330
0
100
AcDbSymbolTable
 70
     1
  0
LTYPE
  5
14
330
5
100
AcDbSymbolTableRecord
100
AcDbLinetypeTableRecord
  2
ByBlock
 70
     0
  3

 72
    65
 73
     0
 40
0.0
  0
LTYPE
  5
15
330
5
100
AcDbSymbolTableRecord
100
AcDbLinetypeTableRecord
  2
ByLayer
 70
     0
  3

 72
    65
 73
     0
 40
0.0
  0
LTYPE
  5
16
330
5
100
AcDbSymbolTableRecord
100
AcDbLinetypeTableRecord
  2
Continuous
 70
     0
  3
Solid line
 72
    65
 73
     0
 40
0.0
  0
ENDTAB
  0
TABLE
  2
LAYER
  5
2
330
0
100
AcDbSymbolTable
 70
     1
  0
LAYER
  5
10
330
2
100
AcDbSymbolTableRecord
100
AcDbLayerTableRecord
  2
0
 70
     0
 62
     7
  6
Continuous
370
    -3
390
F
  0
ENDTAB
  0
TABLE
  2
STYLE
  5
3
330
0
100
AcDbSymbolTable
 70
     1
  0
STYLE
  5
11
330
3
100
AcDbSymbolTableRecord
100
AcDbTextStyleTableRecord
  2
Standard
 70
     0
 40
0.0
 41
1.0
 50
0.0
 71
     0
 42
0.2
  3
txt
  4

  0
ENDTAB
  0
TABLE
  2
VIEW
  5
6
330
0
100
AcDbSymbolTable
 70
     0
  0
ENDTAB
  0
TABLE
  2
UCS
  5
7
330
0
100
AcDbSymbolTable
 70
     0
  0
ENDTAB
  0
TABLE
  2
APPID
  5
9
330
0
100
AcDbSymbolTable
 70
     1
  0
APPID
  5
12
330
9
100
AcDbSymbolTableRecord
100
AcDbRegAppTableRecord
  2
ACAD
 70
     0
  0
ENDTAB
  0
TABLE
  2
DIMSTYLE
  5
A
330
0
100
AcDbSymbolTable
 70
     1
100
AcDbDimStyleTable
  0
DIMSTYLE
105
27
330
A
100
AcDbSymbolTableRecord
100
AcDbDimStyleTableRecord
  2
Standard
 70
     0
340
11
  0
ENDTAB
  0
TABLE
  2
BLOCK_RECORD
  5
1
330
0
100
AcDbSymbolTable
 70
     1
  0
BLOCK_RECORD
  5
1F
330
1
100
AcDbSymbolTableRecord
100
AcDbBlockTableRecord
  2
*Model_Space
340
22
  0
BLOCK_RECORD
  5
1B
330
1
100
AcDbSymbolTableRecord
100
AcDbBlockTableRecord
  2
*Paper_Space
340
1E
  0
ENDTAB
  0
ENDSEC
  0
SECTION
  2
BLOCKS
  0
BLOCK
  5
20
330
1F
100
AcDbEntity
  8
0
100
AcDbBlockBegin
  2
*Model_Space
 70
     0
 10
0.0
 20
0.0
 30
0.0
  3
*Model_Space
  1

  0
ENDBLK
  5
21
330
1F
100
AcDbEntity
  8
0
100
AcDbBlockEnd
  0
BLOCK
  5
1C
330
1B
100
AcDbEntity
 67
     1
  8
0
100
AcDbBlockBegin
  2
*Paper_Space
 70
     0
 10
0.0
 20
0.0
 30
0.0
  3
*Paper_Space
  1

  0
ENDBLK
  5
1D
330
1B
100
AcDbEntity
 67
     1
  8
0
100
AcDbBlockEnd
  0
ENDSEC
  0
SECTION
  2
ENTITIES
  0
LWPOLYLINE
  5
20000
100
AcDbEntity
  8
0
100
AcDbPolyline
 70
0
 90
2
 10
525926.32713495
 20
4168151.21340643
 10
525925.541692958
 20
4168099.6616954
  0
LWPOLYLINE
  5
20001
100
AcDbEntity
  8
0
100
AcDbPolyline
 70
0
 90
5
 10
525926.32713495
 20
4168151.21340643
 10
525896.466520502
 20
4168150.6407915
 10
525895.887836755
 20
4168124.1557917
 10
525906.185360699
 20
4168124.27357812
 10
525904.953954515
 20
4168099.24116177
  0
LWPOLYLINE
  5
20002
100
AcDbEntity
  8
0
100
AcDbPolyline
 70
0
 90
2
 10
525966.174448046
 20
4168151.97657312
 10
525926.32713495
 20
4168151.21340643
  0
LWPOLYLINE
  5
20003
100
AcDbEntity
  8
0
100
AcDbPolyline
 70
0
 90
2
 10
525966.174448046
 20
4168151.97657312
 10
525966.188159175
 20
4168100.49215804
  0
LWPOLYLINE
  5
20004
100
AcDbEntity
  8
0
100
AcDbPolyline
 70
0
 90
2
 10
526004.61192972
 20
4168152.71297695
 10
525966.174448046
 20
4168151.97657312
  0
LWPOLYLINE
  5
20005
100
AcDbEntity
  8
0
100
AcDbPolyline
 70
0
 90
2
 10
526004.61192972
 20
4168152.71297695
 10
526004.631282339
 20
4168101.27772717
  0
LWPOLYLINE
  5
20006
100
AcDbEntity
  8
0
100
AcDbPolyline
 70
0
 90
2
 10
526044.440886393
 20
4168153.4762412
 10
526004.61192972
 20
4168152.71297695
  0
LWPOLYLINE
  5
20007
100
AcDbEntity
  8
0
100
AcDbPolyline
 70
0
 90
2
 10
526044.440886393
 20
4168153.4762412
 10
526082.215294103
 20
4168154.20026696
  0
LWPOLYLINE
  5
20008
100
AcDbEntity
  8
0
100
AcDbPolyline
 70
0
 90
2
 10
526044.440886393
 20
4168153.4762412
 10
526044.028514318
 20
4168102.08301031
  0
LWPOLYLINE
  5
20009
100
AcDbEntity
  8
0
100
AcDbPolyline
 70
0
 90
2
 10
526082.215294103
 20
4168154.20026696
 10
526081.7692251
 20
4168102.85463316
  0
LWPOLYLINE
  5
2000A
100
AcDbEntity
  8
0
100
AcDbPolyline
 70
0
 90
2
 10
526120.319993346
 20
4168154.9308338
 10
526082.215294103
 20
4168154.20026696
  0
LWPOLYLINE
  5
2000B
100
AcDbEntity
  8
0
100
AcDbPolyline
 70
0
 90
2
 10
526120.319993346
 20
4168154.9308338
 10
526120.558944448
 20
4168103.64793628
  0
LWPOLYLINE
  5
2000C
100
AcDbEntity
  8
0
100
AcDbPolyline
 70
0
 90
2
 10
526158.75745362
 20
4168155.66795411
 10
526120.319993346
 20
4168154.9308338
  0
LWPOLYLINE
  5
2000D
100
AcDbEntity
  8
0
100
AcDbPolyline
 70
0
 90
2
 10
526158.75745362
 20
4168155.66795411
 10
526199.930682495
 20
4168156.45774263
  0
LWPOLYLINE
  5
2000E
100
AcDbEntity
  8
0
100
AcDbPolyline
 70
0
 90
2
 10
526158.75745362
 20
4168155.66795411
 10
526158.494823837
 20
4168104.42385408
  0
LWPOLYLINE
  5
2000F
100
AcDbEntity
  8
0
100
AcDbPolyline
 70
0
 90
2
 10
526199.930682495
 20
4168156.45774263
 10
526199.375856546
 20
4168105.26030987
  0
LWPOLYLINE
  5
20010
100
AcDbEntity
  8
0
100
AcDbPolyline
 70
0
 90
2
 10
526241.504847773
 20
4168157.25533218
 10
526199.930682495
 20
4168156.45774263
  0
LWPOLYLINE
  5
20011
100
AcDbEntity
  8
0
100
AcDbPolyline
 70
0
 90
2
 10
526241.504847773
 20
4168157.25533218
 10
526241.069440895
 20
4168106.11352493
  0
LWPOLYLINE
  5
20012
100
AcDbEntity
  8
0
100
AcDbPolyline
 70
0
 90
2
 10
526282.6859139
 20
4168158.04566859
 10
526241.504847773
 20
4168157.25533218
  0
LWPOLYLINE
  5
20013
100
AcDbEntity
  8
0
100
AcDbPolyline
 70
0
 90
2
 10
526282.6859139
 20
4168158.04566859
 10
526321.830865438
 20
4168158.79711172
  0
LWPOLYLINE
  5
20014
100
AcDbEntity
  8
0
100
AcDbPolyline
 70
0
 90
2
 10
526282.6859139
 20
4168158.04566859
 10
526282.09122292
 20
4168106.95316609
  0
LWPOLYLINE
  5
20015
100
AcDbEntity
  8
0
100
AcDbPolyline
 70
0
 90
2
 10
526321.830865438
 20
4168158.79711172
 10
526321.439638973
 20
4168107.75883925
  0
LWPOLYLINE
  5
20016
100
AcDbEntity
  8
0
100
AcDbPolyline
 70
0
 90
2
 10
526362.341095498
 20
4168159.57505909
 10
526321.830865438
 20
4168158.79711172
  0
LWPOLYLINE
  5
20017
100
AcDbEntity
  8
0
100
AcDbPolyline
 70
0
 90
2
 10
526362.341095498
 20
4168159.57505909
 10
526361.889804265
 20
4168108.58718299
  0
LWPOLYLINE
  5
20018
100
AcDbEntity
  8
0
100
AcDbPolyline
 70
0
 90
2
 10
526401.478186233
 20
4168160.32674328
 10
526362.341095498
 20
4168159.57505909
  0
LWPOLYLINE
  5
20019
100
AcDbEntity
  8
0
100
AcDbPolyline
 70
0
 90
2
 10
526401.478186233
 20
4168160.32674328
 10
526441.642497805
 20
4168161.0983167
  0
LWPOLYLINE
  5
2001A
100
AcDbEntity
  8
0
100
AcDbPolyline
 70
0
 90
2
 10
526401.478186233
 20
4168160.32674328
 10
526400.996284197
 20
4168109.38824766
  0
LWPOLYLINE
  5
2001B
100
AcDbEntity
  8
0
100
AcDbPolyline
 70
0
 90
2
 10
526441.642497805
 20
4168161.0983167
 10
526441.064720858
 20
4168110.20921441
  0
LWPOLYLINE
  5
2001C
100
AcDbEntity
  8
0
100
AcDbPolyline
 70
0
 90
2
 10
526481.971290176
 20
4168161.87327457
 10
526441.642497805
 20
4168161.0983167
  0
LWPOLYLINE
  5
2001D
100
AcDbEntity
  8
0
100
AcDbPolyline
 70
0
 90
2
 10
526481.971290176
 20
4168161.87327457
 10
526481.486732275
 20
4168111.03760943
  0
LWPOLYLINE
  5
2001E
100
AcDbEntity
  8
0
100
AcDbPolyline
 70
0
 90
2
 10
526441.064720858
 20
4168110.20921441
 10
526440.468467115
 20
4168057.70200367
  0
LWPOLYLINE
  5
2001F
100
AcDbEntity
  8
0
100
AcDbPolyline
 70
0
 90
2
 10
526481.486732275
 20
4168111.03760943
 10
526441.064720858
 20
4168110.20921441
  0
LWPOLYLINE
  5
20020
100
AcDbEntity
  8
0
100
AcDbPolyline
 70
0
 90
2
 10
526400.996284197
 20
4168109.38824766
 10
526441.064720858
 20
4168110.20921441
  0
LWPOLYLINE
  5
20021
100
AcDbEntity
  8
0
100
AcDbPolyline
 70
0
 90
2
 10
526440.468467115
 20
4168057.70200367
 10
526439.864571434
 20
4168004.5189937
  0
LWPOLYLINE
  5
20022
100
AcDbEntity
  8
0
100
AcDbPolyline
 70
0
 90
2
 10
526400.500841069
 20
4168057.0241528
 10
526440.468467115
 20
4168057.70200367
  0
LWPOLYLINE
  5
20023
100
AcDbEntity
  8
0
100
AcDbPolyline
 70
0
 90
2
 10
526480.984946377
 20
4168058.38946019
 10
526440.468467115
 20
4168057.70200367
  0
LWPOLYLINE
  5
20024
100
AcDbEntity
  8
0
100
AcDbPolyline
 70
0
 90
2
 10
526439.864571434
 20
4168004.5189937
 10
526439.244073033
 20
4167949.87609255
  0
LWPOLYLINE
  5
20025
100
AcDbEntity
  8
0
100
AcDbPolyline
 70
0
 90
2
 10
526399.996149428
 20
4168003.68558388
 10
526439.864571434
 20
4168004.5189937
  0
LWPOLYLINE
  5
20026
100
AcDbEntity
  8
0
100
AcDbPolyline
 70
0
 90
2
 10
526480.479669137
 20
4168005.36841072
 10
526439.864571434
 20
4168004.5189937
  0
LWPOLYLINE
  5
20027
100
AcDbEntity
  8
0
100
AcDbPolyline
 70
0
 90
2
 10
526439.244073033
 20
4167949.87609255
 10
526438.642227906
 20
4167896.87194495
  0
LWPOLYLINE
  5
20028
100
AcDbEntity
  8
0
100
AcDbPolyline
 70
0
 90
2
 10
526399.481826775
 20
4167949.3263859
 10
526439.244073033
 20
4167949.87609255
  0
LWPOLYLINE
  5
20029
100
AcDbEntity
  8
0
100
AcDbPolyline
 70
0
 90
2
 10
526479.784438261
 20
4167950.43092212
 10
526439.244073033
 20
4167949.87609255
  0
LWPOLYLINE
  5
2002A
100
AcDbEntity
  8
0
100
AcDbPolyline
 70
0
 90
2
 10
526438.642227906
 20
4167896.87194495
 10
526477.752163529
 20
4167896.21630596
  0
LWPOLYLINE
  5
2002B
100
AcDbEntity
  8
0
100
AcDbPolyline
 70
0
 90
2
 10
526398.969409478
 20
4167895.16823483
 10
526438.642227906
 20
4167896.87194495
  0
LWPOLYLINE
  5
2002C
100
AcDbEntity
  8
0
100
AcDbPolyline
 70
0
 90
2
 10
525941.786312048
 20
4167994.11971708
 10
525932.173257939
 20
4167993.91938092
  0
LWPOLYLINE
  5
2002D
100
AcDbEntity
  8
0
100
AcDbPolyline
 70
0
 90
3
 10
525941.786312048
 20
4167994.11971708
 10
525941.542072346
 20
4167982.89920394
 10
525964.626182936
 20
4167971.34892554
  0
LWPOLYLINE
  5
2002E
100
AcDbEntity
  8
0
100
AcDbPolyline
 70
0
 90
2
 10
525964.678985855
 20
4167994.59705744
 10
525941.786312048
 20
4167994.11971708
  0
LWPOLYLINE
  5
2002F
100
AcDbEntity
  8
0
100
AcDbPolyline
 70
0
 90
3
 10
525964.747135118
 20
4168024.6170059
 10
525942.44171267
 20
4168024.22471677
 10
525941.786312048
 20
4167994.11971708
  0
LWPOLYLINE
  5
20030
100
AcDbEntity
  8
0
100
AcDbPolyline
 70
0
 90
2
 10
525964.678985855
 20
4167994.59705744
 10
525964.626182936
 20
4167971.34892554
  0
LWPOLYLINE
  5
20031
100
AcDbEntity
  8
0
100
AcDbPolyline
 70
0
 90
2
 10
526004.089994319
 20
4167995.41894219
 10
525964.678985855
 20
4167994.59705744
  0
LWPOLYLINE
  5
20032
100
AcDbEntity
  8
0
100
AcDbPolyline
 70
0
 90
2
 10
525964.747135118
 20
4168024.6170059
 10
525964.678985855
 20
4167994.59705744
  0
LWPOLYLINE
  5
20033
100
AcDbEntity
  8
0
100
AcDbPolyline
 70
0
 90
2
 10
526004.089994319
 20
4167995.41894219
 10
526042.038233333
 20
4167996.21044768
  0
LWPOLYLINE
  5
20034
100
AcDbEntity
  8
0
100
AcDbPolyline
 70
0
 90
2
 10
526004.089994319
 20
4167995.41894219
 10
526003.955884303
 20
4167964.79356976
  0
LWPOLYLINE
  5
20035
100
AcDbEntity
  8
0
100
AcDbPolyline
 70
0
 90
2
 10
526004.220937952
 20
4168025.31127855
 10
526004.089994319
 20
4167995.41894219
  0
LWPOLYLINE
  5
20036
100
AcDbEntity
  8
0
100
AcDbPolyline
 70
0
 90
2
 10
526042.038233333
 20
4167996.21044768
 10
526040.916135741
 20
4167944.25670932
  0
LWPOLYLINE
  5
20037
100
AcDbEntity
  8
0
100
AcDbPolyline
 70
0
 90
2
 10
526080.580302993
 20
4167997.0146506
 10
526042.038233333
 20
4167996.21044768
  0
LWPOLYLINE
  5
20038
100
AcDbEntity
  8
0
100
AcDbPolyline
 70
0
 90
2
 10
526042.681333944
 20
4168025.98801481
 10
526042.038233333
 20
4167996.21044768
  0
LWPOLYLINE
  5
20039
100
AcDbEntity
  8
0
100
AcDbPolyline
 70
0
 90
2
 10
526080.580302993
 20
4167997.0146506
 10
526079.604456546
 20
4167944.91125458
  0
LWPOLYLINE
  5
2003A
100
AcDbEntity
  8
0
100
AcDbPolyline
 70
0
 90
2
 10
526119.236230638
 20
4167997.82127879
 10
526080.580302993
 20
4167997.0146506
  0
LWPOLYLINE
  5
2003B
100
AcDbEntity
  8
0
100
AcDbPolyline
 70
0
 90
2
 10
526081.135639526
 20
4168026.6647998
 10
526080.580302993
 20
4167997.0146506
  0
LWPOLYLINE
  5
2003C
100
AcDbEntity
  8
0
100
AcDbPolyline
 70
0
 90
2
 10
526119.236230638
 20
4167997.82127879
 10
526158.221836013
 20
4167998.63501046
  0
LWPOLYLINE
  5
2003D
100
AcDbEntity
  8
0
100
AcDbPolyline
 70
0
 90
2
 10
526119.236230638
 20
4167997.82127879
 10
526118.290068885
 20
4167945.44459614
  0
LWPOLYLINE
  5
2003E
100
AcDbEntity
  8
0
100
AcDbPolyline
 70
0
 90
2
 10
526119.76951269
 20
4168027.34488242
 10
526119.236230638
 20
4167997.82127879
  0
LWPOLYLINE
  5
2003F
100
AcDbEntity
  8
0
100
AcDbPolyline
 70
0
 90
2
 10
526158.221836013
 20
4167998.63501046
 10
526157.343914821
 20
4167945.98316625
  0
LWPOLYLINE
  5
20040
100
AcDbEntity
  8
0
100
AcDbPolyline
 70
0
 90
2
 10
526198.229384596
 20
4167999.470247
 10
526158.221836013
 20
4167998.63501046
  0
LWPOLYLINE
  5
20041
100
AcDbEntity
  8
0
100
AcDbPolyline
 70
0
 90
2
 10
526158.712075596
 20
4168028.03067061
 10
526158.221836013
 20
4167998.63501046
  0
LWPOLYLINE
  5
20042
100
AcDbEntity
  8
0
100
AcDbPolyline
 70
0
 90
2
 10
526198.229384596
 20
4167999.470247
 10
526197.655760584
 20
4167946.5392186
  0
LWPOLYLINE
  5
20043
100
AcDbEntity
  8
0
100
AcDbPolyline
 70
0
 90
2
 10
526240.168989802
 20
4168000.34608867
 10
526198.229384596
 20
4167999.470247
  0
LWPOLYLINE
  5
20044
100
AcDbEntity
  8
0
100
AcDbPolyline
 70
0
 90
2
 10
526198.346812449
 20
4168028.72981824
 10
526198.229384596
 20
4167999.470247
  0
LWPOLYLINE
  5
20045
100
AcDbEntity
  8
0
100
AcDbPolyline
 70
0
 90
2
 10
526240.168989802
 20
4168000.34608867
 10
526280.782709561
 20
4168001.19429855
  0
LWPOLYLINE
  5
20046
100
AcDbEntity
  8
0
100
AcDbPolyline
 70
0
 90
2
 10
526240.168989802
 20
4168000.34608867
 10
526239.012281671
 20
4167948.1005228
  0
LWPOLYLINE
  5
20047
100
AcDbEntity
  8
0
100
AcDbPolyline
 70
0
 90
2
 10
526240.628437094
 20
4168054.31423124
 10
526240.168989802
 20
4168000.34608867
  0
LWPOLYLINE
  5
20048
100
AcDbEntity
  8
0
100
AcDbPolyline
 70
0
 90
2
 10
526280.782709561
 20
4168001.19429855
 10
526280.379669191
 20
4167947.68110744
  0
LWPOLYLINE
  5
20049
100
AcDbEntity
  8
0
100
AcDbPolyline
 70
0
 90
2
 10
526320.629188865
 20
4168002.02684187
 10
526280.782709561
 20
4168001.19429855
  0
LWPOLYLINE
  5
2004A
100
AcDbEntity
  8
0
100
AcDbPolyline
 70
0
 90
2
 10
526281.187982123
 20
4168055.00140021
 10
526280.782709561
 20
4168001.19429855
  0
LWPOLYLINE
  5
2004B
100
AcDbEntity
  8
0
100
AcDbPolyline
 70
0
 90
2
 10
526320.629188865
 20
4168002.02684187
 10
526320.216808601
 20
4167948.23125638
  0
LWPOLYLINE
  5
2004C
100
AcDbEntity
  8
0
100
AcDbPolyline
 70
0
 90
2
 10
526360.95413531
 20
4168002.86953402
 10
526320.629188865
 20
4168002.02684187
  0
LWPOLYLINE
  5
2004D
100
AcDbEntity
  8
0
100
AcDbPolyline
 70
0
 90
2
 10
526321.040435205
 20
4168055.67686559
 10
526320.629188865
 20
4168002.02684187
  0
LWPOLYLINE
  5
2004E
100
AcDbEntity
  8
0
100
AcDbPolyline
 70
0
 90
2
 10
526360.95413531
 20
4168002.86953402
 10
526360.475366122
 20
4167948.78737808
  0
LWPOLYLINE
  5
2004F
100
AcDbEntity
  8
0
100
AcDbPolyline
 70
0
 90
2
 10
526399.996149428
 20
4168003.68558388
 10
526360.95413531
 20
4168002.86953402
  0
LWPOLYLINE
  5
20050
100
AcDbEntity
  8
0
100
AcDbPolyline
 70
0
 90
2
 10
526361.427542228
 20
4168056.3615495
 10
526360.95413531
 20
4168002.86953402
  0
LWPOLYLINE
  5
20051
100
AcDbEntity
  8
0
100
AcDbPolyline
 70
0
 90
2
 10
526399.996149428
 20
4168003.68558388
 10
526399.481826775
 20
4167949.3263859
  0
LWPOLYLINE
  5
20052
100
AcDbEntity
  8
0
100
AcDbPolyline
 70
0
 90
2
 10
526400.500841069
 20
4168057.0241528
 10
526399.996149428
 20
4168003.68558388
  0
LWPOLYLINE
  5
20053
100
AcDbEntity
  8
0
100
AcDbPolyline
 70
0
 90
2
 10
526480.479669137
 20
4168005.36841072
 10
526479.784438261
 20
4167950.43092212
  0
LWPOLYLINE
  5
20054
100
AcDbEntity
  8
0
100
AcDbPolyline
 70
0
 90
3
 10
526522.748257559
 20
4168032.3133324
 10
526522.690700079
 20
4168006.25121404
 10
526480.479669137
 20
4168005.36841072
  0
LWPOLYLINE
  5
20055
100
AcDbEntity
  8
0
100
AcDbPolyline
 70
0
 90
2
 10
526480.984946377
 20
4168058.38946019
 10
526480.479669137
 20
4168005.36841072
  0
LWPOLYLINE
  5
20056
100
AcDbEntity
  8
0
100
AcDbPolyline
 70
0
 90
2
 10
526522.748257559
 20
4168032.3133324
 10
526561.357127432
 20
4168032.74720901
  0
LWPOLYLINE
  5
20057
100
AcDbEntity
  8
0
100
AcDbPolyline
 70
0
 90
2
 10
526522.80737366
 20
4168059.09927617
 10
526522.748257559
 20
4168032.3133324
  0
LWPOLYLINE
  5
20058
100
AcDbEntity
  8
0
100
AcDbPolyline
 70
0
 90
2
 10
526522.80737366
 20
4168059.09927617
 10
526480.984946377
 20
4168058.38946019
  0
LWPOLYLINE
  5
20059
100
AcDbEntity
  8
0
100
AcDbPolyline
 70
0
 90
2
 10
526522.923882475
 20
4168111.88698681
 10
526522.80737366
 20
4168059.09927617
  0
LWPOLYLINE
  5
2005A
100
AcDbEntity
  8
0
100
AcDbPolyline
 70
0
 90
2
 10
526561.473794049
 20
4168059.75578805
 10
526522.80737366
 20
4168059.09927617
  0
LWPOLYLINE
  5
2005B
100
AcDbEntity
  8
0
100
AcDbPolyline
 70
0
 90
2
 10
526522.923882475
 20
4168111.88698681
 10
526481.486732275
 20
4168111.03760943
  0
LWPOLYLINE
  5
2005C
100
AcDbEntity
  8
0
100
AcDbPolyline
 70
0
 90
2
 10
526561.70186997
 20
4168112.57936278
 10
526522.923882475
 20
4168111.88698681
  0
LWPOLYLINE
  5
2005D
100
AcDbEntity
  8
0
100
AcDbPolyline
 70
0
 90
2
 10
526481.486732275
 20
4168111.03760943
 10
526480.984946377
 20
4168058.38946019
  0
LWPOLYLINE
  5
2005E
100
AcDbEntity
  8
0
100
AcDbPolyline
 70
0
 90
2
 10
526400.996284197
 20
4168109.38824766
 10
526361.889804265
 20
4168108.58718299
  0
LWPOLYLINE
  5
2005F
100
AcDbEntity
  8
0
100
AcDbPolyline
 70
0
 90
2
 10
526400.996284197
 20
4168109.38824766
 10
526400.500841069
 20
4168057.0241528
  0
LWPOLYLINE
  5
20060
100
AcDbEntity
  8
0
100
AcDbPolyline
 70
0
 90
2
 10
526361.889804265
 20
4168108.58718299
 10
526321.439638973
 20
4168107.75883925
  0
LWPOLYLINE
  5
20061
100
AcDbEntity
  8
0
100
AcDbPolyline
 70
0
 90
2
 10
526361.889804265
 20
4168108.58718299
 10
526361.427542228
 20
4168056.3615495
  0
LWPOLYLINE
  5
20062
100
AcDbEntity
  8
0
100
AcDbPolyline
 70
0
 90
2
 10
526321.439638973
 20
4168107.75883925
 10
526282.09122292
 20
4168106.95316609
  0
LWPOLYLINE
  5
20063
100
AcDbEntity
  8
0
100
AcDbPolyline
 70
0
 90
2
 10
526321.439638973
 20
4168107.75883925
 10
526321.040435205
 20
4168055.67686559
  0
LWPOLYLINE
  5
20064
100
AcDbEntity
  8
0
100
AcDbPolyline
 70
0
 90
2
 10
526282.09122292
 20
4168106.95316609
 10
526281.187982123
 20
4168055.00140021
  0
LWPOLYLINE
  5
20065
100
AcDbEntity
  8
0
100
AcDbPolyline
 70
0
 90
2
 10
526241.069440895
 20
4168106.11352493
 10
526282.09122292
 20
4168106.95316609
  0
LWPOLYLINE
  5
20066
100
AcDbEntity
  8
0
100
AcDbPolyline
 70
0
 90
2
 10
526241.069440895
 20
4168106.11352493
 10
526199.375856546
 20
4168105.26030987
  0
LWPOLYLINE
  5
20067
100
AcDbEntity
  8
0
100
AcDbPolyline
 70
0
 90
2
 10
526241.069440895
 20
4168106.11352493
 10
526240.628437094
 20
4168054.31423124
  0
LWPOLYLINE
  5
20068
100
AcDbEntity
  8
0
100
AcDbPolyline
 70
0
 90
2
 10
526199.375856546
 20
4168105.26030987
 10
526198.838036229
 20
4168078.96047186
  0
LWPOLYLINE
  5
20069
100
AcDbEntity
  8
0
100
AcDbPolyline
 70
0
 90
2
 10
526158.494823837
 20
4168104.42385408
 10
526199.375856546
 20
4168105.26030987
  0
LWPOLYLINE
  5
2006A
100
AcDbEntity
  8
0
100
AcDbPolyline
 70
0
 90
2
 10
526158.494823837
 20
4168104.42385408
 10
526120.558944448
 20
4168103.64793628
  0
LWPOLYLINE
  5
2006B
100
AcDbEntity
  8
0
100
AcDbPolyline
 70
0
 90
2
 10
526158.494823837
 20
4168104.42385408
 10
526158.680022799
 20
4168078.32756452
  0
LWPOLYLINE
  5
2006C
100
AcDbEntity
  8
0
100
AcDbPolyline
 70
0
 90
2
 10
526120.558944448
 20
4168103.64793628
 10
526081.7692251
 20
4168102.85463316
  0
LWPOLYLINE
  5
2006D
100
AcDbEntity
  8
0
100
AcDbPolyline
 70
0
 90
2
 10
526120.558944448
 20
4168103.64793628
 10
526120.679688505
 20
4168077.73040109
  0
LWPOLYLINE
  5
2006E
100
AcDbEntity
  8
0
100
AcDbPolyline
 70
0
 90
2
 10
526081.7692251
 20
4168102.85463316
 10
526044.028514318
 20
4168102.08301031
  0
LWPOLYLINE
  5
2006F
100
AcDbEntity
  8
0
100
AcDbPolyline
 70
0
 90
2
 10
526081.7692251
 20
4168102.85463316
 10
526081.540304745
 20
4168076.51583911
  0
LWPOLYLINE
  5
20070
100
AcDbEntity
  8
0
100
AcDbPolyline
 70
0
 90
2
 10
526044.028514318
 20
4168102.08301031
 10
526043.814048452
 20
4168075.345298
  0
LWPOLYLINE
  5
20071
100
AcDbEntity
  8
0
100
AcDbPolyline
 70
0
 90
2
 10
526004.631282339
 20
4168101.27772717
 10
526044.028514318
 20
4168102.08301031
  0
LWPOLYLINE
  5
20072
100
AcDbEntity
  8
0
100
AcDbPolyline
 70
0
 90
2
 10
526004.631282339
 20
4168101.27772717
 10
525966.188159175
 20
4168100.49215804
  0
LWPOLYLINE
  5
20073
100
AcDbEntity
  8
0
100
AcDbPolyline
 70
0
 90
3
 10
526004.631282339
 20
4168101.27772717
 10
526004.641572216
 20
4168074.1301083
 10
526043.814048452
 20
4168075.345298
  0
LWPOLYLINE
  5
20074
100
AcDbEntity
  8
0
100
AcDbPolyline
 70
0
 90
2
 10
525966.188159175
 20
4168100.49215804
 10
525925.541692958
 20
4168099.6616954
  0
LWPOLYLINE
  5
20075
100
AcDbEntity
  8
0
100
AcDbPolyline
 70
0
 90
2
 10
525966.188159175
 20
4168100.49215804
 10
525966.195454883
 20
4168072.9375768
  0
LWPOLYLINE
  5
20076
100
AcDbEntity
  8
0
100
AcDbPolyline
 70
0
 90
2
 10
525925.541692958
 20
4168099.6616954
 10
525904.953954515
 20
4168099.24116177
  0
LWPOLYLINE
  5
20077
100
AcDbEntity
  8
0
100
AcDbPolyline
 70
0
 90
2
 10
525925.541692958
 20
4168099.6616954
 10
525925.115049934
 20
4168071.66363096
  0
LWPOLYLINE
  5
20078
100
AcDbEntity
  8
0
100
AcDbPolyline
 70
0
 90
2
 10
525966.195454883
 20
4168072.9375768
 10
525925.115049934
 20
4168071.66363096
  0
LWPOLYLINE
  5
20079
100
AcDbEntity
  8
0
100
AcDbPolyline
 70
0
 90
2
 10
525966.195454883
 20
4168072.9375768
 10
526043.814048452
 20
4168075.345298
  0
LWPOLYLINE
  5
2007A
100
AcDbEntity
  8
0
100
AcDbPolyline
 70
0
 90
2
 10
526081.540304745
 20
4168076.51583911
 10
526043.814048452
 20
4168075.345298
  0
LWPOLYLINE
  5
2007B
100
AcDbEntity
  8
0
100
AcDbPolyline
 70
0
 90
2
 10
526120.679688505
 20
4168077.73040109
 10
526081.540304745
 20
4168076.51583911
  0
LWPOLYLINE
  5
2007C
100
AcDbEntity
  8
0
100
AcDbPolyline
 70
0
 90
2
 10
526120.679688505
 20
4168077.73040109
 10
526120.190183551
 20
4168050.63057331
  0
LWPOLYLINE
  5
2007D
100
AcDbEntity
  8
0
100
AcDbPolyline
 70
0
 90
2
 10
526120.679688505
 20
4168077.73040109
 10
526158.680022799
 20
4168078.32756452
  0
LWPOLYLINE
  5
2007E
100
AcDbEntity
  8
0
100
AcDbPolyline
 70
0
 90
2
 10
526198.838036229
 20
4168078.96047186
 10
526198.590502831
 20
4168053.60282992
  0
LWPOLYLINE
  5
2007F
100
AcDbEntity
  8
0
100
AcDbPolyline
 70
0
 90
2
 10
526198.838036229
 20
4168078.96047186
 10
526158.680022799
 20
4168078.32756452
  0
LWPOLYLINE
  5
20080
100
AcDbEntity
  8
0
100
AcDbPolyline
 70
0
 90
2
 10
526198.590502831
 20
4168053.60282992
 10
526198.346812449
 20
4168028.72981824
  0
LWPOLYLINE
  5
20081
100
AcDbEntity
  8
0
100
AcDbPolyline
 70
0
 90
2
 10
526198.590502831
 20
4168053.60282992
 10
526158.696752447
 20
4168052.09228119
  0
LWPOLYLINE
  5
20082
100
AcDbEntity
  8
0
100
AcDbPolyline
 70
0
 90
2
 10
526240.628437094
 20
4168054.31423124
 10
526198.590502831
 20
4168053.60282992
  0
LWPOLYLINE
  5
20083
100
AcDbEntity
  8
0
100
AcDbPolyline
 70
0
 90
2
 10
526198.346812449
 20
4168028.72981824
 10
526158.712075596
 20
4168028.03067061
  0
LWPOLYLINE
  5
20084
100
AcDbEntity
  8
0
100
AcDbPolyline
 70
0
 90
2
 10
526197.655760584
 20
4167946.5392186
 10
526197.069892225
 20
4167892.485482
  0
LWPOLYLINE
  5
20085
100
AcDbEntity
  8
0
100
AcDbPolyline
 70
0
 90
2
 10
526197.655760584
 20
4167946.5392186
 10
526157.343914821
 20
4167945.98316625
  0
LWPOLYLINE
  5
20086
100
AcDbEntity
  8
0
100
AcDbPolyline
 70
0
 90
2
 10
526239.012281671
 20
4167948.1005228
 10
526197.655760584
 20
4167946.5392186
  0
LWPOLYLINE
  5
20087
100
AcDbEntity
  8
0
100
AcDbPolyline
 70
0
 90
2
 10
526197.069892225
 20
4167892.485482
 10
526196.503336516
 20
4167840.2119574
  0
LWPOLYLINE
  5
20088
100
AcDbEntity
  8
0
100
AcDbPolyline
 70
0
 90
2
 10
526197.069892225
 20
4167892.485482
 10
526156.442838542
 20
4167891.9461896
  0
LWPOLYLINE
  5
20089
100
AcDbEntity
  8
0
100
AcDbPolyline
 70
0
 90
2
 10
526238.514214549
 20
4167893.03577641
 10
526197.069892225
 20
4167892.485482
  0
LWPOLYLINE
  5
2008A
100
AcDbEntity
  8
0
100
AcDbPolyline
 70
0
 90
2
 10
526238.042248969
 20
4167840.86195534
 10
526196.503336516
 20
4167840.2119574
  0
LWPOLYLINE
  5
2008B
100
AcDbEntity
  8
0
100
AcDbPolyline
 70
0
 90
2
 10
526238.042248969
 20
4167840.86195534
 10
526279.579921455
 20
4167841.51226893
  0
LWPOLYLINE
  5
2008C
100
AcDbEntity
  8
0
100
AcDbPolyline
 70
0
 90
2
 10
526238.514214549
 20
4167893.03577641
 10
526238.042248969
 20
4167840.86195534
  0
LWPOLYLINE
  5
2008D
100
AcDbEntity
  8
0
100
AcDbPolyline
 70
0
 90
2
 10
526279.768582811
 20
4167866.55862435
 10
526279.579921455
 20
4167841.51226893
  0
LWPOLYLINE
  5
2008E
100
AcDbEntity
  8
0
100
AcDbPolyline
 70
0
 90
2
 10
526279.768582811
 20
4167866.55862435
 10
526319.592797779
 20
4167866.83035951
  0
LWPOLYLINE
  5
2008F
100
AcDbEntity
  8
0
100
AcDbPolyline
 70
0
 90
2
 10
526279.972204393
 20
4167893.58643287
 10
526279.768582811
 20
4167866.55862435
  0
LWPOLYLINE
  5
20090
100
AcDbEntity
  8
0
100
AcDbPolyline
 70
0
 90
2
 10
526280.379669191
 20
4167947.68110744
 10
526279.972204393
 20
4167893.58643287
  0
LWPOLYLINE
  5
20091
100
AcDbEntity
  8
0
100
AcDbPolyline
 70
0
 90
2
 10
526238.514214549
 20
4167893.03577641
 10
526279.972204393
 20
4167893.58643287
  0
LWPOLYLINE
  5
20092
100
AcDbEntity
  8
0
100
AcDbPolyline
 70
0
 90
2
 10
526319.801996988
 20
4167894.11569616
 10
526279.972204393
 20
4167893.58643287
  0
LWPOLYLINE
  5
20093
100
AcDbEntity
  8
0
100
AcDbPolyline
 70
0
 90
2
 10
526239.012281671
 20
4167948.1005228
 10
526280.379669191
 20
4167947.68110744
  0
LWPOLYLINE
  5
20094
100
AcDbEntity
  8
0
100
AcDbPolyline
 70
0
 90
2
 10
526320.216808601
 20
4167948.23125638
 10
526280.379669191
 20
4167947.68110744
  0
LWPOLYLINE
  5
20095
100
AcDbEntity
  8
0
100
AcDbPolyline
 70
0
 90
2
 10
526321.040435205
 20
4168055.67686559
 10
526281.187982123
 20
4168055.00140021
  0
LWPOLYLINE
  5
20096
100
AcDbEntity
  8
0
100
AcDbPolyline
 70
0
 90
2
 10
526240.628437094
 20
4168054.31423124
 10
526281.187982123
 20
4168055.00140021
  0
LWPOLYLINE
  5
20097
100
AcDbEntity
  8
0
100
AcDbPolyline
 70
0
 90
2
 10
526239.012281671
 20
4167948.1005228
 10
526238.514214549
 20
4167893.03577641
  0
LWPOLYLINE
  5
20098
100
AcDbEntity
  8
0
100
AcDbPolyline
 70
0
 90
2
 10
525964.747135118
 20
4168024.6170059
 10
526042.681333944
 20
4168025.98801481
  0
LWPOLYLINE
  5
20099
100
AcDbEntity
  8
0
100
AcDbPolyline
 70
0
 90
2
 10
526004.220937952
 20
4168025.31127855
 10
525964.747135118
 20
4168024.6170059
  0
LWPOLYLINE
  5
2009A
100
AcDbEntity
  8
0
100
AcDbPolyline
 70
0
 90
2
 10
526081.135639526
 20
4168026.6647998
 10
526042.681333944
 20
4168025.98801481
  0
LWPOLYLINE
  5
2009B
100
AcDbEntity
  8
0
100
AcDbPolyline
 70
0
 90
2
 10
526119.76951269
 20
4168027.34488242
 10
526081.135639526
 20
4168026.6647998
  0
LWPOLYLINE
  5
2009C
100
AcDbEntity
  8
0
100
AcDbPolyline
 70
0
 90
2
 10
526119.76951269
 20
4168027.34488242
 10
526158.712075596
 20
4168028.03067061
  0
LWPOLYLINE
  5
2009D
100
AcDbEntity
  8
0
100
AcDbPolyline
 70
0
 90
2
 10
526120.190183551
 20
4168050.63057331
 10
526119.76951269
 20
4168027.34488242
  0
LWPOLYLINE
  5
2009E
100
AcDbEntity
  8
0
100
AcDbPolyline
 70
0
 90
2
 10
526158.696752447
 20
4168052.09228119
 10
526158.712075596
 20
4168028.03067061
  0
LWPOLYLINE
  5
2009F
100
AcDbEntity
  8
0
100
AcDbPolyline
 70
0
 90
2
 10
526079.604456546
 20
4167944.91125458
 10
526040.916135741
 20
4167944.25670932
  0
LWPOLYLINE
  5
200A0
100
AcDbEntity
  8
0
100
AcDbPolyline
 70
0
 90
3
 10
526011.500856811
 20
4167964.93567312
 10
526011.559453528
 20
4167943.97373424
 10
526040.916135741
 20
4167944.25670932
  0
LWPOLYLINE
  5
200A1
100
AcDbEntity
  8
0
100
AcDbPolyline
 70
0
 90
2
 10
526079.604456546
 20
4167944.91125458
 10
526079.017553886
 20
4167913.57439195
  0
LWPOLYLINE
  5
200A2
100
AcDbEntity
  8
0
100
AcDbPolyline
 70
0
 90
2
 10
526118.290068885
 20
4167945.44459614
 10
526079.604456546
 20
4167944.91125458
  0
LWPOLYLINE
  5
200A3
100
AcDbEntity
  8
0
100
AcDbPolyline
 70
0
 90
2
 10
526118.290068885
 20
4167945.44459614
 10
526157.343914821
 20
4167945.98316625
  0
LWPOLYLINE
  5
200A4
100
AcDbEntity
  8
0
100
AcDbPolyline
 70
0
 90
2
 10
526118.290068885
 20
4167945.44459614
 10
526117.722537603
 20
4167914.02513507
  0
LWPOLYLINE
  5
200A5
100
AcDbEntity
  8
0
100
AcDbPolyline
 70
0
 90
2
 10
526157.343914821
 20
4167945.98316625
 10
526156.442838542
 20
4167891.9461896
  0
LWPOLYLINE
  5
200A6
100
AcDbEntity
  8
0
100
AcDbPolyline
 70
0
 90
2
 10
526320.216808601
 20
4167948.23125638
 10
526319.801996988
 20
4167894.11569616
  0
LWPOLYLINE
  5
200A7
100
AcDbEntity
  8
0
100
AcDbPolyline
 70
0
 90
2
 10
526360.475366122
 20
4167948.78737808
 10
526320.216808601
 20
4167948.23125638
  0
LWPOLYLINE
  5
200A8
100
AcDbEntity
  8
0
100
AcDbPolyline
 70
0
 90
2
 10
526360.475366122
 20
4167948.78737808
 10
526359.996145147
 20
4167894.64997361
  0
LWPOLYLINE
  5
200A9
100
AcDbEntity
  8
0
100
AcDbPolyline
 70
0
 90
2
 10
526399.481826775
 20
4167949.3263859
 10
526360.475366122
 20
4167948.78737808
  0
LWPOLYLINE
  5
200AA
100
AcDbEntity
  8
0
100
AcDbPolyline
 70
0
 90
2
 10
526399.481826775
 20
4167949.3263859
 10
526398.969409478
 20
4167895.16823483
  0
LWPOLYLINE
  5
200AB
100
AcDbEntity
  8
0
100
AcDbPolyline
 70
0
 90
2
 10
526479.784438261
 20
4167950.43092212
 10
526477.752163529
 20
4167896.21630596
  0
LWPOLYLINE
  5
200AC
100
AcDbEntity
  8
0
100
AcDbPolyline
 70
0
 90
2
 10
526501.925542434
 20
4167950.74302986
 10
526479.784438261
 20
4167950.43092212
  0
LWPOLYLINE
  5
200AD
100
AcDbEntity
  8
0
100
AcDbPolyline
 70
0
 90
3
 10
526501.925542434
 20
4167950.74302986
 10
526501.09212166
 20
4167896.52703323
 10
526477.752163529
 20
4167896.21630596
  0
LWPOLYLINE
  5
200AE
100
AcDbEntity
  8
0
100
AcDbPolyline
 70
0
 90
2
 10
526398.969409478
 20
4167895.16823483
 10
526359.996145147
 20
4167894.64997361
  0
LWPOLYLINE
  5
200AF
100
AcDbEntity
  8
0
100
AcDbPolyline
 70
0
 90
2
 10
526359.996145147
 20
4167894.64997361
 10
526319.801996988
 20
4167894.11569616
  0
LWPOLYLINE
  5
200B0
100
AcDbEntity
  8
0
100
AcDbPolyline
 70
0
 90
2
 10
526359.996145147
 20
4167894.64997361
 10
526359.752360925
 20
4167867.10446452
  0
LWPOLYLINE
  5
200B1
100
AcDbEntity
  8
0
100
AcDbPolyline
 70
0
 90
2
 10
526319.801996988
 20
4167894.11569616
 10
526319.592797779
 20
4167866.83035951
  0
LWPOLYLINE
  5
200B2
100
AcDbEntity
  8
0
100
AcDbPolyline
 70
0
 90
3
 10
526117.722537603
 20
4167914.02513507
 10
526117.314319438
 20
4167891.42702781
 10
526156.442838542
 20
4167891.9461896
  0
LWPOLYLINE
  5
200B3
100
AcDbEntity
  8
0
100
AcDbPolyline
 70
0
 90
2
 10
526117.722537603
 20
4167914.02513507
 10
526079.017553886
 20
4167913.57439195
  0
LWPOLYLINE
  5
200B4
100
AcDbEntity
  8
0
100
AcDbPolyline
 70
0
 90
2
 10
526120.190183551
 20
4168050.63057331
 10
526158.696752447
 20
4168052.09228119
  0
LWPOLYLINE
  5
200B5
100
AcDbEntity
  8
0
100
AcDbPolyline
 70
0
 90
2
 10
526319.592797779
 20
4167866.83035951
 10
526359.752360925
 20
4167867.10446452
  0
LWPOLYLINE
  5
200B6
100
AcDbEntity
  8
0
100
AcDbPolyline
 70
0
 90
2
 10
526361.427542228
 20
4168056.3615495
 10
526321.040435205
 20
4168055.67686559
  0
LWPOLYLINE
  5
200B7
100
AcDbEntity
  8
0
100
AcDbPolyline
 70
0
 90
2
 10
526400.500841069
 20
4168057.0241528
 10
526361.427542228
 20
4168056.3615495
  0
LWPOLYLINE
  5
200B8
100
AcDbEntity
  8
0
100
AcDbPolyline
 70
0
 90
2
 10
526561.473794049
 20
4168059.75578805
 10
526561.357127432
 20
4168032.74720901
  0
LWPOLYLINE
  5
200B9
100
AcDbEntity
  8
0
100
AcDbPolyline
 70
0
 90
2
 10
526561.70186997
 20
4168112.57936278
 10
526561.473794049
 20
4168059.75578805
  0
LWPOLYLINE
  5
200BA
100
AcDbEntity
  8
0
100
AcDbPolyline
 70
0
 90
3
 10
526576.134866556
 20
4168112.83707864
 10
526577.048121999
 20
4168060.02016542
 10
526561.473794049
 20
4168059.75578805
  0
LWPOLYLINE
  5
200BB
100
AcDbEntity
  8
0
100
AcDbPolyline
 70
0
 90
2
 10
526576.134866556
 20
4168112.83707864
 10
526561.70186997
 20
4168112.57936278
  0
LWPOLYLINE
  5
200BC
100
AcDbEntity
  8
0
100
AcDbPolyline
 70
0
 90
2
 10
525964.626182936
 20
4167971.34892554
 10
525964.467305144
 20
4167964.05010491
  0
LWPOLYLINE
  5
200BD
100
AcDbEntity
  8
0
100
AcDbPolyline
 70
0
 90
2
 10
526003.955884303
 20
4167964.79356976
 10
525964.467305144
 20
4167964.05010491
  0
LWPOLYLINE
  5
200BE
100
AcDbEntity
  8
0
100
AcDbPolyline
 70
0
 90
2
 10
526011.500856811
 20
4167964.93567312
 10
526003.955884303
 20
4167964.79356976
  0
LWPOLYLINE
  5
200BF
100
AcDbEntity
  8
0
100
AcDbPolyline
 70
0
 90
2
 10
526158.680022799
 20
4168078.32756452
 10
526158.696752447
 20
4168052.09228119
  0
ENDSEC
  0
SECTION
  2
OBJECTS
  0
DICTIONARY
  5
C
330
0
100
AcDbDictionary
281
     1
  3
ACAD_GROUP
350
D
  3
ACAD_LAYOUT
350
1A
  3
ACAD_MLEADERSTYLE
350
43
  3
ACAD_PLOTSETTINGS
350
19
  3
ACAD_PLOTSTYLENAME
350
E
  3
ACAD_TABLESTYLE
350
42
  0
DICTIONARY
  5
D
102
{ACAD_REACTORS
330
C
102
}
330
C
100
AcDbDictionary
281
     1
  0
DICTIONARY
  5
1A
102
{ACAD_REACTORS
330
C
102
}
330
C
100
AcDbDictionary
281
     1
  3
Layout1
350
1E
  3
Model
350
22
  0
DICTIONARY
  5
43
102
{ACAD_REACTORS
330
C
102
}
330
C
100
AcDbDictionary
281
     1
  0
DICTIONARY
  5
19
102
{ACAD_REACTORS
330
C
102
}
330
C
100
AcDbDictionary
281
     1
  0
ACDBDICTIONARYWDFLT
  5
E
102
{ACAD_REACTORS
330
C
102
}
330
C
100
AcDbDictionary
281
     1
  3
Normal
350
F
100
AcDbDictionaryWithDefault
340
F
  0
DICTIONARY
  5
42
102
{ACAD_REACTORS
330
C
102
}
330
C
100
AcDbDictionary
281
     1
  0
LAYOUT
  5
1E
102
{ACAD_REACTORS
330
1A
102
}
330
1A
100
AcDbPlotSettings
  1

  2
none_device
  4

  6

 40
0.0
 41
0.0
 42
0.0
 43
0.0
 44
0.0
 45
0.0
 46
0.0
 47
0.0
 48
0.0
 49
0.0
140
0.0
141
0.0
142
1.0
143
1.0
 70
   688
 72
     0
 73
     0
 74
     5
  7

 75
    16
 76
     0
 77
     2
 78
   300
147
1.0
148
0.0
149
0.0
100
AcDbLayout
  1
Layout1
 70
     1
 71
     1
 10
0.0
 20
0.0
 11
12.0
 21
9.0
 12
0.0
 22
0.0
 32
0.0
 14
1.000000000000000E+20
 24
1.000000000000000E+20
 34
1.000000000000000E+20
 15
-1.000000000000000E+20
 25
-1.000000000000000E+20
 35
-1.000000000000000E+20
146
0.0
 13
0.0
 23
0.0
 33
0.0
 16
1.0
 26
0.0
 36
0.0
 17
0.0
 27
1.0
 37
0.0
 76
     0
330
1B
  0
LAYOUT
  5
22
102
{ACAD_REACTORS
330
1A
102
}
330
1A
100
AcDbPlotSettings
  1

  2
none_device
  4

  6

 40
0.0
 41
0.0
 42
0.0
 43
0.0
 44
0.0
 45
0.0
 46
0.0
 47
0.0
 48
0.0
 49
0.0
140
0.0
141
0.0
142
1.0
143
1.0
 70
  1712
 72
     0
 73
     0
 74
     0
  7

 75
     0
 76
     0
 77
     2
 78
   300
147
1.0
148
0.0
149
0.0
100
AcDbLayout
  1
Model
 70
     1
 71
     0
 10
0.0
 20
0.0
 11
12.0
 21
9.0
 12
0.0
 22
0.0
 32
0.0
 14
30.0
 24
49.75
 34
0.0
 15
130.5
 25
163.1318914119703
 35
0.0
146
0.0
 13
0.0
 23
0.0
 33
0.0
 16
1.0
 26
0.0
 36
0.0
 17
0.0
 27
1.0
 37
0.0
 76
     0
330
1F
331
29
  0
ENDSEC
  0
EOF
